<svg xmlns="http://www.w3.org/2000/svg" width="458.713" height="689.176" viewBox="17.722 399.084 344.035 516.882"><g fill="none" stroke="#000" stroke-linecap="round" stroke-linejoin="round"><path opacity=".7" stroke-width="3.4" d="M141.725 426.722q-.021.091-.723.86-.703.769-.679.827.023.057-.091.104-.114.046-.548.752-.433.706-.734 1.747-.301 1.042-.621 2.652-.319 1.61-.667 3.094-.347 1.484-.726 2.84-.38 1.356-.85 2.851-.471 1.496-1.001 3.14-.531 1.643-.966 3.091-.435 1.447-.761 2.701-.327 1.254-.66 2.507-.334 1.252-.693 2.499-.36 1.246-.581 3.022-.221 1.776-.324 4.077-.066 1.147-.166 2.22-.101 1.073-.233 2.074-.133 1-.295 1.928-.161.928-.352 1.783-.19.856-.447 1.794-.257.939-.58 1.959-.323 1.021-.72 2.132-.396 1.111-.866 2.313-.47 1.201-.939 2.594-.469 1.393-.82 2.582l-.617 2.092-.568 1.92-.633 2.143-.7 2.368q-.367 1.239-.722 2.429-.354 1.191-.697 2.331-.343 1.141-.674 2.233-.331 1.091-.65 2.134-.319 1.042-.586 1.952-.268.91-.593 2.077-.324 1.168-.552 2.196-.228 1.028-.385 1.817-.157.789-.286 1.615-.129.825-.08 1.16.049.335-.078 1.017-.127.681-.397 1.58t-.531 1.742q-.261.843-.603 1.93-.343 1.087-.701 2.255-.358 1.169-.731 2.42-.374 1.25-.698 2.36-.324 1.11-.598 2.079-.275.97-.548 1.96-.274.99-.546 2.001-.273 1.011-.551 1.948-.279.937-.705 2.23-.426 1.294-.828 1.679-.403.386-.768 1.336-.365.949-.712 2.18-.347 1.232-.622 2.236-.275 1.003-.593 2.19-.319 1.186-.681 2.556-.363 1.369-.769 2.921-.406 1.552-.793 3.017-.388 1.464-.758 2.841-.37 1.377-.722 2.666-.351 1.289-.685 2.49l-.643 2.315-.594 2.142-.544 1.967-.614 2.221q-.353 1.28-.766 2.764-.412 1.485-.766 2.748-.354 1.263-.706 2.509l-.699 2.475q-.349 1.23-.622 2.178-.273.949-.471 1.617-.198.668-.549 1.78-.35 1.113-.728 2.281-.377 1.168-.675 2.085l-.643 1.974-.735 2.253-.829 2.53-.863 2.634-.839 2.566-.814 2.496-.79 2.428-.766 2.358-.741 2.29-.717 2.22-.693 2.152q-.34 1.058-.688 2.132-.348 1.074-.703 2.163l-.717 2.195-.732 2.225-.747 2.256-.762 2.286-.777 2.318q-.391 1.167-.791 2.349-.399 1.182-.769 2.294-.369 1.113-.709 2.156-.34 1.042-.651 2.016-.31.973-.591 1.877-.281.904-.553 1.816-.271.912-.533 1.834-.262.921-.515 1.851-.253.93-.495 1.869-.243.938-.462 1.75-.218.811-.509 1.836-.292 1.026-.584 1.88-.293.854-.652 1.846-.359.992-.783 2.124l-.957 2.55q-.533 1.419-1.169 3.132-.635 1.713-1.169 3.241-.535 1.528-.972 2.867-.436 1.34-.844 2.722t-.785 2.81q-.377 1.428-.661 2.773-.284 1.346-.479 2.606-.196 1.26-.428 2.721-.232 1.461-.406 2.616-.175 1.155-.37 2.491l-.379 2.606q-.184 1.271-.362 2.472-.177 1.201-.352 2.327t-.351 2.175q-.176 1.049-.371 2.128-.195 1.08-.414 2.186-.22 1.105-.467 2.233-.248 1.127-.53 2.27-.282 1.143-.565 2.197-.284 1.055-.566 2.025-.282.969-.556 1.861-.275.892-.688 2.097-.413 1.206-.992 2.813-.579 1.606-1.189 3.21-.611 1.603-1.232 3.125t-1.232 2.986q-.611 1.463-1.012 2.508-.4 1.045-.592 1.666-.192.622-.528 1.577-.335.955-.803 2.26-.467 1.305-.897 2.583-.431 1.279-.827 2.526-.397 1.248-.828 2.691-.431 1.443-.895 3.08t-.89 3.188l-.825 3q-.399 1.45-.75 2.69-.35 1.241-.605 2.111-.254.87-.53 1.782-.275.912-.555 1.798-.28.885-.566 1.74-.285.855-.575 1.684t-.733 2.028q-.443 1.199-1.031 2.739-.589 1.54-1.169 3.031-.58 1.49-1.137 2.948t-1.074 2.902q-.517 1.444-.951 2.757-.434 1.313-.78 2.499-.347 1.186-.666 2.47-.32 1.283-.601 2.671-.281 1.388-.538 2.729-.258 1.342-.509 2.63-.25 1.287-.523 2.58-.273 1.293-.485 2.269-.213.976-.466 2.063-.253 1.087-.481 2.119-.227 1.032-.434 2.004-.207.973-.393 1.886-.186.912-.43 2.19t-.568 2.64q-.324 1.361-.599 2.387-.275 1.026-.528 1.907-.253.88-.588 1.985-.335 1.104-.913 2.207-.578 1.102-1.457 2.223l.036.012q-.007-.036.034-.281.041-.244.12-.41M353.021 489.185l.024-.083-.357-.103q.14.278-.228 1.829-.369 1.551-1.246 4.375-.878 2.825-1.574 5.047-.697 2.222-1.473 4.653-.775 2.43-1.588 3.824-.812 1.393-2.103 5.096-1.291 3.703-1.831 5.559-.539 1.856-.47 4.222.069 2.366-1.142 5.329-1.21 2.963-2.073 6.223t-1.118 5.191q-.255 1.93-.283 4.786-.028 2.856-.523 5.594-.494 2.738-1.459 6.307-.965 3.57-1.68 6.33-.716 2.76-1.463 5.696-.746 2.936-1.519 4.424-.773 1.487-1.401 3.034-.627 1.547-1.374 3.648-.747 2.102-1.484 4.65-.737 2.548-1.46 5.543-.722 2.995-1.405 5.33t-1.642 4.847q-.959 2.512-1.714 5.28-.754 2.768-1.324 4.966-.569 2.198-1.206 4.749-.637 2.551-1.237 4.781-.601 2.229-1.166 4.138-.565 1.908-1.18 3.826-.616 1.918-1.282 3.846-.666 1.928-1.116 3.496-.451 1.569-.802 3.382-.352 1.813-.649 3.165-.297 1.352-.825 3.067t-1.01 3.472q-.482 1.758-1.094 4.13-.612 2.371-1.165 4.4-.553 2.03-1.294 4.559-.742 2.53-1.901 6.114-1.16 3.583-2.106 6.334-.946 2.751-1.771 4.908-.825 2.156-1.465 3.862-.641 1.706-1.372 3.679-.731 1.974-1.328 3.706-.597 1.732-1.29 3.969-.694 2.237-1.568 5.57-.874 3.334-1.501 5.896-.627 2.561-1.196 5.247-.57 2.685-1.688 6.125-1.118 3.441-2.151 7.121-1.034 3.68-1.918 6.774-.884 3.094-1.964 6.828-1.08 3.735-1.877 6.498-.797 2.763-1.569 5.452-.772 2.688-1.549 5.382-.776 2.693-1.219 4.213-.443 1.519-.924 3.41-.482 1.89-1.557 4.948-.537 1.529-1.167 3.385-.63 1.856-1.354 4.039-.723 2.183-1.38 4.21-.657 2.026-1.246 3.895-.59 1.87-1.23 3.947-.641 2.078-1.325 4.365-.684 2.287-1.293 4.334-.608 2.047-1.137 3.855-.529 1.807-1.077 3.706-.549 1.898-1.104 3.891-.555 1.994-.973 3.7-.418 1.706-.874 3.824t-1.372 4.502q-.917 2.383-1.577 4.993-.661 2.61-1.715 6.139-1.055 3.529-1.894 5.937-.84 2.408-1.531 4.305-.692 1.897-1.47 4.099-.779 2.202-1.388 4.106-.61 1.904-1.309 4.301-.7 2.398-1.115 3.68-.415 1.282-.486 1.552-.072.27-.462 1.54t-.869 2.763q-.479 1.494-.56 1.609-.082.115-.422 1.115l-.99 2.916q-.651 1.916-1.197 3.432-.546 1.515-1.185 3.197-.638 1.682-.71 3.209-.071 1.527-.978 6.86l-.252-.29M42.914 856.669q-1.678.314-1.056.232-.398.696-.427.752-.03.057.011.067-.885.906 1.081.675 1.965-.232 3.661.103t3.781 1.142q2.084.807 3.676 1.503 1.591.695 3.241 1.584 1.65.89 2.898 1.417 1.248.528 2.845 1.079 1.598.552 3.925 1.381 2.328.829 4.112 1.525 1.785.697 3.066 1.163 1.281.466 2.969 1.219 1.687.754 3.911 1.444t4.198 1.103q1.974.414 3.761 1.048 1.786.634 3.27 1.226 1.483.592 3.284 1.243 1.801.652 3.249 1.094 1.448.442 3.07.906 1.623.464 2.476.559.853.094 2.148.595 1.295.5 3.322 1.419 2.026.918 3.795 1.709 1.768.792 3.471 1.538 1.702.745 3.223 1.164 1.522.42 3.431.761 1.91.342 3.735.807 1.825.464 3.541 1.117 1.715.652 3.356 1.155 1.641.503 3.187.909 1.547.406 2.668.69 1.121.285 2.17.514 1.048.23 2.77.743 1.721.514 3.227.929 1.506.415 3.382.873 1.877.458 3.541.86 1.665.403 3.118.743 1.454.34 2.687.642 1.233.303 2.748.709 1.515.405 2.957.872 1.442.466 2.76.996 1.319.53 1.912.656.593.125.828.116.235-.009 2.415.525 2.181.534 3.779 1.192 1.597.657 2.474.999.876.343 1.435.341.559-.002.932-.125.373-.124 1.213-.645.841-.522 1.33-.898"/><path opacity=".7" stroke-width="3.4" d="M25.811 825.336q.097-.265.025-.649.064-.007.264.01.425-.375.43-.272l.126-.124q.526-.239.073 2.332-.454 2.572-1.122 4.262-.669 1.69-.65 2.293.019.604.438 1.27.418.667.383.289-.035-.379.288.859.322 1.238-.066 2.895t-.285 2.327q.104.67.251.876.146.207.125-.103-.021-.31.435.057.455.366 1.393 1.29.938.923 1.578 1.906.64.982 1.154 2.56.515 1.578 1.372 2.963.857 1.385 2.695 2.698 1.838 1.314 3.463 2.52t3.952 2.02q2.327.815 3.775.938 1.449.124 1.631.528.181.403-1.025.389-1.207-.013-3.556-.768M185.67 900.545q-1.615-.004-3.009.101l.039-.143q.288.059 1.587.808 1.3.748 2.992 1.378 1.693.63 4.239 1.41 2.545.78 4.746 1.37 2.201.589 4.992 1.155 2.791.567 5.603 1.267 2.813.699 5.523-.217 2.709-.916 4.349-1.652 1.64-.735 2.81-1.356 1.171-.622 2.421-1.365 1.251-.744 2.363-1.423 1.112-.68 2.574-1.607 1.462-.927 3.616-2.301 2.155-1.374 3.635-3.34 1.481-1.967 1.92-3.246.44-1.279.32-2.91-.12-1.63-.135-2.711-.015-1.081.274-2.551.289-1.471 2.145.729M141.725 426.722q-.857 1.152-2.17 3.364l.035.011q.292-.371.805-1.374.514-1.002 1.337-2.573.823-1.57 1.488-2.87.666-1.3 1.075-2.404.409-1.103 1.236-2.246t1.621-2.134q.794-.991 1.477-1.662.683-.671 1.532-1.343.849-.673 1.909-1.313 1.059-.64 2.371-1.217 1.312-.577 2.643-1.015 1.332-.438 2.648-.761 1.317-.324 2.597-.55 1.281-.226 2.517-.36l2.223-.243q.988-.109 2.095-.237 1.108-.127 1.588-.202"/><path opacity=".7" stroke-width="3.4" d="M168.018 410.015q1.355.26 2.616.334.084-.457-.12-.935-.204-.478-.484-.87t-.296-.385q-.016.008-.322-.197-.307-.205-1.235-.763-.927-.558-2.005-.406-1.077.151-2.614.819-1.537.668-2.767 1.278-1.231.61-2.154 1.15-.924.54-1.722.985-.798.444-1.47.796-.673.352-1.438.838-.765.486-1.612 1.048-.848.562-1.414.846-.565.283-.858.353"/><path opacity=".7" stroke-width="3.018" d="M170.399 408.939q.078-.212-.043-.797-.699-.946-1.612-1.064-.913-.118-1.647-.012-.735.106-1.597.399-.863.293-1.688.617-.825.323-1.616.68-.792.357-1.555.744-.764.387-1.504.791l-1.541.842q-.801.438-1.683.885-.883.447-1.866.874-.984.428-2.074.826-1.09.397-2.153.754-1.063.356-2.031.739-.968.382-1.805.827-.837.444-1.809 1.296-.972.852-1.679 2.112-.707 1.261-1.117 2.21-.41.95-.819 1.947-.408.996-.782 1.899-.374.904-.908 2.091-.535 1.188-1.018 2.491-.484 1.303-.82 2.095-.337.792-.473 1.129"/><path opacity=".7" stroke-width="3.117" d="M161.138 407.054q-.128.316-.687 1.506-.559 1.189-1.632 3.132-.876-.84-1.113-.935-.236-.096-.219.028.017.124-.364-.01-.38-.135-1.023.105-.642.24-1.744.742-1.102.501-2.347 1.077-1.244.576-2.213 1.079-.968.502-1.998 1.24t-1.936 1.574q-.906.837-1.655 1.755-.749.919-1.356 1.872-.606.953-1.064 1.934-.457.981-.846 2.054-.388 1.074-.736 2.216-.347 1.143-.673 2.338-.326 1.196-.719 2.391-.392 1.195-.799 2.257-.407 1.062-.817 2.009-.41.946-.8 1.797-.39.85-.922 2-.531 1.151-1.018 2.112-.487.962-.711 1.379"/><path opacity=".7" stroke-width="2.977" d="M164.494 409.574q.427-1.443.208-2.887-1.526-.132-1.866-.31-.34-.179-1.284.238-.943.417-2.624 1.226-1.68.81-3.12 1.67-1.44.859-2.64 1.841-1.2.981-2.372 1.946-1.173.964-2.251 1.971-1.079 1.006-1.913 2.122-.835 1.116-1.504 2.276-.669 1.16-1.35 2.537-.682 1.378-1.45 2.911-.769 1.532-1.466 2.882-.698 1.349-1.289 2.545-.592 1.195-1.137 2.477-.546 1.281-1.035 2.658-.488 1.377-.836 2.298-.348.92-.553 1.387"/><path opacity=".7" stroke-width="2.93" d="M151.716 413.306q.266-.14 1.219-.735.954-.595 2.485-1.785.119-.548-.705-.089-.823.459-1.739.983-.916.525-2.195 1.284-1.278.759-2.573 1.773-1.294 1.013-2.162 2.109-.868 1.095-1.442 1.9-.575.806-1.131 1.685-.557.88-1.095 1.82-.537.941-1.035 1.948-.498 1.008-.9 1.981-.401.974-.761 1.884-.36.911-.686 1.759-.326.847-.788 2.01-.462 1.162-1.006 2.438-.544 1.276-.994 2.297-.449 1.022-.852 1.953-.402.932-.759 1.78-.357.847-.677 1.614-.321.766-.769 1.792-.449 1.025-.746 2.106-.297 1.082-.592 2.206-.295 1.124-.401 1.537"/><path opacity=".7" stroke-width="2.952" d="M152.639 414.6q.251-.134 1.233-.776.982-.641 2.696-1.789.01-.113-.072-.333-.082-.22-.548-1.657-.467-1.437-1.444-.939-.978.497-1.851 1.549-.873 1.053-1.598 2.018-.725.964-1.393 1.878-.667.915-1.214 1.724-.547.81-1.219 1.812-.671 1.002-1.483 2.19t-1.706 2.584q-.894 1.395-1.523 2.634-.629 1.239-.973 2.15-.345.912-.636 1.902-.29.99-.554 2.048-.264 1.058-.548 2.168-.283 1.11-.624 2.257-.341 1.148-.751 2.33-.409 1.183-.822 2.252-.413 1.069-.803 2.034-.39.966-.737 1.834-.348.869-.819 2.022-.471 1.153-.997 2.275-.527 1.122-1.185 2.173-.657 1.052-1.148.785-.491-.267-.508-2.169"/><path opacity=".7" stroke-width="2.262" d="M139.934 432.696q-.891 3.09-1.051 2.69-.16-.4-5.177 16.421l-8.262 27.698q-3.245 10.877-4.422 18.174-1.177 7.298-1.34 8.788"/><path opacity=".7" stroke-width="3.382" d="M133.362 450.403q-.21-.017-.919.958-.708.975-1.292 1.986-.584 1.01-1.049 2.063-.465 1.053-.755 1.866-.289.812-.57 1.731-.281.919-.56 1.942-.278 1.022-.563 2.143-.284 1.122-.583 2.34-.298 1.218-.614 2.531-.316 1.313-.651 2.719-.335 1.407-.689 2.907-.355 1.5-.729 3.094l-.768 3.281-.705 3.024-.522 2.25-.428 1.851-.439 1.899-.448 1.945-.458 1.992-.468 2.038-.478 2.086-.488 2.132-.497 2.18-.508 2.226-.517 2.273-.527 2.319-.537 2.367-.547 2.413-.557 2.461-.567 2.507-.576 2.553-.587 2.601-.596 2.648-.606 2.694-.616 2.741-.626 2.788-.635 2.835-.646 2.882-.655 2.928-.666 2.975"/><path opacity=".7" stroke-width="2.175" d="M131.7 459.861q-.547 1.989-.501 1.831.045-.159.195-.93.102-.398-3.615 13.563-3.716 13.961-6.476 24.172t-4.689 17.004q-1.929 6.794-5.276 18.384"/><path opacity=".7" stroke-width="2.233" d="M129.132 467.143q-.187 6.479-.299 9.718-.112 3.239-.109 3.222.46.282-.298-.057-.758-.339-1.096 1.115-.337 1.454-.413 3.011-.077 1.557-.358 3.676-.281 2.119-.936 4.374-.655 2.255-1.168 4.531-.514 2.276-1.011 4.603-.497 2.327-1.29 4.838-.793 2.51-1.557 4.88-.763 2.371-1.101 4.694-.338 2.324-.695 4.279-.358 1.955-.939 4.318-.581 2.363-1.297 5-.717 2.636-1.132 4.279-.416 1.643-1.191 3.827-.775 2.183-1.48 4.093-.704 1.91-1.598 4.275-.894 2.364-1.981 5.182-1.087 2.818-2.049 5.271-.963 2.453-1.655 4.201-.692 1.748-1.435 3.609-.742 1.861-1.536 3.836-.793 1.974-1.636 4.061"/><path opacity=".7" stroke-width="2.178" d="M117.703 520.797q.04-.142.072-.377-.882.675-4.822 14.804-3.94 14.13-6.692 23.397-2.752 9.267-9.091 26.356"/><path opacity=".7" stroke-width="2.223" d="M103.707 565.017q-.428-.743-.493-.518.053-.183.194-.297 2.042 1.12-6.426 26.887-8.469 25.767-8.904 27.007-.436 1.24-.625 1.931-.19.692-3.029 9.68-2.838 8.988-.75-3.043"/><path opacity=".7" stroke-width="2.68" d="M83.674 626.664q.118 1.066.812 8.454-1.875.673 3.476-9.939-.076 1.049-3.023 7.9-2.947 6.851-7.026 16.383-4.079 9.531-6.547 14.927"/><path opacity=".7" stroke-width="2.291" d="M78.027 649.196q-2.079 5.935-3.974 11.132t-3.49 9.687q-1.595 4.49-2.783 8.301-1.187 3.812-1.959 6.947-.773 3.135-1.29 5.575-.518 2.441-1.011 5.035-.493 2.593-.649 3.423-.155.83-.182 1.223-.026.394-.453 2.358-.427 1.965-1.322 5.627t-1.74 7.141q-.845 3.479-1.528 6.042-.684 2.564-1.492 5.376-.808 2.813-1.474 4.98-.665 2.166-1.376 4.441-.711 2.276-.772 2.703"/><path opacity=".7" stroke-width="2.369" d="M71.366 664.389q-.213 1.183.29 4.413.502 3.229-1.471 9.352-1.973 6.122-3.707 11.749-1.735 5.626-4.68 14.941-2.945 9.315-6.796 21.446-3.851 12.132-7.785 24.849-3.935 12.717-4.183 13.83"/><path opacity=".7" stroke-width="2.856" d="M61.359 701.992q-.224.444-.543 2.409-.32 1.966-.832 5.455t-1.061 6.907q-.549 3.419-1.045 6.766"/><path opacity=".7" stroke-width="2.577" d="M58.517 713.371q.111.238-.646 2.54-.756 2.301-1.54 4.543-.784 2.241-1.848 5.19-1.064 2.949-2.101 5.899-1.038 2.95-2.049 5.9-1.01 2.951-1.995 5.902-.984 2.951-1.703 5.165-.718 2.214-1.464 4.595-.746 2.38-1.505 4.844-.758 2.464-1.327 4.334-.569 1.87-1.197 3.968-.628 2.099-1.303 4.429-.675 2.33-1.373 4.9-.698 2.57-1.385 5.39-.687 2.819-1.34 5.895-.653 3.077-1.32 6.395-.667 3.318-1.474 6.841-.808 3.522-1.623 6.284-.816 2.763-1.387 4.658-.572 1.894-1.059 3.877-.487 1.983-.756 4.115-.269 2.131-.316 4.515-.047 2.383.112 5.235.159 2.852-1.171 5.99"/><path opacity=".7" stroke-width="2.652" d="M45.142 761.659q-.558-.251-1.246 1.514-.689 1.765-1.256 3.498-.567 1.733-1.265 3.896t-1.412 4.261q-.715 2.098-1.429 4.225-.714 2.127-1.423 4.307-.708 2.18-1.411 4.416-.703 2.236-1.344 4.988-.641 2.753-1.076 5.205-.434 2.451-.709 4.215-.274 1.763-.533 3.656-.259 1.893-.502 3.914-.244 2.022-.472 4.173"/><path opacity=".7" stroke-width="3.4" d="M30.263 803.461q.376-.484 1.856-2.83-.099-.549-.411 1.027-.312 1.577-.737 4.592-.425 3.015-.948 5.335-.524 2.32-1.353 4.985-.83 2.666-1.906 5.619-1.076 2.954-1.43 5.186-.353 2.232-.343 3.978.01 1.747.307 4.421.297 2.674.952 6.42t2.968 2.222"/><path opacity=".7" stroke-width="3.4" d="M32.119 808.618q-.214.074-.609 1.214-.395 1.141-1.108 3.408-.713 2.267-1.376 4.891-.662 2.624-1.206 4.77-.544 2.145-.762 4.763-.218 2.617-.067 4.769t.335 4.505q.185 2.352.186 2.892"/><path opacity=".7" stroke-width="2.934" d="M134.235 449.273q-.339-.009-.6.614-.261.624-.421 1.889-.16 1.265-.371 2.482-.21 1.218-.451 2.395-.242 1.177-.528 2.554-.285 1.378-.598 2.962-.313 1.584-.58 3.183-.267 1.6-.477 3.219-.21 1.619-.443 3.145t-.489 2.959q-.255 1.434-.534 2.763t-.582 2.554q-.303 1.225-.605 2.371t-.602 2.214q-.301 1.068-.547 2.015-.246.947-.533 2.186-.287 1.24-.592 3.002-.306 1.762-.439 2.122"/><path opacity=".7" stroke-width="2.563" d="M129.742 466.124q-.24.207-1.033 1.925-.794 1.719-.832 3.434-.037 1.715.003 3.877.041 2.161-.187 4.757-.229 2.596-1.102 5.716-.874 3.121-1.908 5.866-1.034 2.745-1.597 4.614-.563 1.868-.779 3.691-.216 1.822-.327 3.488-.111 1.666-.45 4.061-.34 2.394-1.069 5.251-.73 2.857-1.471 5.279-.74 2.421-1.375 4.376-.634 1.955-1.133 3.442-.498 1.488-1.024 3.021-.525 1.534-.606 1.723"/><path opacity=".7" stroke-width="2.383" d="M120.068 514.207q-.065.021-1.255 1.016-1.189.994-1.744 2.518-.555 1.525-1.091 3.676-.536 2.151-.996 4.444-.459 2.293-.976 4.611-.517 2.318-1.106 4.661l-1.196 4.758q-.606 2.415-1.231 4.96-.625 2.546-1.258 5.227-.634 2.682-1.287 5.497-.653 2.816-1.343 5.76-.69 2.945-1.23 5.226t-1.128 4.705q-.589 2.425-.763 3.006"/><path opacity=".7" stroke-width="2.436" d="M102.76 574.54q-.002-.07-3.372 12.07-3.371 12.139-5.96 18.955-2.589 6.816-3.352 8.251"/><path opacity=".7" stroke-width="2.88" d="M95.535 598.879q.537-2.403-3.618 11.038-4.154 13.441-4.965 15.586"/><path opacity=".7" stroke-width="2.542" d="M83.322 638.363q-.013.713-6.846 20.773T65.158 690.74q-4.485 11.543-4.959 12.518"/><path opacity=".7" stroke-width="2.618" d="M66.983 684.724q-.379.272-2.838 11.339-2.459 11.068-9.197 32.925-6.738 21.857-7.212 22.833"/><path opacity=".7" stroke-width="2.788" d="M54.037 730.525q-.858-.097-1.937 3.161-1.079 3.257-1.728 5.718-.648 2.461-1.117 4.379-.469 1.919-.974 4.112-.506 2.193-1.025 4.35-.52 2.156-1.065 4.184-.545 2.028-1.143 3.73-.597 1.703-1.25 3.058-.652 1.356-1.308 2.828-.656 1.473-1.248 3.71-.591 2.237-1.241 4.424-.65 2.188-1.402 3.929-.751 1.741-1.395 3.163-.643 1.421-.848 3.745-.206 2.323-.495 4.294-.29 1.971-.725 4.42t-.67 3.835q-.235 1.387-.27 1.717"/><path opacity=".7" stroke-width="3.4" d="M34.951 786.625q-.183.024-.244 1.372-.062 1.348-.313 3.927-.252 2.579-.722 4.667l-.758 3.357q-.286 1.27-.575 2.747-.29 1.478-.676 3.587-.386 2.109-.865 4.852-.479 2.742-1.049 6.118l-1.002 5.941-.875 5.194q-.441 2.63-.48 2.89M25.649 832.89q.079.099.45 1.111.372 1.012.818 2.349.446 1.338.989 3.6.543 2.262.908 4.158.364 1.896 1.41 2.317 1.046.421 1.233.421"/><path opacity=".7" stroke-width="3.4" d="M30.19 845.946q-.693 2.198.43 3.251 1.123 1.052 1.038-.047M25.926 833.431q-.246-.038-.074 1.119.173 1.157 1.161 3.852.989 2.695 2.289 4.998 1.3 2.304 2.551 4.059 1.25 1.756 1.946 2.818.697 1.061.899 1.348"/><path opacity=".7" stroke-width="3.4" d="M26.554 824.888q-.624 1.332-.845 3.304-.22 1.971.164 3.852.384 1.881 1.299 4.329.915 2.449 1.807 4.507.893 2.058 2.182 4.655 1.29 2.597 3.108 5.219 1.818 2.622 3.275 3.589 1.458.968 1.921 1.19"/><path opacity=".7" stroke-width="3.4" d="M26.136 838.866q-1.291.033-.363 1.647.928 1.614 1.753 2.929.825 1.314 1.495 2.359.671 1.045 1.523 2.2.853 1.155 1.671 2.115.818.96 2.054 2.05 1.236 1.09 3.578 2.015 2.342.925 2.907.979"/><path opacity=".7" stroke-width="3.4" d="M33.905 853.223q.461-.283 1.142-.346.682-.063 1.236.227.553.291 2.236.868 1.683.577 3.173 1.624 1.491 1.046 4.43 2.894 2.94 1.848 4.375 2.459"/><path opacity=".7" stroke-width="3.4" d="M34.275 851.523q-.043.848 1.177 2.288 1.221 1.44 2.619 1.889 1.397.45 3.253.845 1.856.395 3.276.644 1.419.249 2.841.728 1.422.48 1.722.732M148.465 414.54q-.447-.088 4.157-2.464 4.605-2.376 5.142-2.565"/><path opacity=".7" stroke-width="3.4" d="M149.389 414.263q.457-.707.279-.629-.178.078.685-.843.863-.922 1.871-1.442 1.008-.521 2.448-.944 1.441-.424 2.72-.792 1.28-.367 2.396-.667 1.116-.3 2.23-.584 1.115-.284 1.944-.455.828-.171 1.74-.304.912-.133 1.652-.192.74-.058 1.602-.084.861-.026 1.368-.037"/><path opacity=".7" stroke-width="3.291" d="M147.789 415.382q.229-.224.912-1.459.682-1.235 1.53-2.314.848-1.08 1.989-1.596t2.429-.75q1.287-.234 2.307-.391t2.201-.313q1.182-.156 2.525-.311t2.848-.299q1.506-.144 2.843-.259 1.338-.116 2.508-.187 1.171-.071 2.175-.097 1.004-.025 2.259-.003 1.255.021 2.278.095 1.024.074 1.392.102"/><path opacity=".7" stroke-width="3.265" d="M158.192 409.745q.125-.567 3.509-2.109t12.313.407q8.929 1.948 10.491 2.136"/><path opacity=".7" stroke-width="3.219" d="M162.278 411.116q.691-1.742 6.731-1.822 6.04-.08 9.799.311 3.759.392 7.414 1.19 3.654.798 7.776 2.026 4.121 1.228 5.142 1.572"/><path opacity=".7" stroke-width="3.279" d="M171.085 409.647q.156-.501 1.056-.328.899.173 1.759.471.86.298 1.982.716 1.121.418 2.262.764 1.14.346 2.298.653 1.159.306 2.334.606 1.176.3 2.368.616t2.485.67q1.292.355 2.685.753 1.392.397 2.884.84 1.493.442 3.085.929 1.592.487 2.999.921 1.407.433 2.629.814 1.222.38 2.258.706 1.037.327 2.314.736 1.277.41 2.274.753.997.344 1.288.484"/><path opacity=".7" stroke-width="2.889" d="M174.295 409.698q.012-.041.235-.438.828-.761 19.416 4.959 18.588 5.721 20.274 6.36"/><path opacity=".7" stroke-width="2.761" d="M200.624 419.124q.415-1.43 23.213 4.692 22.798 6.123 24.243 6.422"/><path opacity=".7" stroke-width="2.259" d="M225.888 423.703q-.024-.043.005-.269.541-.156 7.671 3.003 7.13 3.16 27.253 7.157 20.123 3.998 21.825 4.37"/><path opacity=".7" stroke-width="2.348" d="M240.251 429.448q-.185.472-1.098-1.464-.963-.895 30.142 8.139 31.104 9.034 32.307 9.38"/><path opacity=".7" stroke-width="2.152" d="M251.78 429.621q.632.873 26.438 7.248 25.807 6.375 27.918 6.793"/><path opacity=".7" stroke-width="3.343" d="M304.245 445.957q.435-.044 2.8.305 2.365.348 5.337 1.657 2.972 1.309 7.37 3.577 4.398 2.269 6.883 3.471 2.484 1.203 3.028 1.442"/><path opacity=".7" stroke-width="3.4" d="M318.334 451.315q.391-.544 2.134-.279 1.743.264 4.795 1.372 3.052 1.108 5.384 2.019 2.332.911 4.779 1.959 2.447 1.049 4.72 2.809 2.274 1.761 4.272 3.825 1.998 2.065 2.643 2.834"/><path opacity=".7" stroke-width="3.4" d="M315.571 454.208q.266-.926.299-.872.089-.601 1.434-.603 1.346-.001 2.669.148 1.324.149 3.074.448 1.75.299 3.443.668 1.693.369 3.329.809 1.636.44 3.214.95 1.579.51 3.095 1.09 1.517.58 2.836 1.138 1.319.558 2.428 1.093 1.11.535 2.007 1.047.896.513 1.587 1.003.691.49 1.236.898.545.409 1.163.9.618.491.971.823"/><path opacity=".7" stroke-width="3.4" d="M324.988 454.008l-.086.048q.492.367 3.671.684 3.18.317 8.805 4.585 5.625 4.269 8.638 8.308t3.466 4.856"/><path opacity=".7" stroke-width="3.4" d="M338.668 457.097q.775-.68 4.281 1.72 3.506 2.401 5.735 5.42 2.229 3.019 3.808 6.595 1.579 3.576 1.226 7.94-.353 4.364-.441 5.303"/><path opacity=".7" stroke-width="3.4" d="M345.664 466.562q-.269.103.732.214 1 .112 2.313 2.938 1.312 2.827 1.841 4.767.529 1.94.892 4.317.364 2.377.849 5.812.485 3.435.823 5.287.337 1.852.439 2.141"/><path opacity=".7" stroke-width="2.034" d="M195.057 415.586q.099 1.729 21.115 6.473 21.017 4.744 22.848 5.046"/><path opacity=".7" stroke-width="2.591" d="M219.839 422.342l-1.403-.404q.261.844 12.653 3.249 12.391 2.406 21.849 4.334 9.458 1.928 14.858 4.269 5.399 2.341 6.655 3.046"/><path opacity=".7" stroke-width="2.776" d="M230.25 428.576q-.428-.101-1.846-.92.27-.85.344-.958.074-.109 3.559.084 3.486.192 5.319.377 1.833.185 15.762 3.433 13.929 3.249 25.314 6.749 11.385 3.5 12.181 3.919"/><path opacity=".7" stroke-width="2.512" d="M237.369 425.635q-1.014-.366-.78-.351-.014-.077.027-.219.261.413 19.766 4.729 19.504 4.315 32.278 8.125 12.774 3.811 14.169 4.411"/><path opacity=".7" stroke-width="2.56" d="M261.31 430.285q.655.348 31.802 9.761 31.148 9.413 32.245 10"/><path opacity=".7" stroke-width="3.4" d="M300.216 445.791q.403-.599 7.643 1.309 7.24 1.907 13.194 4.464 5.955 2.557 9.249 4.12 3.294 1.562 4.111 2.033"/><path opacity=".7" stroke-width="3.4" d="M322.919 453.485q1.802-2.255 12.531 4.12 10.729 6.374 11.61 7.044M353.437 479.094q.56-.39-.464-4.286.259.065-2.805-.431-.241-.454.926-.638 1.166-.184 1.881.101.714.285 1.132 1.423.417 1.137.351 5.758-.067 4.621-1.541 10.422-1.474 5.802-4.296 14.276-.002.059-.393-.025-.391-.084-.761-.151"/><path opacity=".7" stroke-width="3.387" d="M351.417 486.265q.134-.206.793-2.552-.41.09-1.487 5.188-1.076 5.098-2.069 11.093-.993 5.994-1.351 10.003t-.528 4.247"/><path opacity=".7" stroke-width="2.987" d="M350.931 502.868q.048-.285.088-5.08.041-4.796 3.687-10.83.101.558-1.916 4.799-2.017 4.242-3.131 7.625-1.114 3.384-2.201 7.316-1.087 3.933-1.917 8.46-.83 4.527-1.745 9.703-.915 5.177-1.927 8.184-1.012 3.008-1.326 3.835"/><path opacity=".7" stroke-width="3.077" d="M353.088 488.508q-.51.376-1.515 2.35-1.006 1.974-2.38 5.571-1.374 3.598-2.237 6.821t-1.507 7.46q-.644 4.236-.678 4.561"/><path opacity=".7" stroke-width="1.995" d="M347.937 500.998q-.406.891-2.745 11.145t-2.824 12.658"/><path opacity=".7" stroke-width="1.8" d="M346.221 514.258q-.159.218-.911 2.87-.751 2.653-2.126 7.732-1.374 5.08-2.27 8.335-.897 3.255-1.256 4.698"/><path opacity=".7" stroke-width="2.696" d="M340.695 536.762q-.026.41.148-.578-.339-.194-.989 2.385-.65 2.58-1.18 5.219-.53 2.639-1.149 6.221-.62 3.581-1.17 6.46-.551 2.88-1.275 6.113-.723 3.233-1.015 4.527"/><path opacity=".7" stroke-width="2.308" d="M338.285 549.39q-1.435-.309-4.385 9.321-2.951 9.63-4.051 15.893t-1.489 8.403"/><path opacity=".7" stroke-width="1.811" d="M334.823 561.865q-.414.766-2.849 9.266-2.434 8.5-3.058 10.801"/><path opacity=".7" stroke-width="2.294" d="M333.936 554.37q.024-.719 2.074-5.835.101.012-.036 1.241t-.572 3.654q-.435 2.425-.836 4.855-.401 2.43-.73 4.247-.33 1.817-.733 3.833-.403 2.017-.835 3.881-.431 1.863-1.131 4.435-.7 2.573-1.615 5.42-.915 2.848-1.697 4.935-.781 2.086-1.584 4.059-.803 1.972-1.92 4.638"/><path opacity=".7" stroke-width="2.114" d="M333.691 563.231q-.081-.26-.48-.722-.655-.05-2.902 6.939t-4.528 17.463q-2.28 10.475-3.859 17.713-1.578 7.238-2.158 9.814"/><path opacity=".7" stroke-width="2.231" d="M323.965 595.294l.016-.035q-.035.828.029.569.065-.258-1.124 2.835-1.189 3.094-1.84 5.25-.65 2.156-1.322 4.17-.672 2.013-1.27 3.72-.598 1.707-1.343 3.78-.746 2.073-1.713 4.739-.967 2.666-2.114 5.939-1.147 3.272-2.008 5.873-.86 2.6-1.764 5.475-.905 2.874-1.274 3.899"/><path opacity=".7" stroke-width="2.204" d="M321.413 608.234q-.083.343-.543 1.958t-1.344 4.491q-.884 2.875-1.711 5.414-.827 2.54-1.559 4.754-.733 2.215-1.462 4.354-.728 2.14-1.428 4.213-.699 2.074-1.39 4.03-.691 1.957-1.373 4.809-.682 2.853-.863 5.619"/><path opacity=".7" stroke-width="2.273" d="M315.016 626.785q-1.266-.843-1.983 1.214-.717 2.058-1.469 4.702-.753 2.644-3.364 13.819-2.611 11.174-6.207 22.903-3.597 11.728-4.455 13.918"/><path opacity=".7" stroke-width="2.218" d="M310.19 644.401q-.904-.215-2.099 4.845-1.196 5.06-2.371 10.249-1.176 5.19-2.026 8.297-.849 3.107-1.315 4.794-.467 1.687-1.149 4.108-.682 2.422-2.556 8.825-1.874 6.402-2.552 8.6"/><path opacity=".7" stroke-width="2.298" d="M312.584 638.973q.021-.266-.016-.835-.037-.569-.347-1.128-.822-.034-4.689 14.342-3.866 14.375-6.023 22.828-2.158 8.453-3.341 12.388-1.184 3.935-1.675 5.659-.491 1.724-1.779 5.043-1.288 3.32-4.023 12.013-2.735 8.692-2.791 9.109"/><path opacity=".7" stroke-width="2.135" d="M308.243 649.045q-.389-.189-1.403 3.133-1.013 3.322-1.544 5.773-.532 2.451-.841 4.186-.31 1.735-1.706 8.091-1.395 6.357-3.611 14.345-2.215 7.989-3.39 11.949-1.174 3.959-1.672 5.886-.497 1.927-3.53 11.176-3.034 9.25-4.745 14.207-1.711 4.957-3.191 8.674-1.48 3.718-2.45 6.088-.969 2.37-1.283 2.897"/><path opacity=".7" stroke-width="2.31" d="M285.922 723.279q.022-.076.026-.245-.559-.304-4.433 14.144-3.875 14.448-6.248 22.428-2.374 7.98-3.126 10.098"/><path opacity=".7" stroke-width="2.268" d="M278.598 750.7q-.388 1.03-5.316 18.566-4.927 17.537-8.684 30.436-3.758 12.9-4.263 14.428"/><path opacity=".7" stroke-width="2.275" d="M275.919 761.989q-.304-.136-1.039 2.137-.736 2.274-1.398 4.581-.663 2.307-1.511 5.401-.848 3.095-1.633 5.879-.785 2.785-1.516 5.257-.731 2.473-1.402 4.634-.671 2.162-1.567 4.944-.895 2.782-1.978 6.027-1.082 3.246-1.969 6.048t-1.466 4.882q-.579 2.081-1.133 4.082t-.74 3.039q-.186 1.037-.54 2.438-.354 1.4-.919 3.515-.566 2.114-1.284 4.464-.719 2.35-1.62 4.929-.9 2.579-1.659 4.362t-1.657 3.27q-.897 1.488-1.095 1.43"/><path opacity=".7" stroke-width="2.346" d="M264.762 794.881q-.132.213-.61 1.774-.478 1.562-.923 3.07-.445 1.509-1.016 3.484-.572 1.976-1.077 3.728l-1.162 4.044q-.657 2.291-1.267 4.452-.61 2.16-1.238 4.548-.627 2.389-1.272 5.005t-1.229 5.408q-.583 2.791-.978 5.018-.394 2.227-.828 4.148-.434 1.921-1.055 4.287-.62 2.366-1.473 5.203-.854 2.837-2.044 6.205-1.191 3.369-2.241 5.999-1.05 2.629-2.224 5.358-1.174 2.728-1.266 2.893"/><path opacity=".7" stroke-width="2.359" d="M257.663 817.825q-.832.451-2.774 7.002-1.941 6.551-2.92 10.758-.978 4.207-1.432 6.198-.454 1.99-1.801 8.071-1.347 6.081-2.819 11.703-1.471 5.622-2.972 10.632-1.501 5.011-2.549 7.586t-1.627 4.071q-.58 1.496-2.463 4.571-.353.371-.12-1.836.233-2.206.292-3.201"/><path opacity=".7" stroke-width="3.112" d="M254.052 834.829q-.416.465-1.007 1.768-.592 1.303-1.388 3.433-.797 2.129-1.505 4.44-.709 2.31-1.346 4.79-.638 2.48-1.221 4.969-.584 2.488-1.104 4.98-.52 2.492-.972 4.371-.453 1.88-.805 3.173-.352 1.294-.917 3.054-.564 1.761-1.342 3.992-.779 2.232-1.688 4.367-.909 2.135-1.939 4.181-.27-.875-.241-.859.029.015.026-.206-.004-.222.032-.75.035-.528.347-1.635.311-1.107.559-1.504"/><path opacity=".7" stroke-width="2.921" d="M245.391 853.732q.1.308-.009 2.09-.109 1.781-.745 4.931-.635 3.15-1.356 5.513-.72 2.364-1.64 4.825-.92 2.462-1.947 4.201-1.026 1.739-1.022 2.321.004.583.042.75"/><path opacity=".7" stroke-width="3.4" d="M239.207 881.52q-.19.306-1.428.541-.101-.058-.251 1.917-.149 1.974-.743 3.98-.593 2.005-1.94 4.066-1.347 2.06-3.109 4.505-1.761 2.446-2.879 3.412-1.118.967-1.39 1.178M201.496 907.136q.095.039 1.569.844 1.474.805 2.461.643.987-.163 3.19-.52 2.203-.358 5.983-.849t5.861-.699q2.081-.207 2.435-.232"/><path opacity=".7" stroke-width="3.4" d="M214.481 906.719q.476.49 3.656-.532 3.18-1.021 4.976-1.819 1.797-.797 3.562-1.756 1.764-.96 2.879-1.717 1.115-.757 1.613-1.074M237.53 880.966q-.226.103-1.069 3.075-.843 2.971-1.767 5.588-.924 2.616-1.731 4.405-.806 1.789-2.197 3.638-1.391 1.848-2.445 2.695-1.054.847-1.398 1.033"/><path opacity=".7" stroke-width="3.4" d="M237.622 884.41l-2.006 6.15q-1.41 4.322-3.472 6.869-2.062 2.547-3.632 4.093-1.571 1.547-3.269 2.301-1.699.754-2.54.669-.842-.086-.755-.566.086-.481.218-1.055"/><path opacity=".7" stroke-width="3.4" d="M231.956 893.782q.572-.241-2.05 2.27-2.621 2.511-5.239 4.468-2.618 1.956-5.167 3.74-2.548 1.785-3.925 2.284-1.378.499-1.693.572"/><path opacity=".7" stroke-width="3.268" d="M206.99 908.486l-.004.03q.244.371 3.391-.518 3.148-.889 5.315-1.91 2.168-1.021 3.275-1.383 1.108-.361 2.836-1.347 1.729-.986 4.358-2.856 2.63-1.87 4.065-3.205 1.434-1.336 1.83-1.846"/><path opacity=".7" stroke-width="3.326" d="M216.93 907.237l.085.104q.282-.174 1.533-.55 1.252-.376 3.089-1.343 1.838-.966 3.752-2.267 1.914-1.3 3.996-2.82 2.081-1.52 2.935-2.901.854-1.382 1.072-1.96"/><path opacity=".7" stroke-width="3.203" d="M204.63 908.302q.177-.066-1.751-1.208-1.929-1.143-3.281-1.774-1.353-.631-3.833-1.542-2.481-.911-4.483-1.525l-3.375-1.034"/><path opacity=".7" stroke-width="2.535" d="M200.559 906.546q.124-.041.722-.391-.424-.232-.907-.508-.484-.276-1.492-.648-1.009-.373-2.777-.96-1.767-.588-4.668-1.361-2.902-.774-5.874-1.514-2.971-.741-5.995-1.524-3.023-.784-5.402-1.375-2.378-.591-4.978-1.189-2.6-.599-5.186-1.262-2.585-.663-3.973-1.036-1.387-.374-2.989-.728-1.602-.354-2.73-.43-1.129-.076-1.519-.055"/><path opacity=".7" stroke-width="2.487" d="M191.315 904.054l.393.113q-.118-.018-13.087-2.896-12.97-2.878-21.683-5.171t-13.935-3.783q-5.222-1.49-7.389-2.098-2.168-.608-2.549-.682"/><path opacity=".7" stroke-width="2.696" d="M159.063 896.179q-.038-.386-8.783-2.682t-14.607-3.97q-5.862-1.674-7.353-2.164"/><path opacity=".7" stroke-width="2.61" d="M136.804 889.613q-.054.125.216-.468.193-.05-10.106-3.276-10.3-3.226-16.312-5.186-6.012-1.961-9.225-3.041-3.213-1.081-6.605-2.077-3.391-.996-3.943-1.215"/><path opacity=".7" stroke-width="2.84" d="M125.689 883.156q-.122-.214-1.378-.338-1.256-.124-2.439-.35-1.183-.226-2.704-.625-1.521-.399-2.897-.816-1.376-.417-3.243-.995-1.867-.578-3.858-1.124-1.99-.547-3.477-.974-1.488-.428-2.962-.9-1.474-.472-2.525-.733t-2.339-.642q-1.288-.381-3.165-.959t-3.816-1.178l-3.408-1.053-3.115-.966-3.088-.96q-1.441-.448-3.296-1.028-1.855-.58-3.509-1.105-1.653-.525-2.488-.801-.835-.277-.85-.306"/><path opacity=".7" stroke-width="2.843" d="M109.76 883.11q.327-.885-3.017-2.832-3.344-1.946-8.246-4.027-4.902-2.081-9.301-3.73-4.399-1.648-7.136-2.519-2.737-.871-5.103-1.609-2.366-.737-5.273-1.636-2.906-.898-6.658-2.051l-8.348-2.564q.175.058 2.348.577 2.174.519 2.635.519"/><path opacity=".7" stroke-width="3.078" d="M85.486 871.963q-.786-.53-2.768-1.401-1.981-.87-6.173-2.301-4.192-1.43-8.439-2.868-4.246-1.438-6.521-2.131-2.274-.693-3.484-1.002-1.211-.31-2.53-.643-1.32-.333-6.651-1.903-5.331-1.57-5.737-1.76"/><path opacity=".7" stroke-width="3.396" d="M65.155 865.116l.189.033q.053.013-.839-.558-.892-.57-1.813-1.076-.922-.507-2.209-.997-1.287-.491-2.528-.707-1.24-.216-3.009-.219-1.768-.003-3.683-.015-1.916-.011-3.315-.194-1.398-.183-2.486-2.147-1.088-1.964-1.172-2.459"/><path opacity=".7" stroke-width="2.472" d="M156.471 892.526l.021-.073q.12-.201-3.894-1.068-4.014-.866-7.082-1.585-3.067-.718-4.982-1.183-1.915-.465-3.148-.758t-2.106-.522q-.874-.23-1.001-.223-.128.007-6.311-1.658-6.183-1.664-10.705-2.944-4.523-1.281-7.186-1.788-2.664-.508-3.704-.633"/><path opacity=".7" stroke-width="2.121" d="M155.793 895.165q.134-.064.005-.447-.128-.382-1.169-.81-1.041-.428-2.538-.879-1.498-.451-2.792-.806-1.295-.356-2.886-.766-1.591-.41-3.478-.875-1.887-.465-4.071-.984-2.184-.52-4.146-.99-1.961-.47-3.701-.892-1.74-.421-3.258-.793-1.518-.373-3.46-.863-1.942-.489-3.954-1.043-2.011-.555-3.443-1.014-1.432-.459-2.481-.81l-1.722-.574q-.672-.225-2.045-.768-1.373-.543-2.565-1.071-1.193-.528-2.659-1.233-1.466-.705-2.802-1.354-1.336-.649-3.172-1.448-1.836-.799-3.318-1.311-1.481-.513-3.128-1.006-1.647-.494-3.376-.974-1.728-.48-3.037-.859-1.309-.378-2.759-.865-1.45-.486-3.032-1.11-1.583-.623-3.311-1.354-1.728-.731-3.267-1.34-1.538-.61-2.896-1.067-1.358-.457-2.542-.741-1.184-.283-2.684-.49-1.499-.207-2.637-.245-1.137-.037-1.334-.055"/><path opacity=".7" stroke-width="2.55" d="M99.961 874.76q.071.02.239-.016l.005-.017q-.441-.306-6.58-1.603-6.138-1.296-13.668-3.522-7.529-2.226-12.452-3.648-4.923-1.422-7.349-2.055-2.427-.633-4.008-.98t-3.774-.877q-2.192-.529-2.965-.655"/><path opacity=".7" stroke-width="3.4" d="M63.727 865.135q-.429-.153-1.883-.663-1.455-.51-3.946-1.398-2.492-.888-4.747-1.665-2.254-.778-4.262-1.487-2.008-.708-3.748-1.365-1.741-.657-2.957-1.215-1.216-.559-2.478-1.262-1.261-.703-2.205-1.333-.944-.629-1.927-1.36-.983-.73-1.188-.868M200.782 418.443q.048-.118-.139.966-.187 1.083.449 2.019.637.936.72 1.016M201.478 422.244q.065.498.078.49-.119.346.492 1.308.611.962 1.139 1.457l.666.623"/><path opacity=".7" stroke-width="3.4" d="M202.631 423.44q.053-.038-.506-.012-.887.513.873 1.833 1.761 1.321 1.938 1.467M205.59 427.647q-.103.008 1.073.428t1.387.524"/><path opacity=".7" stroke-width="3.4" d="M206.421 428.234q-.128-.093 3.955.698 4.084.791 4.381.887"/><path opacity=".7" stroke-width="3.4" d="M206.191 428.188q.498.06 3.271 1.007 2.773.947 3.421 1.199M214.222 430.709q-.014-.001-.061.078.018.052 2.41.56 2.393.507 5.537 1.392 3.144.885 5.21 1.488 2.067.603 3.198.987 1.131.384 1.524.574M220.984 431.669q.331.395 9.916 3.212t9.906 2.956"/><path opacity=".7" stroke-width="3.242" d="M233.499 435.702q.572.238 5.467 1.64 4.894 1.403 10.563 3.176 5.668 1.773 5.736 1.824"/><path opacity=".7" stroke-width="3.203" d="M245.405 439.742l-.003.027q.039.048 8.901 2.367 8.862 2.318 13.558 3.391 4.697 1.072 4.781 1.138"/><path opacity=".7" stroke-width="3.4" d="M265.131 444.861q.12.285 2.264.723 2.145.438 4.821.971 2.675.534 5.278 1.478 2.603.944 8.865 2.202l-.492-.082q-.475-.081-.688-.157M284.845 450.582q.108.354 3.887 1.471 3.778 1.118 3.93 1.235"/><path opacity=".7" stroke-width="3.4" d="M288.772 452.051q-.001.013-.037.116-.246-.102 3.23.423 3.477.525 5.807 1.02 2.33.495 3.306.765t1.103.353"/><path opacity=".7" stroke-width="3.4" d="M298.307 453.639q-.044-.004-.115.151.181-.09 2.524.342 2.344.431 4.038.805 1.693.375 2.713.22 1.02-.154 1.213-.212M307.185 456.189q.349.057 1.322.234.972.177 2.469-.213 1.496-.391 3.937-1.799 2.441-1.409 2.744-1.605M314.233 454.978q-.038-.126.902.127.94.254 2.797-.728 1.857-.982 2.895-1.693 1.038-.71 1.603-1.274.564-.563 1.188-1.389.625-.825.902-1.21M317.852 450.327q.49-.068 1.668-.24t1.673-1.219q.496-1.046.571-1.26M306.934 453.794l-.358-.028q-.757.093-.637.11t.09.011q-.03-.007-.121.055"/><path opacity=".7" stroke-width="3.4" d="M297.903 454.685q.403-.017 2.542.337 2.139.353 3.626.425 1.486.071 2.257-.135.77-.206 1.807.641-.121-.052-.244-.109t-.264-.141"/><path opacity=".7" stroke-width="3.4" d="M305.5 455.043q-.314.492 4.029 1.303-.086.224.193.382.279.159.503.02.225-.139.226-.188 0-.049.227-.138.226-.088 1.677-1.968t2.183-3.21q.732-1.33.931-1.634"/><path opacity=".7" stroke-width="3.4" d="M312.372 454.942q0 .087-.359.084-.359-.003-.494.059M301.279 455.06q.054.171 1.096.17 1.042 0 1.621-.223.58-.224 2.365-.872 1.785-.648 3.616-1.363 1.831-.714 3.133-1.329 1.303-.615 2.42-1.226 1.118-.611 1.5-.86M298.636 453.902q.706.406 5.552-1.331t8.281-3.207q3.436-1.47 3.784-1.63M291.992 451.435q.568.436 4.865-.397 4.298-.834 6.628-1.392 2.331-.559 3.545-.898 1.214-.338 1.937-.52.722-.182 2.125-.951 1.404-.77 1.575-.903"/><path opacity=".7" stroke-width="3.397" d="M287.695 449.444q.772.517 4.659-.111 3.886-.628 6.447-1.27 2.561-.643 4.259-1.013 1.698-.371 3.62-1.14 1.922-.768 2.255-.961"/><path opacity=".7" stroke-width="3.4" d="M280.82 448.092q.69-.049 2.741.327 2.052.375 6.642-1.108t7.446-2.435q2.855-.951 4.349-1.797 1.495-.846 1.845-1.079"/><path opacity=".7" stroke-width="3.255" d="M276.582 445.438q.202.382 7.112-1.082 6.91-1.463 10.618-2.604 3.707-1.141 4.161-1.334"/><path opacity=".7" stroke-width="3.252" d="M270.607 443.343q.382-.071 2.47.199 2.089.27 6.793-.831 4.704-1.101 8.149-2.57 3.445-1.469 3.947-1.75"/><path opacity=".7" stroke-width="3.135" d="M266.113 442.032q.277.012.93-.032t1.424-.12q.771-.077 1.501-.204.729-.128 1.674-.332.945-.204 2.105-.484 1.159-.279 2.533-.629 1.373-.349 2.581-.65 1.208-.301 2.25-.548 1.043-.248 1.919-.444.877-.196 1.946-.422 1.069-.226 1.928-.401.86-.175 1.162-.251"/><path opacity=".7" stroke-width="3.122" d="M256.821 439.878q.473.127 1.644.315 1.171.188 2.087.161.916-.027 1.968-.206t1.984-.364q.931-.185 2.148-.472 1.217-.286 2.047-.476.83-.19 1.811-.425.982-.235 2.389-.569 1.408-.334 2.632-.621 1.224-.287 2.094-.477.87-.189 1.793-.372.923-.184 1.646-.313.723-.129 1.51-.263.786-.133 1.05-.19"/><path opacity=".7" stroke-width="3.088" d="M252.23 440.944q.129.09.693.066.563-.023 1.311-.127.748-.103 1.493-.254.746-.15 1.739-.382.992-.232 2.232-.545 1.24-.313 2.727-.707 1.487-.393 2.803-.733 1.316-.34 2.461-.621 1.145-.282 2.119-.5.975-.218 2.181-.437t2.403-.372q1.197-.152 2.372-.215 1.176-.063 2.273-.227 1.097-.164 1.461-.445.364-.281.378-.386"/><path opacity=".7" stroke-width="3.164" d="M242.242 438.827q.281.096 1.454.16 1.174.064 2.33-.163 1.157-.226 2.119-.464.961-.237 2.112-.56 1.152-.324 2.197-.611 1.046-.287 1.985-.538.94-.251 1.774-.466.833-.214 1.926-.478 1.092-.265 2.669-.628 1.578-.363 3.286-.699 1.708-.335 3.095-.626 1.387-.291 2.442-.577 1.055-.285 1.629-.436.574-.151.661-.188"/><path opacity=".7" stroke-width="2.882" d="M235.379 436.196q-.074.022-.15.075.097.177.672.233.574.057 1.626-.005t2.199-.198q1.147-.136 2.03-.257.884-.12 1.888-.271 1.003-.15 1.946-.293l2.269-.346q1.326-.203 2.853-.442 1.528-.24 2.816-.446l2.336-.374q1.048-.167 1.97-.296.923-.128 2.117-.25 1.193-.122 2.284-.156 1.091-.034 1.983-.178.892-.143 1.935-.546 1.043-.403 1.253-.519"/><path opacity=".7" stroke-width="2.846" d="M230.736 433.456q.349.315 2.14.557 1.792.242 2.903.144 1.112-.099 2.137-.246t1.864-.278q.84-.131 1.836-.294.996-.163 2.041-.34 1.045-.176 2.138-.364l2.235-.388q1.141-.198 2.332-.401 1.191-.203 2.23-.365 1.039-.161 2.372-.31 1.332-.149 2.501-.187 1.169-.037 2.102.031.933.067 1.972.249t2.056.06q1.016-.122 1.145-.203"/><path opacity=".7" stroke-width="2.859" d="M223.543 431.001l-.306-.024 1.193.106q1.366.121 2.411.12 1.046 0 2.226-.081l2.241-.154 2.001-.135q.939-.063 2.018-.151 1.079-.089 2.297-.202 1.217-.114 2.486-.241 1.269-.126 2.587-.259 1.318-.134 2.676-.294 1.358-.16 2.746-.307 1.388-.148 2.487-.191 1.099-.044 2.322.007t2.275-.254q1.052-.305 1.263-.424"/><path opacity=".7" stroke-width="2.885" d="M215.69 429.453q.109.077 1.019.133.91.056 2.621.092 1.712.035 3.054-.04 1.342-.076 2.256-.161.914-.084 1.848-.203.934-.119 1.789-.225.855-.106 2.021-.244 1.165-.138 2.406-.267 1.24-.129 2.191-.222.951-.093 1.613-.152.661-.06 1.502-.128.84-.068 1.854-.116 1.014-.049 1.851-.073.836-.024 1.827-.042.99-.018 1.638-.21.649-.192.875-.459.226-.268.062-.45-.163-.183-.42-.252"/><path opacity=".7" stroke-width="2.317" d="M202.771 428.386l-.044-.003.799.057 1.52.108q.941.065 2.102.053 1.161-.012 2.543-.102 1.382-.09 2.816-.223 1.433-.133 2.546-.266 1.114-.132 1.952-.247.838-.115 1.771-.256.934-.142 1.963-.31 1.03-.168 2.154-.363l2.159-.373 1.977-.341q.943-.162 1.794-.305.85-.144 1.984-.326 1.133-.182 2.361-.36 1.228-.178 2.063-.273.835-.094 1.684-.16t1.518-.095q.669-.03 1.422-.048.753-.018 1.137-.044"/><path opacity=".7" stroke-width="2.971" d="M203.34 424.803q.342.061.888.649.546.588 3.966.411 3.421-.177 5.529-.445 2.108-.267 6.722-1.349 4.615-1.082 7.7-2.239 3.086-1.157 3.672-1.385"/><path opacity=".7" stroke-width="3.329" d="M202.649 423.643q.373-.071 2.634.217t4.99-.057q2.73-.345 5.502-1.108 2.773-.762 4.861-2.342 2.088-1.58 2.277-1.766"/><path opacity=".7" stroke-width="3.4" d="M200.224 420.757q.388-.034 2.038.234 1.649.267 6.784-1.13 5.135-1.397 5.953-1.611M197.552 416.268q-.059-.125-.156-.265l-.072.034q-.077-.13.986 2.248 1.064 2.379 1.78 4.631.717 2.253 1.167 3.285.45 1.033.451 1.098"/><path opacity=".7" stroke-width="3.4" d="M197.935 415.122q-.41.293.271 2.353.681 2.059 1.752 4.996 1.072 2.937 1.772 4.564.701 1.626.763 1.759M200.096 415.887q.121.25 1.411 2.963t2.135 4.629q.845 1.917 1.365 2.979.52 1.063.81 1.619.289.556.603.838.314.283.53.289.216.005.345-.036M203.134 417.568q.011.198 1.509 2.881t2.402 4.149q.903 1.467 1.471 2.207.567.741.901.963.334.222.439.238M205.247 416.143q.036.324 1.019 2.621.984 2.297 1.906 4.022.922 1.724 2.004 3.591 1.083 1.867 1.614 2.766.532.9 1.014 1.505.482.606.863.837.38.232.542.261M211.312 416.821q-.047-.488.166-.892.069-.194 1.599 3.401 1.53 3.595 2.404 5.599.874 2.004 1.782 4.074.909 2.07 1.976 3.723.105-.135.157-.246M217.584 423.675q-.203.386.685 2.28.888 1.894 1.437 3.199.55 1.305 1.247 1.989.697.684.791.725M220.539 422.09q-.041.21.354 1.804.395 1.594 1.489 3.807 1.095 2.213 1.776 3.269.682 1.056.906 1.304M221.862 420.263q-.366.638.556 3.016t1.668 3.843q.746 1.466 1.175 2.343.429.877 1.23 2.118.801 1.24 1.068 1.577M225.249 422.27q-.059.447.579 2.2.638 1.753 1.856 4.307 1.217 2.554 1.995 4.066.778 1.511 1.282 2.16.504.65.664.789M229.532 424.031q-.268.561.622 2.825.89 2.264 1.837 4.153.948 1.888 1.446 2.86t.966 1.74q.468.768 1.011 1.273.543.504.685.576M233.602 421.809q.02.416.187 1.912.168 1.495 1.477 4.467 1.308 2.971 2.079 4.633.771 1.661 1.231 2.637.461.977 1.008 1.371.547.394.69.445M237.778 425.617q-.646.636.728 3.917 1.375 3.281 2.175 5 .8 1.719 1.192 2.458.391.739.681 1.117.29.377.581.776.292.398.599.389.307-.01.427-.077M240.883 424.022q-.394.417.668 3.213 1.061 2.796 1.716 4.239t1.578 3.546q.923 2.102 2.018 3.898 1.094 1.795 1.19 1.856M244.314 425.716q.031.063.111.485.079.422.205 1.226t.481 1.833q.355 1.03.942 2.344.587 1.314 1.063 2.361.476 1.048 1.019 2.12.543 1.072.861 1.719.318.647.737 1.183.418.536.754.839.336.304.61.343.273.039.399.013M249.73 429.616q-.211.484.048 1.565.258 1.081.506 1.742t.994 2.29l1.52 3.311q.774 1.682 1.436 2.819.661 1.137 1.194 1.656.534.519.709.661M253.206 428.493q-.169.763.134 2.403.303 1.641 1.527 4.369 1.225 2.728 1.875 4.165.649 1.436 1.013 2.218.363.782.735.959.372.177.494.185M256.355 431.582q-.204.655.344 2.386.547 1.732 1.5 3.592t1.735 3.12q.782 1.261 1.269 1.74.488.479.621.575M259.478 430.024q-.212.378.038 2.129t1.288 4.341q1.037 2.591 1.694 4.124.657 1.533 1.239 2.423.583.89 1.047 1.193.464.303.611.343M262.15 432.56l-.332.005q.08-.002.073.034-.007.037-.053.239-.046.203 1.067 2.696 1.112 2.494 2.206 4.79 1.095 2.297 1.833 3.384.739 1.087.939 1.283M265.894 432.149q-.503.499.828 3.952 1.332 3.454 2.202 5.211.871 1.758 1.359 2.807.489 1.049.826 1.457.337.408.452.536M270.095 432.378q.022.269.132 1.432.111 1.164.22 1.858.11.694.399 2.158.289 1.463.975 3.484.686 2.02 1.26 3.189.573 1.168 1.042 1.935.468.767.885.96.417.192.575.214M273.379 434.524q-.101.349-.312 1.242-.212.893.401 2.584.613 1.692 1.473 3.402.86 1.71 1.444 2.822.583 1.112 1.094 1.874.511.762.925 1.083.413.321.564.391M276.413 433.703q-.067.117.023.59.091.473.338 1.314.247.84.572 1.695.324.854.726 1.727l.843 1.83q.442.958.925 1.994.483 1.036.956 1.988.472.953.935 1.812.463.859.87 1.482.406.622.932 1.198t.75.738M279.911 435.392q-.356.323.066 1.866.422 1.543.872 2.416t.691 1.435q.24.562 1.319 2.656 1.078 2.094 1.864 3.613.787 1.519 2.125 3.596t1.612 2.45M284.976 436.997q-.049-.082-.129.963-.079 1.045.617 2.866.696 1.821 2.224 4.417 1.527 2.597 2.429 4.159.902 1.562 1.643 2.276.741.713.917.835M289.989 440.406q-.151.346-.09 1.325.061.978.792 2.587.732 1.609 1.589 3.26.858 1.651 1.34 2.486.482.835 1.01 1.574.528.738.928 1.105.4.366.555.465M292.002 439.447q-.216.166.007.88t.876 2.017q.652 1.303 1.178 2.408.527 1.105.944 1.937.417.832.717 1.462.299.629.483 1.041.184.411.477 1.035.293.624.695 1.463.402.839.747 1.506t.778 1.407q.432.74.797 1.294.364.555.684.647.321.091.45.043M297.134 441.116q-.295.276-.135 1.166.16.89 1.021 2.627.862 1.738 2.006 4.015 1.145 2.278 2.02 3.944.876 1.665 1.669 2.469.793.804.929.935M302.532 443.57q-.091.121-.064 1.608.028 1.486.579 3.232.552 1.747 1.295 3.258.744 1.512 1.186 2.194.441.682.977 1.49.537.809 1.185.974.648.165.773.137M304.685 442.858q.092.477-.06 1.089-.151.611.464 2.183.615 1.571 1.452 2.999.838 1.429 1.588 2.759.75 1.331 1.298 2.184.548.853.966 1.123.418.27.495.276"/><path opacity=".7" stroke-width="3.4" d="M307.176 445.868q-.087.162-.103 1.105-.015.942 1.456 3.487 1.471 2.544 2.286 3.868.816 1.323 1.353 2.055.537.732.831.905.294.173.386.205M324.393 451.636q-.153-.028-.293-.074-.14-.046-.393.049-.253.094-.499.222t-.46.324q-.214.195-.436.384t-1.126 1.311q-.904 1.122-2.495 2.47-1.591 1.349-2.948 2.039-1.357.69-1.369.728"/><path opacity=".7" stroke-width="3.4" d="M305.957 455.653q.368.11 1.112.381.744.271 1.918.892 1.173.621 3.609 1.477 2.435.857 2.604.893"/><path opacity=".7" stroke-width="3.4" d="M312.32 458.38q.089.26 3.6-3.107 3.512-3.368 3.739-3.68M315.055 458.273q-.157-.115.747-1.231.903-1.116 2.671-2.372 1.768-1.256 2.046-1.526"/><path opacity=".7" stroke-width="3.139" d="M344.417 520.078l-.129-.014q-.303-.201 1.109-3.543 1.412-3.343 2.476-5.984t1.744-5q.681-2.359 1.037-4.001.356-1.642.602-2.702"/><path opacity=".7" stroke-width="3.4" d="M350.514 500.029q-.182.249-.078-.324.103-.574.269-1.165.167-.591.523-2.153.355-1.562.764-2.949.408-1.387.954-3.598t.905-4.058q.359-1.847.511-2.637"/><path opacity=".7" stroke-width="3.4" d="M352.024 492.674q.425-.039.833-2.563t.349-7.609q-.058-5.085-.08-5.777M354.026 483.158q.027-.181-.097-1.631-.125-1.449-.115-2.491.009-1.042-.363-4.025-.372-2.984-.42-3.587M350.222 473.344q-.365-.15-1.506-3.002-1.14-2.852-2.056-5.325-.916-2.473-1.055-2.984"/><path opacity=".7" stroke-width="3.4" d="M348.125 463.993q-.246.007-2.43-1.231-2.183-1.238-5.309-3.35-3.125-2.112-3.621-2.496M336.09 455.306q-.284.182-1.296.143-1.012-.038-3.293-1.244t-2.857-1.459"/><path opacity=".7" stroke-width="2.705" d="M196.885 413.962q-.105-.122-.499.238.367.199 2.597.815 2.23.616 11.93 2.803 9.701 2.187 11.481 2.642"/><path opacity=".7" stroke-width="2.448" d="M205.484 415.49q.031-.024-.361.046.031.243 1.601.62 1.571.376 3.173.773 1.603.397 4.942 1.149 3.339.753 5.533 1.229 2.194.476 6.646 1.54 4.451 1.064 6.288 1.558"/><path opacity=".7" stroke-width="3.4" d="M212.573 417.803l-.313-.034-.011-.001q.025-.051 2.092 1.11 2.066 1.16 4.857 2.143 2.791.982 3.47 1.257"/><path opacity=".7" stroke-width="2.567" d="M206.091 418.124q.444 1.05 10.195 2.633 9.752 1.583 11.789 1.973"/><path opacity=".7" stroke-width="2.465" d="M228.936 422.846q.185.055 4.195 1.119 4.01 1.064 5.899 1.59"/><path opacity=".7" stroke-width="2.234" d="M226.232 420.97q-.236.036-.713.726-.04.605 6.002 2.078 6.042 1.472 10.497 2.477 4.454 1.004 7.428 1.719 2.973.715 4.371 1.071 1.398.357 5.074 1.392 3.677 1.034 9.11 2.557 5.433 1.522 6.254 1.775"/><path opacity=".7" stroke-width="2.781" d="M248.012 427.397q.023.155.558.317.534.162 1.579.332l2.191.358q1.147.187 2.02.364.873.178 1.856.407.982.229 1.909.473.927.244 2.241.616t2.881.83q1.568.458 2.955.866l2.597.762 2.25.659 2.35.687q1.309.382 2.382.692 1.073.31 1.911.557.838.247 1.291.384.453.138 1.074.283.62.145 1.56.343.94.198 2.198.45 1.259.251 2.836.556 1.578.305 2.793.542 1.216.237 2.495.491 1.28.255 1.538.324"/><path opacity=".7" stroke-width="2.717" d="M274.111 433.74q.538.297 3.077 1.245 2.539.947 6.345 2.163 3.806 1.216 5.792 1.829 1.986.613 6.725 2.006 4.739 1.393 11.359 2.732 6.62 1.338 6.861 1.424"/><path opacity=".7" stroke-width="2.837" d="M283.568 447.644l-.044-.005q.096.078 5.353.975 5.257.898 8.048 1.301 2.79.403 5.756 1.044t4.514 1.09q1.549.449 3.296 1.116 1.747.667 4.18 1.211"/><path opacity=".7" stroke-width="2.852" d="M282.898 446.249q.033.8 7.743 2.419 7.709 1.62 9.084 1.993"/><path opacity=".7" stroke-width="2.906" d="M283.135 446.416q-.339-.054.237.518.575.571 1.229.836.653.264 1.415.594.761.329 4.391.963 3.629.635 6.696 1.07 3.066.435 4.965.657 1.899.222 6.605 1.319t4.722 1.159"/><path opacity=".7" stroke-width="2.507" d="M291.516 449.479q-.044.005 3.279.798 3.324.792 5.899 1.312 2.576.521 4.118.835 1.543.315 3.214.72 1.67.405 2.777.742"/><path opacity=".7" stroke-width="3.081" d="M287.214 448.637q.139.047 1.409.657 1.269.609 4.617 1.646 3.347 1.036 6.557 1.779 3.209.742 5.982 1.378 2.773.636 3.517.848"/><path opacity=".7" stroke-width="2.693" d="M279.508 447.644q.279.019 3.349.836 3.069.816 6.703 1.417 3.633.601 5.452.888 1.818.288 3.474.494l3.162.395q1.506.19 14.313 1.842-.194-.162-.468-.304-.273-.141-.632-.321"/><path opacity=".7" stroke-width="2.743" d="M282.395 444.547q.312.174 2.513.93 2.2.755 4.946 1.387 2.745.632 4.424.919 1.678.286 6.046 1.127t6.682 1.384q2.315.543 3.644.889 1.329.347 2.771.791 1.442.445 2.562.626 1.121.18 1.206.167"/><path opacity=".7" stroke-width="2.55" d="M280.475 441.814l-.421-.046-.001.011q.254.203 5.043 1.333 4.789 1.131 7.674 1.716 2.885.585 5.321 1.072 2.436.487 3.817.771 1.381.284 4.141.92 2.759.636 8.955 2.273-.047-.005-.212-.064-.164-.059-.447-.171"/><path opacity=".7" stroke-width="2.656" d="M280.998 440.083q-.098.002 2.691.869 2.79.866 5.472 1.47 2.682.603 7.383 1.729 4.701 1.125 8.363 2.063 3.663.938 10.909 4.207-.203-.019-1.98-.663-1.776-.643-2.429-.926"/><path opacity=".7" stroke-width="2.244" d="M290.588 443.538q.478.219 6.569 2.368 6.091 2.15 7.404 2.651"/><path opacity=".7" stroke-width="2.843" d="M231.937 430.789q.292-.128-.874.212-.134.161.731.464.865.303 3.371.984 2.506.68 10.698 3.217 8.193 2.537 12.339 3.918 4.147 1.381 5.938 1.981 1.79.6 3.147.905 1.356.304 2.408.095-.072-.197-.503-.48-.431-.282-.739-.461"/><path opacity=".7" stroke-width="2.771" d="M241.59 436.046q.064.219 1.489.626 1.426.407 5.403 1.012 3.977.605 6.045 1.055 2.068.45 8.595 1.831 6.526 1.38 9.912 2.083 3.386.703 5.156.998 1.77.295 2.839.384 1.07.09 1.387.114"/><path opacity=".7" stroke-width="2.819" d="M238.903 435.796q-.415-.08-1.865-.442.281-.049 2.319.262l4.673.71q2.637.4 4.201.602 1.564.201 3.848.485t4.874.568q2.589.285 7.074.866 4.486.581 7.603 1.127 3.117.547 5.356 1.032 2.239.486 4.704.729-.41-.219-4.251-1.46-3.841-1.241-4.656-1.567"/><path opacity=".7" stroke-width="2.504" d="M240.002 430.893l-.668-.14q.421.007 3.813.961 3.392.954 7.705 1.83 4.313.876 8.665 1.775 4.352.899 6.877 1.407 2.526.508 4.677.881 2.15.372 4.44.675 2.289.302 3.816.367 1.526.065 2.319-.112.793-.177 1.015-.283"/><path opacity=".7" stroke-width="2.285" d="M239.304 430.817q-.558-.041-2.845.2.322.209 4.942.855 4.619.646 8.566 1.267 3.947.621 7.992 1.421 4.044.8 6.389 1.339 2.346.539 6.256 1.768 3.91 1.23 4.728 1.535"/><path opacity=".7" stroke-width="2.204" d="M223.765 433.381q.366.094 2.877.817 2.512.723 5.622 1.39 3.11.667 5.128 1.038 2.018.372 5.439 1.205 3.42.833 5.241 1.352"/><path opacity=".7" stroke-width="3.4" d="M265.104 444.114q.566.107 1.581.296 1.016.189 1.432.272"/><path opacity=".7" stroke-width="2.407" d="M227.842 435.623q.606.966 8.784 1.935 8.177.97 10.201 1.155"/><path opacity=".7" stroke-width="2.589" d="M210.829 428.334q.059.217 3.094.424 3.035.206 9.164 1.099 6.13.893 9.405 1.401 3.275.508 5.004.786 1.729.278 3.892 1.079-.291-.032-.659-.067-.367-.035-.811-.072"/><path opacity=".7" stroke-width="2.369" d="M201.765 423.334q-.176-.019-.736.012.155.28.583.453.428.174 1.082.367.654.193 4.39 1.149 3.735.956 6.797 1.581 3.062.624 4.892.947 1.829.323 5.336.885 3.506.563 5.078.861"/><path opacity=".7" stroke-width="2.466" d="M207.607 422.156q.063 0 1.833.813 1.77.812 4.75 1.692 2.979.879 8.627 1.81 5.647.931 9.07 1.335 3.423.405 7.339 1.76 3.916 1.356 4.028 1.402"/><path opacity=".7" stroke-width="2.173" d="M207.155 420.697q.173-.048 3.283 1.393 3.11 1.442 12.773 3.231 9.663 1.79 11.433 2.136"/><path opacity=".7" stroke-width="2.415" d="M206.386 424.264q.304.245 2.733 1.491 2.428 1.245 8.525 2.582 6.096 1.336 11.697 1.982 5.6.647 7.44.882"/><path opacity=".7" stroke-width="3.4" d="M202.568 427.429q-.073-.184-.883.493.471.319.402.245-.032.13 4.492 1.451 4.524 1.32 7.357 2.013 2.833.694 3.132.786"/><path opacity=".7" stroke-width="3.026" d="M204.3 429.081q-.077.256 3.724 1.213 3.801.958 6.668 1.513 2.867.555 8.072 1.113 5.204.558 6.014.609"/><path opacity=".7" stroke-width="3.31" d="M217.386 431.902q.077.059 3.965 1.037 3.887.979 7.266 1.737 3.378.759 4.97 1.266 1.593.507 2.444.838"/><path opacity=".7" stroke-width="2.919" d="M222.605 434.27q.478.429 3.048.841 2.57.413 6.676 1.255 4.106.843 6.633 1.461 2.527.618 5.585 1.519 3.059.901 5.372 1.627 2.313.726 4.197 1.123t2.37.51"/><path opacity=".7" stroke-width="3.378" d="M255.22 441.666q.27.011 5.442 1.795 5.172 1.783 5.691 1.992"/><path opacity=".7" stroke-width="3.393" d="M251.274 441.233q.162.286 1.59.951 1.428.664 3.086 1.089 1.658.424 4.318 1.194l4.452 1.29q1.792.521 3.095.864 1.304.343 2.575.64 1.272.298 5.416 1.339 4.145 1.04 4.622 1.2"/><path opacity=".7" stroke-width="3.4" d="M272.874 447.37q.567.158 4.078 1.21 3.512 1.053 8.115 2.062 4.604 1.01 4.878 1.099M273.801 448.198q.114.317 3.419 1.603 3.304 1.286 6.123 2.14 2.819.854 4.657 1.351t4.92 1.2q3.083.704 5.33 1.184 2.247.479 3.836.914 1.59.436 2.218.781.628.346.708.473"/><path opacity=".7" stroke-width="3.4" d="M293.06 453.514q.193.053.655.376.462.322 2.89 1.364t5.496 1.861q3.068.819 4.515 1.177 1.448.358 1.558.441"/><path opacity=".7" stroke-width="3.4" d="M299.314 456.137q.183.068 2.57 1.132 2.387 1.064 5.166 1.514 2.78.45 2.881.52M305.102 456.771q-.327-.127 3.387 1.179t3.754 1.369"/><path opacity=".7" stroke-width="3.4" d="M306.003 457.174q-.333.054 7.588 3.603l-.002.022q-.051.01-.498-.041-.446-.052-.669-.076M314.059 460.817q.47-.089 3.004-1.971 2.533-1.882 3.008-2.231M316.656 458.037q.877.136 4.2-2.03 3.324-2.166 3.578-2.349M318.696 456.019q-.034.339.551.272.586-.067 1.827-.909 1.241-.842 2.871-1.783 1.63-.94 1.973-1.151"/><path opacity=".7" stroke-width="2.791" d="M172.315 406.906q.665-.02 6.702 1.411 6.036 1.432 7.405 1.782"/><path opacity=".7" stroke-width="2.252" d="M176.642 407.521q-.151.049-.482.289.097.276 6.035 1.776 5.939 1.5 12.804 3.222 6.866 1.722 8.504 2.183"/><path opacity=".7" stroke-width="2.595" d="M198.375 413.509q.346.475 7.157 1.83t11.158 2.303q4.347.948 7.58 1.689 3.233.741 8.266 2.382 5.033 1.642 5.304 1.753"/><path opacity=".7" stroke-width="2.885" d="M214.202 417.202q-.034.792 3.89 1.504 3.924.713 8.147 1.694 4.222.98 6.295 1.536 2.073.555 6.189 1.984 4.117 1.429 7.29 2.746 3.174 1.316 5.337 2.182 2.162.865 4.14 1.271l-.137-.015"/><path opacity=".7" stroke-width="3.317" d="M238.969 425.244q-.035-.003-.173.063.042.077 1.532.307 1.49.23 7.215 1.773 5.724 1.544 8.746 2.416 3.021.872 4.793 1.281 1.772.41 2.906.635 1.134.226 2.034.428.9.202 1.606.37.705.168 1.609.476.904.309 1.105.424"/><path opacity=".7" stroke-width="3.4" d="M254.209 428.658q-.1.481 8.41 2.723 8.51 2.241 13.076 3.302 4.567 1.061 6.547 1.583 1.979.523 3.025.806 1.046.283 2.012 1.076-.204.129-1.055.144-.851.014-1.278.027"/><path opacity=".7" stroke-width="3.369" d="M269.58 432.606q.585.262 4.045 1.527 3.461 1.266 8.096 2.194 4.635.929 7.751 1.672 3.116.743 4.591 1.164 1.475.421 3.5 1.072t3.199 1.046q1.174.395 1.895.949-.16.064-.401.108-.241.044-.568.101"/><path opacity=".7" stroke-width="3.302" d="M287.321 438.624l-.011-.001-.013.024q.188.427 4.392 1.509 4.203 1.083 7.733 2.376 3.53 1.292 5.259 1.955 1.73.662 3.989 1.659 2.26.997 3.516 1.586 1.257.588 2.36 1.041 1.104.452 1.607.655.504.203 1.294.515t1.658.643q.868.33 1.577 1.114-.163.097-.405.143-.241.045-.567.095"/><path opacity=".7" stroke-width="3.4" d="M309.061 446.735q.105.147 1.021.452.916.305 2.211.652 1.295.347 2.236.566.941.22 1.96.427 1.019.207 2.115.402 1.096.195 2.269.379l2.215.347q1.041.163 2.405.382 1.363.218 2.653.432 1.289.214 2.339.448t2.269.606q1.219.372 2.387 1.141-.061.257-.13.414"/><path opacity=".7" stroke-width="3.4" d="M315.292 445.735q-.111-.051.288.136.398.187 1.304.587.907.401 2.003.861 1.097.46 1.968.858.87.398 1.88.886 1.011.489 1.899.946.888.457 2.036 1.072 1.149.614 2.188 1.197 1.04.583 1.935 1.039.895.457 1.645.786.75.328 1.874.743 1.124.414 2.623.915 1.498.5 2.292.787.793.288.883.362"/><path opacity=".7" stroke-width="3.4" d="M329.992 452.122q.021.445.801.775.78.331 1.55.568.769.238 1.782.514 1.013.275 1.772.512.759.236 1.527.498.768.263.819.315"/><path opacity=".7" stroke-width="3.265" d="M353.351 481.828q.048-.179.128-1.712t-.444-3.463q-.523-1.931-2.228-4.697-1.705-2.765-4.458-5.715-2.753-2.949-3.256-3.467"/><path opacity=".7" stroke-width="3.4" d="M352.738 473.685q-.052.014-2.039-3.61-1.986-3.624-4.192-6.671-2.207-3.046-2.748-3.718"/><path opacity=".7" stroke-width="3.4" d="M349.358 464.633q-.003.164-1.884-1.385-1.881-1.548-3.998-3.286-2.116-1.738-4.12-3.046-2.004-1.308-3.102-1.825-1.099-.518-1.597-.714"/><path opacity=".7" stroke-width="3.4" d="M340.282 457.561q-.002-.119-.565.004-.563.124-3.479-1.108-2.915-1.233-4.581-2.144-1.666-.911-2.318-1.208"/><path opacity=".7" stroke-width="3.32" d="M147.515 415.905q.362-.049 3.036-1.089 2.675-1.04 4.803-1.777 2.129-.737 3.373-1.258 1.244-.522 4.593-1.405t3.854-.969"/><path opacity=".7" stroke-width="3.4" d="M154.545 411.58q-.036.053.442-.224.479-.276 1.523-.397 1.045-.12 2.195-.234l2.402-.239q1.252-.124 2.23-.219.978-.094 2.04-.175 1.062-.081 1.759-.108.698-.027 1.956-.093 1.257-.067 3.061-.136 1.803-.069 2.197-.103"/><path opacity=".7" stroke-width="3.23" d="M158.103 410.254q.232.539 3.588.137 3.356-.401 6.708-.491 3.352-.091 6.626-.121 3.275-.029 6.458.062 3.183.092 3.444.095"/><path opacity=".7" stroke-width="3.258" d="M163.081 408.18q-.226.147 1.41.447 1.636.3 2.807.353 1.17.052 5.257.349 4.088.297 8.046.852 3.958.554 5.952.934 1.995.379 3.157.688 1.162.308 1.903.688.741.381.84.499"/><path opacity=".7" stroke-width="3.366" d="M173.674 409.578q.492.842 3.036 1.037 2.544.194 8.861 1.279 6.317 1.086 9.629 1.864 3.313.779 3.665.911"/><path opacity=".7" stroke-width="3.349" d="M187.762 412.086q.363.366 4.303 1.42 3.94 1.055 6.026 1.588 2.085.533 5.237 1.604 3.152 1.07 7.221 2.367l-.273-.104"/><path opacity=".7" stroke-width="3.084" d="M188.936 411.273q-.019.621 2.297 1.15 2.316.529 4.705 1.005 2.389.477 4.338.963 1.95.486 4.205 1.12 2.255.634 6.097 1.911 3.843 1.277 6.168 2.091 2.326.814 3.356 1.128 1.031.315 1.395.448"/><path opacity=".7" stroke-width="2.825" d="M211.457 428.641q.211.704 4.649 1.393 4.439.689 7.114 1.072 2.675.383 4.085.634 1.41.251 4.602.938 3.193.686 5.437 1.357 2.243.671 2.903.922"/><path opacity=".7" stroke-width="2.676" d="M210.666 425.512q.112-.071 2.145.803 2.033.873 9.038 2.62 7.005 1.747 11.571 2.773t6.661 1.456q2.095.429 4.607.791 2.512.363 3.984.299 1.471-.064 1.826-.155"/><path opacity=".7" stroke-width="2.245" d="M209.591 423.487q-.218-.061-.574-.193.157-.196 6.092.807 5.936 1.002 10.107 1.909 4.172.907 6.223 1.356l3.135.686q1.084.237 2.933.654 1.85.417 5.585 1.264 3.736.846 5.67 1.306 1.935.46 6.31 1.04 4.376.581 7.083.877 2.707.296 4.103.19 1.396-.105 1.509-.174"/><path opacity=".7" stroke-width="2.148" d="M219.593 425.31l-.417-.175q-.01-.202 4.257.963 4.267 1.165 7.732 2.14 3.466.975 5.168 1.438 1.702.462 6.048 1.407 4.347.946 6.806 1.403 2.46.457 7.18 1.456 4.721.999 10.234 2.605 5.513 1.606 10.063 2.481 4.551.874 4.88.996"/><path opacity=".7" stroke-width="2.167" d="M251.986 434.729q.145-.043 1.986.671 1.841.714 5.144 1.708 3.303.995 5.138 1.438 1.836.444 2.949.663 1.114.22 6.281 1.688 5.168 1.469 9.585 2.936 4.416 1.466 7.394 2.555 2.978 1.089 4.624 1.661 1.647.572 2.674 1.025 1.026.453 1.176.61"/><path opacity=".7" stroke-width="2.374" d="M265.931 442.201q.381.065 2.483 1.004 2.102.939 6.876 2.255 4.773 1.316 7.309 1.883 2.536.568 3.807.842t3.295.666q2.025.391 4.605.764 2.58.373 4.054.27 1.475-.103 1.804-.185"/><path opacity=".7" stroke-width="2.307" d="M257.398 441.385q.243.108 6.38 1.432 6.137 1.324 13.272 2.867 7.135 1.543 10.681 2.331 3.545.788 5.833 1.15 2.288.362 5.774.845-.327.033-5.757-.496-5.429-.529-9.59-1.009-4.161-.481-5.641-.654"/><path opacity=".7" stroke-width="2.212" d="M254.361 436.971q.324.087 4.216 1.1 3.892 1.012 10.061 1.917 6.169.905 10.505 1.617 4.336.712 7.841 1.491 3.504.779 5.925 1.449 2.421.671 13.761 3.3-.663-.025-3.183-.391-2.519-.367-3.423-.548"/><path opacity=".7" stroke-width="2.121" d="M252.542 437.172q.453 0 2.63.756 2.178.755 5.693 1.261 3.515.506 7.79.849 4.275.343 6.542.475 2.266.132 6.055.564 3.789.431 5.906.834 2.117.403 6.015 1.252 3.899.849 9.468 1.599-.121.009-.263.016"/><path opacity=".7" stroke-width="2.214" d="M261.875 439.115q.031-.012 3.05.746 3.018.758 6.211 1.172 3.193.413 9.453 1.049 6.261.637 9.413.808 3.152.172 3.572.099"/><path opacity=".29" stroke-width="1.826" d="M156.662 468.432q-.079-.133-.096-.207-.166-.012-.336.711t-.493 1.647q-.323.924-.435 1.312-.113.389-.377 1.315-.263.927-.644 2.211-.38 1.284-.938 2.917-.558 1.632-.849 3.4-.292 1.769-.637 3.36-.345 1.592-.631 2.204-.285.613-.667 1.539l-.603 1.459q-.221.534-.497 1.5-.275.967-.618 2.828-.342 1.861-.913 4.635t-2.182 8.185q.005-.018.058-.116.053-.098.154-.276"/><path opacity=".29" stroke-width="1.765" d="M154.409 469.937q-.034.01-.278-.041.543-.365.491-.229.864-.149 3.389.322 2.525.472 5.108 1.352 2.583.88 4.505 1.287 1.923.406 3.459.714 1.535.308 2.27.58.736.271 5.148 1.462 4.411 1.192 6.976 1.804 2.565.613 4.405 1.52 1.841.907 3.924 1.504 2.084.596 5.538 1.464 3.454.867 5.622 1.495 2.168.629 4.441 1.158 2.272.529 5.478 1.557 3.205 1.028 5.903 1.732 2.697.703 5.226 1.759 2.528 1.056 8.26 2.919 5.732 1.863 10.386 3.435 4.654 1.571 7.852 2.667 3.199 1.095 5.032 1.602 1.832.507 9.668 2.836 7.835 2.329 11.953 3.509 4.118 1.18 7.43 2.354 3.313 1.173 4.79 1.736 1.478.563 3.999 1.288 2.52.726 4.558 1.404 2.038.679 3.824 1.126 1.786.447 3.398 1.156 1.612.709 2.202 1.067.589.358 1.348.586.759.227 2.011.752 1.251.525 1.367.591M144.426 507.044q-.015-.004-.109.016.089-.003-.18.335-.27.337-.724.993-.454.656-.564 1.055-.111.398.085.753t.164.257q-.032-.097.772.705.803.803 2.295 1.761 1.492.957 3.78 1.546 2.287.589 4.608 1.149 2.321.559 3.98 1.425 1.66.865 3.828 1.932 2.169 1.068 4.134 1.714 1.965.646 2.987.951 1.022.305 3.058.843 2.037.538 7.191 2.349 5.153 1.812 8.041 2.722 2.887.911 4.251 1.29 1.364.378 2.114.596.751.217 1.723.455.972.238 3.904.795 2.931.556 4.899 1.154 1.967.599 4.913 1.55 2.947.951 4.507 1.399 1.561.447 3.339.741 1.778.293 5.624 1.018 3.846.724 7.364 1.569t6.018 1.471q2.501.626 3.655.904 1.155.278 2.324.495 1.169.216 4.209 1.092 3.04.875 6.194 2.167 3.154 1.292 5.106 2.009 1.952.718 3.039 1.007 1.087.29 2.223.596 1.137.307 4.34 1.742t5.883 2.775q2.679 1.34 4.775 2.111 2.095.771 3.44 1.08 1.346.308 3.017 1.11 1.671.802 3.03 1.399 1.36.597 2.84 1.107 1.48.511 2.196.809.715.298 1.817.589 1.102.29 1.756.475.653.186.849.24.195.054.581.176.386.122.782.312.395.19.649.321.253.13 3.048.304.02.109-.007.228-.026.119-.067.257"/><path opacity=".29" stroke-width="1.765" d="M312.584 519.016q-.157-.113-.158-.116l-.001.073q0 .075-.035-.065-.034-.141-.028-.088.006.053-.022.069-.028.016-.083-.451-.055-.468-.061-.344-.006.124.062-.1.476-.034 1.143-.202.668-.168 1.358-.048.69.12 1.207.304.518.183.973 1.391.455 1.208.474 2.766.019 1.558-.328 3.039-.348 1.481-.853 3.052-.505 1.572-.784 2.592-.28 1.021-1.062 2.708-.782 1.686-1.439 3.051-.658 1.364-1.477 3.897-.82 2.533-1.363 3.851-.544 1.318-.868 2.536-.324 1.217-1.388 4.27-1.064 3.053-1.569 4.94-.505 1.887-2.566 8.237.211.048-.741-.182-.952-.23-1.747-.754-.794-.523-1.214-1.446-.42-.922-.403-1.561.016-.639.046-.848"/><path stroke-width="2.72" d="M173.743 487.376q.229.309-.227-.579-.455-.888-1.319-1.636-.864-.748-2.006-1.385-1.141-.636-2.605-.765t-3.396.528q-1.931.656-3.024 1.624-1.092.967-1.514 1.39-.422.423-.645 1.009-.224.586-.507 1.168-.283.581.277 2.113.561 1.531 1.097 2.583.537 1.052 2.564 2.962 2.027 1.909 3.278 2.871 1.25.962 1.879 1.753.628.791.768 1.746.139.956-1.293 2.184-1.432 1.228-2.601 1.898-1.169.669-2.354 1.055-1.185.386-2.702.379-1.516-.008-2.542-.974-1.026-.967-1.575-1.686-.549-.72-.837-1.188-.288-.468-.404-.796-.116-.328-.057-.471.059-.142.115-.282"/><path stroke-width="2.561" d="M179.849 487.685l.068-.239.031-.11q-.024.16-1.199 4.998-1.175 4.839-2.432 9.132-1.256 4.293-2.419 6.726-1.164 2.433-1.168 2.448"/><path stroke-width="2.72" d="M184.413 503.651q-.458-.222-.347-.185.334-.044-.699-.222-1.034-.178-2.531.317t-2.444.588q-.948.093-1.483.12-.536.027-2.341.639.387 1.152 3.65 5.749 3.263 4.596 3.3 4.64M192.563 513.63q.112-.507.072-.484.008-.087.092-.426.084-.339.065-.291-.019.047-.009.03.009-.017.133-.86.123-.843-.152-1.223-.275-.381-.697-.667-.423-.287-1.186-.302-.763-.016-1.963.769-1.2.785-1.958 1.564-.757.78-.967 1.162-.21.383-.354.867-.144.485.119.816.263.331.601.647.338.317 1.145.599.807.282 1.952.114 1.144-.167 2.229-.808 1.084-.642 1.789-1.527.705-.885 1.236-1.912.028.249-.465 1.215-.492.965-.761 1.874-.269.91-.304 1.492-.035.582.839 1.17.874.589.987.674"/><path stroke-width="2.285" d="M207.955 489.443q-.07-.122-.487-.655-.047.085-.301.941-.254.855-.437 1.97-.184 1.115-1.222 7.243-1.039 6.127-1.651 9.454-.611 3.326-.74 5.385-.129 2.058-.281 3.526-.153 1.468-.591 2.267-.438.799-.588.826"/><path stroke-width="2.72" d="M197.49 510.503q-.317-.172-.158-.254.159-.082.705-.206.546-.123.93-.2.385-.077 4.824 1.052 4.44 1.129 4.875 1.252M210.904 517.246l-.233-.066.648.184q-.04.235 1.812.256 1.852.022 3.036-.24 1.183-.263 1.688-.516.505-.253 1.18-.643.675-.389.453-.831-.222-.441-.754-.762-.531-.321-1.611-.805-1.08-.484-2.273-.587-1.194-.103-2.507.574-1.314.676-2.184 1.725-.87 1.05-1.252 2.272-.381 1.221.029 2.214.411.992 2.343 2.263 1.932 1.27 4.477 1.763 2.546.492 3.132.449M230.891 517.114q-.272-.026-.952-.292-.68-.265-1.633-.037t-1.716.859q-.764.632-1.141 1.329-.376.698-.443 1.642-.066.944 1.175 2.033 1.242 1.09 2.085 2.021.842.93 1.195 1.667.353.737.334 1.223-.019.487-.693 1.134-.674.647-4.974.354-4.3-.292-4.48-.257"/><path stroke-width="1.429" d="M146.255 540.079l.117-.381q.038-.079-1.109 3.596-1.146 3.674-4.475 12.479-.032.001-.075-.126-.042-.127-.073-.32"/><path stroke-width="1.555" d="M137.926 539.293q-.195-.019 1.272-.075 1.468-.056 4.987.845t5.352 1.392q1.832.491 3.374 1.082 1.542.591 2.885 1.671 1.342 1.08 1.557 1.319"/><path stroke-width="1.676" d="M131.911 556.738q-.103-.147.995.017 1.098.165 3.111.68t3.705.965q1.693.45 6.181 1.245 4.488.795 4.985.821"/><path stroke-width="1.826" d="M162.283 557.466q.078-.11-.255-.817t-.89-1.044q-.557-.337-1.186-.603-.628-.266-1.353-.289-.724-.022-1.336.234-.611.256-.931.503-.32.247-.963.91t-1.011 1.5q-.369.836-.562 1.703-.193.867.217 1.528.409.66.92.977.511.317 1.611.605 1.1.287 2.21.154 1.11-.132 1.485-.201"/><path stroke-width="1.795" d="M165.326 559.8q.023-.005-.303-.05-.115.547-.033.439.144.345.993.739t1.572.456q.723.063 1.173-.079.45-.142.785-.384.334-.242.521-.615.186-.373-.338-.907-.525-.534-1.091-.769-.567-.234-1.147-.495-.58-.26-1.257-.301-.676-.04-1.693.498-1.016.537-1.621 1.468-.606.93-.941 1.732-.335.801-.343 1.441-.008.639.392 1.331.401.693 1.907 1.379t3.202.741q1.696.055 2.32.03"/><path stroke-width="1.774" d="M206.552 560.845q.044-.048.16-.558.115-.51.004-.893-.111-.384-.227-.566-.117-.182-.69-.483-.574-.3-1.453-.435-.878-.134-2.002.202-1.125.336-1.867.678-.742.343-1.9 1.339-1.159.996-1.733 1.594-.574.598-1.137 1.241-.562.643-.99 1.358-.428.715-.643 1.252-.215.538-.299 1.143-.084.605.648 1.194t2.489 1.231q1.756.642 3.079 1.346 1.323.705 2.08 1.212.757.507 1.176.972.42.466.594.89.175.423.081.892-.094.469-.609.92-.515.45-1.857.938-1.341.487-2.74.649-1.399.162-2.869.103-1.47-.06-2.297-.322-.826-.261-1.3-.472-.473-.21-.48-.686-.006-.477.018-.664"/><path stroke-width="1.247" d="M214.796 555.932l.026-.084q-.018-.074-1.112 3.075t-2.222 6.981q-1.127 3.832-1.968 6.252-.841 2.421-3.021 8.287.02-.001.355-.372.335-.371.508-.558"/><path stroke-width="1.826" d="M216.099 575.465q.009-.164-.507-.605-.516-.442-1.054-.607-.538-.164-2.093.122-1.554.287-2.422.457-.867.17-1.255.19-.387.02-.575.139-.187.119-.221.226-.034.108-.039.259-.006.152.046.314.051.162.236.338.184.176.157.25-.027.075 1.468.899 1.495.824 2.434 1.389.938.566 1.45.971.511.405.993.974.482.57.558 1.123.075.554.062.677M223.98 580.841q-.005.047.049-.289.054-.335.066-.617.012-.283-.168-.408-.179-.126-.432-.254t-.979-.07q-.727.059-1.453.405-.727.346-1.149.62-.422.275-.663.58-.242.305-.195.766.046.461.876.735.829.273 1.757.167.929-.106 1.747-.159.818-.054 1.147.084.329.138.393.482.065.344.008.667-.056.322-.069.467-.013.144-.104.958t-.035.89"/><path stroke-width="1.254" d="M240.19 562.072q-.076-.059-.3-.255-.036-.088-1.342 4.512-1.305 4.601-2.296 7.888-.992 3.288-1.666 5.277-.674 1.989-2.653 9.829-.155.036-.292-.065-.137-.101-.243-.237"/><path stroke-width="1.826" d="M230.138 579.744q.003-.01.046-.078-.127.011.627.092.754.08 2.487.519 1.734.439 4.024 1.809 2.29 1.37 2.509 1.55M240.354 586.187q-.055.09.859.182.913.091 1.73-.274t1.306-.654q.489-.289.702-.696.213-.406.224-.693.01-.287-.13-.469-.14-.183-.255-.386-.115-.202-.541-.452-.426-.25-.812-.199-.386.051-1.315.727-.929.675-1.715 1.663t-1.108 1.924q-.322.935-.52 1.504-.199.569.008 1.262.207.694 1.158 1.372.952.678 2.907.5 1.955-.178 2.346-.266"/><path stroke-width="1.808" d="M255.973 585.927q-.003.022.09-.242t-.283-.521q-.376-.258-1.244-.135-.868.122-1.635.384-.766.261-1.221.677-.455.416-.558.75-.104.334-.176.669-.071.336.903 1.057.974.722 1.657 1.129.683.408 1.147.942.465.535.529 1.061.064.527.011 1.034-.053.507-.82.979-.767.471-1.938.823-1.171.353-2.675.601-1.504.249-2.457.147-.953-.101-1.052-.142"/><path stroke-width="1.441" d="M119.807 611.59q-.225.376-.202.387-.086.162-1.72 5.403t-3.783 11.269q.101-.072.193-.147"/><path stroke-width="1.826" d="M119.335 612.894q.127-.152.093-.375-.035-.224.32-.491.356-.268.672-.29.317-.021.604-.009.287.012.442.012.154.001 1.106.235.951.235 1.639.487.687.252 1.341.8.654.548.987 1.197.333.649.363 1.43.029.781-.252 1.819-.282 1.038-.828 1.957-.547.92-1.212 1.553-.665.633-1.278.869-.613.235-1.023.294-.409.059-1.182-.043-.773-.103-2.615-1.683-.07-.178-.082.346-.012.524.24 1.411.251.887.661 2.027.411 1.139.639 1.732.229.593.66 1.576.432.982.789 1.742.356.759.454 1.287.098.529.044.797-.055.269-.071.321M129.636 628.703q-.016-.095-.417-.347-.401-.252-.708-.309-.306-.057-.679.038-.372.094-.701.55-.33.455-.549.87-.219.415-.241 1.035-.022.62.373 1.112.395.493 1.02.718.624.224 1.124.122.5-.102 1.084-.474.584-.371 1.002-1.065.417-.694.317-1.267-.1-.574-.845-.858l-.94-.358"/><path stroke-width="1.498" d="M139.917 614.751q-.596.015-1.408 2.591-.812 2.576-1.699 5.577t-1.433 5.262q-.546 2.262-.864 3.623-.318 1.361-.125 3.148.109.085.332-.079.223-.165.364-.319"/><path stroke-width="1.419" d="M145.961 615.296q-.334.057-.321.072-.064.044-.879 2.629t-1.795 6.925q-.98 4.339-1.535 7.044-.556 2.704-.636 3.792-.08 1.089-.043 1.227"/><path stroke-width="1.826" d="M142.837 633.996l.363.203q.361.254 1.261.562.901.309 1.846.189.946-.12 1.588-.417.642-.296.947-.553.304-.257.469-.499.165-.241.089-.493-.076-.252-.586-.49-.509-.237-.906-.37t-.68-.149q-.282-.017-.614.096t-.841.417q-.509.304-.892 1.014-.384.709-.566 1.23-.182.521-.204.983-.022.462.303 1.008.326.547.75.872.424.326.873.495.45.168.9.339.451.17 1.129.345.678.174.918.202"/><path stroke-width="1.818" d="M153.987 635.371q-.408-.013.493 6.695l.03.01q.17.067.493-1.975.324-2.042.472-3.198.148-1.156.296-1.672.149-.515.198-.765.05-.249.628-.404.578-.154 2.624.395 2.046.549 3.278.79 1.231.241 1.728.302"/><path stroke-width="1.82" d="M200.875 638.889q.108.145-.033-.457-.141-.601-.813-1.318-.672-.717-1.1-.966-.429-.249-1.246-.565-.817-.315-1.544-.431-.728-.116-1.847.169-1.119.284-2.054.807-.936.522-1.518 1.102-.582.579-.883 1.31-.301.731-.38 1.06-.08.329-.004 1.135t1.397 2.361q1.322 1.555 2.208 2.406.886.85 1.828 1.627.942.777 1.44 1.185.498.409.626.889.128.48.086.78-.041.301-.88.781-.839.481-2.223.657-1.384.177-2.491.184-1.107.008-2.106-.182-.998-.191-1.665-.414-.667-.224-.849-.862-.183-.639-.197-.816"/><path stroke-width="1.313" d="M206.931 634.478q-.334-.12-.29-.111-.405.741-.451.735-.046-.006-.914 3.305-.869 3.311-1.352 5.59-.482 2.279-1.348 5.616-.865 3.336-1.312 6.435.066.059.495-.379.43-.437.62-.609"/><path stroke-width="1.826" d="M211.512 651.134q-.06-.252-1.488-.15-1.428.102-2.565.282-1.138.18-1.934.461t-1.633.809q-.837.527-1.162.817-.325.29-.593.597-.269.308-.047.514.222.206 1.461.518 1.238.312 2.381.793 1.144.481 2.046 1.11.902.63 1.66 1.407.758.777.953 1.417.194.639.215.759M219.716 656.679q-.007-.077-.265-.361-.257-.285-.574-.523-.316-.237-.954-.257-.638-.019-1.45.346-.811.365-1.428.701-.618.335-.995.797-.377.461-.521.725-.145.264-.181.557-.036.292.111.39.148.098.647.3.498.202 2.163-.364 1.664-.565 2.436-.861.772-.296 1.396-.368.624-.073 1.04.078.416.15.397 1.35-.018 1.2-.151 2.069-.132.869.347 1.458.145-.058.246-.13"/><path stroke-width="1.407" d="M231.584 642.705q.126-.43.813-1.038.15.304-.42 2.974-.57 2.67-1.564 6.061-.993 3.391-1.522 5.081-.528 1.691-.854 3.265-.326 1.575-1.149 4.011l-.174-.054"/><path stroke-width="1.826" d="M224.911 655.357l-.586-.18q-.12-.036 1.346.356 1.465.392 2.824.77 1.36.378 2.693.957 1.334.58 1.559.706M232.772 661.624q-.153.1.234.464.386.363 1.086.608.699.245 1.367.178.667-.068 1.381-.314.713-.247 1.131-.521.419-.273.62-.581.2-.308.276-.626.076-.318-.175-.758-.252-.44-.772-.74-.521-.301-.946-.443-.425-.141-.83-.03-.404.111-1.206.745-.802.634-1.446 1.624-.644.991-.812 1.745-.168.754-.247 1.24-.079.485.443 1.069.522.583 1.543.915 1.021.332 1.42.454M249.75 663.046q-.041.058-.095-.222-.054-.279-.507-.49-.452-.212-.731-.282-.279-.07-.936.087t-1.122.377q-.465.22-.906.714-.442.494-.374 1.094.068.599.282.941.215.342 1.123 1.018.909.676 1.556 1.398.647.722.953 1.328.306.606.306 1.246.001.64-.521 1.105-.523.466-1.666.855-1.143.389-2.311.32-1.168-.068-1.501-.1"/><path stroke-width="1.825" d="M102.603 688.1l-.095-.313q.068-.173-.25-.824-.318-.65-.902-1.241-.585-.591-1.255-.699-.67-.108-1.394.047-.724.155-1.738.67-1.015.514-1.757 1.183-.743.668-1.254 1.345-.51.676-.55 1.66-.04.984.417 2.129.457 1.145 1.146 2.163.69 1.018 1.687 1.941.996.923 1.439 1.406.443.482.852 1.078.41.596.113 1.245-.296.648-1.49.971-1.193.323-2.032.365-.839.041-1.41.065-.572.024-1.82-.043-1.248-.067-1.816-.449-.567-.382-.647-.534"/><path stroke-width="1.487" d="M110.717 685.262q.068.102-.325-.695-.027-.198-1.065 3.389-1.037 3.587-1.904 5.994-.866 2.406-1.42 3.705-.554 1.298-1.323 2.89-.769 1.592-1.461 2.74-.692 1.149-1.519 2.108.003-.01.155-.182t.322-.315"/><path stroke-width="1.826" d="M113.034 699.087q-.215-.019-1.592.007t-2.924.69q-1.548.665-2.362 1.153-.814.487-1.285.846-.47.359-.588.757t.005.758q.124.36 1.56 1.569 1.437 1.208 2.431 2.271t2.116 1.589q1.122.527 1.273.551M119.796 706.466q.002.061-.53-.189-.532-.249-1.088-.192-.556.058-.899.219-.342.162-1.024.546-.682.384-.973 1.044-.018.303 1.166-.044 1.185-.347 2.052-.385.867-.037 1.282.027.416.065.818.117.402.052-.046 1.684-.449 1.632-.392 1.671"/><path stroke-width="1.492" d="M130.666 691.889q-.115-.41.995-1.717.453.122.01 4.571t-.834 7.227q-.391 2.777-.636 4.029-.245 1.251-.59 3.093-.345 1.841-1.091 3.492-.226.111-.837-.3-.612-.411-1.06-2.518-.448-2.106-1.109-6.738-.613 1.296 5.16 2.084 5.772.788 6.53.858"/><path stroke-width="1.793" d="M138.913 710.653q-.045.081.503.538.547.458 1.229.672.682.213 1.208.169.527-.044.918-.234.39-.19.513-.478.123-.287.082-.534-.04-.246-.177-.311-.137-.064-.142-.126-.006-.061-.842-.421t-1.472-.492q-.636-.131-1.144-.011-.507.121-.964.471-.457.351-.738 1.19-.281.838-.3 1.579-.019.741.141 1.511.161.77.655 1.575.494.805 1.851 1.429 1.357.623 2.619.912 1.261.289 1.89.368"/><path stroke-width="1.607" d="M157.874 697.476q-.113-.343-.121-.324-.318-.232-.303-.163-1.107.094-2.159 5.963-1.051 5.87-1.476 9.105-.424 3.235-.747 4.944-.324 1.709-.808 3.787.021.067.196-.651.174-.718.708-1.926.533-1.209 1.093-2.004.559-.795 1.257-1.393.698-.599 1.466-.997.769-.398 1.746-.488.977-.091 2.029.229 1.051.32 1.695.619.644.298 1.073.779.429.482.743.857.315.376.456.982.141.607.015 1.23-.125.622-.597 1.205-.472.583-1.37 1.139-.898.555-2.042.94-1.145.384-2.422.391-1.276.007-2.006-.186-.73-.193-1.152-.375-.422-.181-.585-.467-.163-.285-.082-.761.08-.475.132-.678"/><path stroke-width="1.826" d="M175.211 722.684q-.291-.416-.571-1.042-.28-.626-1.228-1.097-.947-.47-1.77-.721-.824-.25-1.45-.331-.627-.08-1.357.284-.73.363-1.202 1.045-.472.682-.633 1.358-.162.676.092 1.321.253.646.918 1.194.665.548 1.408.764.743.216 1.471.012.727-.205 1.23-.537.504-.331.656-.622.152-.29.285-.696.132-.405-.692-1.224-.823-.818-1.418-1.198l-.633-.406M182.956 725.541q-.279-.052-1.036-.95-.757-.899-1.511-1.468-.754-.569-1.171-.739-.418-.17-.721-.15-.303.02-.958.535-.655.516-1.088 1.319-.432.803-.563 1.331-.131.529-.155.907-.024.378.204.941.229.564.781.944.553.38 1.285.363.733-.016 1.882-.647 1.15-.63 1.686-1.066.537-.435 1.013-.564.476-.129.661.087.186.215-.051 1.009-.237.794-.428 1.734-.191.941-.153 1.112M189.574 727.203q.109-.233.02-1.054l-.05-.015q-.572.109-1.187 6.553.163-.114 1.015-1.359.852-1.246 1.319-1.865.468-.619.806-.982.337-.363 1.22-.374.882-.011 1.566.202.683.213.953.307"/><path stroke-width="1.494" d="M202.077 733.055q-.152.202-1.165-.315-1.014-.517-1.667-.88-.652-.363-1.011-.481-.359-.117-.772.004-.413.122-.648.493-.235.372-.304 1.009-.069.638.373 1.431.441.793 1.082 1.327.64.534 1.096.75.456.215 1.081.366.625.15 1.59-.306.965-.457 2.364-1.683 1.4-1.226 2.357-2.655.958-1.428 1.391-2.191.433-.762 1.266-3.097.832-2.335 1.412-4.27.58-1.936.827-3.267.246-1.331 1.825-10.017.062.085-.036 1.6-.099 1.515-.286 3.012-.188 1.497-.333 2.871-.144 1.373-2.306 10.787-2.162 9.413-2.237 9.966"/><path opacity=".5" stroke-width="1.826" d="M135.173 568.604q.023-.1-.224.819l-.467 1.734q-.219.816-.369 1.279-.151.463-.668 1.941-.518 1.478-1.327 4.163l-.094-.085"/><path opacity=".5" stroke-width="1.727" d="M130.278 567.724q-.039.003-.012-.255-.055-.123 1.866.376 1.92.5 4.498 1.303 2.579.804 4.348 1.728 1.769.925 1.961 1.066"/><path opacity=".5" stroke-width="1.826" d="M127.448 579.325q.014-.264 1.531.108 1.516.371 2.726.755 1.21.385 3.989.365 2.779-.02 3.105-.027M142.313 577.644q-.044-.209-.053-.182l.002-.007-.013-.003-.018 1.349q-.017 1.178-.216 1.909-.199.732-.043 1.351.131.156.942-.519.811-.675 1.261-1.03.45-.355.747-.478.296-.123.707-.163.411-.039.544.555.133.594.333 1.166.199.571.57 1.275.372.703.441 1.12.069.417.103.568"/><path opacity=".5" stroke-width="1.636" d="M192.393 583.41q.018-.055-.614 2.026t-1.476 4.168q-.843 2.088-1.397 3.649-.555 1.561-.707 2.238-.153.677-.153.737"/><path opacity=".5" stroke-width="1.704" d="M196.546 583.594q-.141-.033-1.007 2.896-.866 2.928-1.327 4.501-.461 1.574-.672 2.589-.212 1.015-.367 2.105-.155 1.091-.175 1.166"/><path opacity=".5" stroke-width="1.826" d="M188.895 591.058q.301-.267.307-.227.007.041.133.044.126.003.209-.024.084-.027 1.181.041 1.098.068 3.341 1.081 2.243 1.014 2.578 1.172M200.523 595.2q-.153-.052-.358.196-.204.247-.378.922-.174.674-.455 1.616-.282.942-.324 1.436-.041.494-.011.545M201.105 591.398q-.137-.034-.467-.779.101-.288.964.168.862.456 1.1.618"/><path opacity=".5" stroke-width="1.811" d="M207.466 598.24q-.244-.152-.362-.43-.117-.278-.303-.448-.186-.17-.419-.281-.233-.111-.713.21-.481.322-.823.641-.341.319-.672 1.053-.332.734-.43 1.35-.097.617.003 1.201.1.584.244 1.026.144.442.861 1.024.718.581 2.934.467 2.216-.113 2.669-.175"/><path opacity=".5" stroke-width="1.807" d="M116.997 636.568q-.268-.015-.647 1.621-.378 1.636-.903 3.204-.525 1.568-.907 2.508t-.665 1.616q-.284.676-1.145 2.793-.015-.004-.044-.097-.029-.094-.054-.226"/><path opacity=".5" stroke-width="1.763" d="M110.399 635.523q-.054-.371 1.301.032 1.356.404 3.159.862 1.803.457 2.969.846 1.166.388 1.768.623.601.234 1.729.697 1.128.463 2.071.907.942.443 1.197.593"/><path opacity=".5" stroke-width="1.729" d="M108.119 647.822q.026.008-.158.193t-.359.532q-.06.223 1.445.186 1.505-.036 3.196.063 1.692.1 3.476.32 1.784.221 3.587.699 1.802.479 2.017.561"/><path opacity=".5" stroke-width="1.826" d="M124.031 646.266q-.042-.093-.229-.733.001.279-.029 2.32-.03 2.041-.237 4.256.124.146.973-.64.848-.786 1.529-1.255.682-.468 1.155-.671.474-.203.944-.293.469-.09.984.813.515.902.856 1.51.342.608.464 1.311.122.704-.024 1.16-.147.455-.189.533M167.378 653.749q.043.09.022-.218-.021-.309-.34-.846-.32-.537-.657-.948-.337-.411-.74-.639-.404-.228-.912-.462t-1.3-.267q-.793-.032-1.771.27-.979.302-1.884.768-.904.467-1.848 1.384-.944.917-1.612 1.888-.669.971-1.069 1.805-.401.834-.528 1.449-.126.615-.058 1.063.067.447.521 1.164.454.716.937 1.254.484.539 1.102.745.618.206.976.145.358-.06 1.641-.046 1.282.015 2.472.157 1.19.141 1.931.19.742.049 1.116.03.373-.019.575-.142.202-.122.245-.194.043-.071.075-.159.032-.089-.001-.38-.034-.292-1.169-1.039-1.135-.747-1.889-1.239-.754-.491-3.173-1.426.038-.006-.043.068-.081.075 1.07.494t2.173.664q1.021.245 1.599.492.578.248.775.361M172.437 664.005q-.182-.047-.634-.628t-.769-.945q-.317-.364-.733-.549-.416-.185-.863-.189-.446-.003-.906.302-.461.306-.691.783-.23.477-.317.885-.087.408.049.832t.494.701q.358.276.962.385.604.109 1.191.03.586-.08 1.437-.472.851-.393 1.76-1.182.039.007-.105.637-.143.631-.069 1.186.074.554.275.806l.266.336M178.806 665.12q-.009.134.454 4.191-.349-.278-.268-1.254.081-.975.232-1.556.151-.581.373-.908.223-.326.809-.462.586-.136 1.932.054t2.362.625q1.015.435 1.226.561M189.359 668.612q.06.063-.55-.195-.609-.257-.95-.394-.34-.136-.66-.116-.319.02-.658.448-.34.427-.55.89-.211.463-.17.731.04.268.273.484.233.216.619.332.386.116.687.177.301.061.879-.028.579-.09.899-.245.32-.156.508-.294.188-.137.416-.504-.294.401-.259.339.035-.063-.162.567-.198.631-.339 1.028-.141.398.068.725.209.327.278.376"/><path opacity=".5" stroke-width="1.797" d="M196.229 670.773q-.076-.118-.422-.372-.346-.255-.79-.251-.444.004-.879.249-.436.245-.727.669-.291.424-.356.79-.064.366.04.578.103.211.555.42.452.209 1.016.08.563-.129.972-.33.409-.202.899-1.772.031-.056.174-.037.144.018.266.375.123.358.371 1.958t.389 2.448q.141.848.3 1.906.16 1.059.262 1.989.102.929.182 1.416.08.487.071 1.156-.009.67-.083 1.147-.074.478-.408.842-.334.364-.838.515-.503.152-1.165.088t-1.253-.52q-.591-.455-.976-.802-.385-.346-.912-1.647-.526-1.301-.66-1.731"/><path opacity=".5" stroke-width="1.826" d="M201.399 673.038q.097-.218.081-.135.126-.142.781.268.656.41 1.166.674.509.264.848.365.339.101.627-.021.288-.122.388-.23.099-.109.177-.278.079-.169.12-.477.041-.309-.615-.634-.655-.326-1.025-.455-.37-.128-.75-.108-.38.021-.833.236-.453.214-.748.594-.295.381-.45.879-.156.498-.065 1.051.09.552.58 1.254.49.701 2.139 1.081 1.649.379 2.086.402"/><path opacity=".5" stroke-width="1.575" d="M92.81 711.708l.056-.204q.094.091-.455 2.439-.549 2.349-1.335 4.573-.787 2.225-1.347 3.552-.56 1.327-1.038 2.194-.478.868-1.054 1.405-.084-.077-.083-.348l-.001-.479"/><path opacity=".5" stroke-width="1.528" d="M86.135 711.442q-.048-.013-.21-.05l-.002.006q.161.168 1.207.091 1.047-.077 2.883.313t3.628.965q1.791.576 4.741 2.196 2.951 1.62 3.315 1.829"/><path opacity=".5" stroke-width="1.826" d="M81.778 724.893q.028-.157 1.025.031.997.189 3.181.857 2.185.668 3.342 1.043 1.157.375 2.062.688.905.313 1.588.575.683.263 1.019.414M100.332 723.63q.072-.179.062-.177.124-.236.08-.148l.008-.004q-.033.125-.368 2.009-.334 1.884-.537 3.056-.203 1.171-.102 2.055-.1.245 1.029-.599 1.13-.845 1.993-1.34.863-.495 1.33-.694.468-.199.787-.306.319-.107.621-.066.303.04.616.073.314.033.477.748.163.716.146 1.628-.018.912-.231 1.703-.213.791-.276.959"/><path opacity=".5" stroke-width="1.818" d="M152.329 734.503q-.023-.088-.072-.608-.049-.52-.844-1.12-.795-.6-1.884-1.124-1.088-.524-1.959-.834-.87-.309-1.622-.319-.752-.01-1.076.035-.323.046-1.043.305t-1.589.791q-.868.533-1.711 1.256-.843.724-1.462 1.399t-1.209 1.641q-.59.966-.922 1.962-.331.996-.493 1.635-.162.639-.102 1.286.059.648.421 1.213.361.566.637.868.276.302.808.642.531.341 1.708.685 1.176.344 2.425.545 1.248.201 2.119.277.871.076 1.61.046.739-.03 1.215-.137.475-.108.764-.316.29-.208.408-.394.118-.187.147-.317.029-.131.047-.319.018-.187-.412-.748-.431-.561-1.889-1.554-1.458-.992-3.303-1.968l.003-.013q.333.05 3.951 1.121 3.617 1.071 3.824 1.157"/><path opacity=".5" stroke-width="1.826" d="M156.442 745.357q-.098-.035-.552-.647-.455-.612-.777-.985-.322-.372-.608-.541-.286-.169-.608-.223-.323-.054-.587.045-.264.1-.612.332-.349.232-.635.529-.286.297-.553.79-.268.494-.366.901-.098.407-.025.727.073.321.475.585.401.264.94.332.539.069 1.275-.107.737-.175 1.359-.438.623-.264.873-.409.251-.145.488-.368.237-.222.736-.504.18.125-.03.941t-.29 1.311q-.081.495-.011.784.07.29.203.5.132.21.393.367t.408.242M164.207 747.556q-.101-.057-.13-.083l-.03-.028-.043-.042q-.041-.04-.371-.406-.026.011-.053 4.422.006-.23.138-1.115.133-.885.325-1.484.191-.599.484-1.096.294-.497.731-.845t1.349-.466q.911-.117 2.254.319t1.633.568M175.726 751.074q-.014-.209-.474-.413-.46-.204-.911-.254-.452-.05-.943.104-.49.154-.933.461-.442.306-.666.669-.223.363-.309.809-.086.446.354.734.44.287.879.303.44.015 1.12-.152.681-.166 1.82-.811.072-.05-.082.582-.154.631-.268 1.246-.113.615.171.973.285.358.38.444"/><path opacity=".5" stroke-width="1.816" d="M183.89 753.379q-.332-.008-.696-.244-.363-.237-.927-.135-.564.102-1.026.364-.463.262-.704.608-.241.346-.319.713-.079.367.156.655.234.288.488.419.254.13.659.247.405.117.861.106.456-.01.883-.163.428-.152.739-.504.311-.351.541-.846.23-.495.038-1.566l-.013-.003q-.008.078-.369 1.104-.362 1.027-.327 3.305.034 2.278.113 3.48t.039 2.007q-.039.805-.16 1.353-.121.547-.356.956-.235.409-.777.66-.543.251-1.578.209-1.036-.042-1.805-.179-.77-.136-1.16-.247-.39-.11-.811-.314-.421-.205-.542-.755-.121-.551.168-1.288.289-.737.484-1.099"/><path opacity=".5" stroke-width="1.63" d="M190.879 754.887q-.013-.106-.473.16-.023.255.52.78.542.525 1.259.807.718.283 1.363.428.644.145.968.056.323-.088.643-.213t.426-.482q.106-.358-.05-.824-.157-.466-.407-.917-.249-.452-.496-.831-.248-.379-.377-.525-.129-.146-.244-.21-.115-.064-.189-.072-.074-.008-.217-.017-.143-.008-.727.924-.583.932-1.015 1.755-.433.823-.684 1.464-.252.64-.359 1.071-.106.431-.027.713.08.283.208.574t.944.71q.816.419 2.617.641 1.802.221 2.828.277 1.026.056 2.43.209 1.405.154 2.908.391 1.502.238 2.292.321"/><path opacity=".5" stroke-width="1.826" d="M170.067 448.193q.037.052-.14-.424-.178-.475-.315-.856-.136-.38-.84-.625l-1.141-.398q-.438-.154-1.168.068-.731.222-1.523.742-.792.52-1.299 1.007-.507.486-.78 1.01-.274.525-.447 1.129-.173.603.365 1.449.537.846 1.306 1.603.768.756 1.471 1.3l1.07.827q.367.283.483.585.116.303.083.555-.033.252-.154.406l-.257.324q-.136.169-.946.669-.81.5-1.405.749-.594.248-1.018.363-.425.114-.967.013-.543-.101-.906-.374t-.665-.623q-.303-.351-.346-.655-.044-.305.217-.5.261-.196.459-.307M171.555 456.301q.158.285.165.273.006-.011.014-.016.008-.005.078.106t.75.385q.679.275 1.256.408.578.132 1.007.087.429-.046.638-.125.21-.079.342-.266.133-.187.116-.5-.018-.314-.212-.503-.193-.189-.644-.64-.45-.451-1.046-.669-.596-.217-.977-.358-.381-.14-.834.008-.454.148-.99.663t-.782 1.362q-.246.848-.363 1.403-.116.555.021 1.144.138.59.445 1.139t1.182 1.092q.874.544 1.75.763.875.219 1.073.259M183.148 459.87q-.117-.344-.607-.876-.491-.531-.967-.728-.476-.198-.794-.318-.318-.12-.794.013-.476.133-.797.553-.322.419-.551.888-.229.47-.325.823-.096.352-.008.776.088.424.771.667.684.244 1.076.323.392.08.955.169.563.089 2.134-2.108.16-.029.109.742-.05.771.166 1.508.217.736.896 1.32.679.583.724.627M190.012 461.414q.018-.013.009-.169-.01-.157-.12-.39.024-.041-.14.391-.163.432-.065 1.703.097 1.271.164 2.06.067.79-.018 1.405-.461-.169-.354-1.497.107-1.328.31-2.039.203-.712.392-1.152.189-.441.413-.748.224-.308.94-.296.716.011 1.219.212.502.202.708.31"/><path opacity=".5" stroke-width="1.804" d="M201.51 463.123q-.208-.109-.975-.394-.768-.284-1.28-.437-.511-.153-.9-.098-.389.054-.788.288-.398.235-.77.716-.371.481-.679 1.349-.309.869-.352 1.562-.044.694.046 1.114.09.42.199.711.11.291.6.58.491.288 1.077.421t1.779-.022q1.193-.156 1.701-.254"/><path opacity=".5" stroke-width="1.634" d="M206.489 451.809l-.002.007q-.018.003-.079.052.122.009.143.017.021.009.11.072.09.063.177.21.088.148.095.342.008.195.049.367t.037 1.824q-.003 1.652-.355 5.329-.351 3.677-.642 5.709-.291 2.033-.399 2.825-.108.792-.254 1.351-.146.56-.317.751.022-.044.991-1.154.97-1.111 1.69-1.833.72-.723 1.488-1.185.769-.462 1.381-.61.612-.148 1.27-.059.659.089 1.172.322.513.234.904.716.39.482.557 1.169.167.687.019 1.948-.148 1.261-1.074 2.962-.925 1.701-.971 1.761"/><path opacity=".5" stroke-width="1.826" d="M184.738 580.259q-.09-.108-.583.62-.492.728-1.12 1.841-.627 1.113-.94 1.699-.312.586-.647 1.298-.335.713-.773 1.493-.437.78-.781 1.251-.343.47-.846 1.3-.503.831-.799 1.353-.296.521-.926 1.842.012-.041.038-.099.025-.058.063-.132"/><path opacity=".5" stroke-width="1.666" d="M185.248 580.09q-.015-.027-.099-.195-.016-.072.009.086.024.159.044.515.021.356-.012 1.145-.032.789-.14 2l-.202 2.274q-.095 1.063-.362 2.691-.267 1.629-.462 2.625t-.353 1.545q-.159.55-.062 2.319.016-.026.027-.052"/><path opacity=".5" stroke-width="1.826" d="M181.048 588.34q-.032-.049.449.248.481.296 1.385.547.904.252 1.085.273"/></g></svg>