<?xml version="1.0" encoding="UTF-8"?>
<svg width="1100px" height="600px" viewBox="0 0 1100 600" version="1.1" xmlns="http://www.w3.org/2000/svg" xmlns:xlink="http://www.w3.org/1999/xlink">
    <!-- Generator: Sketch 45.2 (43514) - http://www.bohemiancoding.com/sketch -->
    <title>incident</title>
    <desc>Created with Sketch.</desc>
    <defs>
        <rect id="path-1" x="0" y="0" width="250" height="524" rx="10"></rect>
        <rect id="path-2" x="13" y="58" width="224" height="401" rx="5"></rect>
        <circle id="path-3" cx="125" cy="490" r="22"></circle>
        <rect id="path-4" x="104" y="27" width="42" height="8" rx="4"></rect>
    </defs>
    <g id="Graphics" stroke="none" stroke-width="1" fill="none" fill-rule="evenodd">
        <g id="incident">
            <g transform="translate(20.000000, 170.000000)">
                <path d="M289.545482,206.651487 C313.291998,209.86558 336.727355,212.721262 360,215.406633 C339.504097,205.126399 318.327041,194.947362 296.468089,184.943494 C304.720221,184.472807 312.843702,183.898135 321.03206,183.375385 C303.305247,175.997631 285.386963,168.681219 267.10479,161.505842 C289.696849,158.388636 311.552913,154.838623 332.642405,150.952017 C319.639744,148.239031 306.569824,145.565727 293.383074,142.964328 C299.235333,141.073637 305.023223,139.157259 310.794261,137.234909 C289.451874,137.023928 267.459984,137.261834 244.895644,138.015986 C245.651915,137.579841 246.393983,137.14122 247.148139,136.704668 C242.299268,139.066062 237.392369,141.415936 232.39161,143.742067 C241.528737,144.387248 250.551162,145.122656 259.512135,145.902886 C245.400897,150.054072 230.717654,154.000516 215.521806,157.664482 C232.447524,162.412674 248.496421,167.554522 263.439911,172.947754 C253.788586,173.022151 244.04416,173.019518 234.197938,172.921519 C226.214227,171.785371 218.067552,170.493221 209.775301,169.030603 C218.09603,175.490148 226.071569,181.96455 233.692701,188.406745 C231.099228,187.376793 228.501274,186.339772 225.886975,185.274274 C229.930792,190.143644 233.913157,195.004144 237.860703,199.858656 C229.227771,194.965966 220.40971,189.723626 211.443198,184.106077 C216.089031,192.140814 220.566347,200.117814 224.957975,208.059692 C221.871129,205.805168 218.794302,203.588838 215.698748,201.296559 C220.870123,211.415776 225.749065,221.394647 230.355865,231.206827 C222.706254,223.298675 215.04399,215.280723 207.366169,207.041118 C208.704164,211.415227 209.988373,215.749199 211.248065,220.063503 C208.298861,215.660776 205.349925,211.206174 202.406006,206.656613 C202.552624,207.991815 202.674188,209.302851 202.817636,210.635122 C201.080397,208.040117 199.340791,205.471066 197.606708,202.843024 C198.750105,210.943835 199.778517,218.93096 200.709378,226.806482 C195.901117,215.902882 191.156125,204.638631 186.515577,193.032098 C186.055953,199.765375 185.521434,206.392049 184.928649,212.917951 C184.788089,212.32886 184.643317,211.750865 184.503561,211.160098 C182.699347,218.953591 180.859792,226.677248 178.988856,234.329315 C177.77241,227.442778 176.58023,220.509632 175.423122,213.51552 C174.970361,215.102655 174.50889,216.663961 174.051633,218.238714 C173.836983,208.902533 173.75524,199.365198 173.844366,189.622838 C169.58776,198.757912 165.262585,207.601763 160.901028,216.126902 C162.401198,207.383557 164.03033,198.51333 165.805277,189.524431 C162.825749,193.442555 159.844658,197.267946 156.864341,201.048936 C157.871407,198.251398 158.898509,195.440554 159.951187,192.614289 C152.827134,199.168228 145.731023,205.523113 138.657584,211.762525 C141.292978,206.970043 143.977959,202.153834 146.749953,197.301547 C146.006053,197.777656 145.265325,198.243076 144.521961,198.717383 C148.595835,192.245755 152.818693,185.718741 157.209518,179.147735 C146.528961,185.457233 136.006366,191.321152 125.736665,196.71592 C130.632741,191.459272 135.585774,186.195132 140.656679,180.920304 C136.339945,182.42414 132.060919,183.868296 127.801142,185.284132 C133.107538,181.290217 138.551056,177.294782 144.157001,173.311431 C138.918115,173.947585 133.721165,174.534184 128.545562,175.098982 C128.882313,174.853993 129.214046,174.608439 129.55157,174.363591 C124.486471,175.112319 119.481752,175.797748 114.512895,176.448478 C119.800028,173.864303 125.164691,171.295377 130.631684,168.752561 C121.492444,168.107395 112.467905,167.371846 103.505086,166.591475 C117.225283,162.555088 131.482634,158.711643 146.232047,155.135536 C140.244528,153.567569 134.36723,151.942413 128.580114,150.278657 C117.586015,146.823321 106.892023,143.247778 96.5600741,139.56883 C107.280185,139.466239 118.124494,139.465549 129.086944,139.576321 C128.218325,139.107563 127.368954,138.635199 126.505336,138.165344 C134.726384,139.474984 143.087188,140.931506 151.592497,142.576925 C143.22352,136.177891 135.191547,129.754847 127.500001,123.354293 C130.69866,124.616885 133.912875,125.904883 137.143957,127.22203 C132.654241,121.815602 128.233346,116.418765 123.862037,111.031096 C132.791898,116.190153 141.916892,121.737178 151.171637,127.654131 C146.68006,119.873693 142.348306,112.1485 138.094855,104.455356 C141.17326,106.704176 144.242182,108.914833 147.329817,111.201406 C142.157385,101.079275 137.276865,91.0974889 132.669009,81.282817 C140.319408,89.1915174 147.981941,97.2098768 155.660565,105.450046 C154.322287,101.076924 153.038346,96.7439077 151.778923,92.4305911 C154.728916,96.8343993 157.678119,101.290538 160.622559,105.841494 C160.475941,104.503799 160.354124,103.190272 160.21014,101.855352 C161.947111,104.449244 163.685675,107.016917 165.419759,109.643705 C164.276883,101.54457 163.248991,93.5591072 162.318146,85.6849642 C167.301234,96.9841797 172.214192,108.678855 177.016915,120.729996 C177.653228,113.163172 178.385769,105.754465 179.190049,98.4882982 C180.781727,91.6599372 182.395035,84.8761322 184.038399,78.1574223 C185.255098,85.0454714 186.447546,91.9798872 187.604654,98.9755189 C187.75285,98.4547125 187.905527,97.9452843 188.054512,97.425998 C188.387571,106.31649 188.58403,115.435876 188.637815,124.743894 C192.970894,115.612299 197.368329,106.795514 201.795015,98.3010455 C200.311458,106.853674 198.698939,115.531649 196.953796,124.315256 C199.420956,121.179181 201.885466,118.109869 204.347877,115.072059 C203.712367,116.863373 203.114565,118.628592 202.460328,120.432395 C209.796411,113.673431 217.105058,107.122125 224.388384,100.696589 C221.746127,105.501546 219.053777,110.330528 216.273879,115.195604 C212.697084,121.438604 208.618209,127.970759 204.359488,134.562453 C215.081966,128.335266 225.625387,122.568923 235.899837,117.277153 C231.453113,122.036456 226.954167,126.802279 222.364235,131.575594 C226.092664,130.276485 229.796307,129.016666 233.4828,127.783225 C228.480969,131.610982 223.346781,135.443456 218.064918,139.269552 C223.584104,138.595361 229.061116,137.970318 234.510156,137.375381 C234.164459,137.626624 233.824017,137.878431 233.47832,138.129674 C238.439793,137.396069 243.34035,136.726188 248.208753,136.087259 C263.138518,127.431899 277.679593,118.708129 291.786901,109.950899 C308.804396,96.1128791 325.524397,82.2566954 341.986531,68.3999471 C309.42883,80.40444 275.29684,94.4124965 240.166224,110.342879 C261.532876,82.4418635 281.657477,54.7852815 300.538241,27.5909305 C284.164206,38.9989669 267.741878,50.5716331 251.238627,62.4617575 C257.354558,50.3216443 263.26166,38.2816142 269.01662,26.3259719 C261.329823,34.5082635 253.626144,42.8004967 245.899808,51.2877479 C246.171131,50.3648137 246.431677,49.4488223 246.701958,48.5263034 C238.117557,57.2977015 229.523643,66.1609782 220.920753,75.1683465 C225.07162,61.0910342 228.960646,47.2133246 232.62868,33.5318946 C227.888184,40.8913355 223.151111,48.3211529 218.421959,55.8532633 C220.169753,41.1354944 221.771717,26.5600065 223.292192,12.069878 C212.457112,35.7633648 201.770228,60.6533696 191.367084,86.5885996 C190.213415,69.2222424 188.827679,52.2138719 187.266593,35.5357167 C185.476343,24.1156048 183.897587,12.0018639 182.263973,0 C178.01554,21.3838669 173.885514,43.0188356 169.974336,65.0495452 C168.781903,61.024262 167.542264,57.1455625 166.333723,53.1683069 C166.007796,61.8825091 165.718787,70.6539068 165.51152,79.543004 C157.231938,61.9925834 148.861115,44.8111198 140.429644,28.0287283 C143.737467,48.8976186 147.508874,70.2788451 151.795015,92.107868 C139.756411,76.2163371 127.715708,60.8508949 115.734343,46.0726073 C116.145184,47.1757105 116.53703,48.266597 116.951042,49.3709537 C105.987535,39.015626 95.0419664,28.8156268 84.1148574,18.7295888 C89.9185861,32.5931385 95.8573218,46.5260856 101.890729,60.5042938 C109.835943,74.1138189 118.087844,87.8660486 126.707333,101.752213 C103.001948,87.9093511 79.5642252,74.8354818 56.5136059,62.5396248 C68.2165163,74.723746 80.2284808,86.9613019 92.5837756,99.2296617 C86.2378907,97.1897543 79.9600379,95.2579701 73.6510646,93.2789808 C75.611134,95.364291 77.5060675,97.4443194 79.4745701,99.5306012 C68.5825264,95.9116151 57.8036211,92.4623753 47.0911586,89.103377 C54.7874423,94.711759 62.5512336,100.318621 70.459529,105.917552 C46.7111692,102.703599 23.2744952,99.8476342 0,97.1622629 C20.5014521,107.445129 41.6848234,117.627082 63.5490677,127.634289 C55.317472,128.103737 47.2156207,128.676732 39.0481081,129.197679 C56.2187899,136.345019 73.5645721,143.436001 91.2557982,150.394568 C67.7851087,153.408211 45.0111091,156.872434 23.0709241,160.723934 C37.4846478,163.74883 51.9954139,166.718622 66.6359169,169.60706 C59.4026853,171.943754 52.2353787,174.30626 45.1274033,176.69041 C66.5372933,176.729418 88.5597526,176.323411 111.129645,175.396864 C94.4265038,184.67255 78.2143606,194.066217 62.4296718,203.514017 C64.5144691,203.091491 66.577904,202.693525 68.6695563,202.262379 C49.7207528,217.665858 31.1179294,233.092956 12.8589647,248.517671 C35.3059758,240.132016 58.2403005,231.054271 81.5353725,221.34371 C93.5984874,215.965883 105.767357,210.393454 118.051717,204.566459 C97.3379926,231.681978 77.8114318,258.556097 59.4548925,284.996845 C75.8323742,273.586309 92.2581108,262.011151 108.764808,250.11797 C102.649651,262.256548 96.7433538,274.294791 90.9894654,286.248749 C98.6783618,278.064388 106.384668,269.769789 114.113133,261.280194 C113.848895,262.180223 113.59417,263.073451 113.331004,263.97279 C121.485584,255.641549 129.648098,247.243136 137.819038,238.699535 C133.314019,253.507232 129.103292,268.104794 125.126197,282.504415 C130.616652,274.0162 136.103936,265.452319 141.57937,256.731872 C139.649617,272.994146 137.909221,289.070171 136.255824,305.053165 C146.950091,281.190042 157.476125,256.162215 167.701271,230.145214 C168.602328,247.663562 169.734381,264.867961 171.05155,281.765121 C171.718173,279.894004 172.391406,278.042165 173.056704,276.166754 C174.528931,288.434158 176.103742,300.515813 177.733128,312.486728 C181.860265,291.720828 185.878493,270.72464 189.688396,249.347457 C191.509224,255.693864 193.354853,261.976578 195.217616,268.208357 C195.477611,257.482826 195.68251,246.679435 195.765042,235.719885 C204.257176,253.665209 212.846341,271.199793 221.494308,288.332946 C218.03485,267.504044 214.105228,246.1793 209.683276,224.452876 C222.033829,241.293146 234.414185,257.538494 246.764455,273.249981 C245.528002,269.897926 244.316023,266.563078 243.055572,263.196009 C254.017218,273.548978 264.960405,283.747041 275.8854,293.830854 C269.274757,278.04204 262.518046,262.175083 255.610742,246.23873 C256.608562,247.053502 257.598761,247.839029 258.59554,248.650071 C251.237052,236.611169 243.649399,224.482716 235.796497,212.277766 C258.653806,225.587614 281.250063,238.162884 303.493001,250.028732 C291.788244,237.841978 279.773369,225.602596 267.414911,213.332011 C273.763163,215.373721 280.044455,217.306492 286.355281,219.287127 C284.399149,217.205594 282.50819,215.129421 280.543097,213.047182 C291.432245,216.664649 302.208523,220.112211 312.918615,223.469815 C305.220739,217.860195 297.45537,212.251955 289.545482,206.651487 Z" id="Shape" fill="#4A90E2" fill-rule="nonzero"></path>
                <g id="Group-8" transform="translate(155.000000, 131.000000)">
                    <circle id="Oval-2" stroke="#4A90E2" stroke-width="3" fill="#FFFFFF" cx="24.5" cy="24.5" r="24.5"></circle>
                    <path d="M21.588,32.984 L21.588,38.7333333 L27.4493333,38.7333333 L27.4493333,32.984 L21.588,32.984 Z M27.2626667,19.2453333 L27.2626667,12.0773333 L21.7373333,12.0773333 L21.7373333,19.2453333 L23.156,30.744 L25.8066667,30.744 L27.2626667,19.2453333 Z" id="!" fill="#4A90E2"></path>
                </g>
            </g>
            <g id="phone" transform="translate(831.000000, 37.000000)">
                <g id="Group">
                    <g id="Rectangle-6">
                        <use fill="#FFFFFF" fill-rule="evenodd" xlink:href="#path-1"></use>
                        <rect stroke="#D8D8D8" stroke-width="3" x="1.5" y="1.5" width="247" height="521" rx="10"></rect>
                    </g>
                    <g id="Rectangle-7">
                        <use fill="#FFFFFF" fill-rule="evenodd" xlink:href="#path-2"></use>
                        <rect stroke="#4A90E2" stroke-width="3" x="14.5" y="59.5" width="221" height="398" rx="5"></rect>
                    </g>
                    <g id="Oval-73">
                        <use fill="#FFFFFF" fill-rule="evenodd" xlink:href="#path-3"></use>
                        <circle stroke="#D8D8D8" stroke-width="3" cx="125" cy="490" r="20.5"></circle>
                    </g>
                    <g id="Rectangle-243">
                        <use fill="#D8D8D8" fill-rule="evenodd" xlink:href="#path-4"></use>
                        <rect stroke="#D8D8D8" stroke-width="3" x="105.5" y="28.5" width="39" height="5" rx="2.5"></rect>
                    </g>
                </g>
                <g id="Group-8" transform="translate(27.000000, 71.000000)">
                    <circle id="Oval-2" stroke="#4A90E2" stroke-width="3" fill="#FFFFFF" cx="24.5" cy="24.5" r="24.5"></circle>
                    <path d="M21.588,32.984 L21.588,38.7333333 L27.4493333,38.7333333 L27.4493333,32.984 L21.588,32.984 Z M27.2626667,19.2453333 L27.2626667,12.0773333 L21.7373333,12.0773333 L21.7373333,19.2453333 L23.156,30.744 L25.8066667,30.744 L27.2626667,19.2453333 Z" id="!" fill="#4A90E2"></path>
                </g>
                <text id="Incident" font-family="HelveticaNeue-Bold, Helvetica Neue" font-size="18" font-weight="bold" fill="#4A90E2">
                    <tspan x="91" y="92">Incident</tspan>
                </text>
                <text id="2-min-ago" font-family="HelveticaNeue, Helvetica Neue" font-size="18" font-weight="normal" fill="#4A90E2">
                    <tspan x="91" y="114">2 min ago</tspan>
                </text>
                <rect id="Rectangle-2" fill="#4A90E2" x="27" y="377" width="193.732422" height="65"></rect>
                <text id="Acknowledge" font-family="HelveticaNeue-Bold, Helvetica Neue" font-size="18" font-weight="bold" fill="#FFFFFF">
                    <tspan x="65.944072" y="414">Acknowledge</tspan>
                </text>
                <path d="M16.4761074,132 L235.5,132" id="Line" stroke="#4A90E2" stroke-width="2" stroke-linecap="square"></path>
                <path d="M15.4761074,360 L234.5,360" id="Line" stroke="#4A90E2" stroke-width="2" stroke-linecap="square"></path>
            </g>
            <g id="account" transform="translate(453.000000, 103.000000)">
                <ellipse id="Oval" stroke="#979797" fill="#D8D8D8" cx="198.903659" cy="75.9473684" rx="24.9036589" ry="24.8911579"></ellipse>
                <ellipse id="Oval" stroke="#979797" fill="#D8D8D8" cx="51.9036589" cy="211.891158" rx="24.9036589" ry="24.8911579"></ellipse>
                <ellipse id="Oval" stroke="#979797" fill="#D8D8D8" cx="126.903659" cy="161.891158" rx="24.9036589" ry="24.8911579"></ellipse>
                <ellipse id="Oval" stroke="#979797" fill="#D8D8D8" cx="182.903659" cy="434.673474" rx="24.9036589" ry="24.8911579"></ellipse>
                <ellipse id="Oval" stroke="#979797" fill="#D8D8D8" cx="124.903659" cy="291.200632" rx="24.9036589" ry="24.8911579"></ellipse>
                <ellipse id="Oval" stroke="#979797" fill="#D8D8D8" cx="177.079259" cy="241.418316" rx="24.9036589" ry="24.8911579"></ellipse>
                <ellipse id="Oval" stroke="#979797" fill="#D8D8D8" cx="99.9036589" cy="384.891158" rx="24.9036589" ry="24.8911579"></ellipse>
                <ellipse id="Oval" stroke="#979797" fill="#D8D8D8" cx="242.382187" cy="212.259579" rx="24.9036589" ry="24.8911579"></ellipse>
                <ellipse id="Oval" stroke="#979797" fill="#D8D8D8" cx="223.903659" cy="334.891158" rx="24.9036589" ry="24.8911579"></ellipse>
                <ellipse id="Oval" fill="#4A90E2" cx="124.903659" cy="25.1088421" rx="24.9036589" ry="24.8911579"></ellipse>
                <ellipse id="Oval" stroke="#979797" fill="#D8D8D8" cx="49.9036589" cy="100.838526" rx="24.9036589" ry="24.8911579"></ellipse>
                <ellipse id="Oval" stroke="#979797" fill="#D8D8D8" cx="24.9036589" cy="316.091789" rx="24.9036589" ry="24.8911579"></ellipse>
                <ellipse id="Oval" stroke="#979797" fill="#D8D8D8" cx="192.903659" cy="150.620842" rx="24.9036589" ry="24.8911579"></ellipse>
            </g>
            <path d="M340.5,200.5 L525.5,131.5" id="arrow" stroke="#4A90E2" stroke-width="5" stroke-linecap="square"></path>
            <path id="arrow-decoration-1" d="M525.5,131.5 L514.332544,132.463288 L516.429291,138.085001 L525.5,131.5 Z" stroke="#4A90E2" stroke-width="5" stroke-linecap="square"></path>
            <path d="M627.5,126.5 L799.5,126.5" id="arrow" stroke="#4A90E2" stroke-width="5" stroke-linecap="square"></path>
            <path id="arrow-decoration-1" d="M799.5,126.5 L788.7,123.5 L788.7,129.5 L799.5,126.5 Z" stroke="#4A90E2" stroke-width="5" stroke-linecap="square"></path>
        </g>
    </g>
</svg>