<?xml version="1.0" encoding="UTF-8"?>
<svg width="100px" height="100px" viewBox="0 0 100 100" version="1.1" xmlns="http://www.w3.org/2000/svg" xmlns:xlink="http://www.w3.org/1999/xlink">
    <!-- Generator: Sketch 42 (36781) - http://www.bohemiancoding.com/sketch -->
    <title>logo</title>
    <desc>Created with Sketch.</desc>
    <defs></defs>
    <g id="Page-1" stroke="none" stroke-width="1" fill="none" fill-rule="evenodd">
        <g id="logo" fill="#486E9A">
            <path d="M50,100 C22.3857625,100 0,77.6142375 0,50 C0,22.3857625 22.3857625,0 50,0 C77.6142375,0 100,22.3857625 100,50 C100,77.6142375 77.6142375,100 50,100 Z M74.097561,78.4146341 C78.1317073,78.4146341 81.4146341,75.1317073 81.4146341,71.097561 L81.4146341,63.7804878 L78.9756098,63.7804878 L78.9756098,71.097561 C78.9756098,73.7878049 76.7878049,75.9756098 74.097561,75.9756098 C71.4073171,75.9756098 69.2195122,73.7878049 69.2195122,71.097561 L69.2195122,22.3170732 C69.2195122,18.2829268 65.9365854,15 61.902439,15 C57.8682927,15 54.5853659,18.2829268 54.5853659,22.3170732 L54.5853659,71.097561 C54.5853659,73.7878049 52.397561,75.9756098 49.7073171,75.9756098 C47.0170732,75.9756098 44.8292683,73.7878049 44.8292683,71.097561 L44.8292683,43.0487805 C44.8292683,39.0146341 41.5463415,35.7317073 37.5121951,35.7317073 C33.4780488,35.7317073 30.195122,39.0146341 30.195122,43.0487805 L30.195122,71.097561 C30.195122,73.7878049 28.0073171,75.9756098 25.3170732,75.9756098 C22.6268293,75.9756098 20.4390244,73.7878049 20.4390244,71.097561 L20.4390244,63.7804878 L18,63.7804878 L18,71.097561 C18,75.1317073 21.2829268,78.4146341 25.3170732,78.4146341 C29.3512195,78.4146341 32.6341463,75.1317073 32.6341463,71.097561 L32.6341463,43.0487805 C32.6341463,40.3585366 34.8219512,38.1707317 37.5121951,38.1707317 C40.202439,38.1707317 42.3902439,40.3585366 42.3902439,43.0487805 L42.3902439,71.097561 C42.3902439,75.1317073 45.6731707,78.4146341 49.7073171,78.4146341 C53.7414634,78.4146341 57.0243902,75.1317073 57.0243902,71.097561 L57.0243902,22.3170732 C57.0243902,19.6268293 59.2121951,17.4390244 61.902439,17.4390244 C64.5926829,17.4390244 66.7804878,19.6268293 66.7804878,22.3170732 L66.7804878,71.097561 C66.7804878,75.1317073 70.0634146,78.4146341 74.097561,78.4146341 Z"></path>
        </g>
    </g>
</svg>