<svg xmlns="http://www.w3.org/2000/svg" width="2647.717" height="1577.146" viewBox="-763.382 -82.592 1985.788 1182.859"><g fill="none" stroke="#000" stroke-linecap="round" stroke-linejoin="round"><path stroke-width="6.804" d="M-627.018 469.618q-1.853.075-5.564.451-3.711.376-5.436 5.293-1.725 4.918 3.99 9.779 5.714 4.862 18.532 7.228 12.818 2.366 25 2.871 12.183.505 31.248.095 19.065-.411 44.236-5.758 25.17-5.347 40.812-10.177 15.642-4.83 25.938-8.523 10.296-3.692 23.393-9.021 13.098-5.329 22.681-8.891 9.584-3.563 43.199-20.247 33.615-16.684 51.554-26.146 17.94-9.461 26.39-14.072 8.451-4.61 36.03-21.389 27.579-16.778 42.307-25.664 14.729-8.886 64.234-42.825 49.506-33.938 78.156-54.419 28.65-20.482 43.765-30.969 15.114-10.487 25.626-18.171 10.511-7.684 21.468-15.424 10.957-7.74 29.558-20.499 18.601-12.759 44.84-31.169 26.239-18.409 61.866-42.014 35.626-23.604 53.088-34.907 17.462-11.303 36.757-23.641 19.296-12.337 40.348-24.839 21.052-12.502 33.223-19.577 12.171-7.075 19.382-11.421 7.212-4.347 22.642-13.062 15.431-8.715 34.624-19.563-1.579-.523-42.783 25.071-41.205 25.594-72.695 44.875-31.491 19.282-78.024 49.07-46.532 29.789-71.521 46.17-24.988 16.382-36.243 24.039-11.255 7.658-30.585 20.659-19.33 13-34.946 23.491-15.616 10.49-43.108 29.919-27.493 19.429-42.941 30.677-15.448 11.248-23.086 16.786-7.637 5.537-34.966 26.334-27.328 20.797-46.137 35.494-18.808 14.698-27.943 21.881-9.136 7.183-15.571 12.353-6.435 5.17-9.461 7.426-3.025 2.256-27.012 22.209-23.988 19.952-44.491 37.646-20.504 17.694-33.325 29.079-12.822 11.385-30.669 27.746-17.846 16.362-40.299 37.633-22.452 21.271-43.512 42.116t-33.196 33.357q-12.136 12.512-20.898 21.823-8.761 9.31-18.148 19.617-9.387 10.308-23.072 26.053-13.684 15.746-22.166 25.254-8.483 9.507-30.515 36.966-22.033 27.459-34.32 43.158-12.288 15.699-25.884 35.252-13.596 19.554-20.43 29.957-6.835 10.403-10.757 15.861-3.922 5.458-17.991 28.066-14.07 22.608-25.843 45.734-11.772 23.126-18.925 39.079-7.152 15.953-9.951 27.374-2.799 11.42-3.1 17.649-.301 6.229-.187 10.655.114 4.425 4.301 7.364 4.187 2.94 7.966 3.704 3.778.765 12.502.793 8.724.028 30.922-8.84 22.199-8.868 51.807-26.056 29.609-17.189 49.74-29.933t38.449-24.702q18.319-11.959 27.816-18.333 9.498-6.375 15.718-10.512 6.221-4.137 38.075-25.759 31.854-21.622 51.072-34.816 19.219-13.194 35.232-24.336 16.013-11.142 24.217-16.894 8.204-5.752 21.653-15.28 13.45-9.528 33.303-23.538 19.853-14.01 64.361-46.04 44.508-32.029 69.476-50.442 24.968-18.414 37.381-27.704 12.414-9.291 18.544-13.871 6.13-4.581 18.863-14.137 12.732-9.557 21.285-15.983 8.552-6.425 18.835-14.155 10.284-7.729 32.559-24.271t35.678-26.463q13.404-9.921 22.277-16.511 8.873-6.589 26.147-19.343 17.273-12.754 28.872-21.383t32.426-23.728q20.828-15.098 31.944-23.059 11.117-7.961 17.902-12.792 6.786-4.832 23.399-16.591 16.613-11.76 32-22.594 15.386-10.834 25.932-18.297 10.546-7.463 27.111-19.279 16.564-11.815 43.669-30.758 27.105-18.942 50.486-35.018 23.381-16.075 35.472-24.352 12.091-8.276 24.011-16.408 11.919-8.131 20.133-13.709 8.214-5.578 12.831-8.733 4.617-3.155 17.844-12.027 13.226-8.872 53.93-36.53t64.308-44.028q23.604-16.371 36.386-25.439 12.782-9.069 25.01-17.979 12.228-8.91 21.521-16.081 9.294-7.171 16.566-18.819-3.669-5.308-33.164 4.38-29.496 9.688-48.361 17.282-18.864 7.594-38.655 16.349-19.79 8.755-29.927 13.57-10.138 4.815-24.096 11.726-13.958 6.91-24.296 12.165-10.338 5.255-26.335 13.369-15.997 8.115-43.511 23.07-27.514 14.956-43.058 23.837-15.544 8.88-24.311 14.196-8.768 5.315-14.244 8.013-5.477 2.699-51.363 31.438-45.887 28.738-70.996 45.495-25.109 16.757-36.524 24.351-11.414 7.594-16.79 11.319-5.376 3.726-9.062 6.295-3.687 2.569-20.429 14.388-16.742 11.82-39.54 28.322-22.797 16.502-47.724 36.228-24.926 19.727-39.975 33.159-15.048 13.432-21.836 20.215-6.787 6.783-10.302 10.332-3.515 3.549-8.992 9.955-5.478 6.407-8.905 12.156-3.428 5.749-4.567 12.189-1.139 6.44 16.366 8.849 17.506 2.408 59.852-2.481 42.346-4.89 65.522-8.592 23.176-3.702 35.536-5.065 12.359-1.363 24.34-2.76 11.981-1.398 33.121-2.475 21.14-1.076 33.795-.582 12.655.495 23.405 2.067 10.75 1.572 17.875 4.516t12.625 7.864q5.499 4.921 8.641 12.479 3.142 7.557 2.563 17.438-.578 9.881-4.691 20.701-4.112 10.82-21.536 29.987-17.424 19.167-27.78 28.926-10.356 9.759-21.993 20.747-11.638 10.988-21.171 19.671T196.38 654.78q-5.693 5.195-8.79 7.883-3.097 2.687-43.516 38.94t-65.817 59.432q-25.398 23.178-39.293 35.735-13.896 12.556-22.719 20.558-8.822 8.001-24.473 22.328-15.651 14.328-29.335 26.858-13.684 12.53-22.955 21.039-9.272 8.509-15.657 14.398-6.385 5.889-18.72 17.504-12.335 11.614-20.276 19.083-7.941 7.47-18.234 17.302-10.293 9.832-16.034 15.233-5.74 5.401-26.663 26.262-20.924 20.86-37.407 37.056-16.482 16.196-27.187 25.642-10.705 9.446-21.703 14.695-2.914-3.465 17.327-30.5 20.24-27.036 32.268-41.084 12.027-14.049 18.081-20.729 6.055-6.681 31.375-33.017 25.321-26.336 49.377-49.358 24.057-23.021 58.084-51.482 34.028-28.461 51.228-42.037 17.2-13.576 28.494-21.991t20.378-15.444q9.084-7.029 44.358-31.168 35.274-24.14 66.962-44.273 31.687-20.133 46.906-29.697 15.219-9.563 36.149-22.258 20.93-12.695 32.325-19.504 11.395-6.81 29.918-17.633 18.522-10.823 32.311-18.77 13.789-7.947 32.696-18.619 18.908-10.672 35.461-19.715 16.554-9.043 26.137-14.059 9.583-5.016 15.626-8.736 6.044-3.72 52.354-26.902 46.309-23.182 71.062-34.895 24.753-11.713 36.019-16.935 11.266-5.222 27.191-12.382 15.925-7.159 26.299-11.787 10.375-4.628 40.206-17.796 29.831-13.168 57.825-25.988 27.994-12.82 48.998-21.968 21.004-9.148 31.2-13.849 10.196-4.701 33.472-14.253 23.275-9.552 43.445-15.594 20.17-6.041 32.745-9.066 12.576-3.024 28.512-4.903 15.936-1.879 23.254-2.707"/><path stroke-width="7.226" d="M25.119 924.952q-1.104-3.776 9.238-7.409 10.342-3.633 18.655-8.065 8.312-4.432 28.959-15.777 20.647-11.345 36.374-20.574 15.728-9.228 44.641-26.162 28.912-16.933 43.954-25.671 15.042-8.737 23.734-13.901 8.692-5.164 20.991-12.438 12.299-7.275 21.76-12.74 9.462-5.465 22.012-12.752 12.551-7.288 42.43-25.32 29.88-18.031 48.083-28.871 18.202-10.841 32.737-19.708 14.534-8.867 25.576-15.47 11.041-6.603 56.258-35.07 45.217-28.466 68.962-43.779 23.746-15.312 35.836-23.329 12.091-8.016 21.489-14.323 9.398-6.307 17.737-11.994 8.34-5.686 19.615-13.369 11.274-7.684 19.677-13.389 8.403-5.706 13.179-9.006t8.392-5.694q3.616-2.394 24.274-16.822 20.657-14.429 42.713-30.719 22.055-16.29 37.032-27.566 14.978-11.276 26.676-20.219 11.698-8.943 20.979-16.311 9.281-7.368 17.074-13.393 7.793-6.026 43.594-34.761 35.8-28.734 62.417-50.841 26.617-22.108 46.192-39.056 19.575-16.949 28.79-25.22 9.215-8.27 25.695-23.407t32.569-31.409q16.088-16.273 28.784-30.795 12.695-14.522 20.964-25.816 8.268-11.294 12.294-19.363 4.026-8.07 5.517-13.814 1.492-5.743 1.543-9.045.052-3.301-.928-6.165-.981-2.863-7.144-5.404-6.163-2.54-17.868-2.646-11.706-.106-28.031 3.681-16.325 3.786-43.785 15.704-27.461 11.918-45.144 20.821-17.683 8.903-44.28 23.322-26.597 14.418-48.055 26.532-21.457 12.114-61.234 37.127-39.776 25.012-60.616 39.017-20.84 14.004-36.429 24.728-15.589 10.724-36.467 25.893t-31.86 23.112q-10.981 7.943-30.144 22.744-19.163 14.802-29.647 23.023-10.484 8.22-23.054 18.524-12.57 10.304-20.688 17.137-8.118 6.833-18.726 15.943-10.608 9.111-23.583 20.346-12.976 11.236-32.522 29.673-19.545 18.437-31.6 30.724-12.056 12.286-18.945 19.602-6.89 7.317-18.734 20.457-11.844 13.141-20.057 23.268-8.212 10.128-14.97 18.774-6.758 8.647-16.311 22.74-9.553 14.094-16.456 25.791-6.904 11.697-10.418 18.089-3.515 6.393-9.551 19.448-6.035 13.056-9.036 25.082-3 12.025-3.663 20.4-.662 8.375-.032 12.991t2.379 7.819q1.749 3.202 5.63 6.12t14.444 3.855q10.562.937 27.223-4.969 16.66-5.905 36.455-16.221 19.795-10.316 30.037-16.044 10.242-5.729 23.919-13.626 13.676-7.897 45.393-24.561t48.134-25.503q16.417-8.839 42.107-20.897 25.69-12.059 50.307-21.97t43.468-15.799q18.851-5.888 28.67-8.211 9.819-2.323 15.408-3.485 5.589-1.162 15.995-3.232 10.405-2.069 21.96-2.105 11.555-.035 17.91.209 6.354.244 10.467 2.085 4.113 1.842 6.718 3.759 2.606 1.917 3.359 6.506.752 4.589.031 7.645-.722 3.055-1.396 5.003-.675 1.949-4.212 8.114-3.537 6.166-14.474 19.517-10.936 13.352-24.502 28.437-13.566 15.084-26.628 28.867-13.061 13.781-28.54 32.414-15.479 18.633-24.194 29.32-8.716 10.687-12.967 16.703-4.251 6.017-9.955 14.464-5.703 8.448-10.537 18.126-4.834 9.678-7.132 19.354-2.297 9.675-2.487 16.897-.19 7.222 1.472 12.716 1.661 5.493 6.616 9.479 4.955 3.985 10.401 6.053 5.446 2.067 18.75 3.105 13.305 1.039 32.552-1.166t58.72-15.943q39.474-13.737 60.988-22.626 21.514-8.89 47.04-19.452 25.526-10.562 39.524-16.349 13.997-5.788 21.062-8.712 7.064-2.924 23.688-9.76 16.624-6.835 86.65-36.253 70.027-29.419 96.499-40.807"/><path opacity=".5" stroke-width=".664" d="M-630.009 476.131q.032-.005-.037.002-.068.007-.417.391-.349.383-.64.682-.291.298-.461.461-.169.164-1.128.981.01-.018.032-.046l.054-.066"/><path opacity=".5" stroke-width=".604" d="M-628.435 476.996q.017.022-.014-.028-.032-.049-.176.086-.145.135-.338.37-.192.235-.285.359-.093.123-.354.451-.262.328-.407.523-.145.194-.427.52-.282.326-.46.515-.177.189-.272.237-.095.048-.121.042"/><path opacity=".5" stroke-width=".68" d="M-631.445 477.468q-.019.024.207.34.225.316.905.691.681.375.743.4M-629.021 480.416q-.111-.035-.746.993.004.005.01.005l.015.002M-628.686 479.005l-.145-.086q.057.016.185.027.128.012.175.013"/><path opacity=".5" stroke-width=".578" d="M-625.372 478.129q-.007.023.005-.117l-.005-.003q-.045 0-.371.559t-.511.868q-.185.308-.398.589-.213.281-.585.758-.007-.03-.01-.059"/><path opacity=".5" stroke-width=".68" d="M-627.832 481.714q-.001.003-.061-.038-.059-.04-.133-.047-.075-.007-.137.092-.062.099-.095.158-.033.06-.033.081-.001.022-.006.033-.004.012.011.064.014.051.039.068.024.017.068.024.044.008.107-.042.064-.05.112-.138.047-.088.064-.139.018-.05.006-.079-.011-.029-.029-.046-.017-.017-.048-.014-.031.003-.06.012"/><path opacity=".5" stroke-width=".301" d="M382.219 707.134q.023-.016-.339.174-.361.191-.674.31-.312.119-.52.188-.207.07-.298.103-.091.033-.409.129-.317.096-.624.162t-.458.1q-.152.034-.231.064-.078.03-.137.065-.06.036-.039.093.021.056.044.072"/><path opacity=".5" stroke-width=".311" d="M382.34 709.804q.047-.003.044-.005.049.005.068-.018.02-.023-.148-.093-.168-.071-.506-.159l-.639-.168-.702-.19q-.402-.108-.684-.192-.282-.084-.592-.18-.309-.096-.515-.145-.205-.05-.546-.128.004-.002.067.006t.118.022"/><path opacity=".5" stroke-width=".47" d="M379.263 710.828l.004-.032.002-.028v-.006l.017-.13q.014-.121.001-.212-.013-.092-.041-.146-.029-.054-.082-.108-.054-.053-.179-.08-.125-.027-.232-.026-.106.001-.183.037-.077.037-.134.093-.058.055-.079.178-.021.123-.009.197.012.074.039.125.027.05.092.128.066.078.149.132.083.055.18.079.097.024.181.021.084-.004.176-.049.092-.044.099-.231.006-.186.002-.213"/><path opacity=".5" stroke-width=".404" d="M379.438 712.051q-.073.042-.941.219.033.021.066.034"/><path opacity=".5" stroke-width=".474" d="M380.395 711.651l-.002-.104-.005.054-.008.088"/><path opacity=".5" stroke-width=".336" d="M379.658 713.71q-.007-.001-.005-.126.001-.126.021-.208.019-.082-.052-.154-.072-.072-.144-.112-.073-.039-.179-.054-.107-.015-.173-.015-.066 0-.11.02t-.071.099q-.027.08.004.184.032.104.207.245.174.14.36.254.187.114.382.169.194.056.308.069.114.014.227.023.112.008.353-.022.24-.03.699-.234.459-.204.743-.36.285-.157.548-.278-.003-.015-.269.112t-.466.227l-.604.299q-.406.2-.865.376-.46.176-.758.269-.298.092-.567.171-.269.078-.304.096"/><path opacity=".5" stroke-width=".435" d="M385.695 719.961l-.001.003q.005 0-.076-.069-.08-.068-.135-.094-.055-.026-.088-.046-.033-.019-.146-.065-.114-.046-.278-.039-.164.008-.315.062-.15.054-.243.1-.092.045-.158.127-.066.081-.107.147-.04.066.008.186t.095.196q.047.077.146.173.1.097.165.178.066.08.098.133.032.052.017.092t-.041.06q-.027.02-.06.03-.033.01-.062.016-.029.007-.049.008l-.059.007q-.038.005-.184-.003-.145-.008-.415-.187.009-.027.023-.031l.034-.011"/><path opacity=".5" stroke-width=".437" d="M385.559 721.367q.004.007-.162.202-.167.195-.185.207M385.81 720.601q-.019-.016-.048-.074.002-.002.04.02.038.021.052.038"/><path opacity=".5" stroke-width=".399" d="M386.411 721.534q-.01-.018-.038-.059-.027-.04-.07-.052-.042-.012-.097.039-.055.05-.101.1-.046.05-.075.11-.03.059-.043.097-.013.038-.008.077.004.039.018.077.015.038.058.061.044.023.095.037.051.015.131-.01.08-.026.164-.12.084-.095.147-.306l-.005-.004q-.056-.006-.114.316t-.077.503q-.018.181-.059.313-.04.131-.092.236-.052.105-.217.234t-.369.176q-.204.048-.242.048"/><path opacity=".5" stroke-width=".398" d="M387.344 721.705l-.025-.02.013-.025q.001-.016-.107.264-.108.279-.195.473-.086.194-.095.337.013.027.193-.172.18-.199.334-.33.155-.131.254-.189.099-.058.156-.089.057-.03.108-.022.051.009.1.037.048.028.023.167-.026.14-.12.352-.094.212-.099.241"/><path opacity=".5" stroke-width=".437" d="M388.897 722.505q-.009-.026-.004-.025.004.001-.017-.02-.021-.022-.041-.014-.02.007-.041.018-.021.01-.056.023-.034.013-.17.216.002.062.124.011.122-.052.203-.097.081-.045.163-.032.03.023-.031.185-.06.162-.065.18"/><path opacity=".5" stroke-width=".283" d="M390.387 720.612q-.017-.036-.092.26l-.123.482q-.048.187-.081.287-.034.1-.113.353l-.137.44q-.058.186-.063.367-.005.181.016.284l.027.134"/><path opacity=".5" stroke-width=".437" d="M389.615 722.282q-.008-.001.005-.052.009-.032.279.091.271.124.304.136M390.878 722.748q-.05.005-.088.139-.038.135-.006.251.031.115.043.175.011.06.072.115.061.055.093.071.032.017.049.022.016.005.082-.01t.17-.201q.104-.186.147-.318t.048-.166"/><path opacity=".5" stroke-width=".424" d="M392.165 722.963q-.024.008-.002.244t-.007.61q.008.008.032-.23.025-.238.035-.38.009-.141.043-.247.035-.106.068-.144.034-.038.158-.011.123.027.154.03"/><path opacity=".5" stroke-width=".431" d="M393.375 723.231q.015.023.13.097.116.074.208.095.092.021.137.021.045 0 .062-.003.017-.004.038-.045.02-.041-.079-.181-.099-.139-.161-.216-.063-.078-.099-.105-.036-.027-.064-.043-.027-.015-.095.034-.068.05-.121.182-.054.131-.074.21-.02.079-.021.182-.001.104.005.167.006.063.055.142.049.08.168.147.12.067.29.053.171-.014.22-.023"/></g></svg>