<?xml version="1.0" encoding="UTF-8"?>
<svg xmlns="http://www.w3.org/2000/svg" xmlns:xlink="http://www.w3.org/1999/xlink" viewBox="0 0 50 50" version="1.1" fill="#000000"><g id="surface1" fill="#000000"><path style=" " d="M 15 2 C 11.699219 2 9 4.699219 9 8 C 9 11.300781 11.699219 14 15 14 C 18.300781 14 21 11.300781 21 8 C 21 4.699219 18.300781 2 15 2 Z M 41.796875 2.011719 C 40.308594 2.058594 38.832031 2.652344 37.691406 3.792969 L 27.792969 13.691406 C 25.570313 15.917969 22.910156 19.695313 20.109375 23.605469 C 17.3125 27.515625 14.394531 31.546875 11.886719 34.097656 L 5.90625 40.078125 C 4.878906 39.664063 3.722656 39.664063 2.890625 40.492188 C 2.703125 40.679688 2.597656 40.933594 2.601563 41.203125 C 2.011719 42.277344 1.984375 43.597656 2.890625 44.507813 L 5.59375 47.207031 C 6.503906 48.117188 7.820313 48.085938 8.898438 47.5 C 8.90625 47.496094 8.914063 47.492188 8.921875 47.488281 L 8.898438 47.5 C 9.164063 47.5 9.417969 47.394531 9.609375 47.207031 C 10.4375 46.378906 10.4375 45.21875 10.019531 44.191406 L 16.007813 38.207031 C 16.011719 38.207031 16.011719 38.203125 16.015625 38.203125 C 18.511719 35.65625 22.535156 32.710938 26.457031 29.902344 C 30.378906 27.089844 34.179688 24.433594 36.40625 22.207031 L 46.109375 12.507813 C 48.222656 10.394531 48.707031 7.03125 46.914063 4.519531 C 46.914063 4.515625 46.910156 4.511719 46.90625 4.507813 C 45.789063 2.976563 44.136719 2.144531 42.4375 2.023438 C 42.226563 2.007813 42.011719 2.003906 41.796875 2.011719 Z M 42.285156 3.976563 C 43.414063 4.054688 44.507813 4.621094 45.289063 5.6875 C 46.492188 7.375 46.179688 9.609375 44.691406 11.09375 L 34.992188 20.792969 C 33.019531 22.765625 29.222656 25.460938 25.292969 28.277344 C 21.363281 31.089844 17.289063 34.042969 14.585938 36.796875 L 8.953125 42.4375 L 7.664063 41.148438 L 13.308594 35.507813 C 13.308594 35.503906 13.3125 35.503906 13.3125 35.5 C 16.007813 32.753906 18.9375 28.683594 21.738281 24.769531 C 24.539063 20.855469 27.230469 17.082031 29.207031 15.109375 L 39.109375 5.207031 C 40.003906 4.3125 41.160156 3.898438 42.285156 3.976563 Z M 14.542969 4.046875 C 14.214844 4.714844 13.726563 5.398438 13.078125 6.046875 C 12.421875 6.703125 11.726563 7.195313 11.046875 7.523438 C 11.265625 5.6875 12.699219 4.253906 14.542969 4.046875 Z M 16.113281 4.175781 C 17.449219 4.5625 18.480469 5.605469 18.84375 6.945313 C 17.8125 7.320313 16.796875 7.925781 15.878906 8.84375 C 14.964844 9.757813 14.285156 10.765625 13.886719 11.828125 C 12.566406 11.445313 11.542969 10.417969 11.167969 9.09375 C 12.222656 8.695313 13.230469 8.015625 14.140625 7.105469 C 15.039063 6.207031 15.710938 5.214844 16.113281 4.175781 Z M 18.949219 8.515625 C 18.714844 10.335938 17.28125 11.75 15.449219 11.953125 C 15.777344 11.269531 16.277344 10.570313 16.9375 9.90625 C 17.582031 9.261719 18.261719 8.816406 18.949219 8.515625 Z M 4.898438 41.683594 C 5.121094 41.683594 5.34375 41.757813 5.492188 41.90625 C 5.582031 41.996094 5.6875 42.066406 5.804688 42.113281 L 7.984375 44.296875 C 8.035156 44.414063 8.105469 44.519531 8.195313 44.609375 C 8.488281 44.902344 8.488281 45.496094 8.195313 45.792969 C 7.898438 46.089844 7.304688 46.089844 7.007813 45.792969 L 4.304688 43.09375 C 4.011719 42.796875 4.011719 42.203125 4.304688 41.90625 C 4.453125 41.757813 4.675781 41.683594 4.898438 41.683594 Z " fill="#000000"/></g></svg>
