<?xml version="1.0" encoding="UTF-8"?>
<svg xmlns="http://www.w3.org/2000/svg" xmlns:xlink="http://www.w3.org/1999/xlink" viewBox="0 0 50 50" version="1.1" fill="#000000"><g id="surface1" fill="#000000"><path style=" " d="M 29.90625 3.96875 C 29.863281 3.976563 29.820313 3.988281 29.78125 4 C 29.316406 4.105469 28.988281 4.523438 29 5 L 29 16 C 29 16.550781 29.449219 17 30 17 C 30 17.550781 29.550781 18 29 18 C 28.449219 18 28 17.550781 28 17 L 28 14.1875 C 26.839844 14.601563 26 15.699219 26 17 C 26 18.652344 27.347656 20 29 20 C 30.652344 20 32 18.652344 32 17 C 32 16.113281 31.617188 15.328125 31 14.78125 L 31 10.15625 C 31.46875 10.378906 31.949219 10.632813 32.4375 10.90625 C 37.085938 13.523438 39.253906 16.863281 39.90625 18.03125 L 25.71875 43.21875 C 24.375 43.257813 20.363281 43.125 15.75 40.53125 C 11.132813 37.933594 8.941406 34.578125 8.28125 33.40625 L 22.46875 8.21875 C 23.351563 8.183594 25.382813 8.210938 28 9 L 28 6.90625 C 24.386719 5.921875 21.898438 6.230469 21.75 6.25 L 21.25 6.3125 L 6.03125 33.34375 L 6.25 33.8125 C 6.339844 34.011719 8.511719 38.75 14.78125 42.28125 C 19.386719 44.875 23.417969 45.21875 25.3125 45.21875 C 26 45.21875 26.378906 45.195313 26.4375 45.1875 L 26.9375 45.125 L 41.90625 18.53125 L 42.15625 18.09375 L 41.9375 17.625 C 41.847656 17.425781 39.722656 12.710938 33.40625 9.15625 C 32.574219 8.6875 31.78125 8.300781 31 7.96875 L 31 5 C 31.011719 4.710938 30.894531 4.433594 30.6875 4.238281 C 30.476563 4.039063 30.191406 3.941406 29.90625 3.96875 Z M 25 22.9375 C 24.957031 22.945313 24.914063 22.957031 24.875 22.96875 C 24.59375 23.035156 24.355469 23.214844 24.21875 23.46875 L 17.84375 34.8125 C 17.59375 35.121094 17.550781 35.546875 17.734375 35.902344 C 17.917969 36.253906 18.292969 36.464844 18.6875 36.4375 C 19.082031 36.414063 19.425781 36.15625 19.5625 35.78125 L 25.9375 24.46875 C 26.140625 24.148438 26.144531 23.738281 25.945313 23.410156 C 25.746094 23.085938 25.378906 22.902344 25 22.9375 Z M 41 23.21875 L 39 26.75 L 39 41.46875 C 37.878906 42.152344 34.464844 43.929688 29.3125 44 L 28.1875 45.96875 C 28.460938 45.980469 28.726563 46 29 46 C 36.195313 46 40.417969 42.945313 40.59375 42.8125 L 41 42.5 Z " fill="#000000"/></g></svg>
