<?xml version="1.0" encoding="UTF-8"?>
<svg xmlns="http://www.w3.org/2000/svg" xmlns:xlink="http://www.w3.org/1999/xlink" viewBox="0 0 50 50" version="1.1" fill="#000000"><g id="surface1" fill="#000000"><path style=" " d="M 31.875 1 C 31.417969 1.054688 31.054688 1.417969 31 1.875 L 29.125 17 L 8.21875 17 L 5.09375 13.90625 C 4.230469 13.042969 2.789063 12.601563 1.53125 13.34375 C 1.511719 13.355469 1.488281 13.332031 1.46875 13.34375 L 1.46875 13.375 C -0.269531 14.378906 -0.613281 16.800781 0.8125 18.125 L 0.84375 18.15625 L 4 21.21875 L 4 43.90625 C 4 45.617188 5.042969 47.203125 6.6875 47.75 C 6.699219 47.75 6.707031 47.75 6.71875 47.75 C 9.394531 48.515625 12 46.566406 12 44 L 12 38.40625 L 16.4375 45.90625 C 16.449219 45.917969 16.457031 45.925781 16.46875 45.9375 C 17.359375 47.339844 19.011719 48.285156 20.71875 47.875 C 20.726563 47.871094 20.742188 47.878906 20.75 47.875 C 23.441406 47.214844 24.703125 44.164063 23.375 41.90625 L 18.125 33 L 31 33 L 31 43.90625 C 31 45.617188 32.042969 47.203125 33.6875 47.75 C 33.699219 47.75 33.707031 47.75 33.71875 47.75 C 36.394531 48.515625 39 46.566406 39 44 L 39 32.21875 L 40.9375 27.375 C 40.980469 27.253906 41.003906 27.128906 41 27 L 41 23.125 C 41.015625 23.019531 41.015625 22.917969 41 22.8125 L 41 18 L 46 18 C 46.390625 17.996094 46.746094 17.765625 46.90625 17.40625 L 49.90625 10.40625 C 50.019531 10.160156 50.027344 9.875 49.925781 9.621094 C 49.828125 9.367188 49.628906 9.164063 49.375 9.0625 L 39.375 5.0625 C 39.253906 5.019531 39.128906 4.996094 39 5 L 36.4375 5 L 32.71875 1.28125 C 32.496094 1.0625 32.183594 0.957031 31.875 1 Z M 32.75 4.1875 L 35.28125 6.71875 C 35.472656 6.90625 35.734375 7.007813 36 7 L 38.78125 7 L 47.6875 10.5625 L 45.34375 16 L 40 16 C 39.449219 16 39 16.449219 39 17 L 39 21.375 L 31.09375 17.40625 Z M 39.5 9 C 38.671875 9 38 9.671875 38 10.5 C 38 11.328125 38.671875 12 39.5 12 C 40.328125 12 41 11.328125 41 10.5 C 41 9.671875 40.328125 9 39.5 9 Z M 2.8125 14.96875 C 3.109375 14.933594 3.445313 15.070313 3.6875 15.3125 L 7.09375 18.71875 C 7.285156 18.90625 7.546875 19.007813 7.8125 19 L 29.75 19 L 39 23.625 L 39 26.78125 L 37.0625 31.625 C 37.019531 31.746094 36.996094 31.871094 37 32 L 37 44 C 37 45.222656 35.820313 46.253906 34.3125 45.84375 C 34.304688 45.839844 34.289063 45.847656 34.28125 45.84375 C 33.535156 45.582031 33 44.785156 33 43.90625 L 33 32 C 33 31.449219 32.550781 31 32 31 L 11 31 C 10.449219 31 10 31.449219 10 32 L 10 34.5 C 9.972656 34.632813 9.972656 34.773438 10 34.90625 L 10 44 C 10 45.222656 8.820313 46.253906 7.3125 45.84375 C 7.304688 45.839844 7.289063 45.847656 7.28125 45.84375 C 6.535156 45.582031 6 44.785156 6 43.90625 L 6 20.8125 C 5.996094 20.539063 5.886719 20.28125 5.6875 20.09375 L 2.1875 16.6875 C 2.175781 16.675781 2.167969 16.667969 2.15625 16.65625 C 1.644531 16.195313 1.691406 15.511719 2.46875 15.09375 C 2.488281 15.085938 2.511719 15.074219 2.53125 15.0625 C 2.613281 15.011719 2.714844 14.980469 2.8125 14.96875 Z M 12 33 L 15.8125 33 L 21.625 42.90625 C 22.292969 44.039063 21.773438 45.582031 20.28125 45.9375 C 20.269531 45.9375 20.261719 45.9375 20.25 45.9375 C 19.570313 46.109375 18.660156 45.664063 18.15625 44.875 L 12 34.40625 Z " fill="#000000"/></g></svg>
