<?xml version="1.0" encoding="UTF-8"?>
<svg xmlns="http://www.w3.org/2000/svg" xmlns:xlink="http://www.w3.org/1999/xlink" viewBox="0 0 50 50" version="1.1" fill="#000000"><g id="surface1" fill="#000000"><path style=" " d="M 4.75 7 C 3.472656 7 2.332031 7.597656 1.46875 8.46875 C 0.605469 9.339844 0 10.53125 0 11.8125 L 0 23.1875 C 0 24.46875 0.605469 25.660156 1.46875 26.53125 C 2.332031 27.402344 3.472656 28 4.75 28 L 5.53125 28 C 6.304688 28 6.417969 28.1875 6.59375 28.59375 C 6.769531 29 6.792969 29.722656 6.6875 30.28125 C 6.574219 30.886719 5.925781 33.878906 5.3125 36.625 C 4.703125 39.355469 4.132813 41.878906 4.125 41.90625 C 4.125 41.90625 4.125 41.9375 4.125 41.9375 C 3.941406 42.65625 3.898438 43.386719 4.28125 44.03125 C 4.667969 44.683594 5.480469 45 6.21875 45 L 16.34375 45 C 16.957031 45 17.582031 44.808594 18.09375 44.40625 C 18.605469 44.003906 19 43.335938 19 42.5625 C 19 41.78125 18.636719 41.128906 18.25 40.65625 C 17.863281 40.183594 17.433594 39.84375 17.09375 39.53125 C 16.753906 39.21875 16.539063 38.9375 16.4375 38.71875 C 16.335938 38.5 16.265625 38.328125 16.40625 37.90625 C 16.992188 36.121094 17.1875 35.402344 17.625 34 C 17.625 33.996094 17.65625 34.003906 17.65625 34 L 22 34 C 22.550781 34 23 33.550781 23 33 C 23 30.960938 23.449219 29.625 23.875 28.8125 C 24.089844 28.40625 24.273438 28.15625 24.40625 28 L 25.46875 28 C 25.820313 28 26.0625 27.929688 26.375 27.84375 C 26.6875 27.757813 27.042969 27.644531 27.4375 27.5 C 28.226563 27.214844 29.160156 26.828125 30.0625 26.40625 C 30.964844 25.984375 31.808594 25.511719 32.5 25.0625 C 32.84375 24.839844 33.148438 24.628906 33.40625 24.375 C 33.519531 24.265625 33.644531 24.148438 33.75 24 L 38.40625 24 C 39.101563 24 39.480469 23.722656 39.9375 23.40625 C 40.394531 23.089844 40.855469 22.683594 41.28125 22.25 C 41.707031 21.816406 42.097656 21.339844 42.40625 20.875 C 42.597656 20.585938 42.765625 20.320313 42.875 20 L 47.25 20 L 50 18.625 L 50 16.375 L 47.25 15 L 42.875 15 C 42.765625 14.679688 42.597656 14.414063 42.40625 14.125 C 42.097656 13.660156 41.707031 13.183594 41.28125 12.75 C 40.855469 12.316406 40.394531 11.910156 39.9375 11.59375 C 39.480469 11.277344 39.101563 11 38.40625 11 L 33.75 11 C 33.644531 10.851563 33.519531 10.734375 33.40625 10.625 C 33.148438 10.371094 32.84375 10.160156 32.5 9.9375 C 31.808594 9.488281 30.964844 9.015625 30.0625 8.59375 C 29.160156 8.171875 28.226563 7.785156 27.4375 7.5 C 27.042969 7.355469 26.6875 7.242188 26.375 7.15625 C 26.0625 7.070313 25.820313 7 25.46875 7 Z M 4.75 9 L 25.46875 9 C 25.375 9 25.574219 9.027344 25.8125 9.09375 C 26.050781 9.160156 26.390625 9.242188 26.75 9.375 C 27.46875 9.636719 28.339844 10.007813 29.1875 10.40625 C 30.035156 10.804688 30.878906 11.230469 31.4375 11.59375 C 31.675781 11.746094 31.824219 11.898438 31.9375 12 C 31.945313 12.097656 31.964844 12.191406 32 12.28125 L 32 22.8125 C 32 22.84375 32 22.875 32 22.90625 L 32 22.96875 C 31.894531 23.070313 31.699219 23.234375 31.4375 23.40625 C 30.878906 23.769531 30.035156 24.195313 29.1875 24.59375 C 28.339844 24.992188 27.46875 25.363281 26.75 25.625 C 26.390625 25.757813 26.050781 25.839844 25.8125 25.90625 C 25.574219 25.972656 25.375 26 25.46875 26 L 4.75 26 C 4.144531 26 3.425781 25.648438 2.875 25.09375 C 2.324219 24.539063 2 23.808594 2 23.1875 L 2 11.8125 C 2 11.191406 2.324219 10.460938 2.875 9.90625 C 3.425781 9.351563 4.144531 9 4.75 9 Z M 34 13 L 38.34375 13 C 38.355469 13.019531 38.578125 13.089844 38.8125 13.25 C 39.125 13.464844 39.492188 13.800781 39.84375 14.15625 C 40.195313 14.511719 40.539063 14.898438 40.75 15.21875 C 40.910156 15.457031 40.980469 15.695313 41 15.71875 L 41 19.34375 C 40.96875 19.421875 40.878906 19.589844 40.75 19.78125 C 40.539063 20.101563 40.195313 20.488281 39.84375 20.84375 C 39.492188 21.199219 39.125 21.535156 38.8125 21.75 C 38.578125 21.910156 38.355469 21.980469 38.34375 22 L 34 22 Z M 43 17 L 46.75 17 L 47.75 17.5 L 46.75 18 L 43 18 Z M 8.5 28 L 18.0625 28 C 18.027344 28.042969 17.972656 28.082031 17.9375 28.125 C 17.171875 29.117188 16.78125 30.09375 16.78125 30.09375 L 16.78125 30.125 L 16.75 30.15625 C 16.75 30.15625 15.59375 34.035156 14.53125 37.28125 C 14.261719 38.105469 14.328125 38.933594 14.625 39.5625 C 14.921875 40.191406 15.355469 40.636719 15.75 41 C 16.144531 41.363281 16.503906 41.648438 16.71875 41.90625 C 16.933594 42.164063 17 42.332031 17 42.5625 C 17 42.710938 16.957031 42.753906 16.84375 42.84375 C 16.730469 42.933594 16.511719 43 16.34375 43 L 6.21875 43 C 5.933594 43 6.019531 42.980469 6.03125 43 C 6.042969 43.019531 5.949219 42.832031 6.0625 42.40625 L 6.0625 42.375 C 6.0625 42.375 6.667969 39.8125 7.28125 37.0625 C 7.894531 34.3125 8.507813 31.449219 8.65625 30.65625 C 8.800781 29.871094 8.839844 28.917969 8.5 28 Z M 21.75 28 L 22.09375 28 C 21.632813 28.914063 21.257813 30.277344 21.125 32 L 18.28125 32 C 18.34375 31.800781 18.652344 30.824219 18.65625 30.8125 C 18.65625 30.8125 18.6875 30.78125 18.6875 30.78125 C 18.6875 30.78125 18.6875 30.75 18.6875 30.75 C 18.710938 30.691406 18.957031 30.046875 19.5 29.34375 C 20.066406 28.609375 20.828125 28 21.75 28 Z " fill="#000000"/></g></svg>
