<?xml version="1.0" encoding="UTF-8"?>
<svg xmlns="http://www.w3.org/2000/svg" xmlns:xlink="http://www.w3.org/1999/xlink" viewBox="0 0 50 50" version="1.1" fill="#000000"><g id="surface1" fill="#000000"><path style=" " d="M 39 1.921875 L 33.4375 4.148438 L 30 7.585938 L 30 12 C 29.972656 12 28.941406 11.96875 28 11.941406 L 28 11 C 28.003906 10.730469 27.898438 10.46875 27.707031 10.277344 C 27.515625 10.085938 27.253906 9.980469 26.984375 9.984375 C 26.433594 9.996094 25.992188 10.449219 26 11 L 26 11.921875 C 25.027344 11.914063 24.03125 11.933594 23 11.96875 L 23 11 C 23.003906 10.730469 22.898438 10.46875 22.707031 10.277344 C 22.515625 10.085938 22.253906 9.980469 21.984375 9.984375 C 21.433594 9.996094 20.992188 10.449219 21 11 L 21 12.058594 C 19.523438 12.136719 18.199219 12.238281 17 12.355469 L 17 11 C 17.003906 10.730469 16.898438 10.46875 16.707031 10.277344 C 16.515625 10.085938 16.253906 9.980469 15.984375 9.984375 C 15.433594 9.996094 14.992188 10.449219 15 11 L 15 12.566406 C 13.523438 12.746094 12.382813 12.921875 11.835938 13.015625 C 11.53125 13.066406 11.289063 13.113281 11 13.164063 L 11 11.402344 C 11.003906 11.128906 10.898438 10.871094 10.707031 10.679688 C 10.515625 10.488281 10.253906 10.382813 9.984375 10.386719 C 9.433594 10.394531 8.992188 10.847656 9 11.402344 L 9 13.527344 C 6.679688 13.980469 5.03125 14.394531 4 14.675781 L 4 12.765625 C 4.050781 12.476563 3.96875 12.175781 3.773438 11.949219 C 3.582031 11.722656 3.296875 11.59375 3 11.597656 L 3 13.597656 L 2 12.597656 L 2 24 C 2 24.085938 2.011719 24.171875 2.03125 24.253906 C 2.011719 24.335938 2 24.417969 2 24.5 L 2 47 C 2 47.550781 2.449219 48 3 48 L 47 48 C 47.550781 48 48 47.550781 48 47 L 48 7.585938 L 44.5625 4.148438 Z M 39 4.078125 L 43.4375 5.851563 L 46 8.414063 L 46 16.785156 C 45.320313 16.710938 44.644531 16.632813 44 16.574219 L 44 11 C 44 10.449219 43.550781 10 43 10 L 35 10 C 34.449219 10 34 10.449219 34 11 L 34 15.96875 C 33.285156 15.949219 32.617188 15.933594 32 15.921875 L 32 8.414063 L 34.5625 5.851563 Z M 39 6 C 38.449219 6 38 6.449219 38 7 C 38 7.550781 38.449219 8 39 8 C 39.550781 8 40 7.550781 40 7 C 40 6.449219 39.550781 6 39 6 Z M 36 12 L 42 12 L 42 16.398438 C 39.699219 16.210938 37.683594 16.101563 36 16.035156 Z M 30 13 L 30 15.890625 C 29.351563 15.894531 28.679688 15.914063 28 15.945313 L 28 13.945313 C 28.929688 13.96875 29.953125 14 29.953125 14 Z M 24.730469 13.917969 C 25.179688 13.910156 25.574219 13.917969 26 13.921875 L 26 16.066406 C 24.941406 16.148438 23.9375 16.253906 23 16.382813 L 23 13.96875 C 23.574219 13.949219 24.148438 13.921875 24.730469 13.917969 Z M 21 14.0625 L 21 16.699219 C 19.460938 16.96875 18.15625 17.277344 17 17.578125 L 17 14.363281 C 18.1875 14.246094 19.519531 14.140625 21 14.0625 Z M 15 14.582031 L 15 18.105469 C 13.585938 18.472656 12.28125 18.832031 11 19.253906 L 11 15.199219 C 11.394531 15.125 11.734375 15.058594 12.164063 14.984375 C 12.660156 14.902344 13.695313 14.746094 15 14.582031 Z M 9 15.566406 L 9 19.800781 C 9 19.863281 9.003906 19.925781 9.015625 19.984375 C 8.414063 20.230469 7.808594 20.488281 7.164063 20.796875 C 7.160156 20.800781 7.15625 20.800781 7.152344 20.804688 C 5.917969 21.421875 4.886719 22.035156 4 22.609375 L 4 16.746094 C 4.835938 16.503906 6.503906 16.0625 9 15.566406 Z M 30.734375 17.890625 C 31.761719 17.898438 32.980469 17.941406 34.316406 17.980469 C 30.457031 20.644531 25.742188 24.898438 21.230469 30.363281 C 18.527344 33.625 16.132813 37.3125 14.339844 40.371094 C 12.855469 42.894531 11.847656 44.84375 11.339844 46 L 4 46 L 4 37.957031 C 7.042969 34.171875 11.40625 29.648438 17.386719 25.308594 L 17.390625 25.308594 L 17.394531 25.304688 C 21.925781 21.957031 26.363281 19.585938 30.015625 17.90625 L 30.011719 17.894531 C 30.25 17.894531 30.488281 17.886719 30.734375 17.890625 Z M 37.8125 18.148438 C 38.746094 18.199219 39.601563 18.242188 40.683594 18.328125 C 37.785156 21.492188 34.414063 25.691406 31.445313 30.578125 L 31.449219 30.578125 C 27.96875 36.28125 25.804688 41.664063 24.296875 46 L 13.5625 46 C 14.109375 44.890625 14.957031 43.265625 16.0625 41.378906 C 17.816406 38.390625 20.171875 34.777344 22.769531 31.640625 L 22.769531 31.636719 C 28.1875 25.078125 34 20.277344 37.8125 18.148438 Z M 25.0625 18.152344 C 22.285156 19.628906 19.285156 21.421875 16.214844 23.691406 C 11.019531 27.460938 7.015625 31.363281 4 34.84375 L 4 25.058594 C 5.035156 24.324219 6.28125 23.476563 8.035156 22.597656 L 8.039063 22.597656 C 8.042969 22.597656 8.042969 22.59375 8.046875 22.59375 C 10.855469 21.238281 13.054688 20.667969 16.152344 19.871094 C 16.15625 19.867188 16.164063 19.867188 16.171875 19.863281 C 18.304688 19.265625 21.214844 18.53125 25.0625 18.152344 Z M 43.203125 18.539063 C 43.960938 18.609375 44.742188 18.691406 45.542969 18.78125 C 43.511719 23.132813 41.496094 28.050781 39.652344 33.582031 L 39.65625 33.574219 C 38.144531 37.925781 36.996094 42.085938 36.109375 46 L 26.421875 46 C 27.894531 41.859375 29.945313 36.882813 33.15625 31.621094 C 36.398438 26.277344 40.191406 21.6875 43.203125 18.539063 Z M 46 22.621094 L 46 46 L 38.160156 46 C 39.019531 42.28125 40.113281 38.34375 41.546875 34.230469 L 41.546875 34.21875 C 42.957031 29.996094 44.464844 26.140625 46 22.621094 Z " fill="#000000"/></g></svg>
