<?xml version="1.0" encoding="UTF-8"?>
<svg xmlns="http://www.w3.org/2000/svg" xmlns:xlink="http://www.w3.org/1999/xlink" viewBox="0 0 50 50" version="1.1" fill="#000000"><g id="surface1" fill="#000000"><path style=" " d="M 20.46875 13.6875 C 20.375 13.691406 20.28125 13.695313 20.1875 13.71875 C 19.820313 13.816406 19.5 14.042969 19.25 14.3125 C 19.050781 14.53125 19.074219 14.574219 19.03125 14.65625 C 18.988281 14.738281 18.949219 14.84375 18.90625 14.9375 C 18.820313 15.128906 18.726563 15.355469 18.59375 15.625 C 18.332031 16.167969 17.960938 16.839844 17.46875 17.5 C 16.484375 18.816406 15.121094 20 13 20 C 11.25 20 9.375 19.332031 7.65625 18.59375 C 5.9375 17.855469 4.5 17 3 17 C 2.632813 17.003906 2.296875 17.207031 2.125 17.53125 C 0.878906 19.921875 0.960938 23.011719 1.03125 25.0625 C 1.15625 28.765625 1.914063 31.789063 2 32.125 L 2 36 C 2 36.550781 2.449219 37 3 37 L 14 37 C 14.550781 37 15 36.550781 15 36 L 15 33.03125 C 17.136719 33.109375 18.308594 33.25 19.125 33.625 C 23.265625 35.523438 24.589844 37 34 37 C 40.710938 37 44.230469 36.820313 46.21875 36.4375 C 47.214844 36.246094 47.867188 36.023438 48.375 35.5625 C 48.882813 35.101563 49 34.382813 49 34 C 49 31.695313 48.226563 29.863281 47 28.53125 C 45.773438 27.199219 44.15625 26.371094 42.46875 25.75 C 39.09375 24.503906 35.277344 24.015625 33.4375 23.09375 C 31.4375 22.09375 28.4375 19.867188 26 17.90625 C 23.5625 15.945313 21.65625 14.25 21.65625 14.25 L 21.625 14.28125 C 21.53125 14.128906 21.539063 14.011719 21.21875 13.84375 C 21.019531 13.738281 20.75 13.675781 20.46875 13.6875 Z M 20.625 16 C 20.855469 16.203125 22.433594 17.601563 24.75 19.46875 C 27.230469 21.464844 30.234375 23.742188 32.5625 24.90625 C 35.050781 26.152344 38.738281 26.503906 41.78125 27.625 C 43.300781 28.1875 44.621094 28.886719 45.53125 29.875 C 46.441406 30.863281 47 32.121094 47 34 C 47 34.070313 47.023438 34.058594 47.03125 34.0625 C 47.003906 34.085938 46.675781 34.308594 45.84375 34.46875 C 44.179688 34.789063 40.671875 35 34 35 C 24.78125 35 24.328125 33.8125 19.96875 31.8125 C 18.601563 31.183594 17.109375 31.085938 14.28125 31.03125 C 14.261719 31.03125 14.238281 31.03125 14.21875 31.03125 C 14.148438 31.011719 14.074219 31.003906 14 31 L 12.53125 31 C 11.96875 30.992188 11.5 30.980469 10.84375 30.96875 C 10.832031 30.957031 10.824219 30.949219 10.8125 30.9375 L 3.8125 31 C 3.609375 30.136719 3.132813 27.980469 3.03125 25 C 2.972656 23.25 3.09375 20.945313 3.6875 19.25 C 4.390625 19.429688 5.378906 19.777344 6.84375 20.40625 C 8.625 21.167969 10.75 22 13 22 C 15.878906 22 17.863281 20.328125 19.0625 18.71875 C 19.664063 17.914063 20.113281 17.109375 20.40625 16.5 C 20.503906 16.296875 20.554688 16.152344 20.625 16 Z M 4 33 L 13 33 L 13 35 L 4 35 Z " fill="#000000"/></g></svg>
