<?xml version="1.0" encoding="UTF-8"?>
<svg xmlns="http://www.w3.org/2000/svg" xmlns:xlink="http://www.w3.org/1999/xlink" viewBox="0 0 50 50" version="1.1" fill="#000000"><g id="surface1" fill="#000000"><path style=" " d="M 30.0625 0 C 26.339844 0 22.378906 0.617188 19.28125 2.96875 C 16.183594 5.320313 14.125 9.378906 14.125 15.75 C 14.125 17.714844 14.277344 20.5 14.4375 22.90625 C 14.25 22.757813 13.96875 22.53125 13.8125 22.40625 C 13.519531 22.171875 13.289063 21.976563 13.125 21.84375 C 13.042969 21.777344 12.980469 21.722656 12.9375 21.6875 C 12.894531 21.652344 12.785156 21.582031 12.875 21.65625 C 12.863281 21.644531 12.855469 21.636719 12.84375 21.625 C 10.21875 19.542969 6.363281 19.96875 4.25 22.5625 C 2.078125 25.230469 2.796875 29.230469 5.21875 31.09375 C 6.648438 32.195313 9.40625 34.351563 11.78125 36.75 C 14.15625 39.148438 16 41.871094 16 43.46875 L 16 46.21875 C 16 48.289063 17.699219 50 19.78125 50 L 38.46875 50 C 39.507813 50 40.441406 49.546875 41.0625 48.84375 C 41.683594 48.140625 42 47.199219 42 46.21875 L 42 43.46875 C 42 40.941406 42.964844 37.378906 43.96875 33.28125 C 44.972656 29.183594 46 24.511719 46 19.53125 C 46 12.503906 44.011719 7.578125 40.96875 4.4375 C 37.925781 1.296875 33.898438 0 30.0625 0 Z M 30.0625 2 C 33.449219 2 36.90625 3.136719 39.53125 5.84375 C 42.15625 8.550781 44 12.882813 44 19.53125 C 44 24.234375 43.027344 28.753906 42.03125 32.8125 C 41.035156 36.871094 40 40.457031 40 43.46875 L 40 46.21875 C 40 46.765625 39.824219 47.234375 39.5625 47.53125 C 39.300781 47.828125 38.976563 48 38.46875 48 L 19.78125 48 C 18.769531 48 18 47.207031 18 46.21875 L 18 43.46875 C 18 40.625 15.683594 37.863281 13.1875 35.34375 C 10.691406 32.824219 7.878906 30.613281 6.4375 29.5 C 5.050781 28.433594 4.445313 25.492188 5.8125 23.8125 C 7.242188 22.058594 9.8125 21.804688 11.59375 23.21875 L 11.59375 23.1875 L 11.625 23.1875 C 11.65625 23.214844 11.652344 23.222656 11.6875 23.25 C 11.734375 23.285156 11.792969 23.339844 11.875 23.40625 C 12.039063 23.539063 12.269531 23.734375 12.5625 23.96875 C 13.152344 24.4375 13.96875 25.097656 14.90625 25.84375 C 15.222656 26.105469 15.667969 26.144531 16.027344 25.945313 C 16.386719 25.742188 16.585938 25.34375 16.53125 24.9375 C 16.289063 22.617188 16.125 18.246094 16.125 15.75 C 16.125 9.796875 17.902344 6.511719 20.46875 4.5625 C 23.035156 2.613281 26.566406 2 30.0625 2 Z " fill="#000000"/></g></svg>
