<?xml version="1.0" encoding="UTF-8"?>
<svg xmlns="http://www.w3.org/2000/svg" xmlns:xlink="http://www.w3.org/1999/xlink" viewBox="0 0 50 50" version="1.1" fill="#000000"><g id="surface1" fill="#000000"><path style=" " d="M 24.875 0 C 24.691406 0.0234375 24.519531 0.101563 24.375 0.21875 C 24.375 0.21875 17 5.875 17 13.90625 C 17 16.335938 17.46875 21.148438 17.96875 25.90625 C 18.085938 27.023438 18.132813 27.488281 18.25 28.5625 L 14.21875 33.34375 C 14.070313 33.53125 13.992188 33.761719 14 34 L 14 38 C 14 38.328125 14.160156 38.632813 14.429688 38.820313 C 14.695313 39.003906 15.039063 39.050781 15.34375 38.9375 L 19.28125 37.53125 C 19.539063 38.332031 20.246094 39 21.1875 39 L 28.8125 39 C 29.753906 39 30.460938 38.332031 30.71875 37.53125 L 34.65625 38.9375 C 34.960938 39.050781 35.304688 39.003906 35.570313 38.820313 C 35.839844 38.632813 36 38.328125 36 38 L 36 34 C 36.007813 33.761719 35.929688 33.53125 35.78125 33.34375 L 31.78125 28.625 C 32.386719 23.09375 33 16.761719 33 13.90625 C 33 5.875 25.625 0.21875 25.625 0.21875 C 25.414063 0.046875 25.144531 -0.03125 24.875 0 Z M 25 2.4375 C 26.019531 3.3125 31 7.769531 31 13.90625 C 31 18.144531 29.3125 33.101563 28.8125 36.90625 C 28.8125 36.917969 28.8125 36.957031 28.8125 36.96875 C 28.8125 36.972656 28.800781 37 28.8125 37 L 21.1875 37 C 21.1875 36.984375 21.1875 36.921875 21.1875 36.90625 C 20.980469 34.957031 20.433594 30.390625 19.9375 25.6875 C 19.4375 20.945313 19 16.074219 19 13.90625 C 19 7.769531 23.980469 3.3125 25 2.4375 Z M 25 10 C 22.800781 10 21 11.800781 21 14 C 21 16.199219 22.800781 18 25 18 C 27.199219 18 29 16.199219 29 14 C 29 11.800781 27.199219 10 25 10 Z M 25 12 C 26.117188 12 27 12.882813 27 14 C 27 15.117188 26.117188 16 25 16 C 23.882813 16 23 15.117188 23 14 C 23 12.882813 23.882813 12 25 12 Z M 18.5625 31.34375 C 18.730469 32.820313 18.921875 34.492188 19.03125 35.46875 L 16 36.5625 L 16 34.40625 Z M 31.46875 31.40625 L 34 34.40625 L 34 36.5625 L 31 35.46875 C 31.140625 34.324219 31.277344 33.097656 31.46875 31.40625 Z M 21.53125 39.96875 C 21.488281 39.976563 21.445313 39.988281 21.40625 40 C 21.082031 40.066406 20.816406 40.289063 20.6875 40.59375 C 20.386719 41.292969 20 42.136719 20 43.1875 C 20 44.972656 21.191406 46.480469 22.25 47.6875 C 23.308594 48.894531 24.375 49.78125 24.375 49.78125 C 24.742188 50.074219 25.257813 50.074219 25.625 49.78125 C 25.625 49.78125 26.691406 48.894531 27.75 47.6875 C 28.808594 46.480469 30 44.972656 30 43.1875 C 30 42.222656 29.761719 41.25 29.21875 40.4375 C 28.90625 39.980469 28.285156 39.859375 27.828125 40.171875 C 27.371094 40.484375 27.25 41.105469 27.5625 41.5625 C 27.820313 41.949219 28 42.554688 28 43.1875 C 28 43.902344 27.191406 45.304688 26.25 46.375 C 25.625 47.085938 25.351563 47.28125 25 47.59375 C 24.648438 47.28125 24.375 47.085938 23.75 46.375 C 22.808594 45.304688 22 43.902344 22 43.1875 C 22 42.636719 22.230469 42.105469 22.53125 41.40625 C 22.691406 41.078125 22.664063 40.691406 22.457031 40.390625 C 22.246094 40.09375 21.894531 39.929688 21.53125 39.96875 Z " fill="#000000"/></g></svg>
