<?xml version="1.0" encoding="UTF-8"?>
<svg xmlns="http://www.w3.org/2000/svg" xmlns:xlink="http://www.w3.org/1999/xlink" viewBox="0 0 50 50" version="1.1" fill="#000000"><g id="surface1" fill="#000000"><path style=" " d="M 12.25 0.96875 C 12.078125 0.960938 11.902344 0.980469 11.71875 1.03125 L 10.75 1.3125 L 11.03125 2.28125 L 14.5 14.375 L 3.5625 7.15625 L 2.75 6.625 L 2.1875 7.40625 C 1.867188 7.859375 1.855469 8.414063 1.9375 8.84375 C 2.019531 9.273438 2.179688 9.675781 2.40625 10.09375 C 2.859375 10.929688 3.566406 11.847656 4.4375 12.875 C 6.179688 14.925781 8.621094 17.335938 11.125 19.6875 C 15.128906 23.449219 18.566406 26.378906 20.0625 27.65625 C 20.070313 27.664063 20.085938 27.679688 20.09375 27.6875 C 20.101563 27.707031 20.113281 27.730469 20.125 27.75 C 20.164063 27.796875 20.203125 27.835938 20.25 27.875 C 21.226563 28.851563 21.609375 29.484375 21.8125 30.3125 C 22.015625 31.140625 22 32.265625 22 34 C 22 35.589844 22.683594 37.519531 23.09375 38.40625 C 23.996094 40.359375 25.40625 42.429688 26.84375 44.1875 C 28.28125 45.945313 29.675781 47.382813 30.8125 48.09375 C 31.765625 48.691406 32.875 49 34 49 C 36.070313 49 37.996094 47.941406 39.09375 46.1875 C 40.828125 43.421875 39.980469 39.753906 37.28125 38 C 37.273438 37.996094 37.289063 37.972656 37.28125 37.96875 C 37.28125 37.96875 37.222656 37.941406 37.21875 37.9375 C 37.132813 37.867188 36.542969 37.339844 35.96875 36.6875 C 35.371094 36.007813 34.75 35.144531 34.4375 34.46875 C 33.644531 32.753906 32.175781 31.238281 30.125 31 L 30 31 C 28.921875 31 28.230469 30.402344 27.71875 29.6875 C 27.660156 29.605469 27.613281 29.519531 27.5625 29.4375 C 27.585938 29.441406 27.601563 29.433594 27.625 29.4375 C 30.648438 29.824219 34.089844 30.671875 35.34375 31.75 C 37.03125 33.199219 38.210938 34.007813 39.25 34.46875 C 40.289063 34.929688 41.171875 35 42 35 C 45.300781 35 48 32.300781 48 29 C 48 25.699219 45.300781 23 42 23 C 39.25 23 37.335938 24.480469 36.78125 24.9375 C 36.671875 24.917969 36.59375 24.914063 36.3125 24.84375 C 35.898438 24.738281 35.339844 24.59375 34.71875 24.40625 C 33.472656 24.035156 31.917969 23.53125 30.40625 23.03125 C 27.414063 22.042969 24.65625 21.085938 24.59375 21.0625 C 24.59375 21.0625 24.53125 21.03125 24.53125 21.03125 L 23.9375 20.65625 C 23.9375 20.644531 23.9375 20.636719 23.9375 20.625 L 23.90625 20.59375 C 22.1875 16.601563 19.960938 11.691406 17.875 7.8125 C 16.832031 5.875 15.828125 4.210938 14.90625 3 C 14.445313 2.394531 14.035156 1.898438 13.5625 1.53125 C 13.207031 1.253906 12.761719 0.996094 12.25 0.96875 Z M 14 5.34375 C 14.664063 6.335938 15.359375 7.355469 16.125 8.78125 C 17.703125 11.714844 19.398438 15.28125 20.875 18.59375 L 17 16.0625 C 17.007813 15.945313 17 15.832031 16.96875 15.71875 Z M 5.40625 10.78125 L 23.65625 22.8125 L 23.75 22.875 L 23.875 22.9375 C 23.875 22.9375 26.734375 23.929688 29.78125 24.9375 C 31.304688 25.441406 32.878906 25.960938 34.15625 26.34375 C 34.796875 26.535156 35.378906 26.695313 35.84375 26.8125 C 36.308594 26.929688 36.582031 27 37 27 L 37.375 27 L 37.65625 26.75 C 37.65625 26.75 39.8125 25 42 25 C 44.21875 25 46 26.78125 46 29 C 46 31.21875 44.21875 33 42 33 C 41.238281 33 40.800781 32.984375 40.0625 32.65625 C 39.335938 32.332031 38.289063 31.625 36.71875 30.28125 L 36.65625 30.25 C 34.605469 28.488281 31.027344 27.839844 27.875 27.4375 C 24.957031 27.066406 22.800781 27.039063 22.4375 27.03125 C 22.222656 26.851563 17.347656 22.800781 12.5 18.25 C 10.023438 15.925781 7.617188 13.503906 5.96875 11.5625 C 5.707031 11.253906 5.625 11.0625 5.40625 10.78125 Z M 22 23 C 21.449219 23 21 23.449219 21 24 C 21 24.550781 21.449219 25 22 25 C 22.550781 25 23 24.550781 23 24 C 23 23.449219 22.550781 23 22 23 Z M 42 26 C 40.355469 26 39 27.355469 39 29 C 39 30.644531 40.355469 32 42 32 C 43.644531 32 45 30.644531 45 29 C 45 27.355469 43.644531 26 42 26 Z M 42 28 C 42.5625 28 43 28.4375 43 29 C 43 29.5625 42.5625 30 42 30 C 41.4375 30 41 29.5625 41 29 C 41 28.4375 41.4375 28 42 28 Z M 23.5 29.0625 C 24.007813 29.089844 24.515625 29.128906 25.21875 29.1875 C 25.34375 29.550781 25.582031 30.132813 26.09375 30.84375 C 26.804688 31.832031 28.089844 32.914063 29.875 32.96875 L 29.875 33 C 31.046875 33.136719 32.042969 34.050781 32.625 35.3125 C 33.082031 36.300781 33.796875 37.234375 34.46875 38 C 35.140625 38.765625 35.699219 39.285156 36.125 39.59375 L 36.125 39.625 L 36.15625 39.625 C 37.984375 40.773438 38.550781 43.25 37.375 45.125 C 36.632813 46.308594 35.394531 47 34 47 C 33.25 47 32.515625 46.773438 31.875 46.375 C 31.1875 45.941406 29.757813 44.589844 28.40625 42.9375 C 27.050781 41.277344 25.699219 39.304688 24.90625 37.59375 C 24.695313 37.136719 24 34.828125 24 34 C 24 32.277344 24.042969 31.039063 23.75 29.84375 C 23.683594 29.578125 23.605469 29.316406 23.5 29.0625 Z M 29 34 C 28.5625 34 28.144531 34.097656 27.75 34.28125 C 27.03125 34.613281 26.460938 35.222656 26.1875 35.96875 C 25.914063 36.714844 25.949219 37.53125 26.28125 38.25 C 27.0625 39.941406 28.230469 41.535156 29.375 42.8125 C 30.519531 44.089844 31.59375 45.023438 32.40625 45.53125 C 32.882813 45.832031 33.4375 46 34 46 C 35.03125 46 35.984375 45.46875 36.53125 44.59375 C 37.40625 43.199219 36.984375 41.34375 35.59375 40.46875 C 35.480469 40.398438 34.609375 39.675781 33.8125 38.78125 C 33.015625 37.886719 32.1875 36.757813 31.71875 35.75 C 31.230469 34.6875 30.167969 34 29 34 Z M 29 36 C 29.386719 36 29.746094 36.242188 29.90625 36.59375 C 30.507813 37.898438 31.429688 39.105469 32.3125 40.09375 C 33.195313 41.082031 33.9375 41.785156 34.53125 42.15625 C 35.007813 42.457031 35.140625 43.054688 34.84375 43.53125 C 34.65625 43.832031 34.355469 44 34 44 C 33.808594 44 33.625 43.941406 33.46875 43.84375 C 32.976563 43.535156 31.890625 42.636719 30.84375 41.46875 C 29.796875 40.300781 28.753906 38.835938 28.09375 37.40625 C 27.976563 37.15625 27.96875 36.914063 28.0625 36.65625 C 28.15625 36.398438 28.316406 36.207031 28.5625 36.09375 L 28.59375 36.09375 C 28.730469 36.03125 28.851563 36 29 36 Z " fill="#000000"/></g></svg>
