<?xml version="1.0" encoding="utf-8"?>
<svg xmlns="http://www.w3.org/2000/svg" viewBox="0 0 50 50" fill="#000000"><path style="line-height:normal;text-indent:0;text-align:start;text-decoration-line:none;text-decoration-style:solid;text-decoration-color:#000;text-transform:none;block-progression:tb;isolation:auto;mix-blend-mode:normal" d="M 1 10 L 1 20 C 1 22.54777 1.9480847 23.997658 2.8242188 24.800781 C 3.2622858 25.202343 3.6409332 25.467423 3.8203125 25.648438 C 3.9996918 25.82945 4 25.814527 4 26 L 4 36 C 4 38.159588 4.079199 39.450012 4.4101562 40.417969 C 4.5756349 40.901947 4.8405138 41.342529 5.2519531 41.632812 C 5.6633924 41.923096 6.139077 42 6.5253906 42 C 6.9501422 42 7.4575994 41.876656 7.8496094 41.552734 C 8.2416194 41.228813 8.471401 40.784482 8.6230469 40.296875 C 8.9263386 39.321661 9 38.032583 9 36 L 9 26 C 9 25.814527 8.9829652 25.870615 9.1503906 25.714844 C 9.3178161 25.559073 9.6994991 25.318125 10.146484 24.939453 C 11.040456 24.18211 12 22.753495 12 20.167969 L 12 10 L 1 10 z M 42.955078 10.001953 A 1.0001 1.0001 0 0 0 42 11 L 42 35.167969 C 42 37.202719 42.09024 38.704801 42.400391 39.845703 C 42.555468 40.416154 42.7654 40.914819 43.142578 41.326172 C 43.519756 41.737524 44.111069 42 44.667969 42 C 45.447135 42 46.02874 41.397689 46.296875 40.861328 C 46.56501 40.324967 46.694305 39.732823 46.791016 39.083984 C 46.984438 37.786307 47 36.261067 47 35 L 47 28 C 47 27.067324 47.416827 26.110289 47.927734 24.84375 C 48.438642 23.577211 49 22.015302 49 20 C 49 18.801133 48.802601 16.963929 48.015625 15.082031 C 47.228649 13.200133 45.813314 11.265034 43.439453 10.101562 A 1.0001 1.0001 0 0 0 42.955078 10.001953 z M 26.5 11 C 18.482619 11 12 17.482619 12 25.5 C 12 33.517381 18.482619 40 26.5 40 C 34.517381 40 41 33.517381 41 25.5 C 41 17.482619 34.517381 11 26.5 11 z M 3 12 L 4 12 L 4 19 A 1.0001 1.0001 0 1 0 6 19 L 6 12 L 7 12 L 7 19 A 1.0001 1.0001 0 1 0 9 19 L 9 12 L 10 12 L 10 20.167969 C 10 22.332442 9.4595442 22.900655 8.8535156 23.414062 C 8.5505013 23.670766 8.1821839 23.88438 7.7871094 24.251953 C 7.3920348 24.619526 7 25.268973 7 26 L 7 36 C 7 37.967417 6.8780521 39.178339 6.7148438 39.703125 C 6.6332395 39.965518 6.5623494 40.021187 6.5761719 40.009766 C 6.5899944 39.998344 6.6426391 40 6.5253906 40 C 6.3697043 40 6.3823732 39.983154 6.40625 40 C 6.430127 40.01685 6.383006 40.0043 6.3027344 39.769531 C 6.1421914 39.299988 6 38.090412 6 36 L 6 26 C 6 25.268973 5.6253082 24.628799 5.2421875 24.242188 C 4.8590668 23.855576 4.4877142 23.61211 4.1757812 23.326172 C 3.5519153 22.754295 3 22.11923 3 20 L 3 12 z M 26.5 13 C 33.444619 13 39 18.555381 39 25.5 C 39 32.444619 33.444619 38 26.5 38 C 19.555381 38 14 32.444619 14 25.5 C 14 18.555381 19.555381 13 26.5 13 z M 44 13.003906 C 44.960948 13.841082 45.72819 14.79253 46.171875 15.853516 C 46.822399 17.409118 47 19.031867 47 20 C 47 21.651698 46.561358 22.881289 46.072266 24.09375 C 45.583173 25.306211 45 26.515676 45 28 L 45 35 C 45 36.238933 44.97308 37.713693 44.8125 38.791016 C 44.74261 39.25993 44.638022 39.589587 44.546875 39.814453 C 44.483575 39.713859 44.409694 39.61318 44.330078 39.320312 C 44.119232 38.544715 44 37.133219 44 35.167969 L 44 13.003906 z M 26.011719 16.013672 A 1.0001 1.0001 0 0 0 25.943359 16.015625 C 20.951049 16.302223 17 20.439867 17 25.5 C 17 30.746447 21.253553 35 26.5 35 C 31.560133 35 35.69773 31.048951 35.984375 26.056641 A 1.0001 1.0001 0 1 0 33.988281 25.943359 C 33.760926 29.903049 30.525867 33 26.5 33 C 22.326447 33 19 29.673553 19 25.5 C 19 21.474133 22.096951 18.239074 26.056641 18.011719 A 1.0001 1.0001 0 0 0 26.011719 16.013672 z" font-weight="400" font-family="sans-serif" white-space="normal" overflow="visible" fill="#000000"/></svg>
