<?xml version="1.0" encoding="UTF-8"?>
<svg xmlns="http://www.w3.org/2000/svg" xmlns:xlink="http://www.w3.org/1999/xlink" viewBox="0 0 50 50" version="1.1" fill="#000000"><g id="surface1" fill="#000000"><path style=" " d="M 3 13 C 1.355469 13 0 14.355469 0 16 L 0 34 C 0 35.644531 1.355469 37 3 37 L 47 37 C 48.644531 37 50 35.644531 50 34 L 50 16 C 50 14.355469 48.644531 13 47 13 Z M 3 15 L 47 15 C 47.554688 15 48 15.445313 48 16 L 48 34 C 48 34.554688 47.554688 35 47 35 L 3 35 C 2.445313 35 2 34.554688 2 34 L 2 16 C 2 15.445313 2.445313 15 3 15 Z M 37 16 C 32.042969 16 28 20.042969 28 25 C 28 29.957031 32.042969 34 37 34 C 41.957031 34 46 29.957031 46 25 C 46 20.042969 41.957031 16 37 16 Z M 37 18 C 40.878906 18 44 21.121094 44 25 C 44 28.878906 40.878906 32 37 32 C 33.121094 32 30 28.878906 30 25 C 30 21.121094 33.121094 18 37 18 Z M 6 20 L 6 22 L 26 22 L 26 20 Z M 37 20 C 34.25 20 32 22.25 32 25 C 32 27.75 34.25 30 37 30 C 39.75 30 42 27.75 42 25 C 42 22.25 39.75 20 37 20 Z M 37 22 C 38.667969 22 40 23.332031 40 25 C 40 26.667969 38.667969 28 37 28 C 35.332031 28 34 26.667969 34 25 C 34 23.332031 35.332031 22 37 22 Z M 6 24 L 6 26 L 26 26 L 26 24 Z M 6 28 L 6 30 L 26 30 L 26 28 Z M 4 38 L 4 40 L 12 40 L 12 38 Z M 38 38 L 38 40 L 46 40 L 46 38 Z " fill="#000000"/></g></svg>
