<?xml version="1.0" encoding="utf-8"?>
<svg xmlns="http://www.w3.org/2000/svg" viewBox="0 0 50 50" fill="#000000"><path style="line-height:normal;text-indent:0;text-align:start;text-decoration-line:none;text-decoration-style:solid;text-decoration-color:#000;text-transform:none;block-progression:tb;isolation:auto;mix-blend-mode:normal" d="M 20.794922 4 L 9.8125 8.6953125 L 9.6464844 8.9921875 C 8.8864154 10.355486 8.1459596 12.799359 7.3164062 15.896484 C 6.4868529 18.99361 5.6222372 22.677914 4.8378906 26.21875 C 3.2691975 33.300422 2.0175781 39.810547 2.0175781 39.810547 L 1.8242188 40.818359 L 9.7558594 42.140625 L 13.699219 25.583984 C 13.828852 26.970476 14 28.165532 14 30 C 14 33.666667 12 39.733333 12 45 L 12 46 L 25 46 L 38 46 L 38 45 C 38 39.733333 36 33.666667 36 30 C 36 28.165532 36.171148 26.970476 36.300781 25.583984 L 40.244141 42.140625 L 48.175781 40.818359 L 47.982422 39.810547 C 47.982422 39.810547 46.73022 33.299727 45.164062 26.220703 C 44.380986 22.681191 43.520036 19.000383 42.693359 15.90625 C 41.866683 12.812117 41.12981 10.37233 40.375 9.0136719 L 40.208984 8.7148438 L 29.205078 4 L 20.794922 4 z M 21.287109 6 L 28.697266 6 L 24.890625 20.279297 C 23.313419 13.971432 21.683341 7.5522176 21.287109 6 z M 30.566406 6.7597656 L 33.111328 7.8515625 L 30.480469 11.359375 L 32.576172 12.40625 L 26.353516 22.564453 L 30.566406 6.7597656 z M 19.414062 6.765625 C 19.801832 8.2862661 21.771286 16.00013 23.425781 22.650391 L 17.404297 12.416016 L 19.341797 11.447266 L 17.425781 7.6152344 L 19.414062 6.765625 z M 15.583984 8.4023438 L 16.658203 10.552734 L 14.595703 11.583984 L 25 29.271484 L 25 44 L 14.130859 44 C 14.359233 39.440598 16 34.050118 16 30 C 16 29.304072 15.982641 28.641395 15.958984 28 L 19 28 L 19 26 L 15.849609 26 C 15.56477 22.161391 14.970703 19.757813 14.970703 19.757812 L 13.976562 15.78125 L 8.2441406 39.859375 L 4.1914062 39.185547 C 4.3580248 38.324639 5.3454946 33.176017 6.7910156 26.650391 C 7.5716691 23.126227 8.4313502 19.463188 9.2480469 16.414062 C 10.031113 13.490495 10.799913 11.217208 11.304688 10.232422 L 15.583984 8.4023438 z M 35.003906 8.6621094 L 38.712891 10.251953 C 39.213222 11.231964 39.979405 13.501095 40.759766 16.421875 C 41.573714 19.468367 42.431514 23.131309 43.210938 26.654297 C 44.654142 33.177587 45.64194 38.324405 45.808594 39.185547 L 41.755859 39.859375 L 36.023438 15.78125 L 35.029297 19.757812 C 35.029297 19.757812 34.43523 22.161391 34.150391 26 L 31 26 L 31 28 L 34.041016 28 C 34.017359 28.641395 34 29.304072 34 30 C 34 34.050118 35.640767 39.440598 35.869141 44 L 27 44 L 27 28.888672 L 26.976562 28.78125 C 26.870097 28.306966 26.576766 27.132848 26.384766 26.335938 L 35.421875 11.59375 L 33.519531 10.642578 L 35.003906 8.6621094 z M 23 30 A 1 1 0 0 0 22 31 A 1 1 0 0 0 23 32 A 1 1 0 0 0 24 31 A 1 1 0 0 0 23 30 z M 23 34 A 1 1 0 0 0 22 35 A 1 1 0 0 0 23 36 A 1 1 0 0 0 24 35 A 1 1 0 0 0 23 34 z" fill="#000000"/></svg>
