<?xml version="1.0" encoding="UTF-8"?>
<svg xmlns="http://www.w3.org/2000/svg" xmlns:xlink="http://www.w3.org/1999/xlink" viewBox="0 0 50 50" version="1.1" fill="#000000"><g id="surface1" fill="#000000"><path style=" " d="M 32.3125 1.730469 L 32.035156 2.734375 L 27.238281 20 L 24.921875 20 C 24.429688 16.617188 21.515625 14 18 14 C 14.484375 14 11.570313 16.617188 11.078125 20 L 5 20 C 4.640625 19.996094 4.304688 20.183594 4.121094 20.496094 C 3.941406 20.808594 3.941406 21.191406 4.121094 21.503906 C 4.304688 21.816406 4.640625 22.003906 5 22 L 5.203125 22 C 6.714844 28.230469 12.195313 32.726563 18.625 32.972656 L 23.378906 36.714844 L 20.21875 39.199219 C 19.351563 38.453125 18.230469 38 17 38 C 14.242188 38 12 40.242188 12 43 C 12 45.757813 14.242188 48 17 48 C 19.757813 48 22 45.757813 22 43 C 22 42.960938 21.988281 42.921875 21.988281 42.882813 L 19.035156 45.203125 C 19.023438 45.214844 19.003906 45.214844 18.992188 45.226563 C 18.460938 45.703125 17.765625 46 17 46 C 15.347656 46 14 44.652344 14 43 C 14 41.347656 15.347656 40 17 40 C 17.589844 40 18.132813 40.179688 18.59375 40.472656 L 16.382813 42.214844 C 15.949219 42.554688 15.871094 43.183594 16.210938 43.617188 C 16.554688 44.050781 17.183594 44.128906 17.617188 43.785156 L 25 37.984375 L 32.382813 43.785156 C 32.816406 44.128906 33.445313 44.050781 33.789063 43.617188 C 34.128906 43.183594 34.050781 42.554688 33.617188 42.214844 L 31.40625 40.472656 C 31.867188 40.179688 32.410156 40 33 40 C 34.652344 40 36 41.347656 36 43 C 36 44.652344 34.652344 46 33 46 C 32.234375 46 31.539063 45.703125 31.007813 45.226563 C 30.996094 45.214844 30.976563 45.214844 30.964844 45.203125 L 28.011719 42.882813 C 28.011719 42.921875 28 42.960938 28 43 C 28 45.757813 30.242188 48 33 48 C 35.757813 48 38 45.757813 38 43 C 38 40.242188 35.757813 38 33 38 C 31.769531 38 30.648438 38.453125 29.78125 39.199219 L 26.621094 36.714844 L 31.375 32.972656 C 37.804688 32.726563 43.285156 28.230469 44.796875 22 L 45 22 C 45.359375 22.003906 45.695313 21.816406 45.878906 21.503906 C 46.058594 21.191406 46.058594 20.808594 45.878906 20.496094 C 45.695313 20.183594 45.359375 19.996094 45 20 L 44.992188 20 C 44.851563 13.121094 42.09375 8.609375 39.285156 5.882813 C 36.34375 3.027344 33.304688 2.046875 33.304688 2.046875 Z M 18 3 C 15.25 3 13 5.25 13 8 C 13 10.75 15.25 13 18 13 C 20.75 13 23 10.75 23 8 C 23 5.25 20.75 3 18 3 Z M 33.652344 4.382813 C 34.570313 4.785156 36.050781 5.53125 37.894531 7.320313 C 40.375 9.730469 42.769531 13.695313 42.921875 20 L 29.3125 20 Z M 18 5 C 19.667969 5 21 6.332031 21 8 C 21 9.667969 19.667969 11 18 11 C 16.332031 11 15 9.667969 15 8 C 15 6.332031 16.332031 5 18 5 Z M 18 16 C 20.429688 16 22.441406 17.710938 22.902344 20 L 13.097656 20 C 13.558594 17.710938 15.570313 16 18 16 Z M 7.421875 22 L 42.578125 22 C 41.070313 27.1875 36.484375 30.910156 31 30.992188 C 30.992188 30.992188 30.988281 30.992188 30.980469 30.996094 C 30.925781 30.996094 30.875 31 30.820313 31 L 19.179688 31 C 19.144531 31 19.113281 30.996094 19.078125 30.996094 C 19.058594 30.992188 19.035156 30.992188 19.015625 30.992188 C 13.523438 30.917969 8.929688 27.191406 7.421875 22 Z M 21.890625 33 L 28.109375 33 L 25 35.441406 Z " fill="#000000"/></g></svg>
