<?xml version="1.0" encoding="UTF-8"?>
<svg xmlns="http://www.w3.org/2000/svg" xmlns:xlink="http://www.w3.org/1999/xlink" viewBox="0 0 50 50" version="1.1" fill="#000000"><g id="surface1" fill="#000000"><path style=" " d="M 6 5 C 3.800781 5 2 6.800781 2 9 L 2 31 C 2 32.953125 3.421875 34.566406 5.28125 34.90625 L 6.59375 42.3125 C 6.976563 44.476563 9.054688 45.945313 11.21875 45.5625 L 44.6875 39.59375 C 46.851563 39.210938 48.320313 37.132813 47.9375 34.96875 L 44.09375 13.3125 C 44.078125 13.214844 44.046875 13.121094 44 13.03125 L 44 9 C 44 6.800781 42.199219 5 40 5 Z M 6 7 L 40 7 C 41.117188 7 42 7.882813 42 9 L 42 12 L 4 12 L 4 9 C 4 7.882813 4.882813 7 6 7 Z M 4 17 L 42 17 L 42 31 C 42 32.117188 41.117188 33 40 33 L 6 33 C 4.882813 33 4 32.117188 4 31 Z M 9 20 L 9 22 L 25 22 L 25 20 Z M 44 24.21875 L 45.96875 35.3125 C 46.164063 36.410156 45.445313 37.429688 44.34375 37.625 L 10.875 43.59375 C 9.777344 43.789063 8.757813 43.070313 8.5625 41.96875 L 7.3125 35 L 40 35 C 42.199219 35 44 33.199219 44 31 Z " fill="#000000"/></g></svg>
