<?xml version="1.0" encoding="UTF-8"?>
<svg xmlns="http://www.w3.org/2000/svg" xmlns:xlink="http://www.w3.org/1999/xlink" viewBox="0 0 50 50" version="1.1" fill="#000000"><g id="surface1" fill="#000000"><path style=" " d="M 22.8125 0 C 22.335938 0.0898438 21.992188 0.511719 22 1 L 22 5.6875 C 19.636719 6.816406 18 9.21875 18 12 C 18 13.105469 18.257813 14.160156 18.71875 15.09375 L 10.5625 33 L 5.71875 33 C 5.371094 32.402344 4.738281 32 4 32 C 2.894531 32 2 32.894531 2 34 C 2 35.105469 2.894531 36 4 36 C 4.738281 36 5.371094 35.597656 5.71875 35 L 9.65625 35 L 6.34375 42.28125 C 5.804688 43.472656 6.105469 44.832031 7 45.6875 L 5.6875 48.59375 C 5.488281 48.925781 5.5 49.339844 5.710938 49.660156 C 5.925781 49.980469 6.304688 50.152344 6.6875 50.097656 C 7.066406 50.042969 7.386719 49.773438 7.5 49.40625 L 8.8125 46.5 C 10.035156 46.597656 11.25 45.953125 11.78125 44.78125 L 16.25 35 L 22 35 L 22 37 C 22 37.550781 22.449219 38 23 38 L 27 38 C 27.550781 38 28 37.550781 28 37 L 28 35 L 33.75 35 L 38.21875 44.78125 C 38.75 45.953125 39.964844 46.597656 41.1875 46.5 L 42.5 49.40625 C 42.613281 49.773438 42.933594 50.042969 43.3125 50.097656 C 43.695313 50.152344 44.074219 49.980469 44.289063 49.660156 C 44.5 49.339844 44.511719 48.925781 44.3125 48.59375 L 43 45.6875 C 43.894531 44.832031 44.195313 43.472656 43.65625 42.28125 L 40.34375 35 L 44.28125 35 C 44.628906 35.597656 45.261719 36 46 36 C 47.105469 36 48 35.105469 48 34 C 48 32.894531 47.105469 32 46 32 C 45.261719 32 44.628906 32.402344 44.28125 33 L 39.4375 33 L 31.28125 15.09375 C 31.742188 14.160156 32 13.105469 32 12 C 32 9.21875 30.363281 6.816406 28 5.6875 L 28 1 C 28 0.449219 27.550781 0 27 0 L 23 0 C 22.96875 0 22.9375 0 22.90625 0 C 22.875 0 22.84375 0 22.8125 0 Z M 24 2 L 26 2 L 26 5.09375 C 25.671875 5.046875 25.339844 5 25 5 C 24.660156 5 24.328125 5.046875 24 5.09375 Z M 25 7 C 27.773438 7 30 9.226563 30 12 C 30 14.773438 27.773438 17 25 17 C 22.226563 17 20 14.773438 20 12 C 20 9.226563 22.226563 7 25 7 Z M 25 8 C 22.800781 8 21 9.800781 21 12 C 21 14.199219 22.800781 16 25 16 C 27.199219 16 29 14.199219 29 12 C 29 9.800781 27.199219 8 25 8 Z M 25 10 C 26.117188 10 27 10.882813 27 12 C 27 13.117188 26.117188 14 25 14 C 23.882813 14 23 13.117188 23 12 C 23 10.882813 23.882813 10 25 10 Z M 20.09375 16.96875 C 20.578125 17.449219 21.113281 17.863281 21.71875 18.1875 L 9.96875 43.9375 C 9.765625 44.386719 9.296875 44.605469 8.84375 44.5 C 8.832031 44.488281 8.824219 44.480469 8.8125 44.46875 C 8.734375 44.425781 8.648438 44.394531 8.5625 44.375 C 8.128906 44.117188 7.941406 43.601563 8.15625 43.125 Z M 29.90625 16.96875 L 41.84375 43.125 C 42.058594 43.601563 41.871094 44.117188 41.4375 44.375 C 41.40625 44.394531 41.375 44.414063 41.34375 44.4375 C 40.828125 44.671875 40.265625 44.453125 40.03125 43.9375 L 35.78125 34.625 C 36.019531 34.328125 36.066406 33.925781 35.910156 33.582031 C 35.75 33.234375 35.410156 33.011719 35.03125 33 L 28.28125 18.1875 C 28.886719 17.863281 29.421875 17.449219 29.90625 16.96875 Z M 23.59375 18.84375 L 23.625 18.84375 C 24.070313 18.933594 24.527344 19 25 19 C 25.472656 19 25.929688 18.933594 26.375 18.84375 L 32.84375 33 L 28 33 L 28 31 C 28 30.449219 27.550781 30 27 30 L 23 30 C 22.96875 30 22.9375 30 22.90625 30 C 22.875 30 22.84375 30 22.8125 30 C 22.335938 30.089844 21.992188 30.511719 22 31 L 22 33 L 17.15625 33 Z M 24 32 L 26 32 L 26 33.53125 C 25.867188 33.808594 25.867188 34.128906 26 34.40625 L 26 36 L 24 36 L 24 34.1875 C 24.027344 34.054688 24.027344 33.914063 24 33.78125 Z " fill="#000000"/></g></svg>
