<?xml version="1.0" encoding="UTF-8"?>
<svg xmlns="http://www.w3.org/2000/svg" xmlns:xlink="http://www.w3.org/1999/xlink" viewBox="0 0 50 50" version="1.1" fill="#000000"><g id="surface1" fill="#000000"><path style=" " d="M 2.8125 3 C 2.359375 3.082031 2.023438 3.460938 1.992188 3.917969 C 1.960938 4.378906 2.25 4.796875 2.6875 4.9375 L 8 6.71875 L 8 14 L 10 14 L 10 7.375 L 14.6875 8.9375 C 15.039063 9.117188 15.460938 9.074219 15.769531 8.828125 C 16.078125 8.582031 16.210938 8.179688 16.113281 7.796875 C 16.015625 7.417969 15.703125 7.128906 15.3125 7.0625 L 10.96875 5.59375 C 10.78125 4.683594 9.96875 4 9 4 C 8.488281 4 8.042969 4.214844 7.6875 4.53125 L 3.3125 3.0625 C 3.152344 3 2.980469 2.976563 2.8125 3 Z M 42 4 C 40.894531 4 40 4.894531 40 6 L 44 6 C 44 4.894531 43.105469 4 42 4 Z M 35.71875 7 C 35.167969 7.078125 34.78125 7.589844 34.859375 8.140625 C 34.9375 8.691406 35.449219 9.078125 36 9 L 48 9 C 48.359375 9.003906 48.695313 8.816406 48.878906 8.503906 C 49.058594 8.191406 49.058594 7.808594 48.878906 7.496094 C 48.695313 7.183594 48.359375 6.996094 48 7 L 36 7 C 35.96875 7 35.9375 7 35.90625 7 C 35.875 7 35.84375 7 35.8125 7 C 35.78125 7 35.75 7 35.71875 7 Z M 35.71875 10 C 35.167969 10.078125 34.78125 10.589844 34.859375 11.140625 C 34.9375 11.691406 35.449219 12.078125 36 12 L 41 12 L 41 14 L 43 14 L 43 12 L 48 12 C 48.359375 12.003906 48.695313 11.816406 48.878906 11.503906 C 49.058594 11.191406 49.058594 10.808594 48.878906 10.496094 C 48.695313 10.183594 48.359375 9.996094 48 10 L 36 10 C 35.96875 10 35.9375 10 35.90625 10 C 35.875 10 35.84375 10 35.8125 10 C 35.78125 10 35.75 10 35.71875 10 Z M 1.8125 15 C 1.335938 15.089844 0.992188 15.511719 1 16 L 1 26 C 1 26.550781 1.449219 27 2 27 L 8 27 L 8 46 C 7.996094 46.359375 8.183594 46.695313 8.496094 46.878906 C 8.808594 47.058594 9.191406 47.058594 9.503906 46.878906 C 9.816406 46.695313 10.003906 46.359375 10 46 L 10 27 L 12.375 27 C 11.503906 28.824219 11 30.847656 11 33 C 11 37.003906 12.675781 40.632813 15.375 43.1875 L 13.28125 45.28125 C 12.882813 45.679688 12.882813 46.320313 13.28125 46.71875 C 13.679688 47.117188 14.320313 47.117188 14.71875 46.71875 L 17 44.4375 C 19.273438 46.03125 22.015625 47 25 47 C 27.984375 47 30.726563 46.03125 33 44.4375 L 35.28125 46.71875 C 35.679688 47.117188 36.320313 47.117188 36.71875 46.71875 C 37.117188 46.320313 37.117188 45.679688 36.71875 45.28125 L 34.625 43.1875 C 37.324219 40.632813 39 37.003906 39 33 C 39 30.847656 38.496094 28.824219 37.625 27 L 40 27 L 40 46 C 39.996094 46.359375 40.183594 46.695313 40.496094 46.878906 C 40.808594 47.058594 41.191406 47.058594 41.503906 46.878906 C 41.816406 46.695313 42.003906 46.359375 42 46 L 42 27 L 48 27 C 48.550781 27 49 26.550781 49 26 L 49 16 C 49 15.449219 48.550781 15 48 15 L 34 15 C 33.96875 15 33.9375 15 33.90625 15 C 33.875 15 33.84375 15 33.8125 15 C 33.335938 15.089844 32.992188 15.511719 33 16 L 33 21.53125 C 30.730469 19.941406 27.976563 19 25 19 C 22.023438 19 19.269531 19.941406 17 21.53125 L 17 16 C 17 15.449219 16.550781 15 16 15 L 2 15 C 1.96875 15 1.9375 15 1.90625 15 C 1.875 15 1.84375 15 1.8125 15 Z M 3 17 L 5 17 L 5 23 L 7 23 L 7 17 L 11 17 L 11 23 L 13 23 L 13 17 L 15 17 L 15 23.1875 C 14.457031 23.742188 13.976563 24.363281 13.53125 25 L 9.1875 25 C 9.054688 24.972656 8.914063 24.972656 8.78125 25 L 3 25 Z M 35 17 L 37 17 L 37 23 L 39 23 L 39 17 L 43 17 L 43 23 L 45 23 L 45 17 L 47 17 L 47 25 L 41.1875 25 C 41.054688 24.972656 40.914063 24.972656 40.78125 25 L 36.46875 25 C 36.023438 24.363281 35.542969 23.742188 35 23.1875 Z M 25 21 C 31.640625 21 37 26.359375 37 33 C 37 39.640625 31.640625 45 25 45 C 18.359375 45 13 39.640625 13 33 C 13 26.359375 18.359375 21 25 21 Z M 30 35 C 28.894531 35 28 35.894531 28 37 C 28 38.105469 28.894531 39 30 39 C 31.105469 39 32 38.105469 32 37 C 32 35.894531 31.105469 35 30 35 Z " fill="#000000"/></g></svg>
