<?xml version="1.0" encoding="utf-8"?>
<svg xmlns="http://www.w3.org/2000/svg" viewBox="0 0 50 50" fill="#000000"><path style="line-height:normal;text-indent:0;text-align:start;text-decoration-line:none;text-decoration-style:solid;text-decoration-color:#000;text-transform:none;block-progression:tb;isolation:auto;mix-blend-mode:normal" d="M 27.964844 2 A 1.0001 1.0001 0 0 0 27.292969 2.2929688 L 2.2929688 27.292969 A 1.0001 1.0001 0 0 0 2.046875 28.300781 L 8.046875 47.300781 A 1.0001 1.0001 0 0 0 9.7070312 47.707031 L 15.5 41.914062 L 21.292969 47.707031 A 1.0001 1.0001 0 0 0 22.707031 47.707031 L 47.707031 22.707031 A 1.0001 1.0001 0 0 0 47.966797 21.746094 L 47.951172 21.689453 L 42.966797 2.7460938 A 1.0001 1.0001 0 0 0 42.013672 2 A 1.0001 1.0001 0 0 0 41.292969 2.2929688 L 35 8.5859375 L 28.707031 2.2929688 L 28.705078 2.2949219 A 1.0001 1.0001 0 0 0 27.964844 2 z M 27.542969 4.8710938 L 32.863281 21.722656 L 9.4570312 45.128906 L 4.1367188 28.277344 L 27.542969 4.8710938 z M 41.476562 4.9375 L 45.091797 18.677734 L 36.414062 10 L 41.476562 4.9375 z M 30.183594 6.5976562 L 45.585938 22 L 22 45.585938 L 16.914062 40.5 L 34.707031 22.707031 A 1.0001 1.0001 0 0 0 34.953125 21.699219 L 30.183594 6.5976562 z" font-weight="400" font-family="sans-serif" white-space="normal" overflow="visible" fill="#000000"/></svg>
