<?xml version="1.0" encoding="UTF-8"?>
<svg xmlns="http://www.w3.org/2000/svg" xmlns:xlink="http://www.w3.org/1999/xlink" viewBox="0 0 50 50" version="1.1" fill="#000000"><g id="surface1" fill="#000000"><path style=" " d="M 15.5 11 C 12.449219 11 9.808594 12.042969 7.9375 13.90625 C 6.066406 15.769531 5 18.445313 5 21.53125 L 5 22.1875 C 2.140625 22.867188 0 25.4375 0 28.5 C 0 31.546875 2.15625 33.992188 5 34.6875 L 5 40.3125 C 5 43.042969 6.648438 45.402344 9 46.4375 L 9 49 C 9 49.550781 9.449219 50 10 50 L 16 50 C 16.550781 50 17 49.550781 17 49 L 17 47 L 33 47 L 33 49 C 33 49.550781 33.449219 50 34 50 L 40 50 C 40.550781 50 41 49.550781 41 49 L 41 46.4375 C 43.351563 45.402344 45 43.042969 45 40.3125 L 45 34.6875 C 47.84375 33.996094 50 31.546875 50 28.5 C 50 25.4375 47.859375 22.867188 45 22.1875 L 45 21.53125 C 45 18.445313 43.933594 15.769531 42.0625 13.90625 C 40.191406 12.042969 37.550781 11 34.5 11 Z M 15.5 13 L 34.5 13 C 37.101563 13 39.1875 13.847656 40.65625 15.3125 C 42.125 16.777344 43 18.894531 43 21.53125 L 43 22.03125 C 39.65625 22.292969 37 25.09375 37 28.5 C 37 29.617188 36.746094 31.101563 36.125 32.1875 C 35.503906 33.273438 34.667969 34 33 34 L 17 34 C 15.332031 34 14.496094 33.273438 13.875 32.1875 C 13.253906 31.101563 13 29.617188 13 28.5 C 13 25.09375 10.34375 22.292969 7 22.03125 L 7 21.53125 C 7 18.894531 7.875 16.777344 9.34375 15.3125 C 10.8125 13.847656 12.898438 13 15.5 13 Z M 6.5 24 C 8.996094 24 11 26.003906 11 28.5 C 11 29.882813 11.246094 31.648438 12.125 33.1875 C 13.003906 34.726563 14.667969 36 17 36 L 33 36 C 35.332031 36 36.996094 34.726563 37.875 33.1875 C 38.753906 31.648438 39 29.882813 39 28.5 C 39 26.003906 41.003906 24 43.5 24 C 43.609375 24 43.707031 24.023438 43.8125 24.03125 C 46.160156 24.195313 48 26.109375 48 28.5 C 48 30.867188 46.1875 32.773438 43.875 32.96875 L 42.84375 33.0625 L 42.96875 34.09375 C 42.988281 34.269531 43 34.421875 43 34.59375 L 43 40.3125 C 43 42.457031 41.578125 44.214844 39.625 44.78125 C 39.582031 44.800781 39.539063 44.820313 39.5 44.84375 C 39.117188 44.941406 38.726563 45 38.3125 45 L 11.6875 45 C 11.273438 45 10.882813 44.941406 10.5 44.84375 C 10.488281 44.832031 10.480469 44.824219 10.46875 44.8125 C 10.445313 44.808594 10.429688 44.789063 10.40625 44.78125 C 10.324219 44.75 10.242188 44.730469 10.15625 44.71875 C 8.316406 44.089844 7 42.378906 7 40.3125 L 7 34.59375 C 7 34.421875 7.011719 34.265625 7.03125 34.09375 L 7.15625 33.0625 L 6.125 32.96875 C 3.8125 32.773438 2 30.867188 2 28.5 C 2 26.003906 4.003906 24 6.5 24 Z M 11 46.96875 C 11.222656 46.992188 11.457031 47 11.6875 47 L 15 47 L 15 48 L 11 48 Z M 39 46.96875 L 39 48 L 35 48 L 35 47 L 38.3125 47 C 38.542969 47 38.777344 46.992188 39 46.96875 Z " fill="#000000"/></g></svg>
