<?xml version="1.0" encoding="UTF-8"?>
<svg xmlns="http://www.w3.org/2000/svg" xmlns:xlink="http://www.w3.org/1999/xlink" viewBox="0 0 50 50" version="1.1" fill="#000000"><g id="surface1" fill="#000000"><path style=" " d="M 32.011719 4.0625 C 26.875 4.0625 19.808594 7.609375 13.675781 13.738281 C 6.273438 21.144531 2.644531 29.914063 4.472656 34.996094 C 4.472656 34.992188 4.46875 34.992188 4.46875 34.992188 C 4.46875 34.992188 5.265625 38.289063 8.742188 41.765625 C 10.566406 43.589844 14.292969 46 19.386719 46 C 24.1875 46 30.207031 43.859375 37 37.0625 C 51.125 22.9375 45.230469 12.320313 41.707031 8.796875 C 38.015625 5.105469 34.730469 4.460938 34.703125 4.460938 C 33.886719 4.199219 32.984375 4.0625 32.011719 4.0625 Z M 32.011719 6.0625 C 33.640625 6.0625 34.894531 6.492188 35.734375 7.328125 C 36.878906 8.476563 37.238281 10.511719 36.789063 13.046875 C 36.496094 13.019531 36.199219 13 35.890625 13 C 31.148438 13 24.957031 16.003906 20.484375 20.476563 C 15.398438 25.5625 12.582031 32.226563 13.058594 36.859375 C 12.335938 36.992188 11.644531 37.0625 10.988281 37.0625 C 9.355469 37.0625 8.105469 36.640625 7.265625 35.800781 C 4.234375 32.769531 6.703125 23.542969 15.089844 15.15625 C 20.613281 9.632813 27.253906 6.0625 32.011719 6.0625 Z M 37.640625 6.484375 C 37.671875 6.527344 37.699219 6.566406 37.730469 6.609375 C 37.699219 6.566406 37.671875 6.527344 37.640625 6.484375 Z M 28.335938 8.023438 C 28.292969 8.023438 28.25 8.027344 28.207031 8.03125 C 27.453125 8.152344 26.8125 8.617188 26.441406 9.25 C 26.210938 9.539063 26.058594 9.839844 25.882813 10.222656 C 25.675781 10.675781 25.46875 11.199219 25.28125 11.703125 C 24.90625 12.703125 24.605469 13.625 24.605469 13.625 C 24.597656 13.652344 24.589844 13.679688 24.582031 13.703125 C 24.488281 14.160156 24.09375 14.5 23.605469 14.5 C 23.042969 14.5 22.605469 14.0625 22.605469 13.5 C 22.605469 13.398438 22.625 13.300781 22.65625 13.203125 C 22.660156 13.1875 22.664063 13.167969 22.667969 13.148438 C 22.789063 12.832031 23.0625 12.59375 23.402344 12.523438 C 23.804688 12.441406 24.070313 12.042969 23.988281 11.636719 C 23.902344 11.234375 23.507813 10.96875 23.101563 11.050781 C 22.222656 11.234375 21.515625 11.882813 21.234375 12.71875 C 20.75 13.460938 20.441406 14.535156 20.140625 15.574219 C 19.824219 16.675781 19.59375 17.644531 19.59375 17.644531 C 19.59375 17.65625 19.589844 17.667969 19.589844 17.683594 C 19.503906 18.148438 19.101563 18.5 18.605469 18.5 C 18.042969 18.5 17.605469 18.0625 17.605469 17.5 C 17.605469 17.011719 17.949219 16.617188 18.402344 16.523438 C 18.804688 16.441406 19.070313 16.042969 18.984375 15.640625 C 18.902344 15.234375 18.507813 14.96875 18.101563 15.050781 C 17.371094 15.203125 16.765625 15.671875 16.417969 16.304688 C 16.414063 16.304688 16.414063 16.304688 16.414063 16.308594 C 16.40625 16.320313 16.394531 16.335938 16.386719 16.347656 C 14.949219 18.738281 15.085938 21.59375 14.921875 22.75 C 14.859375 23.214844 14.445313 23.585938 13.9375 23.585938 C 13.378906 23.585938 12.9375 23.144531 12.9375 22.585938 C 12.9375 22.21875 13.128906 21.902344 13.421875 21.730469 C 13.65625 21.59375 13.800781 21.339844 13.796875 21.066406 C 13.792969 20.792969 13.640625 20.546875 13.402344 20.417969 C 13.160156 20.289063 12.871094 20.300781 12.640625 20.449219 C 12.074219 20.792969 11.664063 21.367188 11.511719 22.03125 C 11.488281 22.089844 11.472656 22.148438 11.46875 22.207031 C 11.046875 25.261719 11.644531 27.722656 11.503906 28.710938 C 11.441406 29.175781 11.027344 29.546875 10.519531 29.546875 C 9.960938 29.546875 9.519531 29.105469 9.519531 28.546875 C 9.519531 28.261719 9.632813 28.011719 9.820313 27.832031 C 10.113281 27.542969 10.121094 27.066406 9.828125 26.769531 C 9.539063 26.472656 9.0625 26.46875 8.765625 26.761719 C 8.304688 27.210938 8.019531 27.851563 8.019531 28.546875 C 8.019531 29.917969 9.148438 31.046875 10.519531 31.046875 C 11.757813 31.046875 12.820313 30.132813 12.992188 28.921875 C 13.152344 27.777344 12.914063 26.425781 12.855469 24.828125 C 13.183594 24.988281 13.546875 25.085938 13.9375 25.085938 C 15.175781 25.085938 16.238281 24.175781 16.40625 22.960938 C 16.542969 21.988281 16.5625 20.628906 16.859375 19.28125 C 17.3125 19.722656 17.925781 20 18.605469 20 C 19.824219 20 20.851563 19.117188 21.0625 17.953125 L 21.058594 17.988281 C 21.058594 17.988281 21.277344 17.046875 21.582031 15.988281 C 21.652344 15.742188 21.742188 15.503906 21.828125 15.25 C 22.28125 15.714844 22.910156 16 23.605469 16 C 24.800781 16 25.816406 15.148438 26.050781 14.011719 L 26.03125 14.089844 C 26.03125 14.089844 26.324219 13.195313 26.6875 12.230469 C 26.699219 12.195313 26.714844 12.164063 26.726563 12.128906 C 27.1875 12.65625 27.855469 13 28.605469 13 C 29.839844 13 30.878906 12.09375 31.074219 10.90625 C 31.136719 10.496094 30.859375 10.109375 30.449219 10.042969 C 30.042969 9.976563 29.65625 10.253906 29.589844 10.664063 C 29.511719 11.136719 29.109375 11.5 28.605469 11.5 C 28.042969 11.5 27.605469 11.0625 27.605469 10.5 C 27.605469 9.996094 27.96875 9.589844 28.445313 9.515625 C 28.839844 9.464844 29.128906 9.113281 29.101563 8.714844 C 29.070313 8.320313 28.734375 8.011719 28.335938 8.023438 Z M 38.742188 8.835938 C 39.242188 9.234375 39.757813 9.675781 40.292969 10.210938 C 42.023438 11.941406 49.933594 21.304688 35.585938 35.652344 C 30.046875 41.191406 24.597656 44 19.386719 44 C 14.210938 44 11.011719 41.207031 10.15625 40.347656 C 9.632813 39.828125 9.1875 39.3125 8.792969 38.8125 C 9.472656 38.980469 10.207031 39.0625 10.988281 39.0625 C 16.121094 39.0625 23.191406 35.519531 29.324219 29.390625 C 36.398438 22.316406 40.023438 13.996094 38.742188 8.835938 Z M 35.890625 15 C 36.03125 15 36.160156 15.015625 36.292969 15.023438 C 35.105469 18.886719 32.34375 23.542969 27.910156 27.972656 C 23.824219 32.058594 19.128906 35.070313 15.035156 36.363281 C 14.789063 32.550781 17.191406 26.597656 21.898438 21.890625 C 26.394531 17.394531 32.070313 15 35.890625 15 Z M 37.363281 22 C 37.171875 22 36.980469 22.074219 36.839844 22.207031 C 36.558594 22.464844 36.347656 22.792969 36.207031 23.15625 C 36.175781 23.210938 36.152344 23.269531 36.136719 23.328125 C 36.128906 23.359375 36.128906 23.390625 36.121094 23.417969 C 36.09375 23.527344 36.078125 23.640625 36.0625 23.757813 C 35.890625 24.753906 35.996094 25.894531 36.109375 26.980469 C 36.171875 27.601563 36.238281 28.195313 36.277344 28.679688 C 36.3125 29.164063 36.292969 29.566406 36.269531 29.65625 C 36.203125 29.929688 36.085938 30.144531 35.921875 30.289063 C 35.761719 30.433594 35.542969 30.542969 35.105469 30.542969 C 34.859375 30.542969 34.761719 30.484375 34.660156 30.378906 C 34.558594 30.273438 34.460938 30.089844 34.417969 29.847656 C 34.328125 29.367188 34.511719 28.71875 34.703125 28.5 C 34.722656 28.480469 34.742188 28.457031 34.761719 28.4375 C 35.023438 28.117188 34.980469 27.644531 34.660156 27.378906 C 34.339844 27.113281 33.867188 27.160156 33.605469 27.480469 C 32.199219 28.617188 31.859375 30.488281 32.269531 32.234375 C 32.457031 33.042969 32.457031 33.519531 32.308594 34.023438 C 32.296875 34.039063 32.285156 34.058594 32.273438 34.074219 C 32.070313 34.410156 31.886719 34.539063 31.5 34.539063 C 30.941406 34.539063 30.5 34.097656 30.5 33.539063 C 30.5 33.242188 30.625 32.988281 30.824219 32.800781 C 31.054688 32.597656 31.136719 32.269531 31.027344 31.980469 C 30.917969 31.6875 30.644531 31.496094 30.332031 31.492188 C 30.140625 31.488281 29.949219 31.5625 29.808594 31.699219 C 29.53125 31.953125 29.316406 32.28125 29.175781 32.640625 C 29.164063 32.667969 29.152344 32.691406 29.144531 32.71875 C 28.746094 33.734375 28.585938 35.3125 28.480469 36.773438 C 28.449219 37.167969 28.007813 37.539063 27.5 37.539063 C 26.941406 37.539063 26.5 37.097656 26.5 36.539063 C 26.5 36.242188 26.625 35.988281 26.824219 35.800781 C 27.128906 35.523438 27.148438 35.046875 26.871094 34.742188 C 26.589844 34.4375 26.113281 34.417969 25.808594 34.699219 C 25.699219 34.796875 25.601563 34.914063 25.511719 35.03125 C 25.46875 35.066406 25.429688 35.101563 25.394531 35.140625 C 24.730469 35.882813 23.941406 37.179688 23.488281 39.699219 C 23.402344 40.179688 23 40.539063 22.5 40.539063 C 22.101563 40.539063 21.769531 40.308594 21.609375 39.980469 C 21.597656 39.960938 21.589844 39.941406 21.578125 39.921875 C 21.527344 39.804688 21.5 39.675781 21.5 39.539063 C 21.5 39.242188 21.625 38.988281 21.824219 38.800781 C 22.128906 38.523438 22.148438 38.046875 21.871094 37.742188 C 21.589844 37.4375 21.113281 37.417969 20.808594 37.699219 C 20.3125 38.152344 20 38.8125 20 39.539063 C 20 39.878906 20.070313 40.199219 20.191406 40.496094 C 20.191406 41.066406 20.023438 41.28125 19.878906 41.410156 C 19.726563 41.546875 19.625 41.5625 19.625 41.5625 C 19.363281 41.609375 19.140625 41.796875 19.050781 42.050781 C 18.960938 42.304688 19.015625 42.585938 19.191406 42.789063 C 19.367188 42.996094 19.636719 43.089844 19.902344 43.035156 C 19.902344 43.035156 20.429688 42.933594 20.886719 42.527344 C 21.085938 42.34375 21.265625 42.085938 21.410156 41.777344 C 21.742188 41.941406 22.109375 42.039063 22.5 42.039063 C 23.730469 42.039063 24.753906 41.132813 24.964844 39.964844 C 25.113281 39.132813 25.296875 38.527344 25.484375 38 C 25.941406 38.625 26.675781 39.039063 27.5 39.039063 C 28.726563 39.039063 29.878906 38.167969 29.972656 36.886719 C 30.007813 36.464844 30.066406 36.042969 30.117188 35.613281 C 30.421875 35.820313 30.773438 35.949219 31.144531 36.003906 C 30.964844 36.332031 31.054688 36.746094 31.355469 36.96875 C 31.65625 37.191406 32.078125 37.160156 32.339844 36.890625 C 32.597656 36.636719 32.957031 36.230469 33.25 35.65625 C 33.847656 34.488281 34.082031 33.394531 33.730469 31.890625 C 33.699219 31.753906 33.675781 31.617188 33.65625 31.484375 C 34.019531 31.820313 34.535156 32.042969 35.105469 32.042969 C 35.835938 32.042969 36.472656 31.808594 36.917969 31.414063 C 37.363281 31.019531 37.609375 30.507813 37.730469 30.011719 C 37.839844 29.554688 37.808594 29.109375 37.769531 28.574219 C 37.734375 28.035156 37.664063 27.433594 37.601563 26.828125 C 37.585938 26.664063 37.585938 26.515625 37.570313 26.355469 C 37.867188 26.480469 38.191406 26.546875 38.53125 26.546875 C 39.140625 26.546875 39.734375 26.34375 40.207031 25.941406 C 40.679688 25.542969 41.015625 24.917969 41.015625 24.203125 C 41.015625 23.820313 40.921875 23.445313 40.773438 23.078125 C 40.617188 22.695313 40.179688 22.507813 39.796875 22.664063 C 39.410156 22.820313 39.226563 23.257813 39.382813 23.640625 C 39.492188 23.910156 39.515625 24.023438 39.515625 24.203125 C 39.515625 24.476563 39.417969 24.648438 39.238281 24.796875 C 39.058594 24.949219 38.789063 25.046875 38.53125 25.046875 C 37.972656 25.046875 37.539063 24.613281 37.53125 24.058594 C 37.535156 24.039063 37.539063 24.019531 37.542969 24 C 37.554688 23.726563 37.667969 23.484375 37.855469 23.3125 C 38.085938 23.105469 38.167969 22.78125 38.058594 22.488281 C 37.949219 22.199219 37.675781 22.003906 37.363281 22 Z M 5.390625 36.6875 C 5.40625 36.707031 5.421875 36.722656 5.4375 36.742188 C 5.421875 36.722656 5.40625 36.707031 5.390625 36.6875 Z M 5.851563 37.214844 C 5.871094 37.234375 5.894531 37.253906 5.917969 37.273438 C 5.898438 37.253906 5.871094 37.234375 5.851563 37.214844 Z M 6.421875 37.703125 C 6.484375 37.753906 6.554688 37.796875 6.621094 37.84375 C 6.554688 37.796875 6.488281 37.753906 6.421875 37.703125 Z M 7.101563 38.148438 C 7.152344 38.175781 7.203125 38.207031 7.257813 38.234375 C 7.203125 38.207031 7.152344 38.175781 7.101563 38.148438 Z " fill="#000000"/></g></svg>
