<?xml version="1.0" encoding="UTF-8"?>
<svg xmlns="http://www.w3.org/2000/svg" xmlns:xlink="http://www.w3.org/1999/xlink" viewBox="0 0 50 50" version="1.1" fill="#000000"><g id="surface1" fill="#000000"><path style=" " d="M 22.21875 2 C 11.0625 2 2 11.0625 2 22.21875 C 2 28.511719 3.5625 33.96875 3.5625 33.96875 C 3.636719 34.21875 3.804688 34.433594 4.03125 34.5625 C 6.253906 35.847656 12.707031 39.066406 19.5 42.0625 C 22.894531 43.5625 26.363281 45.011719 29.40625 46.09375 C 32.449219 47.175781 35.019531 47.917969 36.875 48 C 37.074219 48.003906 37.269531 47.949219 37.4375 47.84375 C 42.660156 44.566406 45.089844 40.027344 45.65625 38.875 C 45.660156 38.871094 45.683594 38.878906 45.6875 38.875 C 46.152344 38.582031 46.292969 37.964844 46 37.5 C 45.996094 36.152344 45.90625 24.558594 43.03125 16.875 C 43.101563 16.511719 42.972656 16.140625 42.6875 15.90625 C 41.804688 13.308594 39.632813 10.167969 36.40625 7.4375 C 32.832031 4.414063 27.964844 2 22.21875 2 Z M 22.21875 4 C 27.402344 4 31.832031 6.183594 35.125 8.96875 C 37.785156 11.21875 39.671875 13.914063 40.5625 15.9375 C 38.429688 16.300781 33.015625 17 23 17 C 22.160156 16.367188 21.125 16 20 16 C 17.25 16 15 18.25 15 21 C 15 23.390625 16.714844 25.390625 18.96875 25.875 C 18.980469 25.878906 18.988281 25.902344 19 25.90625 C 19.171875 26.0625 29.894531 35.75 43.5 38.6875 C 42.609375 40.234375 40.464844 43.441406 36.65625 45.9375 C 35.257813 45.828125 32.929688 45.226563 30.09375 44.21875 C 27.125 43.164063 23.679688 41.734375 20.3125 40.25 C 13.746094 37.351563 7.589844 34.238281 5.40625 33 C 5.246094 32.417969 4 27.8125 4 22.21875 C 4 12.144531 12.144531 4 22.21875 4 Z M 41.25 17.875 C 43.605469 24.4375 43.917969 34.316406 43.96875 36.78125 C 33.761719 34.578125 25.117188 28.28125 21.8125 25.625 C 23.667969 24.890625 25 23.105469 25 21 C 25 20.277344 24.839844 19.589844 24.5625 18.96875 C 34.328125 18.890625 39.460938 18.199219 41.25 17.875 Z M 20 18 C 21.667969 18 23 19.332031 23 21 C 23 22.667969 21.667969 24 20 24 C 18.332031 24 17 22.667969 17 21 C 17 19.332031 18.332031 18 20 18 Z M 20 19.5 C 19.171875 19.5 18.5 20.171875 18.5 21 C 18.5 21.828125 19.171875 22.5 20 22.5 C 20.828125 22.5 21.5 21.828125 21.5 21 C 21.5 20.171875 20.828125 19.5 20 19.5 Z " fill="#000000"/></g></svg>
