<?xml version="1.0" encoding="utf-8"?>
<svg xmlns="http://www.w3.org/2000/svg" viewBox="0 0 50 50" fill="#000000"><path d="M 25 2.0058594 C 12.312808 2.0058594 2.0058594 12.312808 2.0058594 25 C 2.0058594 37.687192 12.312808 47.994141 25 47.994141 C 37.687192 47.994141 47.994141 37.687192 47.994141 25 C 47.994141 12.312808 37.687192 2.0058594 25 2.0058594 z M 25 3.9941406 C 36.613337 3.9941406 46.005859 13.386663 46.005859 25 C 46.005859 36.613337 36.613337 46.005859 25 46.005859 C 13.386663 46.005859 3.9941406 36.613337 3.9941406 25 C 3.9941406 13.386663 13.386663 3.9941406 25 3.9941406 z M 37.494141 10.763672 L 32.289062 16.726562 C 32.674062 16.990563 33.006531 17.324938 33.269531 17.710938 L 39.234375 12.505859 C 38.768375 11.821859 38.176141 11.230672 37.494141 10.763672 z M 25 16.005859 C 20.044795 16.005859 16.005859 20.044795 16.005859 25 C 16.005859 29.955205 20.044795 33.994141 25 33.994141 C 29.955205 33.994141 33.994141 29.955205 33.994141 25 C 33.994141 20.044795 29.955205 16.005859 25 16.005859 z M 25 17.994141 C 28.881351 17.994141 32.005859 21.118649 32.005859 25 C 32.005859 28.881351 28.881351 32.005859 25 32.005859 C 21.118649 32.005859 17.994141 28.881351 17.994141 25 C 17.994141 21.118649 21.118649 17.994141 25 17.994141 z M 25 23 A 2 2 0 0 0 23 25 A 2 2 0 0 0 25 27 A 2 2 0 0 0 27 25 A 2 2 0 0 0 25 23 z M 16.746094 32.238281 L 10.716797 37.511719 C 11.182797 38.195719 11.773078 38.786906 12.455078 39.253906 L 17.728516 33.222656 C 17.343516 32.958656 17.009094 32.624281 16.746094 32.238281 z" fill="#000000"/></svg>
