<?xml version="1.0" encoding="UTF-8"?>
<svg xmlns="http://www.w3.org/2000/svg" xmlns:xlink="http://www.w3.org/1999/xlink" viewBox="0 0 50 50" version="1.1" fill="#000000"><g id="surface1" fill="#000000"><path style=" " d="M 36.0625 0.90625 C 35.847656 0.917969 35.648438 0.941406 35.4375 0.96875 C 33.777344 1.195313 32.152344 1.96875 31.28125 3.4375 C 31.269531 3.457031 31.261719 3.480469 31.25 3.5 C 31.246094 3.507813 31.222656 3.492188 31.21875 3.5 C 30.875 4.027344 30.496094 4.714844 30.09375 5.34375 C 29.671875 5.996094 29.179688 6.535156 29.0625 6.59375 C 28.953125 6.625 28.71875 6.59375 28.21875 6.40625 C 27.683594 6.207031 26.964844 5.867188 26.125 5.59375 C 24.449219 5.046875 22.109375 5.046875 19.84375 7.1875 L 19.8125 7.1875 C 18.78125 8.167969 18.324219 9.425781 18.21875 10.59375 C 18.113281 11.769531 18.308594 12.878906 18.5 13.84375 C 18.691406 14.808594 18.851563 15.648438 18.84375 16 C 18.019531 16 16.730469 16.027344 15.40625 16.5 C 14.058594 16.984375 12.675781 18.019531 11.96875 19.84375 C 11.582031 20.84375 11.648438 21.839844 11.96875 22.65625 C 12.289063 23.472656 12.820313 24.152344 13.3125 24.75 C 13.804688 25.347656 14.28125 25.886719 14.59375 26.375 C 14.90625 26.863281 15.027344 27.234375 15 27.625 C 15 27.636719 15 27.644531 15 27.65625 C 14.984375 28.042969 14.980469 27.941406 14.9375 27.96875 C 14.894531 27.996094 14.609375 28.058594 14.15625 28.09375 C 13.257813 28.164063 11.660156 28.238281 10.625 29.59375 L 10.625 29.625 C 8.542969 32.269531 8.667969 34.972656 9.875 36.90625 C 10.976563 38.671875 12.738281 39.859375 14.28125 40.53125 C 12.976563 41.691406 11.695313 42.695313 10.46875 43.5 C 7.738281 45.285156 5.339844 46.011719 3.75 45.625 C 3.214844 45.488281 2.667969 45.808594 2.53125 46.34375 C 2.394531 46.878906 2.714844 47.425781 3.25 47.5625 C 5.757813 48.175781 8.609375 47.121094 11.5625 45.1875 C 13.101563 44.179688 14.671875 42.894531 16.25 41.4375 C 16.292969 41.464844 16.332031 41.472656 16.375 41.5 C 19.894531 43.675781 23.007813 43.046875 25.3125 42 C 26.726563 41.351563 27.535156 40.34375 28.03125 39.4375 C 28.527344 38.53125 28.796875 37.761719 29.0625 37.4375 C 29.445313 36.984375 29.773438 36.875 30.3125 36.8125 C 30.851563 36.75 31.582031 36.816406 32.40625 36.875 C 33.230469 36.933594 34.175781 36.992188 35.15625 36.6875 C 36.136719 36.382813 37.101563 35.714844 37.90625 34.59375 C 38.695313 33.496094 39.0625 32.429688 39.09375 31.46875 C 39.125 30.507813 38.859375 29.683594 38.59375 29 C 38.328125 28.316406 38.0625 27.757813 37.96875 27.28125 C 37.878906 26.8125 37.910156 26.441406 38.1875 25.90625 C 38.15625 25.964844 38.265625 25.832031 38.75 25.71875 C 39.257813 25.601563 39.996094 25.488281 40.8125 25.25 C 42.441406 24.777344 44.40625 23.59375 45.25 20.8125 C 45.253906 20.800781 45.246094 20.792969 45.25 20.78125 C 45.894531 18.746094 45.144531 16.964844 44.1875 15.71875 C 43.238281 14.480469 42.117188 13.519531 41.78125 13 C 41.738281 12.925781 41.5625 12.363281 41.5625 11.71875 C 41.5625 11.074219 41.675781 10.316406 42 9.625 C 42.011719 9.613281 42.019531 9.605469 42.03125 9.59375 C 42.558594 8.359375 42.75 6.914063 42.53125 5.53125 C 42.3125 4.148438 41.625 2.800781 40.34375 1.96875 C 39.109375 1.164063 37.558594 0.824219 36.0625 0.90625 Z M 36.6875 2.90625 C 37.648438 2.929688 38.582031 3.191406 39.25 3.625 C 39.96875 4.089844 40.40625 4.875 40.5625 5.84375 C 40.714844 6.800781 40.550781 7.917969 40.1875 8.78125 C 40.183594 8.789063 40.191406 8.804688 40.1875 8.8125 C 39.722656 9.8125 39.5625 10.824219 39.5625 11.71875 C 39.5625 12.621094 39.671875 13.375 40.03125 14 C 40.042969 14.011719 40.050781 14.019531 40.0625 14.03125 C 40.742188 15.117188 41.828125 15.941406 42.59375 16.9375 C 43.359375 17.933594 43.78125 18.835938 43.34375 20.1875 C 43.34375 20.199219 43.34375 20.207031 43.34375 20.21875 C 42.683594 22.417969 41.542969 22.96875 40.25 23.34375 C 39.605469 23.53125 38.925781 23.628906 38.28125 23.78125 C 37.636719 23.933594 36.886719 24.125 36.4375 24.90625 C 36.425781 24.917969 36.417969 24.925781 36.40625 24.9375 C 35.902344 25.882813 35.84375 26.847656 36 27.65625 C 36.15625 28.464844 36.484375 29.117188 36.71875 29.71875 C 36.953125 30.320313 37.113281 30.859375 37.09375 31.40625 C 37.074219 31.953125 36.890625 32.554688 36.28125 33.40625 C 35.6875 34.234375 35.152344 34.570313 34.5625 34.75 C 33.972656 34.929688 33.285156 34.929688 32.53125 34.875 C 31.777344 34.820313 30.972656 34.714844 30.09375 34.8125 C 29.214844 34.910156 28.25 35.308594 27.53125 36.15625 C 26.894531 36.933594 26.660156 37.773438 26.28125 38.46875 C 25.90625 39.15625 25.464844 39.738281 24.5 40.1875 C 24.492188 40.191406 24.476563 40.183594 24.46875 40.1875 C 22.511719 41.074219 20.558594 41.566406 17.78125 39.96875 C 18.722656 39.027344 19.667969 38.054688 20.59375 37 C 26.554688 30.226563 31.988281 21.40625 34.15625 13.875 C 34.253906 13.546875 34.179688 13.195313 33.960938 12.933594 C 33.738281 12.675781 33.398438 12.546875 33.0625 12.59375 C 32.675781 12.652344 32.355469 12.933594 32.25 13.3125 C 30.214844 20.378906 24.882813 29.078125 19.09375 35.65625 C 18.019531 36.878906 16.929688 38.007813 15.84375 39.0625 L 15.53125 38.90625 C 15.511719 38.894531 15.488281 38.882813 15.46875 38.875 C 14.203125 38.394531 12.460938 37.230469 11.59375 35.84375 C 10.726563 34.457031 10.488281 32.960938 12.1875 30.8125 C 12.65625 30.191406 13.316406 30.171875 14.3125 30.09375 C 14.808594 30.054688 15.375 30.042969 15.96875 29.6875 C 16.554688 29.335938 16.957031 28.582031 17 27.78125 C 17 27.769531 17 27.761719 17 27.75 C 17.0625 26.804688 16.714844 25.960938 16.28125 25.28125 C 15.84375 24.59375 15.300781 24.023438 14.84375 23.46875 C 14.386719 22.914063 14.023438 22.394531 13.84375 21.9375 C 13.664063 21.480469 13.628906 21.113281 13.84375 20.5625 C 14.335938 19.289063 15.140625 18.71875 16.09375 18.375 C 17.046875 18.03125 18.128906 18 18.90625 18 C 19.433594 18 20 17.828125 20.375 17.40625 C 20.75 16.984375 20.832031 16.488281 20.84375 16.0625 C 20.867188 15.207031 20.652344 14.378906 20.46875 13.46875 C 20.285156 12.558594 20.144531 11.582031 20.21875 10.75 C 20.292969 9.917969 20.53125 9.242188 21.1875 8.625 C 23.015625 6.886719 24.214844 7.070313 25.53125 7.5 C 26.191406 7.714844 26.84375 8.023438 27.53125 8.28125 C 28.21875 8.539063 29.019531 8.765625 29.875 8.40625 C 29.894531 8.40625 29.917969 8.40625 29.9375 8.40625 C 30.820313 7.964844 31.300781 7.183594 31.78125 6.4375 C 32.261719 5.691406 32.695313 4.925781 32.9375 4.5625 C 32.949219 4.542969 32.960938 4.519531 32.96875 4.5 C 33.410156 3.71875 34.460938 3.140625 35.71875 2.96875 C 36.035156 2.925781 36.367188 2.898438 36.6875 2.90625 Z " fill="#000000"/></g></svg>
