<?xml version="1.0" encoding="UTF-8"?>
<svg xmlns="http://www.w3.org/2000/svg" xmlns:xlink="http://www.w3.org/1999/xlink" viewBox="0 0 50 50" version="1.1" fill="#000000"><g id="surface1" fill="#000000"><path style=" " d="M 27.5625 0.03125 C 26.742188 0.0507813 25.910156 0.105469 25.09375 0.21875 C 22.921875 0.515625 20.796875 1.152344 18.78125 2.09375 C 18.339844 2.296875 18.105469 2.785156 18.230469 3.257813 C 18.351563 3.726563 18.796875 4.042969 19.28125 4 C 19.28125 4 27.386719 3.230469 35.375 9.21875 L 0.28125 44.28125 C 0.0859375 44.46875 -0.0234375 44.730469 -0.0234375 45 C -0.0234375 45.269531 0.0859375 45.53125 0.28125 45.71875 L 4.28125 49.71875 C 4.46875 49.914063 4.730469 50.023438 5 50.023438 C 5.269531 50.023438 5.53125 49.914063 5.71875 49.71875 L 40.78125 14.625 C 46.804688 22.546875 46 30.6875 46 30.6875 C 45.9375 31.179688 46.246094 31.644531 46.722656 31.777344 C 47.203125 31.910156 47.703125 31.671875 47.90625 31.21875 C 51.148438 24.191406 50.503906 15.863281 46 9.40625 L 47.8125 7.59375 C 48.199219 7.203125 48.199219 6.578125 47.8125 6.1875 L 43.8125 2.1875 C 43.597656 1.976563 43.300781 1.871094 43 1.90625 C 42.777344 1.929688 42.566406 2.03125 42.40625 2.1875 L 40.59375 4 C 36.695313 1.257813 32.121094 -0.078125 27.5625 0.03125 Z M 27.59375 2.03125 C 32.8125 1.898438 38.09375 3.8125 42.09375 7.8125 C 46.882813 12.601563 48.617188 19.164063 47.53125 25.375 C 46.835938 21.242188 45.039063 15.542969 39.71875 10.28125 C 34.351563 4.972656 28.617188 3.164063 24.5 2.46875 C 24.796875 2.414063 25.074219 2.261719 25.375 2.21875 C 26.113281 2.117188 26.847656 2.050781 27.59375 2.03125 Z M 43.125 4.3125 L 45.6875 6.875 L 44.78125 7.8125 C 44.375 7.328125 43.957031 6.863281 43.5 6.40625 C 43.078125 5.984375 42.632813 5.597656 42.1875 5.21875 Z M 36.9375 10.46875 C 37.390625 10.863281 37.835938 11.277344 38.28125 11.71875 C 38.726563 12.160156 39.132813 12.613281 39.53125 13.0625 L 5 47.5625 L 2.4375 45 Z " fill="#000000"/></g></svg>
