<?xml version="1.0" encoding="UTF-8"?>
<svg xmlns="http://www.w3.org/2000/svg" xmlns:xlink="http://www.w3.org/1999/xlink" viewBox="0 0 50 50" version="1.1" fill="#000000"><g id="surface1" fill="#000000"><path style=" " d="M 25 2 C 21.96875 2 19.082031 2.933594 16.917969 4.671875 C 15.257813 6 14.035156 7.832031 13.550781 10 L 12.625 10 C 12.132813 10 12 10.160156 12 10.75 L 12 11 L 10 11 L 10 11.003906 C 8.796875 11.039063 7.855469 11.566406 7.445313 12.464844 L 7.445313 12.46875 L 7.382813 12.597656 C 6.234375 15.125 4 20.085938 4 29.695313 C 4 37.207031 4.707031 41.371094 5.148438 43.234375 L 5.148438 43.238281 C 5.300781 43.882813 5.621094 44.464844 6.039063 44.96875 C 6.457031 45.476563 6.949219 46 7.84375 46 L 41.933594 46 C 42.824219 46 43.316406 45.476563 43.734375 44.96875 C 44.152344 44.464844 44.472656 43.882813 44.625 43.238281 C 45.050781 41.449219 46 37.226563 46 29.695313 C 46 20.070313 43.519531 15.074219 42.386719 12.59375 L 42.386719 12.597656 L 42.328125 12.46875 C 41.945313 11.625 41.09375 11.109375 40 11.019531 L 40 11 L 38 11 L 38 10.75 C 38 10.160156 37.867188 10 37.375 10 L 36.535156 10 C 36.042969 7.828125 34.800781 5.996094 33.125 4.667969 C 30.933594 2.933594 28.03125 2 25 2 Z M 25 4 C 27.617188 4 30.097656 4.824219 31.882813 6.234375 C 33.132813 7.226563 34.039063 8.484375 34.476563 10 L 33.625 10 C 33.132813 10 33 10.160156 33 10.75 L 33 11 L 17 11 L 17 10.75 C 17 10.160156 16.867188 10 16.375 10 L 15.609375 10 C 16.042969 8.484375 16.933594 7.222656 18.167969 6.234375 C 19.925781 4.820313 22.382813 4 25 4 Z M 12 13 L 38 13 L 38 21.035156 L 30.960938 24.457031 C 30.785156 23.632813 30.039063 23 29.167969 23 L 20.832031 23 C 19.960938 23 19.214844 23.632813 19.039063 24.457031 L 12 21.035156 Z M 10 13.015625 L 10 22.285156 L 19 26.660156 L 19 33.167969 C 19 34.171875 19.832031 35 20.832031 35 L 29.167969 35 C 30.167969 35 31 34.167969 31 33.167969 L 31 26.660156 L 40 22.285156 L 40 13.046875 C 40.363281 13.144531 40.535156 13.359375 40.507813 13.296875 L 40.566406 13.425781 C 41.738281 15.996094 44 20.402344 44 29.695313 C 44 37.0625 43.09375 41.015625 42.679688 42.777344 C 42.625 43.011719 42.417969 43.421875 42.191406 43.695313 C 41.96875 43.96875 41.703125 44 41.933594 44 L 7.84375 44 C 8.070313 44 7.804688 43.96875 7.578125 43.695313 C 7.355469 43.421875 7.148438 43.011719 7.09375 42.78125 L 7.09375 42.777344 C 6.695313 41.09375 6 37.078125 6 29.695313 C 6 20.386719 8.054688 15.953125 9.203125 13.425781 L 9.265625 13.296875 C 9.230469 13.371094 9.480469 13.0625 10 13.015625 Z M 21 25 L 29 25 L 29 33 L 21 33 Z " fill="#000000"/></g></svg>
