<?xml version="1.0" encoding="UTF-8"?>
<svg xmlns="http://www.w3.org/2000/svg" xmlns:xlink="http://www.w3.org/1999/xlink" viewBox="0 0 50 50" version="1.1" fill="#000000"><g id="surface1" fill="#000000"><path style=" " d="M 46.4375 0 C 46.289063 0.03125 46.152344 0.09375 46.03125 0.1875 L 19.34375 19.21875 L 18 17.375 L 18.46875 17.03125 C 18.523438 16.996094 18.578125 16.953125 18.625 16.90625 L 21.15625 15.9375 C 21.222656 15.914063 21.285156 15.882813 21.34375 15.84375 L 21.96875 15.4375 C 22.199219 15.285156 22.359375 15.046875 22.40625 14.773438 C 22.453125 14.5 22.386719 14.222656 22.21875 14 L 19.8125 10.71875 C 19.59375 10.410156 19.21875 10.253906 18.84375 10.3125 C 18.699219 10.335938 18.558594 10.386719 18.4375 10.46875 L 17.84375 10.875 C 17.652344 11 17.507813 11.1875 17.4375 11.40625 L 15.75 13.3125 L 8.625 18.375 L 6.1875 19.3125 C 5.992188 19.332031 5.808594 19.40625 5.65625 19.53125 L 5.0625 20.03125 C 4.667969 20.371094 4.601563 20.953125 4.90625 21.375 L 7.28125 24.6875 C 7.441406 24.917969 7.695313 25.070313 7.972656 25.105469 C 8.253906 25.140625 8.535156 25.058594 8.75 24.875 L 9.34375 24.375 C 9.390625 24.335938 9.429688 24.296875 9.46875 24.25 L 11.40625 22.03125 L 11.65625 21.875 L 13 23.75 L 12.53125 24.09375 L 12.5 24.09375 L 12.5 24.125 C 11.789063 24.640625 11.410156 25.367188 11.25 26.03125 C 11.089844 26.710938 11.09375 27.363281 11.09375 27.8125 C 11.09375 28.703125 11.035156 30.578125 9.875 31.625 C 9.863281 31.636719 9.855469 31.648438 9.84375 31.65625 C 9.285156 32.121094 7.285156 33.679688 5.375 35.15625 C 3.449219 36.644531 1.667969 37.996094 1.25 38.34375 C 0.78125 38.761719 0.347656 39.082031 0.125 39.71875 C -0.09375 40.347656 0.144531 41.027344 0.4375 41.5625 C 0.445313 41.570313 0.4375 41.589844 0.4375 41.59375 C 0.570313 41.859375 0.8125 42.316406 1.21875 43.03125 C 1.636719 43.765625 2.167969 44.660156 2.6875 45.5625 C 3.726563 47.363281 4.75 49.09375 4.75 49.09375 C 4.804688 49.199219 4.878906 49.296875 4.96875 49.375 C 4.96875 49.375 5.179688 49.554688 5.46875 49.71875 C 5.746094 49.875 6.140625 50.097656 6.78125 49.96875 C 6.8125 49.960938 6.8125 49.976563 6.84375 49.96875 C 6.851563 49.96875 6.835938 49.9375 6.84375 49.9375 C 7.152344 49.859375 7.289063 49.789063 7.4375 49.6875 C 7.605469 49.574219 7.777344 49.433594 7.96875 49.28125 C 8.347656 48.976563 8.78125 48.574219 9.25 48.15625 C 10.1875 47.320313 11.230469 46.394531 11.84375 45.875 C 11.855469 45.855469 11.867188 45.832031 11.875 45.8125 C 14.1875 43.613281 14.207031 40.515625 14.28125 39.78125 C 14.28125 39.773438 14.28125 39.726563 14.28125 39.71875 C 14.566406 38.226563 14.847656 37.5 15.34375 37.15625 C 15.4375 37.097656 15.351563 37.109375 15.4375 37.15625 C 15.523438 37.203125 15.644531 37.375 15.65625 37.40625 C 15.65625 37.425781 15.65625 37.449219 15.65625 37.46875 C 15.863281 37.988281 16.035156 38.296875 16.34375 38.8125 C 16.527344 39.121094 16.710938 39.46875 17.1875 39.6875 C 17.664063 39.90625 18.242188 39.753906 18.5625 39.59375 C 18.972656 39.390625 19.238281 39.144531 19.53125 38.90625 C 19.824219 38.667969 20.0625 38.4375 20.0625 38.4375 C 20.074219 38.425781 20.082031 38.417969 20.09375 38.40625 C 20.09375 38.40625 20.925781 37.433594 20.5 36.3125 L 20.5625 36.28125 C 20.558594 36.269531 20.507813 36.175781 20.5 36.15625 C 20.492188 36.136719 20.476563 36.054688 20.46875 36.03125 C 21.847656 34.742188 22.277344 33.210938 22.25 32.03125 C 22.238281 31.449219 22.117188 30.957031 22 30.5625 C 25.191406 28.191406 32.601563 22.664063 32.65625 22.625 C 32.65625 22.625 32.6875 22.59375 32.6875 22.59375 C 33.695313 21.886719 34.367188 20.84375 34.8125 19.8125 C 35.261719 18.769531 35.5 17.761719 35.5 16.90625 C 35.5 15.992188 35.464844 15.136719 35.4375 14.5625 L 49.28125 4.71875 C 49.5 4.5625 49.644531 4.324219 49.683594 4.0625 C 49.726563 3.796875 49.660156 3.527344 49.5 3.3125 L 47.40625 0.40625 C 47.1875 0.0976563 46.8125 -0.0585938 46.4375 0 Z M 46.375 2.40625 L 47.28125 3.6875 L 34.125 13.03125 C 34.011719 13.066406 33.90625 13.117188 33.8125 13.1875 L 23.90625 20.34375 C 23.566406 20.113281 23.363281 19.886719 22.59375 19.59375 C 22.519531 19.566406 22.421875 19.558594 22.34375 19.53125 Z M 18.875 12.8125 L 19.90625 14.25 L 18.21875 14.90625 L 17.6875 14.15625 Z M 16.1875 15.46875 L 16.53125 15.9375 L 16.1875 16.15625 C 16.054688 16.214844 15.9375 16.300781 15.84375 16.40625 L 15.8125 16.4375 C 15.800781 16.449219 15.792969 16.457031 15.78125 16.46875 L 10.90625 19.90625 L 10.59375 19.4375 Z M 33.46875 15.90625 C 33.484375 16.34375 33.5 16.46875 33.5 16.90625 C 33.5 17.351563 33.316406 18.222656 32.96875 19.03125 C 32.621094 19.839844 32.105469 20.574219 31.53125 20.96875 C 31.519531 20.980469 31.511719 20.988281 31.5 21 C 31.5 21 23.414063 27.050781 20.5 29.21875 C 20.300781 29.277344 20.128906 29.398438 20 29.5625 C 19.976563 29.59375 19.957031 29.625 19.9375 29.65625 C 19.726563 29.8125 18.988281 30.347656 18.90625 30.40625 C 18.894531 30.417969 18.886719 30.425781 18.875 30.4375 C 18.273438 30.929688 17.804688 31.375 17.5 31.90625 C 17.207031 32.421875 17.09375 33.164063 17.40625 33.75 C 17.417969 33.769531 17.425781 33.792969 17.4375 33.8125 C 17.730469 34.417969 18.109375 35.34375 18.375 36.0625 C 18.382813 36.09375 18.394531 36.125 18.40625 36.15625 C 18.507813 36.4375 18.632813 36.839844 18.65625 36.90625 C 18.664063 36.9375 18.675781 36.96875 18.6875 37 C 18.640625 37.042969 18.5 37.164063 18.28125 37.34375 C 18.148438 37.453125 18.09375 37.503906 17.96875 37.59375 C 17.804688 37.3125 17.695313 37.113281 17.5625 36.78125 C 17.554688 36.757813 17.539063 36.742188 17.53125 36.71875 C 17.335938 36.179688 16.980469 35.71875 16.4375 35.40625 C 15.871094 35.078125 14.984375 34.996094 14.28125 35.4375 C 14.269531 35.449219 14.261719 35.457031 14.25 35.46875 C 12.964844 36.324219 12.621094 37.769531 12.3125 39.40625 C 12.3125 39.4375 12.3125 39.46875 12.3125 39.5 C 12.1875 40.617188 12.15625 42.800781 10.5 44.375 C 9.8125 44.960938 8.835938 45.886719 7.9375 46.6875 C 7.480469 47.09375 7.046875 47.457031 6.71875 47.71875 C 6.59375 47.820313 6.523438 47.90625 6.4375 47.96875 C 6.425781 47.960938 6.417969 47.976563 6.40625 47.96875 C 6.386719 47.957031 6.390625 47.949219 6.375 47.9375 C 6.292969 47.792969 5.429688 46.28125 4.4375 44.5625 C 3.917969 43.664063 3.382813 42.761719 2.96875 42.03125 C 2.554688 41.300781 2.207031 40.695313 2.1875 40.65625 C 2.1875 40.644531 2.1875 40.636719 2.1875 40.625 C 2.101563 40.46875 2.078125 40.402344 2.0625 40.375 C 2.085938 40.355469 2.207031 40.171875 2.53125 39.875 C 2.554688 39.855469 2.539063 39.867188 2.5625 39.84375 C 2.773438 39.671875 4.683594 38.195313 6.59375 36.71875 C 8.519531 35.230469 10.464844 33.707031 11.125 33.15625 C 11.136719 33.15625 11.144531 33.15625 11.15625 33.15625 C 13.164063 31.398438 13.09375 28.710938 13.09375 27.8125 C 13.09375 27.363281 13.097656 26.871094 13.1875 26.5 C 13.277344 26.128906 13.425781 25.902344 13.6875 25.71875 L 14.75 24.9375 C 14.878906 24.890625 14.996094 24.8125 15.09375 24.71875 C 15.117188 24.6875 15.136719 24.65625 15.15625 24.625 L 19.21875 21.65625 L 19.25 21.65625 C 19.503906 21.628906 19.738281 21.507813 19.90625 21.3125 C 19.90625 21.300781 19.90625 21.292969 19.90625 21.28125 C 19.925781 21.273438 19.949219 21.261719 19.96875 21.25 C 20.546875 21.078125 21.21875 21.21875 21.875 21.46875 C 22.734375 21.796875 23.40625 22.28125 23.40625 22.28125 C 23.753906 22.550781 24.234375 22.5625 24.59375 22.3125 Z M 16.375 18.53125 L 17.6875 20.34375 L 14.625 22.5625 L 13.28125 20.6875 Z M 8.84375 20.40625 L 9.4375 21.25 L 8.25 22.59375 L 7.125 21.09375 Z M 20.21875 31.875 C 20.222656 31.941406 20.25 31.992188 20.25 32.0625 C 20.261719 32.621094 20.144531 33.265625 19.65625 33.9375 C 19.507813 33.574219 19.371094 33.214844 19.21875 32.90625 C 19.226563 32.902344 19.238281 32.925781 19.25 32.90625 C 19.34375 32.746094 19.625 32.390625 20.09375 32 C 20.109375 31.984375 20.109375 31.984375 20.125 31.96875 C 20.136719 31.960938 20.207031 31.882813 20.21875 31.875 Z " fill="#000000"/></g></svg>
