<?xml version="1.0" encoding="UTF-8"?>
<svg xmlns="http://www.w3.org/2000/svg" xmlns:xlink="http://www.w3.org/1999/xlink" viewBox="0 0 50 50" version="1.1" fill="#000000"><g id="surface1" fill="#000000"><path style=" " d="M 43.5 0.6875 L 42.6875 1.28125 L 14.28125 21.59375 C 14.25 21.613281 14.21875 21.632813 14.1875 21.65625 L 14.125 21.6875 L 13.28125 22.28125 L 1.875 30.46875 L 1.84375 30.46875 L 1.84375 30.5 C 1.8125 30.523438 1.464844 30.726563 1.21875 31.1875 C 0.960938 31.671875 0.917969 32.570313 1.40625 33.25 L 1.96875 34.0625 C 2.457031 34.742188 3.332031 34.992188 3.875 34.90625 C 4.417969 34.820313 4.78125 34.53125 4.78125 34.53125 C 4.78125 34.53125 5.023438 34.390625 5.3125 34.34375 C 5.601563 34.296875 5.796875 34.238281 6.1875 34.78125 C 7.355469 36.414063 10.269531 40.492188 11.4375 42.125 C 11.828125 42.667969 11.699219 42.835938 11.5625 43.09375 C 11.425781 43.351563 11.1875 43.53125 11.1875 43.53125 C 11.1875 43.53125 10.820313 43.765625 10.5625 44.25 C 10.304688 44.734375 10.230469 45.632813 10.71875 46.3125 L 11.3125 47.125 C 11.3125 47.125 11.578125 47.523438 12.0625 47.78125 C 12.546875 48.039063 13.445313 48.082031 14.125 47.59375 C 14.800781 47.109375 17.207031 45.386719 18.1875 44.6875 L 19.53125 46.5625 L 19.84375 47 L 20.375 46.96875 L 22.8125 46.90625 L 23.75 46.90625 L 23.78125 45.9375 L 23.84375 43.5625 L 25.3125 43.53125 L 26.28125 43.5 L 26.28125 42.5625 L 26.34375 40.15625 L 27.8125 40.125 L 28.78125 40.125 L 28.8125 39.15625 L 28.875 36.78125 L 30.34375 36.75 L 31.28125 36.71875 L 31.3125 35.78125 L 31.375 33.40625 L 32.84375 33.375 L 33.8125 33.34375 L 33.84375 32.375 L 33.875 30 L 35.375 29.96875 L 36.3125 29.9375 L 36.34375 29 L 36.40625 26.625 L 37.875 26.59375 L 38.84375 26.5625 L 38.875 25.59375 L 38.90625 23.21875 L 40.40625 23.1875 L 41.34375 23.1875 L 41.375 22.21875 L 41.4375 19.84375 L 42.90625 19.8125 L 43.875 19.78125 L 43.875 18.84375 L 43.9375 16.4375 L 45.4375 16.40625 L 46.375 16.40625 L 46.40625 15.4375 L 46.46875 13.0625 L 47.9375 13.03125 L 48.875 13 L 48.90625 12.0625 L 49 8.71875 L 49 8.375 L 48.8125 8.125 L 44.09375 1.5 Z M 43.0625 3.5 L 47 9 L 46.9375 11.0625 L 45.46875 11.09375 L 44.5 11.09375 L 44.46875 12.0625 L 44.4375 14.4375 L 42.9375 14.46875 L 42 14.5 L 41.96875 15.4375 L 41.90625 17.84375 L 40.4375 17.875 L 39.46875 17.875 L 39.46875 18.84375 L 39.40625 21.21875 L 37.90625 21.25 L 36.96875 21.28125 L 36.9375 22.21875 L 36.875 24.59375 L 35.40625 24.625 L 34.46875 24.65625 L 34.4375 25.625 L 34.375 28 L 32.90625 28.03125 L 31.9375 28.0625 L 31.90625 29 L 31.84375 31.375 L 30.375 31.40625 L 29.4375 31.4375 L 29.40625 32.40625 L 29.34375 34.78125 L 27.875 34.8125 L 26.90625 34.84375 L 26.875 35.78125 L 26.84375 38.15625 L 25.34375 38.1875 L 24.40625 38.21875 L 24.375 39.15625 L 24.3125 41.5625 L 22.84375 41.59375 L 21.875 41.59375 L 21.875 42.5625 L 21.8125 44.9375 L 20.84375 44.96875 L 19.59375 43.1875 L 23.78125 34.375 L 24.03125 33.84375 L 23.6875 33.375 L 16.09375 22.75 Z M 14.46875 23.9375 L 21.71875 34.0625 L 17.65625 42.625 C 17.351563 42.84375 13.722656 45.40625 12.9375 45.96875 L 12.375 45.15625 C 12.375 45.15625 12.957031 44.765625 13.34375 44.03125 C 13.730469 43.296875 13.839844 42.058594 13.0625 40.96875 C 11.894531 39.335938 8.980469 35.226563 7.8125 33.59375 C 7.035156 32.503906 5.820313 32.214844 5 32.34375 C 4.179688 32.472656 3.625 32.90625 3.625 32.90625 L 3.03125 32.09375 Z M 12.09375 27.28125 C 11.703125 27.292969 11.304688 27.417969 10.96875 27.65625 L 8.5 29.40625 C 7.605469 30.042969 7.394531 31.328125 8.03125 32.21875 L 13.3125 39.5625 C 13.949219 40.457031 15.203125 40.667969 16.09375 40.03125 L 18.5625 38.28125 C 19.457031 37.644531 19.636719 36.359375 19 35.46875 L 13.75 28.125 C 13.429688 27.679688 12.976563 27.398438 12.46875 27.3125 C 12.339844 27.292969 12.222656 27.277344 12.09375 27.28125 Z M 12.125 29.28125 L 17.375 36.625 L 14.9375 38.375 L 9.6875 31.03125 Z " fill="#000000"/></g></svg>
