<?xml version="1.0" encoding="UTF-8"?>
<svg xmlns="http://www.w3.org/2000/svg" xmlns:xlink="http://www.w3.org/1999/xlink" viewBox="0 0 50 50" version="1.1" fill="#000000"><g id="surface1" fill="#000000"><path style=" " d="M 40.21875 0.09375 C 39.703125 0.09375 39.199219 0.269531 38.8125 0.65625 C 38.683594 0.796875 38.597656 0.96875 38.5625 1.15625 L 36.65625 9.40625 L 18.90625 27.15625 L 13.25 21.5 C 13.0625 21.300781 12.804688 21.191406 12.53125 21.1875 C 12.269531 21.199219 12.023438 21.308594 11.84375 21.5 L 2.875 30.4375 C 1.578125 31.734375 0.496094 34.015625 0.125 37.03125 C -0.246094 40.046875 0.140625 43.777344 2 47.84375 C 2.109375 48.089844 2.3125 48.28125 2.5625 48.375 C 6.242188 49.835938 9.90625 50.191406 12.96875 49.90625 C 16.03125 49.621094 18.46875 48.78125 19.84375 47.40625 L 28.8125 38.46875 C 29.199219 38.078125 29.199219 37.453125 28.8125 37.0625 L 23.15625 31.40625 L 40.96875 13.59375 L 48.875 11.4375 C 49.042969 11.382813 49.195313 11.285156 49.3125 11.15625 C 50.085938 10.382813 50.085938 9.117188 49.3125 8.34375 L 41.65625 0.65625 C 41.269531 0.269531 40.734375 0.09375 40.21875 0.09375 Z M 40.375 2.21875 L 47.8125 9.65625 L 40.25 11.71875 C 40.1875 11.722656 40.125 11.734375 40.0625 11.75 C 40.050781 11.761719 40.042969 11.769531 40.03125 11.78125 C 40.019531 11.78125 40.011719 11.78125 40 11.78125 C 39.945313 11.808594 39.894531 11.839844 39.84375 11.875 C 39.824219 11.882813 39.800781 11.894531 39.78125 11.90625 C 39.78125 11.917969 39.78125 11.925781 39.78125 11.9375 C 39.75 11.957031 39.71875 11.976563 39.6875 12 C 39.613281 12.0625 39.550781 12.136719 39.5 12.21875 L 21.34375 30.375 C 21.050781 30.476563 20.820313 30.707031 20.71875 31 L 20.625 31.09375 C 20.523438 31.195313 19.972656 31.667969 19.28125 32.21875 C 18.589844 32.769531 17.699219 33.425781 16.84375 34.03125 C 16.242188 34.457031 15.742188 34.78125 15.21875 35.09375 C 15.53125 34.570313 15.824219 34.039063 16.25 33.4375 C 16.855469 32.582031 17.511719 31.722656 18.0625 31.03125 C 18.613281 30.339844 19.117188 29.789063 19.21875 29.6875 L 19.5625 29.3125 C 19.585938 29.292969 19.605469 29.273438 19.625 29.25 L 38.0625 10.78125 C 38.09375 10.761719 38.125 10.742188 38.15625 10.71875 L 38.28125 10.59375 C 38.304688 10.574219 38.324219 10.554688 38.34375 10.53125 C 38.390625 10.472656 38.433594 10.410156 38.46875 10.34375 C 38.507813 10.273438 38.539063 10.203125 38.5625 10.125 L 38.5625 10.09375 C 38.574219 10.054688 38.585938 10.011719 38.59375 9.96875 Z M 41.46875 6.09375 C 41.398438 6.09375 41.335938 6.132813 41.28125 6.1875 L 40.71875 8.5625 L 41.53125 9.34375 L 43.8125 8.71875 C 43.921875 8.609375 43.921875 8.421875 43.8125 8.3125 L 41.65625 6.1875 C 41.601563 6.132813 41.539063 6.09375 41.46875 6.09375 Z M 12.53125 23.625 L 17.5 28.59375 C 17.238281 28.894531 16.914063 29.261719 16.5 29.78125 C 15.925781 30.5 15.257813 31.386719 14.625 32.28125 C 13.992188 33.175781 13.40625 34.0625 13 34.84375 C 12.796875 35.234375 12.628906 35.589844 12.53125 35.96875 C 12.484375 36.160156 12.449219 36.347656 12.46875 36.59375 C 12.488281 36.839844 12.585938 37.179688 12.84375 37.4375 C 13.101563 37.695313 13.441406 37.792969 13.6875 37.8125 C 13.933594 37.832031 14.121094 37.796875 14.3125 37.75 C 14.691406 37.652344 15.046875 37.515625 15.4375 37.3125 C 16.21875 36.90625 17.105469 36.289063 18 35.65625 C 18.894531 35.023438 19.78125 34.355469 20.5 33.78125 C 21.027344 33.359375 21.417969 33.046875 21.71875 32.78125 L 26.6875 37.75 L 18.4375 46 C 17.691406 46.746094 15.542969 47.652344 12.78125 47.90625 C 10.132813 48.152344 6.910156 47.796875 3.6875 46.59375 C 2.15625 43.035156 1.8125 39.820313 2.125 37.28125 C 2.453125 34.632813 3.488281 32.667969 4.3125 31.84375 Z " fill="#000000"/></g></svg>
