<?xml version="1.0" encoding="utf-8"?>
<svg xmlns="http://www.w3.org/2000/svg" viewBox="0 0 50 50" fill="#000000"><path style="line-height:normal;text-indent:0;text-align:start;text-decoration-line:none;text-decoration-style:solid;text-decoration-color:#000;text-transform:none;block-progression:tb;isolation:auto;mix-blend-mode:normal" d="M 12.970703 5 A 1.0001 1.0001 0 0 0 12.683594 5.0507812 C 10.917994 5.6393145 9.1623166 6.986142 7.6230469 8.4257812 C 7.4500685 8.5875635 7.2947014 8.751194 7.1289062 8.9140625 A 1.0001 1.0001 0 0 0 6.8378906 9.2011719 C 5.6601175 10.39192 4.6906213 11.572764 4.1425781 12.486328 C 1.0114321 17.704905 0.013671875 23.835937 0.013671875 23.835938 A 1.0001 1.0001 0 0 0 0.19921875 24.599609 C 0.20143975 24.602609 0.20480825 24.604522 0.20703125 24.607422 A 1.0001 1.0001 0 0 0 0.34765625 24.757812 C 2.3919116 27.431558 4.9767687 29.646751 7.9550781 31.21875 L 30.810547 43.285156 C 32.671779 44.46279 34.914816 45 37 45 A 1.0001 1.0001 0 0 0 37.140625 44.990234 L 44.140625 43.990234 L 44.082031 43.996094 C 45.055252 43.916314 46.415578 43.660179 47.650391 42.935547 C 48.8852 42.210908 50 40.864444 50 39 A 1.0001 1.0001 0 0 0 49.996094 38.904297 C 49.996094 38.904297 49.919314 38.105485 49.791016 37.242188 C 49.726866 36.810538 49.650365 36.361657 49.556641 35.962891 C 49.509781 35.763507 49.458261 35.578856 49.392578 35.396484 C 49.326898 35.214113 49.283735 35.03978 49.050781 34.785156 A 1.0001 1.0001 0 0 0 48.630859 34.513672 L 41.541016 32.126953 L 39.859375 30.445312 L 39.527344 29.556641 L 40.130859 29.253906 A 1.0001 1.0001 0 0 0 39.685547 27.355469 A 1.0001 1.0001 0 0 0 39.234375 27.466797 L 38.820312 27.673828 L 38.294922 26.273438 L 38.660156 26.119141 A 1.0001 1.0001 0 0 0 38.238281 24.193359 A 1.0001 1.0001 0 0 0 37.878906 24.277344 L 37.591797 24.398438 L 37.013672 22.855469 L 37.277344 22.759766 A 1.0001 1.0001 0 0 0 36.958984 20.814453 A 1.0001 1.0001 0 0 0 36.597656 20.878906 L 36.310547 20.982422 L 35.726562 19.427734 L 36.087891 19.296875 A 1.0001 1.0001 0 0 0 35.769531 17.351562 A 1.0001 1.0001 0 0 0 35.40625 17.416016 L 35.025391 17.554688 L 34.425781 15.955078 A 1.0002101 1.0002101 0 0 0 34.414062 15.753906 C 34.414062 15.753906 33.941181 12.776004 34.90625 9.4667969 C 35.303107 8.1058378 34.096275 6.8787573 32.765625 7.0234375 C 29.224302 7.4066005 24.664062 9.0585938 24.664062 9.0585938 A 1.0001 1.0001 0 0 0 24.113281 9.5371094 L 22.412109 12.791016 C 21.531944 12.973695 19.966575 12.83545 18.519531 12.296875 C 16.876583 11.685386 15.40728 10.601312 14.898438 9.5605469 C 14.30307 8.3426172 14 7.8636667 14 6 A 1.0001 1.0001 0 0 0 12.970703 5 z M 12.199219 7.5488281 C 12.387919 8.6780459 12.691682 9.6009637 13.101562 10.439453 C 13.98172 12.239688 15.862214 13.442364 17.822266 14.171875 C 18.269697 14.338404 18.722589 14.476147 19.173828 14.591797 C 18.889913 14.674085 18.605822 14.755942 18.322266 14.8125 C 16.831328 15.109879 15.389757 15.075607 13.800781 14.320312 C 12.346947 13.629258 10.739782 12.27914 8.9941406 9.8828125 C 10.036466 8.9086439 11.160942 8.1225865 12.199219 7.5488281 z M 32.970703 9.0136719 C 32.550946 10.497179 32.384745 11.903543 32.332031 13.074219 C 31.238547 12.454809 29.866184 12.186538 28.501953 12.068359 C 28.291843 12.050158 28.083225 12.053187 27.873047 12.042969 A 1.0001 1.0001 0 0 0 27.646484 12.019531 C 27.602925 12.019531 27.561012 12.028566 27.517578 12.029297 C 26.645847 12.00541 25.798358 12.046629 25 12.15625 L 25.695312 10.828125 C 26.241988 10.63961 30.085346 9.3282482 32.970703 9.0136719 z M 7.5761719 11.335938 C 9.3913736 13.765712 11.167964 15.283049 12.943359 16.126953 C 14.953634 17.082504 16.929328 17.129183 18.712891 16.773438 C 22.208894 16.076131 25.151319 14.111709 27.5 14.033203 C 27.778003 14.038993 28.057086 14.036899 28.330078 14.060547 C 30.143742 14.217658 31.674727 14.851023 32.126953 15.517578 L 33.146484 18.234375 L 32.335938 18.527344 A 1.0002829 1.0002829 0 1 0 33.017578 20.408203 L 33.847656 20.107422 L 34.431641 21.662109 L 33.527344 21.990234 A 1.0001 1.0001 0 1 0 34.207031 23.871094 L 35.132812 23.535156 L 35.75 25.181641 L 35.011719 25.494141 A 1.0001 1.0001 0 1 0 35.792969 27.333984 L 36.453125 27.054688 L 37.023438 28.576172 L 36.300781 28.939453 A 1.0001187 1.0001187 0 1 0 37.199219 30.726562 L 37.730469 30.458984 L 38.064453 31.351562 A 1.0001 1.0001 0 0 0 38.292969 31.707031 L 40.292969 33.707031 A 1.0001 1.0001 0 0 0 40.681641 33.947266 L 47.564453 36.263672 C 47.579953 36.319352 47.593085 36.352552 47.609375 36.421875 C 47.676914 36.70922 47.743347 37.094367 47.800781 37.472656 C 47.584668 37.635327 47.267832 37.769395 46.833984 37.857422 C 46.237495 37.978447 45.485122 38 44.763672 38 L 40.236328 38 C 39.274571 38 38.203759 38.278911 37.292969 38.539062 C 36.650323 38.722623 36.407777 38.813838 36.140625 38.90625 C 31.697682 36.486948 31.698124 34.487686 29.669922 32.847656 C 26.755422 30.490585 24.825326 31.209784 23.597656 31.089844 A 1.0001 1.0001 0 0 0 23.595703 31.089844 C 23.275548 31.058754 21.760732 30.559534 21.386719 30.355469 A 1.0001 1.0001 0 0 0 21.371094 30.347656 L 17.820312 28.490234 C 15.685758 27.326645 14.170206 24.953596 12.882812 22.53125 C 11.556429 20.033673 8.7405474 16.668428 4.9082031 15.255859 C 5.1979929 14.672262 5.5123284 14.088828 5.8574219 13.513672 C 6.166936 12.997725 6.7995591 12.19284 7.5761719 11.335938 z M 4.0820312 17.087891 C 7.2766253 18.228805 9.9936742 21.353182 11.117188 23.46875 C 12.447793 25.972404 14.099836 28.739683 16.863281 30.246094 A 1.0001 1.0001 0 0 0 16.878906 30.253906 L 20.429688 32.111328 L 20.431641 32.111328 C 21.219635 32.541022 22.407044 32.983228 23.404297 33.080078 C 25.388341 33.273118 25.91452 32.38176 28.412109 34.402344 A 1.0001 1.0001 0 0 0 28.414062 34.402344 C 29.670472 35.418291 30.266821 38.154646 35.539062 40.888672 A 1.0001 1.0001 0 0 0 36.339844 40.939453 C 36.339844 40.939453 37.002087 40.700786 37.841797 40.460938 C 38.681408 40.2211 39.728085 40 40.236328 40 L 44.763672 40 C 45.513221 40 46.378662 39.9916 47.232422 39.818359 C 47.461791 39.771821 47.694233 39.708641 47.923828 39.630859 C 47.759474 40.36555 47.300241 40.820752 46.638672 41.208984 C 45.803485 41.699102 44.664748 41.942688 43.917969 42.003906 A 1.0001 1.0001 0 0 0 43.859375 42.009766 L 36.962891 42.994141 C 35.215563 42.987441 33.286455 42.507066 31.820312 41.560547 A 1.0001 1.0001 0 0 0 31.744141 41.517578 L 8.8886719 29.449219 C 6.2352266 28.048688 3.9417825 26.075013 2.0957031 23.714844 C 2.1859562 23.219879 2.7331908 20.350841 4.0820312 17.087891 z" fill="#000000"/></svg>
