<?xml version="1.0" encoding="utf-8"?>
<svg xmlns="http://www.w3.org/2000/svg" viewBox="0 0 50 50" fill="#000000"><path style="line-height:normal;text-indent:0;text-align:start;text-decoration-line:none;text-decoration-style:solid;text-decoration-color:#000;text-transform:none;block-progression:tb;isolation:auto;mix-blend-mode:normal" d="M 11.349609 8 C 6.7758693 8 3 11.566488 3 16 L 3 16.414062 C 1.580715 17.02413 0.49636041 18.278358 0.13867188 19.810547 C -0.43864859 22.284621 0.92343711 24.536596 3 25.476562 L 3 33 C 3 35.36797 4.1904816 37.464532 6 38.732422 L 6 43 A 1.0001 1.0001 0 0 0 7 44 L 11 44 A 1.0001 1.0001 0 0 0 12 43 L 12 40 L 38 40 L 38 43 A 1.0001 1.0001 0 0 0 39 44 L 43 44 A 1.0001 1.0001 0 0 0 44 43 L 44 38.732422 C 45.809518 37.464532 47 35.36797 47 33 L 47 25.494141 C 48.74513 24.715042 50 23.028851 50 21 C 50 18.962807 48.757485 17.203153 47 16.425781 L 47 16 C 47 11.566488 43.224132 8 38.650391 8 L 11.349609 8 z M 11.349609 10 L 38.650391 10 C 42.19465 10 45 12.701512 45 16 L 45 16.001953 C 44.838621 16.001885 44.676 16.007738 44.511719 16.023438 C 41.887643 16.273229 40 18.59556 40 21.171875 L 40 26 L 28 26 C 26.802849 26 25.735155 26.546205 25 27.388672 C 24.264845 26.546205 23.197151 26 22 26 L 10 26 L 10 21 C 10 18.252489 7.7251267 16.016761 5 16.003906 L 5 16 C 5 12.701512 7.8053511 10 11.349609 10 z M 13 13 A 1 1 0 0 0 12 14 A 1 1 0 0 0 13 15 A 1 1 0 0 0 14 14 A 1 1 0 0 0 13 13 z M 21 13 A 1 1 0 0 0 20 14 A 1 1 0 0 0 21 15 A 1 1 0 0 0 22 14 A 1 1 0 0 0 21 13 z M 29 13 A 1 1 0 0 0 28 14 A 1 1 0 0 0 29 15 A 1 1 0 0 0 30 14 A 1 1 0 0 0 29 13 z M 37 13 A 1 1 0 0 0 36 14 A 1 1 0 0 0 37 15 A 1 1 0 0 0 38 14 A 1 1 0 0 0 37 13 z M 17 17 A 1 1 0 0 0 16 18 A 1 1 0 0 0 17 19 A 1 1 0 0 0 18 18 A 1 1 0 0 0 17 17 z M 25 17 A 1 1 0 0 0 24 18 A 1 1 0 0 0 25 19 A 1 1 0 0 0 26 18 A 1 1 0 0 0 25 17 z M 33 17 A 1 1 0 0 0 32 18 A 1 1 0 0 0 33 19 A 1 1 0 0 0 34 18 A 1 1 0 0 0 33 17 z M 5.0175781 17.998047 C 6.7019134 17.995038 8 19.335835 8 21 L 8 31 C 8 32.64497 9.3550302 34 11 34 L 39 34 C 40.64497 34 42 32.64497 42 31 L 42 21.171875 C 42 19.57019 43.165247 18.15988 44.701172 18.013672 C 46.518895 17.839975 48 19.233039 48 21 C 48 22.404427 47.042353 23.554647 45.748047 23.890625 A 1.0001 1.0001 0 0 0 45 24.859375 L 45 33 C 45 35.773666 42.773666 38 40 38 L 10 38 C 7.2263339 38 5 35.773666 5 33 L 5 24.869141 A 1.0001 1.0001 0 0 0 4.25 23.902344 C 2.7409313 23.512907 1.675984 22.020505 2.0859375 20.263672 C 2.331147 19.213297 3.2238514 18.325633 4.2753906 18.083984 C 4.5291498 18.0257 4.7769588 17.998477 5.0175781 17.998047 z M 13 21 A 1 1 0 0 0 12 22 A 1 1 0 0 0 13 23 A 1 1 0 0 0 14 22 A 1 1 0 0 0 13 21 z M 21 21 A 1 1 0 0 0 20 22 A 1 1 0 0 0 21 23 A 1 1 0 0 0 22 22 A 1 1 0 0 0 21 21 z M 29 21 A 1 1 0 0 0 28 22 A 1 1 0 0 0 29 23 A 1 1 0 0 0 30 22 A 1 1 0 0 0 29 21 z M 37 21 A 1 1 0 0 0 36 22 A 1 1 0 0 0 37 23 A 1 1 0 0 0 38 22 A 1 1 0 0 0 37 21 z M 10 28 L 22 28 C 23.116666 28 24 28.883334 24 30 L 24 32 L 11 32 C 10.43497 32 10 31.56503 10 31 L 10 28 z M 28 28 L 40 28 L 40 31 C 40 31.56503 39.56503 32 39 32 L 26 32 L 26 30 C 26 28.883334 26.883334 28 28 28 z M 8 39.703125 C 8.6343547 39.893215 9.3053405 40 10 40 L 10 42 L 8 42 L 8 39.703125 z M 42 39.703125 L 42 42 L 40 42 L 40 40 C 40.69466 40 41.365645 39.893215 42 39.703125 z" fill="#000000"/></svg>
