<?xml version="1.0" encoding="UTF-8"?>
<svg xmlns="http://www.w3.org/2000/svg" xmlns:xlink="http://www.w3.org/1999/xlink" viewBox="0 0 50 50" version="1.1" fill="#000000"><g id="surface1" fill="#000000"><path style=" " d="M 8.59375 9 C 6.707031 9 4.972656 10.0625 4.125 11.75 L 0.75 18.5 L 0.6875 18.59375 L 0.71875 18.59375 C 0.269531 19.359375 0 20.234375 0 21.125 L 0 32.3125 C 0 33.789063 1.210938 35 2.6875 35 L 4.09375 35 C 4.570313 37.835938 7.035156 40 10 40 C 12.964844 40 15.429688 37.835938 15.90625 35 L 34.09375 35 C 34.570313 37.835938 37.035156 40 40 40 C 42.964844 40 45.429688 37.835938 45.90625 35 L 47 35 C 48.644531 35 50 33.644531 50 32 L 50 25.375 C 50 22.9375 48.214844 20.871094 45.8125 20.46875 L 37.5 19.0625 L 30.53125 10.78125 C 29.582031 9.652344 28.191406 9 26.71875 9 Z M 8.59375 11 L 18 11 L 18 19 L 2.71875 19 L 5.90625 12.65625 C 6.417969 11.640625 7.457031 11 8.59375 11 Z M 20 11 L 26.71875 11 C 27.605469 11 28.429688 11.386719 29 12.0625 L 34.84375 19 L 20 19 Z M 2 21 L 36.84375 21 L 45.5 22.4375 C 46.953125 22.679688 48 23.902344 48 25.375 L 48 32 C 48 32.554688 47.554688 33 47 33 L 45.90625 33 C 45.429688 30.164063 42.964844 28 40 28 C 37.035156 28 34.570313 30.164063 34.09375 33 L 15.90625 33 C 15.429688 30.164063 12.964844 28 10 28 C 7.035156 28 4.570313 30.164063 4.09375 33 L 2.6875 33 C 2.292969 33 2 32.707031 2 32.3125 L 2 21.125 C 2 21.082031 2 21.042969 2 21 Z M 10 30 C 12.222656 30 14 31.777344 14 34 C 14 36.222656 12.222656 38 10 38 C 7.777344 38 6 36.222656 6 34 C 6 31.777344 7.777344 30 10 30 Z M 40 30 C 42.222656 30 44 31.777344 44 34 C 44 36.222656 42.222656 38 40 38 C 37.777344 38 36 36.222656 36 34 C 36 31.777344 37.777344 30 40 30 Z " fill="#000000"/></g></svg>
