<?xml version="1.0" encoding="UTF-8"?>
<svg xmlns="http://www.w3.org/2000/svg" xmlns:xlink="http://www.w3.org/1999/xlink" viewBox="0 0 50 50" version="1.1" fill="#000000"><g id="surface1" fill="#000000"><path style=" " d="M 36.3125 1.96875 C 35.9375 1.964844 35.566406 1.988281 35.1875 2.03125 C 32.910156 2.292969 30.585938 3.289063 28.59375 5.28125 C 26.480469 7.394531 24.007813 10.847656 22.6875 14.59375 C 22.292969 15.714844 22.035156 16.871094 21.90625 18.03125 L 21.8125 18.03125 C 21.8125 18.03125 21.378906 20.660156 20.59375 23.65625 C 19.808594 26.652344 18.550781 30.042969 17.40625 31.1875 L 11.59375 37 L 10.09375 37 C 9.328125 37 8.578125 37.328125 8 37.90625 L 1.59375 44.28125 C 0.839844 45.035156 0.839844 46.339844 1.59375 47.09375 L 2.90625 48.40625 C 3.660156 49.160156 4.964844 49.160156 5.71875 48.40625 L 12.09375 42 C 12.671875 41.421875 13 40.671875 13 39.90625 L 13 38.40625 L 18.8125 32.59375 C 19.957031 31.449219 23.355469 30.15625 26.375 29.34375 C 29.394531 28.53125 32.0625 28.09375 32.0625 28.09375 L 32.03125 27.96875 C 33.140625 27.835938 34.246094 27.59375 35.3125 27.21875 C 39.058594 25.898438 42.480469 23.425781 44.59375 21.3125 C 49.589844 16.425781 48.574219 9.28125 44.8125 5.40625 C 44.769531 5.363281 44.726563 5.351563 44.71875 5.34375 C 42.9375 3.601563 40.335938 2.289063 37.4375 2.03125 C 37.070313 2 36.6875 1.972656 36.3125 1.96875 Z M 36.6875 3.96875 C 36.875 3.972656 37.0625 3.984375 37.25 4 C 37.261719 4 37.269531 4 37.28125 4 L 37 4.28125 Z M 35.3125 4.03125 L 36.28125 5 L 35 6.28125 L 33.28125 4.5625 C 33.957031 4.304688 34.632813 4.113281 35.3125 4.03125 Z M 38.5 4.1875 C 39.179688 4.339844 39.820313 4.574219 40.4375 4.84375 L 39 6.28125 L 37.71875 5 Z M 32.28125 5 L 34.28125 7 L 33 8.28125 L 30.75 6.03125 C 31.25 5.617188 31.757813 5.28125 32.28125 5 Z M 41.40625 5.3125 C 41.957031 5.625 42.464844 6 42.90625 6.375 L 41 8.28125 L 39.71875 7 Z M 37 5.71875 L 38.28125 7 L 37 8.28125 L 35.71875 7 Z M 30 6.71875 L 32.28125 9 L 31 10.28125 L 28.78125 8.0625 C 29.199219 7.566406 29.609375 7.109375 30 6.71875 Z M 43.625 7.09375 C 44.027344 7.550781 44.40625 8.019531 44.71875 8.5625 L 43 10.28125 L 41.71875 9 Z M 35 7.71875 L 36.28125 9 L 35 10.28125 L 33.71875 9 Z M 39 7.71875 L 40.28125 9 L 39 10.28125 L 37.71875 9 Z M 28.15625 8.875 L 30.28125 11 L 29 12.28125 L 27.09375 10.375 C 27.445313 9.84375 27.792969 9.347656 28.15625 8.875 Z M 45.1875 9.53125 C 45.457031 10.148438 45.675781 10.796875 45.8125 11.46875 L 45 12.28125 L 43.71875 11 Z M 33 9.71875 L 34.28125 11 L 33 12.28125 L 31.71875 11 Z M 37 9.71875 L 38.28125 11 L 37 12.28125 L 35.71875 11 Z M 41 9.71875 L 42.28125 11 L 41 12.28125 L 39.71875 11 Z M 26.53125 11.25 L 28.28125 13 L 27 14.28125 L 25.59375 12.875 C 25.875 12.320313 26.210938 11.777344 26.53125 11.25 Z M 31 11.71875 L 32.28125 13 L 31 14.28125 L 29.71875 13 Z M 35 11.71875 L 36.28125 13 L 35 14.28125 L 33.71875 13 Z M 39 11.71875 L 40.28125 13 L 39 14.28125 L 37.71875 13 Z M 43 11.71875 L 44.28125 13 L 43 14.28125 L 41.71875 13 Z M 45.96875 12.75 C 45.980469 12.925781 46 13.105469 46 13.28125 L 45.71875 13 Z M 29 13.71875 L 30.28125 15 L 29 16.28125 L 27.71875 15 Z M 33 13.71875 L 34.28125 15 L 33 16.28125 L 31.71875 15 Z M 37 13.71875 L 38.28125 15 L 37 16.28125 L 35.71875 15 Z M 41 13.71875 L 42.28125 15 L 41 16.28125 L 39.71875 15 Z M 45 13.71875 L 45.90625 14.625 C 45.808594 15.304688 45.640625 15.992188 45.375 16.65625 L 43.71875 15 Z M 25.125 13.84375 L 26.28125 15 L 25 16.28125 L 24.4375 15.71875 C 24.488281 15.5625 24.507813 15.40625 24.5625 15.25 C 24.726563 14.777344 24.917969 14.308594 25.125 13.84375 Z M 27 15.71875 L 28.28125 17 L 27 18.28125 L 25.71875 17 Z M 31 15.71875 L 32.28125 17 L 31 18.28125 L 29.71875 17 Z M 35 15.71875 L 36.28125 17 L 35 18.28125 L 33.71875 17 Z M 39 15.71875 L 40.28125 17 L 39 18.28125 L 37.71875 17 Z M 43 15.71875 L 44.90625 17.625 C 44.621094 18.148438 44.289063 18.664063 43.875 19.15625 L 41.71875 17 Z M 24.125 16.84375 L 24.28125 17 L 24 17.28125 C 24.03125 17.132813 24.089844 16.992188 24.125 16.84375 Z M 25 17.71875 L 26.28125 19 L 24.03125 21.25 C 23.835938 20.511719 23.746094 19.738281 23.78125 18.9375 Z M 29 17.71875 L 30.28125 19 L 29 20.28125 L 27.71875 19 Z M 33 17.71875 L 34.28125 19 L 33 20.28125 L 31.71875 19 Z M 37 17.71875 L 38.28125 19 L 37 20.28125 L 35.71875 19 Z M 41 17.71875 L 43.1875 19.875 L 43.1875 19.90625 C 42.796875 20.296875 42.339844 20.707031 41.84375 21.125 L 39.71875 19 Z M 27 19.71875 L 28.28125 21 L 25.4375 23.84375 C 25.011719 23.359375 24.660156 22.855469 24.40625 22.3125 Z M 31 19.71875 L 32.28125 21 L 31 22.28125 L 29.71875 21 Z M 35 19.71875 L 36.28125 21 L 35 22.28125 L 33.71875 21 Z M 39 19.71875 L 41.03125 21.75 C 40.558594 22.113281 40.0625 22.460938 39.53125 22.8125 L 37.71875 21 Z M 29 21.71875 L 30.28125 23 L 27.71875 25.5625 C 27.167969 25.320313 26.648438 24.980469 26.15625 24.5625 Z M 33 21.71875 L 34.28125 23 L 33 24.28125 L 31.71875 23 Z M 37 21.71875 L 38.65625 23.375 C 38.128906 23.695313 37.585938 24.03125 37.03125 24.3125 L 35.71875 23 Z M 22.71875 23.40625 C 23.101563 24.183594 23.605469 24.917969 24.28125 25.59375 C 24.992188 26.304688 25.769531 26.828125 26.59375 27.21875 C 26.347656 27.28125 26.125 27.339844 25.875 27.40625 C 24.265625 27.839844 22.558594 28.335938 21.03125 28.96875 C 21.644531 27.460938 22.117188 25.773438 22.53125 24.1875 C 22.601563 23.914063 22.652344 23.671875 22.71875 23.40625 Z M 31 23.71875 L 32.28125 25 L 31.1875 26.09375 C 30.359375 26.148438 29.542969 26.121094 28.78125 25.9375 Z M 35 23.71875 L 36.0625 24.78125 C 35.597656 24.988281 35.128906 25.179688 34.65625 25.34375 C 34.5 25.398438 34.34375 25.417969 34.1875 25.46875 L 33.71875 25 Z M 33 25.71875 L 33.0625 25.78125 C 32.996094 25.796875 32.941406 25.828125 32.875 25.84375 Z M 10.09375 39 L 11 39 L 11 39.90625 C 11 40.140625 10.910156 40.371094 10.6875 40.59375 L 4.3125 47 L 4.28125 47 L 3 45.71875 C 2.988281 45.730469 3.003906 45.691406 3 45.6875 L 9.40625 39.3125 C 9.628906 39.089844 9.859375 39 10.09375 39 Z " fill="#000000"/></g></svg>
