<?xml version="1.0" encoding="UTF-8"?>
<svg xmlns="http://www.w3.org/2000/svg" xmlns:xlink="http://www.w3.org/1999/xlink" viewBox="0 0 50 50" version="1.1" fill="#000000"><g id="surface1" fill="#000000"><path style=" " d="M 17 7 C 15 6.800781 13.601563 8.398438 13.5 8.398438 L 4.929688 21.140625 C 4.148438 21.578125 3.550781 22.136719 3.113281 22.800781 C 1.933594 24.605469 2 26.800781 2 29 C 2 33.914063 5.828125 38 10.597656 38 C 15.355469 38 19.097656 34.15625 21.105469 29.929688 C 21.40625 29.296875 21.640625 28.652344 21.800781 28 L 28.199219 28 C 28.359375 28.652344 28.59375 29.296875 28.894531 29.929688 C 30.902344 34.15625 34.644531 38 39.402344 38 C 44.171875 38 48 33.914063 48 29 C 48 26.800781 48.066406 24.605469 46.886719 22.800781 C 46.480469 22.183594 45.925781 21.664063 45.222656 21.238281 L 36.597656 8.5 L 36.5 8.398438 C 36.398438 8.398438 35.101563 6.800781 33 7 C 31.300781 7.199219 29.800781 8.5 28.5 10.800781 L 28 11.800781 L 29.800781 12.902344 L 30.300781 12 C 31.199219 10.300781 32.199219 9.402344 33.199219 9.300781 C 34.097656 9.199219 34.699219 9.800781 34.902344 10 L 41.78125 20.152344 C 41.058594 20.054688 40.277344 20 39.402344 20 C 39.261719 20 39.136719 20.007813 39 20.011719 L 39 20 L 11 20 L 11 20.011719 C 10.863281 20.007813 10.738281 20 10.597656 20 C 9.707031 20 8.90625 20.058594 8.171875 20.15625 L 15.097656 9.898438 C 15.300781 9.699219 15.902344 9.097656 16.800781 9.199219 C 17.699219 9.300781 18.699219 10.300781 19.699219 11.902344 L 20.199219 12.800781 L 22 11.699219 L 21.5 10.800781 C 20.101563 8.5 18.601563 7.199219 17 7 Z M 10.597656 22 C 11.011719 22 11.378906 22.019531 11.757813 22.03125 C 11.3125 22.140625 11 22.542969 11 23 C 11 23.550781 11.449219 24 12 24 C 12.550781 24 13 23.550781 13 23 C 13 22.5625 12.710938 22.171875 12.292969 22.046875 C 14.328125 22.152344 15.859375 22.457031 17.011719 22.867188 C 17.003906 22.910156 17 22.957031 17 23 C 17 23.550781 17.449219 24 18 24 C 18.257813 24 18.507813 23.898438 18.691406 23.71875 C 18.957031 23.910156 19.1875 24.109375 19.355469 24.3125 C 19.859375 24.921875 20.054688 25.578125 20.035156 26.378906 C 20.023438 26.945313 19.882813 27.578125 19.640625 28.234375 C 19.460938 28.085938 19.234375 28 19 28 C 18.449219 28 18 28.449219 18 29 C 18 29.480469 18.339844 29.890625 18.8125 29.984375 C 17.367188 32.585938 15.238281 34.769531 12.785156 35.613281 C 12.925781 35.441406 13 35.222656 13 35 C 13 34.449219 12.550781 34 12 34 C 11.449219 34 11 34.449219 11 35 C 11 35.394531 11.234375 35.753906 11.59375 35.910156 C 11.265625 35.964844 10.9375 36 10.597656 36 C 9.269531 36 8.027344 35.578125 6.988281 34.855469 C 6.917969 34.363281 6.496094 34 6 34 C 5.996094 34 5.988281 34 5.984375 34 C 4.761719 32.730469 4 30.964844 4 29 C 4 26.800781 4.066406 24.996094 4.789063 23.898438 C 4.882813 23.75 4.996094 23.613281 5.121094 23.476563 C 5.121094 23.476563 5.121094 23.476563 5.125 23.480469 C 5.296875 23.800781 5.632813 24 6 24 C 6.550781 24 7 23.550781 7 23 C 7 22.808594 6.945313 22.625 6.84375 22.464844 C 7.730469 22.171875 8.925781 22 10.597656 22 Z M 19.734375 22 L 30.265625 22 C 29.820313 22.3125 29.425781 22.652344 29.105469 23.035156 C 28.382813 23.910156 28.046875 24.953125 27.988281 26 L 22.011719 26 C 21.953125 24.953125 21.617188 23.910156 20.894531 23.035156 C 20.574219 22.652344 20.179688 22.3125 19.734375 22 Z M 39.402344 22 C 41.074219 22 42.265625 22.175781 43.15625 22.464844 C 43.054688 22.625 43 22.808594 43 23 C 43 23.550781 43.449219 24 44 24 C 44.367188 24 44.703125 23.800781 44.878906 23.476563 C 45.003906 23.613281 45.117188 23.75 45.214844 23.898438 C 45.933594 24.996094 46 26.800781 46 29 C 46 30.964844 45.238281 32.730469 44.015625 34 C 44.011719 34 44.003906 34 44 34 C 43.503906 34 43.082031 34.363281 43.011719 34.855469 C 41.96875 35.578125 40.730469 36 39.402344 36 C 39.066406 36 38.734375 35.964844 38.40625 35.910156 C 38.765625 35.75 39 35.394531 39 35 C 39 34.449219 38.550781 34 38 34 C 37.449219 34 37 34.449219 37 35 C 37 35.222656 37.074219 35.441406 37.214844 35.613281 C 34.761719 34.769531 32.632813 32.585938 31.1875 29.984375 C 31.660156 29.890625 32 29.480469 32 29 C 32 28.449219 31.550781 28 31 28 C 30.765625 28 30.535156 28.082031 30.355469 28.234375 C 30.117188 27.574219 29.976563 26.941406 29.964844 26.378906 C 29.945313 25.578125 30.140625 24.921875 30.644531 24.3125 C 30.734375 24.207031 30.847656 24.101563 30.960938 24 C 30.972656 24 30.988281 24 31 24 C 31.429688 24 31.808594 23.726563 31.945313 23.320313 C 33.136719 22.683594 34.976563 22.1875 37.703125 22.046875 C 37.285156 22.175781 37 22.5625 37 23 C 37 23.550781 37.449219 24 38 24 C 38.550781 24 39 23.550781 39 23 C 39 22.542969 38.6875 22.140625 38.242188 22.03125 C 38.621094 22.019531 38.988281 22 39.402344 22 Z M 9 25 C 8.449219 25 8 25.449219 8 26 C 8 26.550781 8.449219 27 9 27 C 9.550781 27 10 26.550781 10 26 C 10 25.449219 9.550781 25 9 25 Z M 15 25 C 14.449219 25 14 25.449219 14 26 C 14 26.550781 14.449219 27 15 27 C 15.550781 27 16 26.550781 16 26 C 16 25.449219 15.550781 25 15 25 Z M 35 25 C 34.449219 25 34 25.449219 34 26 C 34 26.550781 34.449219 27 35 27 C 35.550781 27 36 26.550781 36 26 C 36 25.449219 35.550781 25 35 25 Z M 41 25 C 40.449219 25 40 25.449219 40 26 C 40 26.550781 40.449219 27 41 27 C 41.550781 27 42 26.550781 42 26 C 42 25.449219 41.550781 25 41 25 Z M 6 28 C 5.449219 28 5 28.449219 5 29 C 5 29.550781 5.449219 30 6 30 C 6.550781 30 7 29.550781 7 29 C 7 28.449219 6.550781 28 6 28 Z M 12 28 C 11.449219 28 11 28.449219 11 29 C 11 29.550781 11.449219 30 12 30 C 12.550781 30 13 29.550781 13 29 C 13 28.449219 12.550781 28 12 28 Z M 38 28 C 37.449219 28 37 28.449219 37 29 C 37 29.550781 37.449219 30 38 30 C 38.550781 30 39 29.550781 39 29 C 39 28.449219 38.550781 28 38 28 Z M 44 28 C 43.449219 28 43 28.449219 43 29 C 43 29.550781 43.449219 30 44 30 C 44.550781 30 45 29.550781 45 29 C 45 28.449219 44.550781 28 44 28 Z M 9 31 C 8.449219 31 8 31.449219 8 32 C 8 32.550781 8.449219 33 9 33 C 9.550781 33 10 32.550781 10 32 C 10 31.449219 9.550781 31 9 31 Z M 15 31 C 14.449219 31 14 31.449219 14 32 C 14 32.550781 14.449219 33 15 33 C 15.550781 33 16 32.550781 16 32 C 16 31.449219 15.550781 31 15 31 Z M 35 31 C 34.449219 31 34 31.449219 34 32 C 34 32.550781 34.449219 33 35 33 C 35.550781 33 36 32.550781 36 32 C 36 31.449219 35.550781 31 35 31 Z M 41 31 C 40.449219 31 40 31.449219 40 32 C 40 32.550781 40.449219 33 41 33 C 41.550781 33 42 32.550781 42 32 C 42 31.449219 41.550781 31 41 31 Z " fill="#000000"/></g></svg>
