<?xml version="1.0" encoding="UTF-8"?>
<svg xmlns="http://www.w3.org/2000/svg" xmlns:xlink="http://www.w3.org/1999/xlink" viewBox="0 0 50 50" version="1.1" fill="#000000"><g id="surface1" fill="#000000"><path style=" " d="M 25 2 C 21.683594 2 18.6875 3.0625 18.6875 3.0625 C 18.589844 3.078125 18.496094 3.109375 18.40625 3.15625 L 11.71875 5.03125 C 11.445313 5.109375 11.214844 5.300781 11.089844 5.554688 C 10.964844 5.8125 10.953125 6.109375 11.0625 6.375 C 11.0625 6.375 13.304688 12.558594 12.09375 16.71875 C 11.109375 20.101563 7.375 23.21875 7.375 23.21875 C 7.136719 23.410156 7 23.695313 7 24 L 7 43 C 6.996094 43.410156 7.242188 43.785156 7.625 43.9375 L 17.625 47.9375 C 17.835938 48.023438 18.066406 48.03125 18.28125 47.96875 L 23.46875 46.5 C 23.601563 46.484375 23.726563 46.441406 23.84375 46.375 L 31.8125 47.96875 C 32 48.011719 32.195313 48 32.375 47.9375 L 42.375 43.9375 C 42.757813 43.785156 43.003906 43.410156 43 43 L 43 24 C 43 23.695313 42.863281 23.410156 42.625 23.21875 C 42.625 23.21875 38.890625 20.101563 37.90625 16.71875 C 36.695313 12.558594 38.9375 6.375 38.9375 6.375 C 39.046875 6.109375 39.035156 5.8125 38.910156 5.554688 C 38.785156 5.300781 38.554688 5.109375 38.28125 5.03125 L 31.5625 3.125 L 31.46875 3.09375 C 31.4375 3.082031 31.40625 3.070313 31.375 3.0625 L 31.3125 3.0625 C 31.3125 3.0625 31.125 3.03125 31.03125 3 C 30.394531 2.792969 27.886719 2 25 2 Z M 25 4 C 26.792969 4 28.488281 4.351563 29.5625 4.625 L 24.84375 15.21875 L 20.40625 4.625 C 21.480469 4.351563 23.1875 4 25 4 Z M 18.46875 5.21875 L 23.71875 17.71875 L 21.09375 23.59375 C 21.035156 23.722656 21.003906 23.859375 21 24 L 21 45 C 20.996094 45.042969 20.996094 45.082031 21 45.125 L 18.0625 45.9375 L 9 42.3125 L 9 24.4375 C 9.585938 23.964844 12.878906 21.238281 14.03125 17.28125 C 15.34375 12.765625 13.761719 8.082031 13.25 6.6875 Z M 31.53125 5.21875 L 36.75 6.6875 C 36.238281 8.082031 34.65625 12.765625 35.96875 17.28125 C 37.121094 21.238281 40.414063 23.964844 41 24.4375 L 41 42.3125 L 31.875 45.96875 L 23 44.1875 L 23 24.1875 Z M 27 25 C 26.449219 25 26 25.449219 26 26 C 26 26.550781 26.449219 27 27 27 C 27.550781 27 28 26.550781 28 26 C 28 25.449219 27.550781 25 27 25 Z M 27 30 C 26.449219 30 26 30.449219 26 31 C 26 31.550781 26.449219 32 27 32 C 27.550781 32 28 31.550781 28 31 C 28 30.449219 27.550781 30 27 30 Z M 10.71875 35 C 10.167969 35.078125 9.78125 35.589844 9.859375 36.140625 C 9.9375 36.691406 10.449219 37.078125 11 37 L 17 37 C 17.359375 37.003906 17.695313 36.816406 17.878906 36.503906 C 18.058594 36.191406 18.058594 35.808594 17.878906 35.496094 C 17.695313 35.183594 17.359375 34.996094 17 35 L 11 35 C 10.96875 35 10.9375 35 10.90625 35 C 10.875 35 10.84375 35 10.8125 35 C 10.78125 35 10.75 35 10.71875 35 Z M 27 35 C 26.449219 35 26 35.449219 26 36 C 26 36.550781 26.449219 37 27 37 C 27.550781 37 28 36.550781 28 36 C 28 35.449219 27.550781 35 27 35 Z M 31.71875 35 C 31.167969 35.078125 30.78125 35.589844 30.859375 36.140625 C 30.9375 36.691406 31.449219 37.078125 32 37 L 38 37 C 38.359375 37.003906 38.695313 36.816406 38.878906 36.503906 C 39.058594 36.191406 39.058594 35.808594 38.878906 35.496094 C 38.695313 35.183594 38.359375 34.996094 38 35 L 32 35 C 31.96875 35 31.9375 35 31.90625 35 C 31.875 35 31.84375 35 31.8125 35 C 31.78125 35 31.75 35 31.71875 35 Z M 27 40 C 26.449219 40 26 40.449219 26 41 C 26 41.550781 26.449219 42 27 42 C 27.550781 42 28 41.550781 28 41 C 28 40.449219 27.550781 40 27 40 Z " fill="#000000"/></g></svg>
