<?xml version="1.0" encoding="UTF-8"?>
<svg xmlns="http://www.w3.org/2000/svg" xmlns:xlink="http://www.w3.org/1999/xlink" viewBox="0 0 50 50" version="1.1" fill="#000000"><g id="surface1" fill="#000000"><path style=" " d="M 18.8125 11 C 18.558594 11.050781 18.335938 11.195313 18.1875 11.40625 L 15.3125 15.25 C 13.476563 16.152344 11.96875 17.609375 11.5 18.09375 L 4.375 19.65625 C 3.007813 19.960938 1.980469 21.113281 1.78125 22.5 L 1 27.84375 C 0.984375 28.003906 1.003906 28.164063 1.0625 28.3125 L 2.0625 31.3125 C 2.195313 31.71875 2.574219 31.996094 3 32 L 3.09375 32 C 3.046875 32.328125 3 32.660156 3 33 C 3 36.855469 6.144531 40 10 40 C 13.855469 40 17 36.855469 17 33 C 17 32.300781 16.882813 31.640625 16.6875 31 L 18.6875 31 C 18.804688 31.410156 18.921875 31.808594 19.03125 32.25 C 19.144531 32.691406 19.542969 33 20 33 L 29 33 C 29.464844 32.996094 29.867188 32.671875 29.96875 32.21875 C 30.066406 31.808594 30.1875 31.40625 30.3125 31 L 32.3125 31 C 32.117188 31.640625 32 32.300781 32 33 C 32 36.855469 35.144531 40 39 40 C 42.855469 40 46 36.855469 46 33 C 46 29.429688 43.304688 26.480469 39.84375 26.0625 L 40.5625 25 L 48 25 C 48.300781 24.996094 48.585938 24.859375 48.777344 24.621094 C 48.964844 24.386719 49.035156 24.078125 48.96875 23.78125 C 48.96875 23.78125 48.738281 22.683594 48.21875 21.34375 C 47.699219 20.003906 46.914063 18.382813 45.65625 17.25 C 45.46875 17.082031 45.222656 16.992188 44.96875 17 C 44.761719 17.003906 44.53125 17.015625 44.3125 17.03125 C 44.210938 17.003906 44.105469 16.992188 44 17 C 39.34375 17 35.617188 17.492188 32.78125 18 C 29.945313 18.507813 27.933594 19 27 19 C 26.25 19 24.480469 17.910156 23.28125 16.84375 C 21.972656 15.675781 20.269531 15 18.5 15 L 18 15 L 19.5 13 L 23 13 C 23.359375 13.003906 23.695313 12.816406 23.878906 12.503906 C 24.058594 12.191406 24.058594 11.808594 23.878906 11.496094 C 23.695313 11.183594 23.359375 10.996094 23 11 L 19 11 C 18.96875 11 18.9375 11 18.90625 11 C 18.875 11 18.84375 11 18.8125 11 Z M 16.28125 17 L 18 17 C 18.828125 17 19.441406 17.335938 20.09375 17.96875 C 20.746094 18.601563 21.359375 19.542969 21.96875 20.53125 C 22.578125 21.519531 23.179688 22.546875 23.9375 23.40625 C 24.695313 24.265625 25.726563 25 27 25 L 30.625 25 C 29.765625 26.761719 28.875 28.851563 28.28125 31 L 20.6875 31 C 19.375 26.199219 17.492188 22.925781 15.8125 20.96875 C 14.984375 20.003906 14.230469 19.335938 13.625 18.875 C 14.324219 18.265625 15.300781 17.472656 16.28125 17 Z M 44.53125 19.0625 C 45.261719 19.839844 45.925781 20.980469 46.34375 22.0625 C 46.546875 22.582031 46.546875 22.628906 46.65625 23 L 40 23 C 39.664063 22.996094 39.347656 23.160156 39.15625 23.4375 L 37.28125 26.21875 C 35.628906 26.640625 34.199219 27.664063 33.25 29.03125 C 33.167969 29.011719 33.085938 29 33 29 L 31 29 C 32.449219 25.277344 34.488281 22.117188 34.6875 21.8125 C 34.933594 21.710938 36.277344 21.136719 38.3125 20.46875 C 40.351563 19.796875 42.769531 19.191406 44.53125 19.0625 Z M 34.34375 19.8125 C 34.058594 19.921875 33.625 20.0625 33.625 20.0625 C 33.433594 20.136719 33.269531 20.265625 33.15625 20.4375 C 33.15625 20.4375 32.480469 21.496094 31.65625 23 L 27 23 C 26.460938 23 26.003906 22.734375 25.4375 22.09375 C 24.96875 21.566406 24.5 20.785156 24 19.96875 C 24.910156 20.558594 25.910156 21 27 21 C 28.484375 21 30.386719 20.492188 33.15625 20 C 33.527344 19.933594 33.945313 19.878906 34.34375 19.8125 Z M 11.78125 20.0625 C 11.792969 20.0625 11.800781 20.0625 11.8125 20.0625 C 12.105469 20.222656 12.953125 20.734375 14.28125 22.28125 C 15.488281 23.683594 16.914063 25.835938 18.0625 29 L 16 29 C 15.96875 29 15.9375 29 15.90625 29 C 15.875 29 15.84375 29 15.8125 29 C 15.792969 29 15.769531 29 15.75 29 C 15.746094 28.996094 15.722656 29.003906 15.71875 29 C 14.449219 27.199219 12.363281 26 10 26 C 7.230469 26 4.851563 27.625 3.71875 29.96875 L 3.03125 27.96875 L 3.3125 25.9375 L 6.3125 24.9375 C 6.625 24.839844 6.871094 24.59375 6.96875 24.28125 L 7.9375 20.9375 Z M 5.6875 21.4375 L 5.15625 23.25 L 3.625 23.75 L 3.75 22.78125 C 3.832031 22.210938 4.25 21.75 4.8125 21.625 Z M 10 28 C 12.773438 28 15 30.226563 15 33 C 15 35.773438 12.773438 38 10 38 C 7.226563 38 5 35.773438 5 33 C 5 30.226563 7.226563 28 10 28 Z M 39 28 C 41.773438 28 44 30.226563 44 33 C 44 35.773438 41.773438 38 39 38 C 36.226563 38 34 35.773438 34 33 C 34 30.226563 36.226563 28 39 28 Z M 10 30 C 8.355469 30 7 31.355469 7 33 C 7 34.644531 8.355469 36 10 36 C 11.644531 36 13 34.644531 13 33 C 13 31.355469 11.644531 30 10 30 Z M 39 30 C 37.355469 30 36 31.355469 36 33 C 36 34.644531 37.355469 36 39 36 C 40.644531 36 42 34.644531 42 33 C 42 31.355469 40.644531 30 39 30 Z M 10 32 C 10.5625 32 11 32.4375 11 33 C 11 33.5625 10.5625 34 10 34 C 9.4375 34 9 33.5625 9 33 C 9 32.4375 9.4375 32 10 32 Z M 39 32 C 39.5625 32 40 32.4375 40 33 C 40 33.5625 39.5625 34 39 34 C 38.4375 34 38 33.5625 38 33 C 38 32.4375 38.4375 32 39 32 Z " fill="#000000"/></g></svg>
