<?xml version="1.0" encoding="utf-8"?>
<svg xmlns="http://www.w3.org/2000/svg" viewBox="0 0 50 50" fill="#000000"><path style="line-height:normal;text-indent:0;text-align:start;text-decoration-line:none;text-decoration-style:solid;text-decoration-color:#000;text-transform:none;block-progression:tb;isolation:auto;mix-blend-mode:normal" d="M 24.990234 2 A 1.0001 1.0001 0 0 0 24.619141 2.0761719 L 7.6191406 9.0761719 A 1.0001 1.0001 0 0 0 7.0917969 9.5800781 L 1.0917969 22.580078 A 1.0001 1.0001 0 0 0 2 24 L 4 24 L 4 45 A 1.0001 1.0001 0 0 0 5 46 L 45 46 A 1.0001 1.0001 0 0 0 46 45 L 46 24 L 48 24 A 1.0001 1.0001 0 0 0 48.908203 22.580078 L 42.908203 9.5800781 A 1.0001 1.0001 0 0 0 42.380859 9.0761719 L 25.380859 2.0761719 A 1.0001 1.0001 0 0 0 24.990234 2 z M 25 4.0820312 L 41.255859 10.773438 L 46.435547 22 L 45 22 A 1.0001 1.0001 0 0 0 44 23 L 44 44 L 6 44 L 6 23 A 1.0001 1.0001 0 0 0 5 22 L 3.5644531 22 L 8.7441406 10.775391 L 25 4.0820312 z M 21 11 A 1.0001 1.0001 0 0 0 20 12 L 20 20 A 1.0001 1.0001 0 0 0 21 21 L 29 21 A 1.0001 1.0001 0 0 0 30 20 L 30 12 A 1.0001 1.0001 0 0 0 29 11 L 21 11 z M 22 13 L 28 13 L 28 19 L 22 19 L 22 13 z M 15 26 A 1.0001 1.0001 0 0 0 14 27 L 14 41 A 1.0001 1.0001 0 0 0 15 42 L 35 42 A 1.0001 1.0001 0 0 0 36 41 L 36 27 A 1.0001 1.0001 0 0 0 35 26 L 15 26 z M 18.171875 28 L 31.828125 28 L 25 32.779297 L 18.171875 28 z M 16 28.919922 L 23.257812 34 L 16 39.080078 L 16 28.919922 z M 34 28.919922 L 34 39.080078 L 26.742188 34 L 34 28.919922 z M 25 35.220703 L 31.828125 40 L 18.171875 40 L 25 35.220703 z" font-weight="400" font-family="sans-serif" white-space="normal" overflow="visible" fill="#000000"/></svg>
