<?xml version="1.0" encoding="UTF-8"?>
<svg xmlns="http://www.w3.org/2000/svg" xmlns:xlink="http://www.w3.org/1999/xlink" viewBox="0 0 50 50" version="1.1" fill="#000000"><g id="surface1" fill="#000000"><path style=" " d="M 19.253906 3 C 19.121094 2.996094 18.988281 3.019531 18.863281 3.070313 C 18.777344 3.101563 18.761719 3.109375 18.71875 3.128906 L 13.824219 4.015625 C 13.347656 4.101563 13 4.515625 13 5 L 13 10.59375 C 13 14.769531 11.492188 18.433594 9.289063 20.671875 C 9.101563 20.859375 9 21.113281 9 21.375 L 9 46 C 9 46.550781 9.449219 47 10 47 L 39.984375 47 C 40.539063 47 40.984375 46.550781 40.984375 46 L 40.984375 21.359375 C 40.984375 21.097656 40.882813 20.847656 40.699219 20.660156 C 38.5 18.417969 37 14.761719 37 10.59375 L 37 5 C 37 4.515625 36.652344 4.101563 36.175781 4.015625 L 31.28125 3.128906 C 31.238281 3.109375 31.222656 3.101563 31.136719 3.070313 C 30.785156 2.933594 30.386719 3.003906 30.109375 3.25 C 30.070313 3.285156 29.960938 3.351563 29.90625 3.394531 C 29.460938 3.722656 28.609375 4.25 27.492188 4.640625 C 27.449219 4.652344 27.402344 4.664063 27.359375 4.679688 C 27.152344 4.746094 26.9375 4.8125 26.71875 4.867188 C 26.476563 4.929688 26.226563 4.976563 25.976563 5.015625 C 25.945313 5.019531 25.917969 5.027344 25.886719 5.03125 C 25.59375 5.070313 25.296875 5.09375 25 5.09375 C 24.703125 5.09375 24.40625 5.070313 24.113281 5.03125 C 23.828125 4.992188 23.554688 4.9375 23.28125 4.867188 C 21.816406 4.5 20.640625 3.792969 20.09375 3.394531 C 20.039063 3.351563 19.929688 3.285156 19.890625 3.25 C 19.714844 3.09375 19.492188 3.007813 19.253906 3 Z M 18.050781 5.28125 C 18.027344 5.550781 18 5.816406 18 6.09375 C 18 10.421875 21.054688 14.09375 25 14.09375 C 28.945313 14.09375 32 10.421875 32 6.09375 C 32 5.816406 31.972656 5.550781 31.949219 5.28125 L 35 5.835938 L 35 10.59375 C 35 15.050781 36.535156 19.007813 38.984375 21.699219 L 38.984375 45 L 11 45 L 11 21.710938 C 13.460938 19.019531 15 15.058594 15 10.59375 L 15 5.835938 Z M 20.046875 5.710938 C 20.90625 6.226563 22.035156 6.71875 23.410156 6.953125 C 23.492188 6.964844 23.574219 6.976563 23.65625 6.992188 C 23.8125 7.011719 23.96875 7.035156 24.132813 7.046875 C 24.410156 7.074219 24.699219 7.09375 25 7.09375 C 25.300781 7.09375 25.589844 7.074219 25.867188 7.046875 C 26.03125 7.035156 26.1875 7.011719 26.34375 6.992188 C 26.425781 6.976563 26.507813 6.964844 26.589844 6.953125 C 27.964844 6.71875 29.09375 6.226563 29.953125 5.710938 C 29.964844 5.839844 30 5.960938 30 6.09375 C 30 9.496094 27.683594 12.09375 25 12.09375 C 22.316406 12.09375 20 9.496094 20 6.09375 C 20 5.960938 20.035156 5.839844 20.046875 5.710938 Z M 18 21 L 17 22 L 17 24 L 19 24 L 19 23 L 22 23 L 22 26 L 17 29 L 17 33 L 24 33 L 24 31 L 19 31 L 19 30 L 24 27 L 24 22 L 23 21 Z M 27 21 L 26 22 L 26 24 L 28 24 L 28 23 L 31 23 L 31 26 L 29 26 L 29 28 L 31 28 L 31 31 L 28 31 L 28 30 L 26 30 L 26 32 L 27 33 L 32 33 L 33 32 L 33 28 L 32 27 L 33 26 L 33 22 L 32 21 Z " fill="#000000"/></g></svg>
