<?xml version="1.0" encoding="UTF-8"?>
<svg xmlns="http://www.w3.org/2000/svg" xmlns:xlink="http://www.w3.org/1999/xlink" viewBox="0 0 50 50" version="1.1" fill="#000000"><g id="surface1" fill="#000000"><path style=" " d="M 16.5 1 C 15.136719 1 14.027344 1.359375 13.09375 1.75 C 12.160156 2.140625 11.390625 2.542969 10.46875 2.78125 C 9.113281 3.128906 8.042969 2.886719 5.65625 3.375 C 4.6875 3.574219 3.769531 4.238281 3.40625 5.21875 C 3.042969 6.199219 3 7.367188 3 9.125 C 3 10.664063 3.105469 18.210938 3 20.78125 C 2.890625 23.429688 2.644531 25.589844 1.96875 26.96875 C 0.871094 29.210938 -0.03125 32.371094 -0.03125 35.375 C -0.03125 36.476563 0.0859375 37.285156 0.21875 37.84375 C 0.25 37.976563 0.277344 38.050781 0.3125 38.15625 C 0.148438 38.414063 0.03125 38.738281 0.03125 39.125 C 0.03125 39.136719 0.03125 39.144531 0.03125 39.15625 L 0.3125 46.375 C 0.3125 46.375 0.34375 46.433594 0.34375 46.4375 C 0.34375 46.496094 0.335938 46.832031 0.5625 47.1875 C 0.808594 47.574219 1.375 47.90625 1.96875 47.90625 C 2.308594 47.90625 4.09375 47.96875 4.09375 47.96875 C 4.15625 47.976563 4.21875 47.976563 4.28125 47.96875 C 4.28125 47.96875 4.476563 47.945313 4.71875 47.84375 C 4.839844 47.792969 4.984375 47.703125 5.15625 47.53125 C 5.3125 47.375 5.445313 47.09375 5.46875 46.78125 C 5.46875 46.898438 5.433594 46.886719 5.5 47.09375 C 5.574219 47.332031 5.785156 47.613281 6.0625 47.78125 C 6.339844 47.949219 6.625 48 6.875 48 L 11.375 48 C 11.449219 47.996094 11.523438 47.988281 11.59375 47.96875 C 11.59375 47.96875 11.824219 47.929688 12.09375 47.78125 C 12.363281 47.632813 12.84375 47.21875 12.84375 46.5625 L 12.84375 44.40625 C 13.085938 44.433594 13.339844 44.4375 13.65625 44.46875 C 14.507813 44.550781 15.589844 44.660156 16.65625 44.75 C 18.566406 44.914063 20.039063 45.035156 20.40625 45.0625 C 20.394531 45.359375 20.375 45.6875 20.375 45.6875 C 20.363281 45.835938 20.382813 45.984375 20.4375 46.125 C 20.4375 46.125 20.53125 46.394531 20.71875 46.59375 C 20.90625 46.792969 21.242188 46.976563 21.625 47.0625 C 22.011719 47.148438 22.554688 47.214844 23.09375 47.28125 C 23.632813 47.347656 24.09375 47.40625 24.09375 47.40625 C 24.15625 47.414063 24.21875 47.414063 24.28125 47.40625 C 24.28125 47.40625 24.492188 47.410156 24.75 47.34375 C 24.878906 47.308594 25.046875 47.25 25.25 47.125 C 25.453125 47 25.8125 46.671875 25.8125 46.15625 C 25.8125 46.207031 25.835938 46.070313 25.84375 46.03125 C 25.9375 46.03125 25.984375 46.035156 26.0625 46.03125 C 26.066406 46.058594 26.058594 46.09375 26.0625 46.125 C 26.105469 46.367188 26.125 46.5625 26.125 46.5625 L 26.1875 46.5625 C 26.195313 46.6875 26.171875 46.839844 26.34375 47.125 C 26.570313 47.507813 27.175781 47.882813 27.75 47.84375 C 27.597656 47.855469 27.890625 47.835938 28.125 47.84375 C 28.359375 47.851563 28.675781 47.859375 28.96875 47.875 C 29.550781 47.902344 30.09375 47.9375 30.09375 47.9375 C 30.144531 47.941406 30.199219 47.941406 30.25 47.9375 C 30.25 47.9375 30.589844 47.890625 30.875 47.6875 C 31.152344 47.488281 31.390625 47.050781 31.4375 46.625 L 31.46875 46.625 C 31.46875 46.617188 31.46875 46.601563 31.46875 46.59375 C 31.480469 46.410156 31.472656 46.355469 31.46875 46.1875 C 31.789063 46.183594 32.042969 46.191406 32.4375 46.1875 C 32.769531 46.183594 33.09375 46.1875 33.34375 46.1875 C 33.421875 46.1875 33.398438 46.183594 33.46875 46.1875 L 33.5 46.78125 C 33.523438 46.992188 33.609375 47.1875 33.75 47.34375 C 33.75 47.34375 33.972656 47.769531 34.65625 47.9375 C 34.960938 48.015625 34.957031 47.96875 35.0625 47.96875 C 35.167969 47.96875 35.28125 47.976563 35.40625 47.96875 C 35.65625 47.953125 35.964844 47.933594 36.25 47.90625 C 36.824219 47.855469 37.34375 47.78125 37.34375 47.78125 C 37.664063 47.757813 37.953125 47.585938 38.125 47.3125 C 38.125 47.3125 38.21875 47.132813 38.3125 46.9375 C 38.359375 46.839844 38.390625 46.730469 38.4375 46.59375 C 38.460938 46.523438 38.511719 46.464844 38.53125 46.34375 C 38.535156 46.328125 38.496094 46.269531 38.5 46.25 C 38.519531 46.148438 38.523438 45.972656 38.4375 45.75 C 38.523438 45.964844 38.535156 46.097656 38.53125 46.15625 C 38.527344 46.1875 38.535156 46.203125 38.53125 46.21875 C 38.558594 46.136719 38.597656 46.011719 38.65625 45.875 C 38.703125 45.769531 38.710938 45.746094 38.75 45.65625 C 39.125 45.574219 39.484375 45.507813 39.78125 45.4375 C 39.816406 45.488281 39.839844 45.539063 39.875 45.59375 C 39.984375 45.761719 40.050781 45.839844 40.09375 45.90625 C 40.109375 45.96875 40.09375 45.957031 40.125 46.03125 C 40.195313 46.1875 40.324219 46.40625 40.59375 46.5625 C 40.863281 46.71875 41.226563 46.714844 41.46875 46.65625 C 41.414063 46.671875 41.605469 46.628906 41.8125 46.59375 C 42.019531 46.558594 42.277344 46.511719 42.53125 46.46875 C 43.035156 46.382813 43.53125 46.3125 43.53125 46.3125 C 43.78125 46.269531 44.003906 46.136719 44.15625 45.9375 L 44.46875 45.5 C 44.574219 45.351563 44.640625 45.179688 44.65625 45 L 44.78125 44 C 44.902344 43.953125 45.03125 43.894531 45.15625 43.84375 C 45.308594 43.785156 45.320313 43.765625 45.4375 43.71875 L 45.71875 44.1875 C 45.816406 44.347656 45.957031 44.476563 46.125 44.5625 C 46.125 44.5625 46.265625 44.640625 46.4375 44.6875 C 46.609375 44.734375 46.851563 44.789063 47.25 44.65625 C 47.5 44.574219 47.53125 44.554688 47.71875 44.46875 C 47.90625 44.382813 48.117188 44.292969 48.34375 44.1875 C 48.792969 43.980469 49.21875 43.78125 49.21875 43.78125 C 49.441406 43.679688 49.617188 43.503906 49.71875 43.28125 C 49.71875 43.28125 49.777344 43.132813 49.84375 42.9375 C 49.875 42.839844 49.910156 42.703125 49.9375 42.5625 C 49.964844 42.421875 50.03125 42.277344 49.90625 41.90625 C 49.902344 41.894531 49.910156 41.886719 49.90625 41.875 C 49.890625 41.808594 49.863281 41.707031 49.84375 41.59375 C 49.800781 41.363281 49.769531 41.054688 49.71875 40.75 C 49.667969 40.445313 49.597656 40.128906 49.5625 39.875 C 49.527344 39.621094 49.5 39.394531 49.5 39.4375 C 49.496094 39.015625 49.269531 38.667969 49.03125 38.4375 C 49.007813 37.484375 48.820313 35.605469 47.75 34.125 C 46.386719 32.242188 44.070313 31.269531 42 31.34375 C 40.351563 31.402344 39.339844 31.867188 38.75 32.125 C 38.160156 32.382813 38.121094 32.457031 37.25 32.1875 C 36.246094 31.878906 35.523438 31.554688 35.1875 31.40625 C 35.070313 30.253906 34.597656 29.242188 33.75 28.65625 C 32.683594 27.917969 31.339844 27.601563 29.9375 27.34375 C 28.019531 26.992188 26.964844 26.90625 25.1875 25.71875 C 24.371094 25.175781 23.894531 24.59375 23.46875 23.59375 C 23.042969 22.59375 22.710938 21.148438 22.34375 19.15625 C 22.144531 18.066406 22.027344 15.1875 22 12.25 C 21.972656 9.3125 22 6.238281 22 4.46875 C 22 3.242188 21.117188 2.3125 20.09375 1.78125 C 19.070313 1.25 17.828125 1 16.5 1 Z M 16.5 3 C 17.558594 3 18.554688 3.234375 19.1875 3.5625 C 19.820313 3.890625 20 4.171875 20 4.46875 C 20 6.214844 19.972656 9.316406 20 12.28125 C 20.027344 15.246094 20.097656 18.019531 20.375 19.53125 C 20.75 21.5625 21.082031 23.105469 21.625 24.375 C 22.167969 25.644531 22.949219 26.632813 24.0625 27.375 C 26.140625 28.761719 27.746094 28.976563 29.59375 29.3125 C 30.898438 29.550781 32.015625 29.859375 32.625 30.28125 C 33.21875 30.691406 33.445313 31.054688 33.34375 31.96875 C 33.339844 31.996094 33.347656 32.003906 33.34375 32.03125 C 33.332031 32.0625 33.320313 32.09375 33.3125 32.125 C 33.222656 32.660156 32.738281 33.664063 32.125 34.6875 C 31.492188 35.746094 30.777344 36.804688 30.28125 37.6875 C 30.054688 37.996094 30.023438 38.40625 30.199219 38.746094 C 30.378906 39.085938 30.734375 39.292969 31.117188 39.28125 C 31.503906 39.269531 31.84375 39.039063 32 38.6875 C 32.417969 37.945313 33.167969 36.847656 33.84375 35.71875 C 34.296875 34.960938 34.53125 34.175781 34.8125 33.40625 C 35.316406 33.621094 35.722656 33.835938 36.65625 34.125 C 37.902344 34.507813 38.894531 34.230469 39.5625 33.9375 C 40.230469 33.644531 40.71875 33.390625 42.0625 33.34375 C 43.375 33.296875 45.246094 34.066406 46.125 35.28125 C 46.777344 36.183594 46.921875 37.648438 46.96875 38.375 C 46.285156 38.722656 42.863281 40.410156 36.125 41.0625 C 29.347656 41.71875 24.386719 41.757813 15.78125 39.15625 C 14.242188 38.691406 12.488281 38.503906 10.875 38.40625 C 9.261719 38.308594 7.765625 38.273438 6.96875 38.15625 C 3.234375 37.597656 2.429688 37.449219 2.1875 37.40625 C 2.183594 37.382813 2.195313 37.398438 2.1875 37.375 C 2.09375 36.976563 1.96875 36.328125 1.96875 35.375 C 1.96875 32.789063 2.820313 29.835938 3.78125 27.875 C 4.046875 27.332031 4.246094 26.742188 4.40625 26.125 C 6.285156 27.085938 11.898438 30.273438 14.125 35.53125 C 14.339844 36.039063 14.929688 36.277344 15.4375 36.0625 C 15.945313 35.847656 16.183594 35.257813 15.96875 34.75 C 13.101563 27.976563 5.859375 24.558594 4.75 24.0625 C 4.871094 23.046875 4.953125 21.976563 5 20.84375 C 5.113281 18.0625 5 10.5625 5 9.125 C 5 7.425781 5.109375 6.367188 5.28125 5.90625 C 5.453125 5.445313 5.46875 5.433594 6.0625 5.3125 C 8.179688 4.878906 9.199219 5.175781 10.96875 4.71875 C 12.140625 4.417969 13.039063 3.941406 13.875 3.59375 C 14.710938 3.246094 15.476563 3 16.5 3 Z M 17.71875 5.65625 C 17.054688 5.65625 16.5 6.210938 16.5 6.875 C 16.5 7.539063 17.054688 8.0625 17.71875 8.0625 C 18.382813 8.0625 18.90625 7.539063 18.90625 6.875 C 18.90625 6.210938 18.382813 5.65625 17.71875 5.65625 Z M 17.625 10.9375 C 16.960938 10.9375 16.4375 11.492188 16.4375 12.15625 C 16.4375 12.820313 16.960938 13.34375 17.625 13.34375 C 18.289063 13.34375 18.84375 12.820313 18.84375 12.15625 C 18.84375 11.492188 18.289063 10.9375 17.625 10.9375 Z M 17.78125 15.90625 C 17.117188 15.90625 16.59375 16.460938 16.59375 17.125 C 16.59375 17.789063 17.117188 18.3125 17.78125 18.3125 C 18.445313 18.3125 19 17.789063 19 17.125 C 19 16.460938 18.445313 15.90625 17.78125 15.90625 Z M 18.5 21.40625 C 17.835938 21.40625 17.3125 21.929688 17.3125 22.59375 C 17.3125 23.257813 17.835938 23.8125 18.5 23.8125 C 19.164063 23.8125 19.71875 23.257813 19.71875 22.59375 C 19.71875 21.929688 19.164063 21.40625 18.5 21.40625 Z M 20.90625 25.75 C 20.242188 25.75 19.71875 26.304688 19.71875 26.96875 C 19.71875 27.632813 20.242188 28.15625 20.90625 28.15625 C 21.570313 28.15625 22.125 27.632813 22.125 26.96875 C 22.125 26.304688 21.570313 25.75 20.90625 25.75 Z M 24.6875 28.46875 C 24.023438 28.46875 23.46875 29.023438 23.46875 29.6875 C 23.46875 30.351563 24.023438 30.875 24.6875 30.875 C 25.351563 30.875 25.875 30.351563 25.875 29.6875 C 25.875 29.023438 25.351563 28.46875 24.6875 28.46875 Z M 29.40625 30 C 28.742188 30 28.1875 30.523438 28.1875 31.1875 C 28.1875 31.851563 28.742188 32.40625 29.40625 32.40625 C 30.070313 32.40625 30.59375 31.851563 30.59375 31.1875 C 30.59375 30.523438 30.070313 30 29.40625 30 Z M 2.03125 39.40625 C 2.71875 39.527344 3.914063 39.742188 6.6875 40.15625 C 7.753906 40.316406 9.1875 40.3125 10.75 40.40625 C 12.3125 40.5 13.972656 40.683594 15.21875 41.0625 C 24.039063 43.726563 29.445313 43.695313 36.3125 43.03125 C 42.082031 42.472656 45.988281 41.023438 47.625 40.3125 C 47.65625 40.558594 47.671875 40.820313 47.71875 41.09375 C 47.773438 41.410156 47.828125 41.722656 47.875 41.96875 C 47.890625 42.054688 47.894531 42.121094 47.90625 42.1875 C 47.75 42.261719 47.707031 42.28125 47.5 42.375 C 47.347656 42.445313 47.203125 42.5 47.0625 42.5625 L 46.8125 42.1875 C 46.648438 41.921875 46.371094 41.75 46.0625 41.71875 L 45.53125 41.65625 C 45.371094 41.640625 45.210938 41.660156 45.0625 41.71875 C 45.0625 41.71875 44.734375 41.871094 44.40625 42 C 44.242188 42.0625 44.089844 42.113281 43.96875 42.15625 C 43.90625 42.175781 43.832031 42.210938 43.8125 42.21875 C 43.574219 42.269531 43.363281 42.394531 43.25 42.5 C 43.105469 42.636719 43.046875 42.75 43 42.84375 C 42.90625 43.03125 42.871094 43.132813 42.84375 43.25 C 42.792969 43.480469 42.78125 43.6875 42.78125 43.6875 L 42.71875 44.40625 C 42.53125 44.4375 42.460938 44.453125 42.1875 44.5 C 41.988281 44.535156 41.808594 44.5625 41.625 44.59375 C 41.597656 44.546875 41.59375 44.546875 41.5625 44.5 C 41.488281 44.382813 41.417969 44.265625 41.34375 44.15625 C 41.269531 44.046875 41.265625 44.015625 41.0625 43.8125 C 40.71875 43.46875 40.527344 43.480469 40.375 43.4375 C 40.222656 43.394531 40.125 43.375 40.125 43.375 C 39.992188 43.347656 39.851563 43.347656 39.71875 43.375 C 39.71875 43.375 38.261719 43.722656 38.125 43.75 C 37.878906 43.800781 37.648438 43.902344 37.46875 44.03125 C 37.378906 44.09375 37.3125 44.144531 37.25 44.21875 C 37.1875 44.292969 37.125 44.4375 37.125 44.4375 C 37.113281 44.449219 37.105469 44.457031 37.09375 44.46875 C 37.09375 44.46875 36.949219 44.746094 36.8125 45.0625 C 36.746094 45.21875 36.679688 45.402344 36.625 45.5625 C 36.597656 45.640625 36.585938 45.707031 36.5625 45.8125 C 36.558594 45.828125 36.566406 45.859375 36.5625 45.875 C 36.367188 45.894531 36.3125 45.882813 36.0625 45.90625 C 35.839844 45.925781 35.628906 45.957031 35.4375 45.96875 L 35.40625 45.375 C 35.378906 45.121094 35.257813 44.886719 35.0625 44.71875 C 35.0625 44.71875 34.757813 44.273438 34 44.1875 C 33.753906 44.160156 33.609375 44.1875 33.34375 44.1875 C 33.078125 44.1875 32.773438 44.183594 32.4375 44.1875 C 31.769531 44.195313 31.050781 44.1875 30.8125 44.1875 C 30.460938 44.1875 30.148438 44.359375 29.96875 44.53125 C 29.789063 44.703125 29.683594 44.867188 29.625 45 C 29.503906 45.261719 29.46875 45.5 29.46875 45.5 C 29.460938 45.5625 29.460938 45.625 29.46875 45.6875 C 29.46875 45.6875 29.46875 45.832031 29.46875 45.90625 C 29.289063 45.898438 29.277344 45.886719 29.0625 45.875 C 28.765625 45.859375 28.464844 45.851563 28.21875 45.84375 C 28.140625 45.839844 28.085938 45.847656 28.03125 45.84375 C 28.027344 45.8125 28.035156 45.8125 28.03125 45.78125 C 27.992188 45.566406 27.96875 45.230469 27.96875 45.375 C 27.96875 44.992188 27.75 44.691406 27.59375 44.53125 C 27.4375 44.371094 27.300781 44.277344 27.1875 44.21875 C 26.960938 44.105469 26.78125 44.0625 26.78125 44.0625 C 26.65625 44.039063 26.53125 44.039063 26.40625 44.0625 C 26.40625 44.0625 25.949219 44.101563 25.5625 44.0625 C 25.144531 44.019531 24.675781 44.058594 24.3125 44.40625 C 24.070313 44.640625 24.117188 44.851563 24.09375 45.0625 L 24 45.03125 C 24 45.03125 23.941406 45.199219 23.90625 45.375 C 23.722656 45.355469 23.648438 45.351563 23.34375 45.3125 C 22.945313 45.261719 22.601563 45.199219 22.34375 45.15625 C 22.359375 44.875 22.402344 44.730469 22.375 44.40625 C 22.328125 43.855469 21.871094 43.367188 21.53125 43.21875 C 21.246094 43.09375 21.074219 43.125 21 43.125 C 21 43.125 21 43.09375 21 43.09375 C 21 43.09375 20.910156 43.09375 20.90625 43.09375 C 20.816406 43.085938 18.886719 42.925781 16.8125 42.75 C 15.75 42.660156 14.679688 42.582031 13.84375 42.5 C 13.425781 42.457031 13.070313 42.40625 12.8125 42.375 C 12.683594 42.359375 12.570313 42.355469 12.5 42.34375 C 12.222656 42.25 11.792969 42.199219 11.40625 42.4375 C 11.019531 42.675781 10.878906 43.058594 10.84375 43.28125 C 10.796875 43.566406 10.847656 43.609375 10.875 43.71875 L 10.84375 43.71875 L 10.84375 46 C 10.210938 46 8.402344 46 7.4375 46 C 7.425781 45.515625 7.40625 44.84375 7.40625 44.84375 C 7.410156 44.800781 7.410156 44.761719 7.40625 44.71875 C 7.40625 44.71875 7.300781 44.285156 7 43.9375 C 6.699219 43.589844 6.15625 43.292969 5.5 43.25 C 4.828125 43.207031 4.199219 43.398438 3.84375 43.8125 C 3.511719 44.199219 3.53125 44.652344 3.53125 44.71875 L 3.5 44.71875 L 3.5 44.78125 C 3.5 44.84375 3.5 45.40625 3.5 45.9375 C 3.085938 45.921875 2.722656 45.914063 2.28125 45.90625 Z " fill="#000000"/></g></svg>
