<?xml version="1.0" encoding="UTF-8"?>
<svg xmlns="http://www.w3.org/2000/svg" xmlns:xlink="http://www.w3.org/1999/xlink" viewBox="0 0 50 50" version="1.1" fill="#000000"><g id="surface1" fill="#000000"><path style=" " d="M 16.90625 13.96875 C 16.875 13.976563 16.84375 13.988281 16.8125 14 L 3 14 C 2.96875 14 2.9375 14 2.90625 14 C 2.390625 14.046875 1.996094 14.480469 2 15 L 2 35 C 2 35.03125 2 35.0625 2 35.09375 C 2.046875 35.609375 2.480469 36.003906 3 36 L 5.8125 36 L 5 40.84375 C 4.953125 41.136719 5.039063 41.429688 5.230469 41.652344 C 5.425781 41.878906 5.707031 42.003906 6 42 L 8 42 C 8.386719 42.003906 8.738281 41.785156 8.90625 41.4375 L 11.625 36 L 38.375 36 L 41.09375 41.4375 C 41.261719 41.785156 41.613281 42.003906 42 42 L 44 42 C 44.292969 42.003906 44.574219 41.878906 44.769531 41.652344 C 44.960938 41.429688 45.046875 41.136719 45 40.84375 L 44.1875 36 L 47 36 C 47.550781 36 48 35.550781 48 35 L 48 15 C 48 14.449219 47.550781 14 47 14 L 33.21875 14 C 33.117188 13.972656 33.011719 13.960938 32.90625 13.96875 C 32.875 13.976563 32.84375 13.988281 32.8125 14 L 17.21875 14 C 17.117188 13.972656 17.011719 13.960938 16.90625 13.96875 Z M 4 16 L 16 16 L 16 20.53125 C 15.867188 20.808594 15.867188 21.128906 16 21.40625 L 16 27.53125 C 15.867188 27.808594 15.867188 28.128906 16 28.40625 L 16 34 L 4 34 Z M 18 16 L 32 16 L 32 20 L 18 20 Z M 34 16 L 46 16 L 46 34 L 34 34 L 34 28.1875 C 34.027344 28.054688 34.027344 27.914063 34 27.78125 L 34 21.1875 C 34.027344 21.054688 34.027344 20.914063 34 20.78125 Z M 18 22 L 32 22 L 32 27 L 18 27 Z M 13 24 C 12.449219 24 12 24.449219 12 25 C 12 25.550781 12.449219 26 13 26 C 13.550781 26 14 25.550781 14 25 C 14 24.449219 13.550781 24 13 24 Z M 37 24 C 36.449219 24 36 24.449219 36 25 C 36 25.550781 36.449219 26 37 26 C 37.550781 26 38 25.550781 38 25 C 38 24.449219 37.550781 24 37 24 Z M 18 29 L 32 29 L 32 34 L 18 34 Z M 7.875 36 L 9.375 36 L 7.375 40 L 7.1875 40 Z M 40.625 36 L 42.125 36 L 42.8125 40 L 42.625 40 Z " fill="#000000"/></g></svg>
