<?xml version="1.0" encoding="UTF-8"?>
<svg xmlns="http://www.w3.org/2000/svg" xmlns:xlink="http://www.w3.org/1999/xlink" viewBox="0 0 50 50" version="1.1" fill="#000000"><g id="surface1" fill="#000000"><path style=" " d="M 5 4 C 3.355469 4 2 5.355469 2 7 L 2 20.6875 C 1.941406 20.882813 1.941406 21.085938 2 21.28125 L 2 35.71875 C 2 35.75 2 35.78125 2 35.8125 L 2 39.8125 C 1.992188 39.875 1.992188 39.9375 2 40 L 2 44 C 2 44.03125 2 44.0625 2 44.09375 L 2 46 C 1.996094 46.359375 2.183594 46.695313 2.496094 46.878906 C 2.808594 47.058594 3.191406 47.058594 3.503906 46.878906 C 3.816406 46.695313 4.003906 46.359375 4 46 L 4 45 L 46 45 L 46 46 C 45.996094 46.359375 46.183594 46.695313 46.496094 46.878906 C 46.808594 47.058594 47.191406 47.058594 47.503906 46.878906 C 47.816406 46.695313 48.003906 46.359375 48 46 L 48 44.15625 C 48.003906 44.105469 48.003906 44.050781 48 44 L 48 39.90625 C 48 39.875 48 39.84375 48 39.8125 L 48 14.15625 C 48.003906 14.105469 48.003906 14.050781 48 14 C 48 13.96875 48 13.9375 48 13.90625 L 48 9.71875 C 48.597656 9.371094 49 8.738281 49 8 C 49 6.894531 48.105469 6 47 6 C 45.894531 6 45 6.894531 45 8 C 45 8.738281 45.402344 9.371094 46 9.71875 L 46 13 L 40 13 L 40 9.71875 C 40.597656 9.371094 41 8.738281 41 8 C 41 6.894531 40.105469 6 39 6 C 37.894531 6 37 6.894531 37 8 C 37 8.738281 37.402344 9.371094 38 9.71875 L 38 13 L 21 13 C 20.992188 12.957031 20.980469 12.914063 20.96875 12.875 C 20.96875 12.875 19.632813 7.839844 15.5 5.84375 C 14.464844 5.34375 13.402344 5.085938 12.375 5 C 11.988281 4.96875 11.617188 4.960938 11.25 4.96875 C 9.730469 5.003906 8.464844 5.328125 7.625 5.59375 C 7.117188 4.652344 6.136719 4 5 4 Z M 5 6 C 5.554688 6 5.984375 6.417969 6 6.96875 C 6 6.980469 6 6.988281 6 7 L 6 14 C 6 14.550781 6.449219 15 7 15 L 14.625 15 C 15.136719 15.042969 15.644531 15.023438 16.125 15 L 38 15 L 38 20 L 4 20 L 4 7 C 4 6.433594 4.433594 6 5 6 Z M 10.96875 7.03125 C 11.347656 7.011719 11.769531 7 12.21875 7.03125 C 13.042969 7.085938 13.863281 7.289063 14.625 7.65625 C 17.050781 8.828125 18.140625 11.308594 18.59375 12.46875 C 17.847656 12.699219 16.550781 13.054688 15.09375 13 C 14.21875 12.96875 13.28125 12.78125 12.375 12.34375 C 9.949219 11.171875 8.859375 8.691406 8.40625 7.53125 C 9.019531 7.339844 9.835938 7.09375 10.96875 7.03125 Z M 8 11.125 C 8.476563 11.78125 9.0625 12.421875 9.75 13 L 8 13 Z M 40 15 L 46 15 L 46 18 L 41 18 L 41 20 L 46 20 L 46 23 L 41 23 L 41 25 L 46 25 L 46 28 L 41 28 L 41 30 L 46 30 L 46 33 L 41 33 L 41 35 L 46 35 L 46 38 L 41 38 L 41 40 L 46 40 L 46 43 L 40 43 L 40 37.1875 C 40.027344 37.054688 40.027344 36.914063 40 36.78125 L 40 21.1875 C 40.027344 21.054688 40.027344 20.914063 40 20.78125 Z M 4 22 L 38 22 L 38 36 L 21 36 C 20.992188 35.957031 20.980469 35.914063 20.96875 35.875 C 20.96875 35.875 19.632813 30.839844 15.5 28.84375 C 14.464844 28.34375 13.402344 28.085938 12.375 28 C 11.988281 27.96875 11.617188 27.960938 11.25 27.96875 C 9.320313 28.011719 7.699219 28.523438 7 28.78125 C 6.46875 28.300781 5.765625 28 5 28 C 4.648438 28 4.316406 28.074219 4 28.1875 Z M 5 30 C 5.566406 30 6 30.433594 6 31 L 6 37 C 6 37.550781 6.449219 38 7 38 L 14.625 38 C 15.136719 38.042969 15.644531 38.023438 16.125 38 L 38 38 L 38 43 L 4 43 L 4 40 C 4.007813 39.9375 4.007813 39.875 4 39.8125 L 4 35.875 C 4.003906 35.824219 4.003906 35.769531 4 35.71875 L 4 31 C 4 30.433594 4.433594 30 5 30 Z M 10.96875 30.03125 C 11.347656 30.011719 11.769531 30 12.21875 30.03125 C 13.042969 30.085938 13.863281 30.289063 14.625 30.65625 C 17.050781 31.828125 18.140625 34.308594 18.59375 35.46875 C 17.398438 35.839844 14.792969 36.511719 12.375 35.34375 C 9.949219 34.171875 8.859375 31.691406 8.40625 30.53125 C 9.019531 30.339844 9.835938 30.09375 10.96875 30.03125 Z M 8 34.125 C 8.476563 34.78125 9.0625 35.421875 9.75 36 L 8 36 Z " fill="#000000"/></g></svg>
