<?xml version="1.0" encoding="UTF-8"?>
<svg xmlns="http://www.w3.org/2000/svg" xmlns:xlink="http://www.w3.org/1999/xlink" viewBox="0 0 50 50" version="1.1" fill="#000000"><g id="surface1" fill="#000000"><path style=" " d="M 16 0 C 12.453125 0 10.039063 2.113281 7.875 3.90625 C 5.710938 5.699219 3.839844 7.167969 1.09375 6.90625 C 0.761719 6.871094 0.433594 7.003906 0.21875 7.261719 C 0.0078125 7.519531 -0.0664063 7.867188 0.03125 8.1875 C 0.179688 8.710938 0.574219 9.605469 1.5 10.4375 C 2.347656 11.203125 3.726563 11.785156 5.5 11.84375 C 5.621094 11.949219 5.6875 12.144531 5.8125 12.21875 C 6.160156 12.421875 6.546875 12.5625 6.9375 12.65625 C 7.539063 12.796875 8.183594 12.734375 8.8125 12.65625 C 8.921875 12.71875 9.03125 12.820313 9.15625 12.875 C 9.429688 12.992188 9.742188 13.109375 10.09375 13.1875 C 10.652344 13.308594 11.324219 13.203125 12 13.03125 C 12.429688 13.230469 12.851563 13.449219 13.28125 13.4375 C 13.546875 13.429688 13.777344 13.28125 14.03125 13.21875 C 14.265625 13.652344 14.429688 14.0625 14.84375 14.59375 C 15.328125 15.21875 15.898438 15.898438 16.71875 16.21875 C 16.976563 17.398438 17.652344 18.367188 18.5 19.0625 C 19.03125 19.5 19.632813 19.84375 20.25 20.15625 C 19.371094 20.980469 18.40625 22.277344 18.40625 24.09375 C 18.40625 25.792969 18.988281 27.183594 19.84375 28.25 C 20.175781 28.664063 20.554688 29.007813 20.9375 29.34375 C 20.066406 30.179688 19 31.582031 19 33.40625 C 19 35.175781 19.722656 36.507813 20.65625 37.375 C 20.746094 37.457031 20.847656 37.519531 20.9375 37.59375 C 20.488281 38.25 20 39.265625 20 40.59375 C 20 41.917969 20.820313 42.933594 21.71875 43.625 C 21.84375 43.71875 21.964844 43.816406 22.09375 43.90625 C 21.628906 44.53125 21.339844 45.125 21.21875 45.71875 C 21.054688 46.527344 21.234375 47.292969 21.53125 47.84375 C 22.128906 48.945313 23.15625 49.40625 23.15625 49.40625 C 23.425781 49.53125 23.730469 49.53125 24 49.40625 L 24 50 L 26 50 L 26 49.46875 C 26.4375 49.683594 26.964844 49.550781 27.25 49.15625 C 27.746094 48.574219 28.089844 47.996094 28.21875 47.375 C 28.332031 46.839844 28.234375 46.304688 28.03125 45.84375 C 28.242188 45.535156 28.53125 45.117188 28.8125 44.625 C 29.378906 43.640625 30 42.382813 30 41 C 30 39.734375 29.667969 38.695313 29.1875 37.84375 C 30.121094 37.121094 31.5 35.679688 31.5 33.40625 C 31.5 32.058594 30.839844 30.917969 30 30 C 29.746094 29.722656 29.472656 29.46875 29.1875 29.21875 C 30.328125 28.191406 32 26.207031 32 23.40625 C 32 22.054688 31.441406 20.882813 30.625 19.96875 C 31.066406 19.710938 31.519531 19.410156 31.9375 19 C 32.609375 18.34375 33.125 17.382813 33.3125 16.15625 C 34.066406 15.816406 34.601563 15.1875 35.0625 14.59375 C 35.46875 14.070313 35.640625 13.679688 35.875 13.25 C 36.121094 13.308594 36.335938 13.429688 36.59375 13.4375 C 37.027344 13.449219 37.472656 13.234375 37.90625 13.03125 C 38.570313 13.191406 39.257813 13.308594 39.8125 13.1875 C 40.164063 13.109375 40.476563 12.992188 40.75 12.875 C 40.867188 12.824219 40.960938 12.710938 41.0625 12.65625 C 41.71875 12.769531 42.410156 12.863281 43.03125 12.71875 C 43.609375 12.582031 44.136719 12.300781 44.5625 11.84375 C 46.300781 11.773438 47.660156 11.191406 48.5 10.4375 C 49.425781 9.605469 49.820313 8.710938 49.96875 8.1875 C 50.066406 7.867188 49.992188 7.519531 49.78125 7.261719 C 49.566406 7.003906 49.238281 6.871094 48.90625 6.90625 C 46.160156 7.167969 44.289063 5.699219 42.125 3.90625 C 39.960938 2.113281 37.546875 0 34 0 C 32.796875 0 31.804688 0.628906 31.125 1.40625 C 30.445313 2.183594 30 3.109375 30 4.09375 C 30 5.210938 30.191406 6.019531 30.40625 6.5625 C 30.414063 6.578125 30.429688 6.578125 30.4375 6.59375 C 30.371094 6.621094 30.390625 6.632813 30.3125 6.65625 C 29.925781 6.773438 29.398438 6.855469 28.90625 6.90625 C 28.496094 6.949219 28.132813 6.988281 27.8125 7 L 27.8125 6.8125 C 28.539063 6.085938 29 5.097656 29 4 C 29 1.800781 27.199219 0 25 0 C 22.800781 0 21 1.800781 21 4 C 21 5.097656 21.460938 6.085938 22.1875 6.8125 L 22.1875 7 C 21.867188 6.988281 21.503906 6.949219 21.09375 6.90625 C 20.601563 6.855469 20.074219 6.773438 19.6875 6.65625 C 19.609375 6.632813 19.628906 6.621094 19.5625 6.59375 C 19.570313 6.578125 19.585938 6.578125 19.59375 6.5625 C 19.808594 6.019531 20 5.210938 20 4.09375 C 20 3.109375 19.554688 2.183594 18.875 1.40625 C 18.195313 0.628906 17.203125 0 16 0 Z M 16 2 C 16.496094 2 16.980469 2.269531 17.375 2.71875 C 17.769531 3.167969 18 3.777344 18 4.09375 C 18 4.976563 17.851563 5.480469 17.71875 5.8125 C 17.652344 5.980469 17.605469 6.105469 17.53125 6.25 C 17.457031 6.394531 17.3125 6.535156 17.3125 7 C 17.3125 7.226563 17.390625 7.449219 17.53125 7.625 C 17.980469 8.171875 18.546875 8.390625 19.125 8.5625 C 19.703125 8.734375 20.304688 8.847656 20.875 8.90625 C 21.398438 8.960938 21.867188 8.988281 22.25 9 L 22.3125 11.34375 C 21.898438 11.199219 21.4375 11.09375 20.90625 11.09375 C 19.214844 11.09375 17.46875 12.136719 16.84375 13.84375 C 16.707031 13.710938 16.570313 13.546875 16.4375 13.375 C 15.945313 12.738281 15.503906 11.945313 15.40625 11.71875 C 15.296875 11.453125 15.082031 11.25 14.816406 11.152344 C 14.546875 11.058594 14.25 11.082031 14 11.21875 C 13.816406 11.324219 13.484375 11.429688 13.21875 11.4375 C 12.953125 11.445313 12.792969 11.378906 12.75 11.34375 C 12.457031 11.089844 12.042969 11.027344 11.6875 11.1875 C 11.441406 11.300781 10.941406 11.316406 10.5 11.21875 C 10.277344 11.171875 10.082031 11.09375 9.9375 11.03125 C 9.863281 11 9.808594 10.953125 9.78125 10.9375 C 9.519531 10.71875 9.167969 10.648438 8.84375 10.75 C 8.542969 10.832031 7.898438 10.804688 7.40625 10.6875 C 7.160156 10.628906 6.945313 10.558594 6.84375 10.5 C 6.675781 10.121094 6.289063 9.882813 5.875 9.90625 C 4.300781 9.949219 3.417969 9.484375 2.84375 8.96875 C 2.761719 8.894531 2.789063 8.855469 2.71875 8.78125 C 5.324219 8.429688 7.339844 6.914063 9.125 5.4375 C 11.308594 3.628906 13.246094 2 16 2 Z M 25 2 C 26.117188 2 27 2.882813 27 4 C 27 4.632813 26.699219 5.167969 26.25 5.53125 C 26.179688 5.574219 26.117188 5.628906 26.0625 5.6875 C 25.753906 5.878906 25.394531 6 25 6 C 24.582031 6 24.195313 5.871094 23.875 5.65625 C 23.828125 5.609375 23.773438 5.566406 23.71875 5.53125 C 23.28125 5.167969 23 4.625 23 4 C 23 2.882813 23.882813 2 25 2 Z M 34 2 C 36.753906 2 38.691406 3.628906 40.875 5.4375 C 42.660156 6.914063 44.675781 8.429688 47.28125 8.78125 C 47.210938 8.855469 47.238281 8.894531 47.15625 8.96875 C 46.582031 9.484375 45.699219 9.949219 44.125 9.90625 C 43.695313 9.894531 43.304688 10.15625 43.15625 10.5625 C 43.21875 10.398438 43.03125 10.671875 42.5625 10.78125 C 42.09375 10.890625 41.488281 10.871094 41.125 10.75 C 40.78125 10.625 40.398438 10.699219 40.125 10.9375 C 40.097656 10.953125 40.042969 11 39.96875 11.03125 C 39.824219 11.09375 39.597656 11.171875 39.375 11.21875 C 38.933594 11.316406 38.464844 11.300781 38.21875 11.1875 C 37.863281 11.027344 37.449219 11.089844 37.15625 11.34375 C 37.113281 11.378906 36.921875 11.445313 36.65625 11.4375 C 36.390625 11.429688 36.089844 11.324219 35.90625 11.21875 C 35.652344 11.070313 35.347656 11.039063 35.070313 11.136719 C 34.796875 11.234375 34.574219 11.445313 34.46875 11.71875 C 34.371094 11.945313 33.960938 12.738281 33.46875 13.375 C 33.355469 13.523438 33.246094 13.664063 33.125 13.78125 C 32.480469 12.113281 30.761719 11.09375 29.09375 11.09375 C 28.570313 11.09375 28.097656 11.171875 27.6875 11.3125 L 27.75 9 C 28.132813 8.988281 28.601563 8.960938 29.125 8.90625 C 29.695313 8.847656 30.296875 8.734375 30.875 8.5625 C 31.453125 8.390625 32.019531 8.171875 32.46875 7.625 C 32.609375 7.449219 32.6875 7.226563 32.6875 7 C 32.6875 6.535156 32.542969 6.394531 32.46875 6.25 C 32.394531 6.105469 32.347656 5.980469 32.28125 5.8125 C 32.148438 5.480469 32 4.976563 32 4.09375 C 32 3.777344 32.230469 3.167969 32.625 2.71875 C 33.019531 2.269531 33.503906 2 34 2 Z M 24.21875 7.90625 C 24.46875 7.957031 24.734375 8 25 8 C 25.265625 8 25.53125 7.957031 25.78125 7.90625 L 25.53125 16.90625 C 25.179688 16.765625 24.832031 16.628906 24.5 16.5 Z M 20.90625 13.09375 C 22.253906 13.09375 22.1875 13.660156 22.1875 13.59375 C 22.1875 13.671875 22.238281 13.613281 22.1875 13.65625 C 22.136719 13.699219 21.960938 13.785156 21.71875 13.84375 C 21.234375 13.960938 20.5 13.941406 20.21875 13.90625 C 19.933594 13.871094 19.644531 13.960938 19.429688 14.152344 C 19.214844 14.34375 19.089844 14.617188 19.09375 14.90625 C 19.09375 15.585938 19.488281 16.136719 19.90625 16.5 C 20.324219 16.863281 20.824219 17.117188 21.375 17.375 C 22.476563 17.894531 23.832031 18.351563 25.15625 18.90625 C 25.265625 18.996094 25.394531 19.058594 25.53125 19.09375 C 26.34375 19.445313 27.144531 19.828125 27.8125 20.25 C 27.953125 20.601563 28.28125 20.84375 28.65625 20.875 C 29.523438 21.617188 30 22.367188 30 23.40625 C 30 25.582031 28.4375 27.238281 27.59375 27.96875 C 27.4375 27.855469 27.28125 27.734375 27.125 27.625 C 26.9375 27.496094 26.777344 27.375 26.59375 27.25 C 26.679688 27.175781 26.757813 27.113281 26.84375 27.03125 C 27.617188 26.316406 28.5 25.261719 28.5 23.8125 C 28.5 22.429688 27.53125 21.394531 26.46875 20.75 C 25.40625 20.105469 24.152344 19.679688 22.9375 19.1875 C 21.722656 18.695313 20.554688 18.136719 19.78125 17.5 C 19.050781 16.898438 18.636719 16.289063 18.59375 15.34375 C 18.597656 15.292969 18.597656 15.238281 18.59375 15.1875 C 18.59375 13.882813 19.804688 13.09375 20.90625 13.09375 Z M 29.09375 13.09375 C 30.136719 13.09375 31.261719 13.8125 31.375 15 C 31.261719 15.257813 31.261719 15.554688 31.375 15.8125 C 31.277344 16.667969 30.976563 17.152344 30.5625 17.5625 C 30.175781 17.941406 29.609375 18.253906 29 18.59375 C 28.792969 18.457031 28.5625 18.34375 28.34375 18.21875 C 28.695313 18.007813 29.027344 17.78125 29.3125 17.53125 C 29.757813 17.144531 30.132813 16.730469 30.40625 16.3125 C 30.679688 15.894531 30.90625 15.484375 30.90625 14.90625 C 30.910156 14.617188 30.785156 14.34375 30.570313 14.152344 C 30.355469 13.960938 30.066406 13.871094 29.78125 13.90625 C 29.5 13.941406 28.765625 13.960938 28.28125 13.84375 C 28.039063 13.785156 27.863281 13.699219 27.8125 13.65625 C 27.761719 13.613281 27.8125 13.671875 27.8125 13.59375 C 27.8125 13.660156 27.746094 13.09375 29.09375 13.09375 Z M 27.5625 15.6875 C 27.644531 15.714844 27.730469 15.761719 27.8125 15.78125 C 27.960938 15.816406 28.042969 15.789063 28.1875 15.8125 C 28.117188 15.882813 28.078125 15.929688 28 16 C 27.863281 16.121094 27.6875 16.234375 27.53125 16.34375 Z M 22.3125 21.09375 C 22.601563 21.210938 22.878906 21.292969 23.15625 21.40625 C 23.144531 21.417969 23.136719 21.425781 23.125 21.4375 C 22.425781 22.078125 21.59375 23.0625 21.59375 24.40625 C 21.59375 25.585938 22.328125 26.453125 23.15625 27.1875 C 23.398438 27.402344 23.671875 27.605469 23.9375 27.8125 C 24.058594 28.015625 24.246094 28.171875 24.46875 28.25 C 24.476563 28.253906 24.492188 28.246094 24.5 28.25 C 24.519531 28.261719 24.542969 28.273438 24.5625 28.28125 C 25.023438 28.613281 25.5 28.957031 25.96875 29.28125 C 26.21875 29.453125 26.445313 29.636719 26.6875 29.8125 C 26.828125 30.035156 27.054688 30.191406 27.3125 30.25 C 27.777344 30.609375 28.195313 30.976563 28.53125 31.34375 C 29.171875 32.046875 29.5 32.703125 29.5 33.40625 C 29.5 34.886719 28.546875 35.800781 27.9375 36.25 C 27.6875 36.015625 27.445313 35.816406 27.1875 35.625 C 27.730469 35.1875 28.3125 34.558594 28.3125 33.59375 C 28.3125 32.394531 27.53125 31.496094 26.6875 30.84375 C 26.519531 30.710938 26.339844 30.589844 26.15625 30.46875 C 26.144531 30.457031 26.136719 30.449219 26.125 30.4375 C 26.113281 30.429688 26.105469 30.414063 26.09375 30.40625 C 25.949219 30.214844 25.738281 30.082031 25.5 30.03125 C 24.964844 29.703125 24.410156 29.402344 23.875 29.0625 C 23.746094 28.980469 23.625 28.898438 23.5 28.8125 C 23.363281 28.539063 23.109375 28.34375 22.8125 28.28125 C 22.289063 27.878906 21.785156 27.472656 21.40625 27 C 20.78125 26.21875 20.40625 25.34375 20.40625 24.09375 C 20.40625 22.585938 21.738281 21.503906 22.3125 21.09375 Z M 25.21875 22.34375 C 25.292969 22.382813 25.371094 22.429688 25.4375 22.46875 C 26.230469 22.949219 26.5 23.296875 26.5 23.8125 C 26.5 24.363281 26.046875 25.027344 25.46875 25.5625 C 25.257813 25.757813 25.089844 25.894531 24.90625 26.03125 C 24.777344 25.929688 24.613281 25.820313 24.5 25.71875 C 23.84375 25.136719 23.59375 24.675781 23.59375 24.40625 C 23.59375 23.949219 23.96875 23.363281 24.46875 22.90625 C 24.765625 22.632813 25.027344 22.464844 25.21875 22.34375 Z M 22.59375 30.625 C 22.664063 30.671875 22.742188 30.707031 22.8125 30.75 C 23.09375 30.929688 23.355469 31.085938 23.625 31.25 C 23.601563 31.273438 23.585938 31.289063 23.5625 31.3125 C 23.289063 31.617188 22.988281 31.933594 22.75 32.3125 C 22.511719 32.691406 22.3125 33.105469 22.3125 33.6875 C 22.3125 34.175781 22.492188 34.636719 22.75 34.96875 C 23.007813 35.300781 23.3125 35.535156 23.625 35.75 C 23.9375 35.964844 24.285156 36.175781 24.625 36.375 C 24.691406 36.425781 24.765625 36.46875 24.84375 36.5 C 25.109375 36.65625 25.367188 36.804688 25.625 36.96875 C 26.933594 37.808594 28 38.707031 28 41 C 28 41.714844 27.578125 42.785156 27.09375 43.625 C 26.941406 43.890625 26.824219 44.074219 26.6875 44.28125 C 26.480469 44.132813 26.25 44.003906 26.03125 43.875 C 26.878906 42.277344 27.167969 40.980469 26.8125 39.875 C 26.417969 38.644531 25.386719 37.960938 24.46875 37.4375 C 23.550781 36.914063 22.65625 36.484375 22.03125 35.90625 C 21.40625 35.328125 21 34.683594 21 33.40625 C 21 32.355469 21.957031 31.246094 22.59375 30.625 Z M 25.3125 32.375 C 25.347656 32.398438 25.40625 32.414063 25.4375 32.4375 C 26.078125 32.933594 26.3125 33.242188 26.3125 33.59375 C 26.3125 33.636719 26.109375 33.945313 25.71875 34.21875 C 25.566406 34.324219 25.441406 34.398438 25.3125 34.46875 C 25.140625 34.367188 24.878906 34.210938 24.75 34.125 C 24.53125 33.976563 24.398438 33.820313 24.34375 33.75 C 24.289063 33.679688 24.3125 33.699219 24.3125 33.6875 C 24.3125 33.769531 24.332031 33.59375 24.46875 33.375 C 24.605469 33.15625 24.804688 32.902344 25.03125 32.65625 C 25.171875 32.503906 25.183594 32.503906 25.3125 32.375 Z M 22.59375 38.6875 C 22.84375 38.824219 23.085938 38.96875 23.3125 39.09375 C 22.734375 40.074219 22.675781 41.117188 22.875 41.96875 C 22.265625 41.484375 22 41.097656 22 40.59375 C 22 39.664063 22.324219 39.0625 22.59375 38.6875 Z M 24.84375 40.34375 C 24.863281 40.386719 24.890625 40.425781 24.90625 40.46875 C 24.980469 40.707031 24.992188 41.089844 24.84375 41.625 C 24.6875 41.214844 24.605469 40.824219 24.84375 40.34375 Z M 23.84375 44.9375 C 23.898438 44.964844 23.949219 45.003906 24 45.03125 L 24 47.5625 C 23.941406 47.527344 23.496094 47.269531 23.28125 46.875 C 23.167969 46.664063 23.117188 46.46875 23.1875 46.125 C 23.246094 45.839844 23.433594 45.445313 23.84375 44.9375 Z M 26 46.375 C 26.078125 46.457031 26.152344 46.53125 26.1875 46.59375 C 26.265625 46.738281 26.285156 46.796875 26.25 46.96875 C 26.226563 47.085938 26.144531 47.277344 26 47.5 Z " fill="#000000"/></g></svg>
