<?xml version="1.0" encoding="UTF-8"?>
<svg xmlns="http://www.w3.org/2000/svg" xmlns:xlink="http://www.w3.org/1999/xlink" viewBox="0 0 50 50" version="1.1" fill="#000000"><g id="surface1" fill="#000000"><path style=" " d="M 7.8125 2 C 7.75 2.015625 7.683594 2.035156 7.625 2.0625 C 7.625 2.0625 2.21875 4.273438 2.03125 9.71875 C 2.03125 9.75 2 9.78125 2 9.8125 C 2 9.84375 2 9.875 2 9.90625 C 2 9.9375 2 9.96875 2 10 C 2 10.011719 2 10.019531 2 10.03125 C 2 10.050781 2 10.074219 2 10.09375 C 2 10.105469 2 10.113281 2 10.125 C 2.007813 10.144531 2.019531 10.167969 2.03125 10.1875 C 2.03125 10.199219 2.03125 10.207031 2.03125 10.21875 C 2.03125 10.238281 2.03125 10.261719 2.03125 10.28125 C 2.039063 10.300781 2.050781 10.324219 2.0625 10.34375 C 2.082031 10.386719 2.101563 10.429688 2.125 10.46875 L 4.9375 18 L 2.15625 25.4375 C 2.144531 25.46875 2.132813 25.5 2.125 25.53125 L 2.09375 25.5625 C 2.070313 25.613281 2.046875 25.664063 2.03125 25.71875 C 2.03125 25.730469 2.03125 25.738281 2.03125 25.75 C 2.03125 25.769531 2.03125 25.792969 2.03125 25.8125 C 2.019531 25.824219 2.011719 25.832031 2 25.84375 C 2 25.863281 2 25.886719 2 25.90625 C 2 25.917969 2 25.925781 2 25.9375 C 2 25.957031 2 25.980469 2 26 C 1.996094 26.050781 1.996094 26.105469 2 26.15625 L 2 47 C 2 47.550781 2.449219 48 3 48 L 47 48 C 47.550781 48 48 47.550781 48 47 L 48 26 C 48 25.988281 48 25.980469 48 25.96875 C 48 25.949219 48 25.925781 48 25.90625 C 48 25.894531 48 25.886719 48 25.875 C 47.992188 25.855469 47.980469 25.832031 47.96875 25.8125 C 47.96875 25.800781 47.96875 25.792969 47.96875 25.78125 C 47.960938 25.75 47.949219 25.71875 47.9375 25.6875 C 47.921875 25.632813 47.898438 25.582031 47.875 25.53125 L 45.0625 18 L 47.875 10.5 L 47.9375 10.34375 C 47.949219 10.324219 47.960938 10.300781 47.96875 10.28125 C 47.980469 10.242188 47.992188 10.199219 48 10.15625 C 48.003906 10.105469 48.003906 10.050781 48 10 C 48 9.980469 48 9.957031 48 9.9375 C 47.996094 9.875 47.984375 9.8125 47.96875 9.75 C 47.804688 4.253906 42.375 2.0625 42.375 2.0625 C 42.253906 2.019531 42.128906 1.996094 42 2 L 8 2 C 7.96875 2 7.9375 2 7.90625 2 C 7.875 2 7.84375 2 7.8125 2 Z M 8.28125 4 L 41.71875 4 C 41.882813 4.066406 45.113281 5.546875 45.75 9 L 29.90625 9 C 29.4375 6.726563 27.40625 5 25 5 C 22.59375 5 20.5625 6.726563 20.09375 9 L 4.25 9 C 4.886719 5.566406 8.117188 4.066406 8.28125 4 Z M 25 7 C 26.320313 7 27.4375 7.828125 27.84375 9 L 22.15625 9 C 22.5625 7.828125 23.679688 7 25 7 Z M 4.4375 11 L 45.5625 11 L 43.3125 17 L 33.46875 17 C 33.449219 17 33.425781 17 33.40625 17 C 32.765625 16.394531 31.964844 16 31 16 C 30.253906 16 29.59375 16.265625 29 16.625 C 28.40625 16.265625 27.746094 16 27 16 C 26.746094 16 26.519531 16.078125 26.28125 16.125 C 25.589844 14.929688 24.472656 14 23 14 C 21.527344 14 20.410156 14.929688 19.71875 16.125 C 19.480469 16.078125 19.253906 16 19 16 C 18.007813 16 17.121094 16.390625 16.4375 17 L 6.6875 17 Z M 23 16 C 23.929688 16 24.675781 16.613281 24.90625 17.46875 C 24.976563 17.75 25.164063 17.988281 25.421875 18.117188 C 25.679688 18.25 25.980469 18.265625 26.25 18.15625 C 26.488281 18.0625 26.742188 18 27 18 C 27.511719 18 27.980469 18.203125 28.34375 18.53125 C 28.71875 18.859375 29.28125 18.859375 29.65625 18.53125 C 30.019531 18.203125 30.488281 18 31 18 C 31.953125 18 32.726563 18.652344 32.9375 19.53125 C 33 19.808594 33.179688 20.046875 33.433594 20.1875 C 33.683594 20.324219 33.980469 20.347656 34.25 20.25 C 34.652344 20.097656 35.074219 20 35.5 20 C 37.382813 20 38.875 21.453125 38.96875 23.3125 C 38.988281 23.726563 39.261719 24.089844 39.65625 24.21875 C 40.140625 24.386719 40.582031 24.652344 40.9375 25 L 9 25 C 9 23.882813 9.882813 23 11 23 C 11.257813 23 11.511719 23.058594 11.75 23.15625 C 12.019531 23.265625 12.320313 23.25 12.578125 23.117188 C 12.835938 22.988281 13.023438 22.75 13.09375 22.46875 C 13.324219 21.613281 14.070313 21 15 21 C 15.222656 21 15.453125 21.039063 15.6875 21.125 C 16.003906 21.242188 16.359375 21.191406 16.628906 20.988281 C 16.902344 20.785156 17.050781 20.460938 17.03125 20.125 C 17.019531 19.945313 17 19.910156 17 20 C 17 18.882813 17.882813 18 19 18 C 19.257813 18 19.511719 18.058594 19.75 18.15625 C 20.019531 18.265625 20.320313 18.25 20.578125 18.117188 C 20.835938 17.988281 21.023438 17.75 21.09375 17.46875 C 21.324219 16.613281 22.070313 16 23 16 Z M 6.6875 19 L 15.1875 19 C 15.183594 19.007813 15.191406 19.023438 15.1875 19.03125 C 15.121094 19.027344 15.066406 19 15 19 C 13.527344 19 12.410156 19.929688 11.71875 21.125 C 11.480469 21.078125 11.253906 21 11 21 C 8.800781 21 7 22.800781 7 25 L 4.4375 25 Z M 38.53125 19 L 43.3125 19 L 45.5625 25 L 43.375 25 C 42.808594 23.953125 41.898438 23.144531 40.8125 22.625 C 40.5625 21.125 39.707031 19.839844 38.53125 19 Z M 4 27 L 20 27 L 20 31.03125 C 20 33.78125 22.25 36.03125 25 36.03125 C 27.75 36.03125 30 33.78125 30 31.03125 L 30 27 L 46 27 L 46 41.09375 C 43.488281 41.515625 41.515625 43.488281 41.09375 46 L 8.90625 46 C 8.484375 43.488281 6.511719 41.515625 4 41.09375 Z M 22 27 L 28 27 L 28 31.03125 C 28 32.699219 26.667969 34.03125 25 34.03125 C 23.332031 34.03125 22 32.699219 22 31.03125 Z M 24 29 L 24 31 C 24 31.550781 24.449219 32 25 32 C 25.550781 32 26 31.550781 26 31 L 26 29 Z M 4 43.15625 C 5.40625 43.515625 6.484375 44.59375 6.84375 46 L 4 46 Z M 46 43.15625 L 46 46 L 43.15625 46 C 43.515625 44.59375 44.59375 43.515625 46 43.15625 Z " fill="#000000"/></g></svg>
