<?xml version="1.0" encoding="utf-8"?>
<svg xmlns="http://www.w3.org/2000/svg" viewBox="0 0 50 50" fill="#000000"><path style="line-height:normal;text-indent:0;text-align:start;text-decoration-line:none;text-decoration-style:solid;text-decoration-color:#000;text-transform:none;block-progression:tb;isolation:auto;mix-blend-mode:normal" d="M 10 4 L 10 20 L 2.9941406 20 L 3.1464844 46 L 17.046875 46 L 19.046875 46 L 33 46 L 47 46 L 47 8 L 31 8 L 31 9 L 31 28 L 25.996094 28 L 25.996094 4.0078125 L 10 4 z M 12 6 L 23.996094 6.0078125 L 23.996094 28 L 19.013672 28 L 18.998047 20 L 18 20 L 12 20 L 12 6 z M 15 8 L 15 10 L 17 10 L 17 8 L 15 8 z M 19.039062 8 L 19.039062 10 L 21 10 L 21 8 L 19.039062 8 z M 33 10 L 45 10 L 45 44 L 39.960938 44 L 39.960938 40 L 38 40 L 38 44 L 33 44 L 33 28 L 33 10 z M 15 12 L 15 14 L 17 14 L 17 12 L 15 12 z M 19 12 L 19 14 L 21 14 L 21 12 L 19 12 z M 36 12.003906 L 36 14 L 38 14 L 38 12.003906 L 36 12.003906 z M 40.019531 12.007812 L 40.019531 14.021484 L 41.980469 14.021484 L 41.980469 12.007812 L 40.019531 12.007812 z M 36 16.015625 L 36 18 L 38 18 L 38 16.015625 L 36 16.015625 z M 40.019531 16.015625 L 40.019531 18 L 41.980469 18 L 41.980469 16.015625 L 40.019531 16.015625 z M 36 20 L 36 22 L 38 22 L 38 20 L 36 20 z M 40 20 L 40 22 L 41.980469 22 L 41.980469 20 L 40 20 z M 5.0058594 22 L 17.001953 22 L 17.013672 28 L 16.998047 28 L 17.041016 44 L 11.980469 44 L 11.980469 40 L 10.019531 40 L 10.019531 44 L 5.1347656 44 L 5.0058594 22 z M 8 24 L 8 26.015625 L 10.039062 26.015625 L 10.039062 24 L 8 24 z M 12.039062 24 L 12.039062 26.015625 L 14 26.015625 L 14 24 L 12.039062 24 z M 36 24.007812 L 36 25.998047 L 38 25.998047 L 38 24.007812 L 36 24.007812 z M 40 24.007812 L 40 25.998047 L 41.980469 25.998047 L 41.980469 24.007812 L 40 24.007812 z M 8 27.984375 L 8 30 L 10.039062 30 L 10.039062 27.984375 L 8 27.984375 z M 12.039062 27.984375 L 12.039062 30 L 14 30 L 14 27.984375 L 12.039062 27.984375 z M 36 27.992188 L 36 30.007812 L 38 30.007812 L 38 27.992188 L 36 27.992188 z M 40.019531 27.992188 L 40.019531 30.007812 L 41.980469 30.007812 L 41.980469 27.992188 L 40.019531 27.992188 z M 19.017578 30 L 31 30 L 31 44 L 26 44 L 26 40 L 24 40 L 24 44 L 19.042969 44 L 19.017578 30 z M 8 32 L 8 34.015625 L 10.039062 34.015625 L 10.039062 32 L 8 32 z M 12.039062 32 L 12.039062 34.015625 L 14 34.015625 L 14 32 L 12.039062 32 z M 22 32 L 22 34.015625 L 24 34.015625 L 24 32 L 22 32 z M 26 32 L 26 34.015625 L 28 34.015625 L 28 32 L 26 32 z M 36 32 L 36 34.015625 L 38 34.015625 L 38 32 L 36 32 z M 40.019531 32 L 40.019531 34.015625 L 41.980469 34.015625 L 41.980469 32 L 40.019531 32 z M 22 35.984375 L 22 38 L 24 38 L 24 35.984375 L 22 35.984375 z M 26 35.984375 L 26 38 L 28 38 L 28 35.984375 L 26 35.984375 z M 36 35.984375 L 36 38 L 38 38 L 38 35.984375 L 36 35.984375 z M 40.019531 35.984375 L 40.019531 38 L 41.980469 38 L 41.980469 35.984375 L 40.019531 35.984375 z" fill="#000000"/></svg>
