<?xml version="1.0" encoding="utf-8"?>
<svg xmlns="http://www.w3.org/2000/svg" viewBox="0 0 50 50" fill="#000000"><path style="line-height:normal;text-indent:0;text-align:start;text-decoration-line:none;text-decoration-style:solid;text-decoration-color:#000;text-transform:none;block-progression:tb;isolation:auto;mix-blend-mode:normal" d="M 24.984375 2.9863281 A 1.0001 1.0001 0 0 0 24.839844 3 L 6 3 A 1.0001 1.0001 0 0 0 5 4 L 5 32.832031 A 1.0001 1.0001 0 0 0 5 33.158203 L 5 38.832031 A 1.0001 1.0001 0 0 0 5 39.158203 L 5 44 L 5 45 L 5 47 L 11 47 L 11 46 L 39 46 L 39 47 L 45 47 L 45 45 L 45 44 L 45 39.167969 A 1.0001 1.0001 0 0 0 45 38.841797 L 45 33.167969 A 1.0001 1.0001 0 0 0 45 32.841797 L 45 4 A 1.0001 1.0001 0 0 0 44 3 L 25.154297 3 A 1.0001 1.0001 0 0 0 24.984375 2.9863281 z M 7 5 L 24 5 L 24 32 L 7 32 L 7 5 z M 26 5 L 43 5 L 43 32 L 26 32 L 26 5 z M 19.984375 17.986328 A 1.0001 1.0001 0 0 0 19 19 L 19 22 A 1.0001 1.0001 0 1 0 21 22 L 21 19 A 1.0001 1.0001 0 0 0 19.984375 17.986328 z M 29.984375 17.986328 A 1.0001 1.0001 0 0 0 29 19 L 29 22 A 1.0001 1.0001 0 1 0 31 22 L 31 19 A 1.0001 1.0001 0 0 0 29.984375 17.986328 z M 7 34 L 24.832031 34 A 1.0001 1.0001 0 0 0 25.158203 34 L 43 34 L 43 38 L 7 38 L 7 34 z M 25 35 A 1 1 0 0 0 24 36 A 1 1 0 0 0 25 37 A 1 1 0 0 0 26 36 A 1 1 0 0 0 25 35 z M 7 40 L 43 40 L 43 44 L 39 44 L 11 44 L 7 44 L 7 40 z M 25 41 A 1 1 0 0 0 24 42 A 1 1 0 0 0 25 43 A 1 1 0 0 0 26 42 A 1 1 0 0 0 25 41 z" fill="#000000"/></svg>
