<?xml version="1.0" encoding="UTF-8"?>
<svg xmlns="http://www.w3.org/2000/svg" xmlns:xlink="http://www.w3.org/1999/xlink" viewBox="0 0 50 50" version="1.1" fill="#000000"><g id="surface1" fill="#000000"><path style=" " d="M 22.5 11 C 16.710938 11 12 15.710938 12 21.5 C 12 21.671875 12.023438 21.832031 12.03125 22 C 12.019531 22 12.011719 22 12 22 C 7.59375 22 4 25.59375 4 30 C 4 34.40625 7.59375 38 12 38 L 36 38 C 41.511719 38 46 33.511719 46 28 C 46 22.488281 41.511719 18 36 18 C 34.746094 18 33.574219 18.296875 32.46875 18.71875 C 31.230469 14.296875 27.308594 11 22.5 11 Z M 22.5 13 C 26.75 13 30.234375 16.097656 30.875 20.15625 L 31.09375 21.53125 L 32.34375 20.90625 C 33.449219 20.335938 34.675781 20 36 20 C 40.429688 20 44 23.570313 44 28 C 44 32.429688 40.429688 36 36 36 L 12 36 C 8.675781 36 6 33.324219 6 30 C 6 26.675781 8.675781 24 12 24 C 12.324219 24 12.632813 24.039063 12.96875 24.09375 L 14.375 24.3125 L 14.125 22.9375 C 14.042969 22.457031 14 21.976563 14 21.5 C 14 16.792969 17.792969 13 22.5 13 Z " fill="#000000"/></g></svg>
