<?xml version="1.0" encoding="UTF-8"?>
<svg xmlns="http://www.w3.org/2000/svg" xmlns:xlink="http://www.w3.org/1999/xlink" viewBox="0 0 50 50" version="1.1" fill="#000000"><g id="surface1" fill="#000000"><path style=" " d="M 23 3 C 21.355469 3 20 4.355469 20 6 C 20 7.183594 20.710938 8.203125 21.71875 8.6875 C 21.53125 8.941406 21.265625 9.183594 20.9375 9.40625 C 20.433594 9.746094 20.019531 9.929688 19.84375 10 L 12 10 C 8.699219 10 6 12.699219 6 16 L 6 26.46875 C 5.777344 26.679688 5.554688 26.878906 5.34375 27.0625 C 2.789063 29.261719 2 31.890625 2 36 C 2 38.695313 4.441406 41.285156 8.40625 43.375 C 12.335938 45.445313 17.933594 46.972656 24.8125 47 C 24.875 47 24.9375 47 25 47 C 25.03125 47 25.0625 47 25.09375 47 C 32.015625 46.984375 37.644531 45.453125 41.59375 43.375 C 45.558594 41.285156 48 38.695313 48 36 C 48 31.890625 47.210938 29.261719 44.65625 27.0625 C 44.445313 26.878906 44.222656 26.679688 44 26.46875 L 44 16 C 44 12.699219 41.300781 10 38 10 L 30.15625 10 C 29.980469 9.929688 29.566406 9.746094 29.0625 9.40625 C 28.734375 9.183594 28.46875 8.941406 28.28125 8.6875 C 29.289063 8.203125 30 7.183594 30 6 C 30 4.355469 28.644531 3 27 3 C 26.234375 3 25.53125 3.300781 25 3.78125 C 24.46875 3.300781 23.765625 3 23 3 Z M 23 5 C 23.5625 5 24 5.4375 24 6 C 24 6.5625 23.5625 7 23 7 C 22.4375 7 22 6.5625 22 6 C 22 5.4375 22.4375 5 23 5 Z M 27 5 C 27.5625 5 28 5.4375 28 6 C 28 6.5625 27.5625 7 27 7 C 26.4375 7 26 6.5625 26 6 C 26 5.4375 26.4375 5 27 5 Z M 25.03125 8.21875 C 25.355469 8.5 25.734375 8.714844 26.15625 8.84375 C 26.289063 9.289063 26.515625 9.664063 26.78125 10 L 23.25 10 C 23.519531 9.667969 23.710938 9.285156 23.84375 8.84375 C 24.28125 8.710938 24.703125 8.519531 25.03125 8.21875 Z M 12 12 L 38 12 C 40.21875 12 42 13.78125 42 16 L 42 24.25 C 41.8125 24.011719 41.636719 23.773438 41.46875 23.53125 C 40.558594 22.21875 40 20.859375 40 20.09375 L 40 17 C 40 15.355469 38.644531 14 37 14 L 25.0625 14 C 25.042969 14 25.019531 14 25 14 L 13 14 C 11.355469 14 10 15.355469 10 17 L 10 20.09375 C 10 20.859375 9.441406 22.21875 8.53125 23.53125 C 8.363281 23.773438 8.1875 24.011719 8 24.25 L 8 16 C 8 13.78125 9.78125 12 12 12 Z M 13 16 L 25 16 C 25.03125 16 25.0625 16 25.09375 16 L 37 16 C 37.566406 16 38 16.433594 38 17 L 38 20.09375 C 38 21.648438 38.816406 23.179688 39.84375 24.65625 C 40.871094 26.132813 42.144531 27.53125 43.34375 28.5625 C 45.5 30.421875 46 32.109375 46 36 C 46 37.304688 44.28125 39.714844 40.65625 41.625 C 39.667969 42.144531 38.550781 42.628906 37.3125 43.0625 C 38.484375 40.898438 39 38.484375 39 36.1875 C 39 32.582031 37.625 29.960938 36.375 27.5625 C 35.125 25.164063 34 23.007813 34 20 C 34.011719 19.710938 33.894531 19.433594 33.6875 19.238281 C 33.476563 19.039063 33.191406 18.941406 32.90625 18.96875 C 32.863281 18.976563 32.820313 18.988281 32.78125 19 C 32.316406 19.105469 31.988281 19.523438 32 20 C 32 23.519531 33.375 26.109375 34.625 28.5 C 35.875 30.890625 37 33.078125 37 36.1875 C 37 38.890625 36.203125 41.695313 34.3125 43.9375 C 31.644531 44.582031 28.578125 44.988281 25.15625 45 C 25.101563 45 25.054688 45 25 45 C 24.96875 45 24.9375 45 24.90625 45 C 21.472656 44.992188 18.398438 44.613281 15.71875 43.96875 C 13.808594 41.71875 13 38.90625 13 36.1875 C 13 33.078125 14.125 30.890625 15.375 28.5 C 16.625 26.109375 18 23.519531 18 20 C 18.011719 19.710938 17.894531 19.433594 17.6875 19.238281 C 17.476563 19.039063 17.191406 18.941406 16.90625 18.96875 C 16.863281 18.976563 16.820313 18.988281 16.78125 19 C 16.316406 19.105469 15.988281 19.523438 16 20 C 16 23.007813 14.875 25.164063 13.625 27.5625 C 12.375 29.960938 11 32.582031 11 36.1875 C 11 38.484375 11.515625 40.898438 12.6875 43.0625 C 11.453125 42.628906 10.328125 42.144531 9.34375 41.625 C 5.71875 39.714844 4 37.304688 4 36 C 4 32.109375 4.5 30.421875 6.65625 28.5625 C 7.855469 27.53125 9.128906 26.132813 10.15625 24.65625 C 11.183594 23.179688 12 21.648438 12 20.09375 L 12 17 C 12 16.433594 12.433594 16 13 16 Z " fill="#000000"/></g></svg>
