<?xml version="1.0" encoding="UTF-8"?>
<svg xmlns="http://www.w3.org/2000/svg" xmlns:xlink="http://www.w3.org/1999/xlink" viewBox="0 0 50 50" version="1.1" fill="#000000"><g id="surface1" fill="#000000"><path style=" " d="M 25 1 C 24.34375 1 23.757813 1.042969 23.25 1.15625 C 22.996094 1.210938 22.753906 1.269531 22.5 1.40625 C 22.375 1.476563 22.238281 1.585938 22.09375 1.75 C 22.003906 1.855469 21.960938 2.042969 21.90625 2.21875 L 21.84375 2.1875 C 21.5 3.214844 19.09375 11.058594 16.71875 18.875 C 16.332031 20.152344 16.027344 21.136719 15.65625 22.375 L 15.5625 22.4375 C 15.582031 22.46875 15.605469 22.5 15.625 22.53125 C 15.042969 24.460938 14.453125 26.367188 13.96875 28 L 10.8125 28 C 9.914063 28 9.253906 28.550781 8.90625 29.25 L 8.875 29.3125 L 8.84375 29.40625 L 4.03125 44.6875 L 4 44.84375 L 4 46 C 4 46.523438 4.183594 47.058594 4.5625 47.4375 C 4.941406 47.816406 5.476563 48 6 48 L 44 48 C 44.523438 48 45.058594 47.816406 45.4375 47.4375 C 45.816406 47.058594 46 46.523438 46 46 L 46 44.84375 L 45.96875 44.6875 L 41.15625 29.46875 L 41.15625 29.40625 L 41.125 29.40625 C 40.875 28.554688 40.0625 28 39.1875 28 L 36.0625 28 C 35.5625 26.3125 34.949219 24.34375 34.34375 22.34375 C 33.972656 21.117188 33.695313 20.136719 33.3125 18.875 C 32.128906 14.96875 30.921875 11.015625 29.96875 7.9375 C 29.015625 4.859375 28.375 2.765625 28.125 2.125 L 28.0625 2.15625 C 28.007813 2.011719 27.984375 1.839844 27.90625 1.75 C 27.761719 1.585938 27.625 1.476563 27.5 1.40625 C 27.246094 1.269531 27.003906 1.210938 26.75 1.15625 C 26.242188 1.042969 25.65625 1 25 1 Z M 25 3 C 25.542969 3 26.054688 3.0625 26.34375 3.125 C 26.34375 3.125 26.375 3.125 26.375 3.125 C 26.488281 3.441406 27.0625 5.339844 27.625 7.15625 C 27.394531 7.390625 26.285156 8 25 8 C 24.324219 8 23.65625 7.878906 23.15625 7.6875 C 22.683594 7.507813 22.429688 7.234375 22.40625 7.21875 C 22.710938 6.234375 23.574219 3.382813 23.65625 3.125 C 23.945313 3.0625 24.457031 3 25 3 Z M 22.9375 9.71875 C 23.570313 9.898438 24.269531 10 25 10 C 25.742188 10 26.433594 9.925781 27.0625 9.75 C 27.039063 9.835938 27 9.90625 27 10 C 27 10.550781 27.449219 11 28 11 C 28.277344 11 28.539063 10.898438 28.71875 10.71875 C 29.085938 11.902344 29.503906 13.21875 29.90625 14.53125 C 29.648438 14.773438 29.25 15.042969 28.71875 15.28125 C 28.539063 15.101563 28.277344 15 28 15 C 27.527344 15 27.167969 15.34375 27.0625 15.78125 C 26.421875 15.914063 25.726563 16 25 16 C 24.277344 16 23.582031 15.941406 22.9375 15.8125 C 22.84375 15.359375 22.480469 15 22 15 C 21.722656 15 21.460938 15.101563 21.28125 15.28125 C 20.773438 15.054688 20.367188 14.816406 20.125 14.59375 C 20.636719 12.929688 20.894531 12.105469 21.3125 10.75 C 21.492188 10.914063 21.738281 11 22 11 C 22.550781 11 23 10.550781 23 10 C 23 9.898438 22.964844 9.8125 22.9375 9.71875 Z M 25 12 C 24.449219 12 24 12.449219 24 13 C 24 13.550781 24.449219 14 25 14 C 25.550781 14 26 13.550781 26 13 C 26 12.449219 25.550781 12 25 12 Z M 30.53125 16.5625 C 30.839844 17.578125 31.09375 18.410156 31.40625 19.4375 C 31.667969 20.304688 31.871094 20.957031 32.125 21.8125 C 31.628906 22.25 30.902344 22.726563 29.96875 23.09375 C 28.609375 23.628906 26.875 24 25 24 C 23.117188 24 21.355469 23.671875 19.96875 23.15625 C 19.070313 22.824219 18.371094 22.378906 17.875 21.96875 C 18.144531 21.074219 18.347656 20.382813 18.625 19.46875 C 19.03125 18.136719 19.101563 17.921875 19.5 16.625 C 19.914063 16.875 20.378906 17.09375 20.875 17.28125 C 22.066406 17.730469 23.480469 18 25 18 C 26.519531 18 27.917969 17.730469 29.09375 17.28125 C 29.621094 17.082031 30.097656 16.835938 30.53125 16.5625 Z M 32.75 23.9375 C 33.074219 25.03125 33.390625 26.09375 33.6875 27.09375 C 33.296875 27.230469 33 27.5625 33 28 C 33 28.550781 33.449219 29 34 29 C 34.082031 29 34.144531 28.957031 34.21875 28.9375 C 34.234375 28.984375 34.265625 29.046875 34.28125 29.09375 C 33.722656 29.609375 32.890625 30.136719 31.875 30.59375 C 31.714844 30.253906 31.398438 30 31 30 C 30.449219 30 30 30.449219 30 31 C 30 31.101563 30.035156 31.1875 30.0625 31.28125 C 28.558594 31.726563 26.832031 32 25 32 C 23.164063 32 21.410156 31.75 19.90625 31.34375 C 19.949219 31.230469 20 31.128906 20 31 C 20 30.449219 19.550781 30 19 30 C 18.550781 30 18.1875 30.3125 18.0625 30.71875 C 17.046875 30.285156 16.234375 29.746094 15.6875 29.25 C 15.714844 29.160156 15.753906 29.027344 15.78125 28.9375 C 15.855469 28.957031 15.917969 29 16 29 C 16.550781 29 17 28.550781 17 28 C 17 27.574219 16.71875 27.238281 16.34375 27.09375 C 16.632813 26.125 16.929688 25.089844 17.25 24.03125 C 17.527344 24.210938 17.8125 24.40625 18.125 24.5625 C 18.054688 24.699219 18 24.835938 18 25 C 18 25.550781 18.449219 26 19 26 C 19.460938 26 19.820313 25.671875 19.9375 25.25 C 21.433594 25.71875 23.167969 26 25 26 C 26.855469 26 28.574219 25.6875 30.0625 25.1875 C 30.15625 25.640625 30.519531 26 31 26 C 31.550781 26 32 25.550781 32 25 C 32 24.796875 31.914063 24.625 31.8125 24.46875 C 32.144531 24.296875 32.460938 24.132813 32.75 23.9375 Z M 25 32 C 25.550781 32 26 31.550781 26 31 C 26 30.449219 25.550781 30 25 30 C 24.449219 30 24 30.449219 24 31 C 24 31.550781 24.449219 32 25 32 Z M 22 27 C 21.449219 27 21 27.449219 21 28 C 21 28.550781 21.449219 29 22 29 C 22.550781 29 23 28.550781 23 28 C 23 27.449219 22.550781 27 22 27 Z M 28 27 C 27.449219 27 27 27.449219 27 28 C 27 28.550781 27.449219 29 28 29 C 28.550781 29 29 28.550781 29 28 C 29 27.449219 28.550781 27 28 27 Z M 10.8125 30 L 13.375 30 C 13 31.261719 12.664063 32.421875 12.4375 33.21875 C 12.308594 33.667969 12.195313 34.011719 12.125 34.28125 C 12.089844 34.417969 12.085938 34.527344 12.0625 34.625 C 12.039063 34.722656 12 34.703125 12 35 C 12 37.070313 13.71875 38.742188 16.0625 39.96875 C 18.40625 41.195313 21.542969 42 25 42 C 28.457031 42 31.59375 41.195313 33.9375 39.96875 C 36.28125 38.742188 38 37.070313 38 35 C 38 34.707031 37.957031 34.722656 37.9375 34.625 C 37.917969 34.527344 37.910156 34.417969 37.875 34.28125 C 37.804688 34.011719 37.6875 33.667969 37.5625 33.21875 C 37.339844 32.421875 37.023438 31.261719 36.65625 30 L 39.1875 30 C 39.238281 30 39.25 30.003906 39.25 30 L 44 45.21875 L 44 46 L 6 46 L 6 45.21875 L 10.6875 30.15625 C 10.699219 30.132813 10.703125 30.140625 10.71875 30.125 C 10.757813 30.085938 10.792969 30.023438 10.8125 30 Z M 34.90625 31.1875 C 35.1875 32.132813 35.480469 33.121094 35.65625 33.75 C 35.78125 34.191406 35.875 34.535156 35.9375 34.78125 C 35.960938 34.878906 35.984375 34.941406 36 35 C 36 35.007813 36 35.023438 36 35.03125 C 35.984375 35.863281 34.988281 37.148438 33 38.1875 C 30.996094 39.238281 28.144531 40 25 40 C 21.855469 40 19.003906 39.238281 17 38.1875 C 15.011719 37.148438 14.015625 35.863281 14 35.03125 C 14 35.023438 14 35.007813 14 35 C 14.015625 34.941406 14.039063 34.878906 14.0625 34.78125 C 14.125 34.535156 14.21875 34.191406 14.34375 33.75 C 14.511719 33.15625 14.800781 32.21875 15.0625 31.34375 C 15.839844 31.894531 16.757813 32.386719 17.8125 32.78125 C 19.839844 33.542969 22.332031 34 25 34 C 27.625 34 30.0625 33.503906 32.0625 32.71875 C 33.164063 32.285156 34.109375 31.78125 34.90625 31.1875 Z " fill="#000000"/></g></svg>
