<?xml version="1.0" encoding="UTF-8"?>
<svg xmlns="http://www.w3.org/2000/svg" xmlns:xlink="http://www.w3.org/1999/xlink" viewBox="0 0 50 50" version="1.1" fill="#000000"><g id="surface1" fill="#000000"><path style=" " d="M 0.875 -0.03125 C 0.84375 -0.0234375 0.8125 -0.0117188 0.78125 0 C 0.265625 0.109375 -0.078125 0.601563 0 1.125 C 0.519531 5.789063 2.148438 9.40625 5.34375 12.09375 C 8.128906 14.433594 12.003906 16.066406 17.28125 17.28125 C 17.015625 17.488281 16.773438 17.710938 16.53125 17.9375 C 16.117188 18.328125 15.753906 18.75 15.40625 19.1875 C 13.90625 18.4375 12.953125 17.886719 12.0625 17.53125 C 11.074219 17.136719 10.101563 17 8.59375 17 C 6.394531 17 4.574219 17.644531 3.34375 18.75 C 3.074219 18.984375 2.933594 19.339844 2.90625 19.59375 C 2.878906 19.847656 2.921875 20.03125 2.96875 20.21875 C 3.066406 20.597656 3.222656 20.945313 3.4375 21.3125 C 3.863281 22.050781 4.527344 22.875 5.28125 23.6875 C 6.035156 24.5 6.902344 25.292969 7.8125 25.90625 C 8.722656 26.519531 9.640625 27 10.6875 27 C 11.1875 27 11.625 26.945313 12.03125 26.875 C 11.90625 28.085938 12.015625 29.332031 12.4375 30.53125 C 13.75 34.25 17.441406 39.4375 19.09375 47.125 C 19.101563 47.15625 19.113281 47.1875 19.125 47.21875 C 19.125 47.21875 19.214844 47.527344 19.40625 47.8125 C 19.597656 48.097656 19.894531 48.445313 20.34375 48.78125 C 21.242188 49.453125 22.730469 50.03125 25 50.03125 C 27.269531 50.03125 28.757813 49.453125 29.65625 48.78125 C 30.105469 48.445313 30.402344 48.097656 30.59375 47.8125 C 30.785156 47.527344 30.875 47.21875 30.875 47.21875 C 30.886719 47.1875 30.898438 47.15625 30.90625 47.125 C 32.660156 39.53125 36.347656 34.28125 37.5625 30.53125 C 37.984375 29.332031 38.09375 28.085938 37.96875 26.875 C 38.375 26.945313 38.8125 27 39.3125 27 C 40.359375 27 41.277344 26.519531 42.1875 25.90625 C 43.097656 25.292969 43.964844 24.5 44.71875 23.6875 C 45.472656 22.875 46.136719 22.050781 46.5625 21.3125 C 46.777344 20.945313 46.933594 20.597656 47.03125 20.21875 C 47.078125 20.03125 47.121094 19.847656 47.09375 19.59375 C 47.066406 19.339844 46.925781 18.984375 46.65625 18.75 C 46.644531 18.738281 46.636719 18.730469 46.625 18.71875 C 45.441406 17.769531 43.640625 17 41.40625 17 C 39.898438 17 38.925781 17.136719 37.9375 17.53125 C 37.046875 17.886719 36.09375 18.4375 34.59375 19.1875 C 34.246094 18.75 33.882813 18.328125 33.46875 17.9375 C 33.226563 17.710938 32.984375 17.488281 32.71875 17.28125 C 37.996094 16.066406 41.871094 14.433594 44.65625 12.09375 C 47.851563 9.40625 49.480469 5.789063 50 1.125 C 50.046875 0.804688 49.933594 0.476563 49.699219 0.253906 C 49.460938 0.03125 49.132813 -0.0625 48.8125 0 C 48.378906 0.0820313 48.046875 0.4375 48 0.875 C 47.519531 5.210938 46.15625 8.222656 43.375 10.5625 C 42.082031 11.648438 40.445313 12.582031 38.4375 13.40625 C 38.71875 12.96875 38.984375 12.523438 39.21875 12.03125 C 40.375 9.597656 41 6.472656 41 3 C 41.007813 2.691406 40.871094 2.398438 40.632813 2.203125 C 40.398438 2.007813 40.082031 1.933594 39.78125 2 C 39.316406 2.105469 38.988281 2.523438 39 3 C 39 6.226563 38.398438 9.066406 37.40625 11.15625 C 36.414063 13.246094 35.050781 14.542969 33.625 14.9375 C 33.523438 14.964844 33.429688 15.007813 33.34375 15.0625 C 32.28125 15.332031 31.171875 15.578125 29.96875 15.8125 C 28.558594 15.289063 26.917969 14.96875 25 14.96875 C 23.082031 14.96875 21.441406 15.289063 20.03125 15.8125 C 18.800781 15.574219 17.675781 15.304688 16.59375 15.03125 C 16.523438 14.992188 16.453125 14.960938 16.375 14.9375 C 14.949219 14.542969 13.585938 13.246094 12.59375 11.15625 C 11.601563 9.066406 11 6.226563 11 3 C 11.007813 2.691406 10.871094 2.398438 10.632813 2.203125 C 10.398438 2.007813 10.082031 1.933594 9.78125 2 C 9.316406 2.105469 8.988281 2.523438 9 3 C 9 6.472656 9.625 9.597656 10.78125 12.03125 C 11.015625 12.523438 11.28125 12.96875 11.5625 13.40625 C 9.554688 12.582031 7.917969 11.648438 6.625 10.5625 C 3.84375 8.222656 2.480469 5.210938 2 0.875 C 1.976563 0.601563 1.84375 0.351563 1.632813 0.183594 C 1.417969 0.0117188 1.144531 -0.0664063 0.875 -0.03125 Z M 25 17.03125 C 28.398438 17.03125 30.5 17.964844 32.0625 19.4375 C 33.621094 20.90625 34.652344 23.007813 35.53125 25.34375 C 35.535156 25.355469 35.527344 25.363281 35.53125 25.375 C 36.058594 26.882813 36.132813 28.402344 35.625 29.84375 C 35.625 29.855469 35.625 29.863281 35.625 29.875 C 34.640625 32.910156 30.792969 38.609375 28.9375 46.5625 L 28.875 46.65625 C 28.800781 46.765625 28.65625 46.9375 28.40625 47.125 C 27.902344 47.503906 26.929688 47.96875 25 47.96875 C 23.070313 47.96875 22.097656 47.503906 21.59375 47.125 C 21.34375 46.9375 21.199219 46.765625 21.125 46.65625 L 21.0625 46.5625 C 19.300781 38.519531 15.457031 32.90625 14.375 29.84375 C 13.867188 28.402344 13.941406 26.882813 14.46875 25.375 C 14.472656 25.363281 14.464844 25.355469 14.46875 25.34375 C 15.347656 23.007813 16.378906 20.90625 17.9375 19.4375 C 19.5 17.964844 21.601563 17.03125 25 17.03125 Z M 8.59375 19 C 9.984375 19 10.582031 19.101563 11.34375 19.40625 C 11.988281 19.664063 12.914063 20.160156 14.28125 20.84375 C 13.585938 22.039063 13.019531 23.324219 12.53125 24.625 C 12.53125 24.636719 12.53125 24.644531 12.53125 24.65625 C 12.523438 24.679688 12.507813 24.695313 12.5 24.71875 C 12.152344 24.839844 11.582031 25 10.6875 25 C 10.332031 25 9.640625 24.746094 8.90625 24.25 C 8.171875 23.753906 7.390625 23.066406 6.71875 22.34375 C 6.046875 21.621094 5.503906 20.859375 5.1875 20.3125 C 5.113281 20.183594 5.105469 20.128906 5.0625 20.03125 C 5.863281 19.464844 7.023438 19 8.59375 19 Z M 41.40625 19 C 42.933594 19 44.101563 19.484375 44.9375 20.03125 C 44.894531 20.128906 44.886719 20.183594 44.8125 20.3125 C 44.496094 20.859375 43.953125 21.621094 43.28125 22.34375 C 42.609375 23.066406 41.828125 23.753906 41.09375 24.25 C 40.359375 24.746094 39.667969 25 39.3125 25 C 38.417969 25 37.847656 24.839844 37.5 24.71875 C 37.492188 24.695313 37.476563 24.679688 37.46875 24.65625 C 37.46875 24.644531 37.46875 24.636719 37.46875 24.625 C 36.980469 23.324219 36.414063 22.039063 35.71875 20.84375 C 37.085938 20.160156 38.011719 19.664063 38.65625 19.40625 C 39.417969 19.101563 40.015625 19 41.40625 19 Z M 32.3125 26.71875 C 31.679688 26.679688 30.992188 26.964844 30.4375 27.53125 C 29.550781 28.441406 29.382813 29.742188 30.09375 30.4375 C 30.804688 31.132813 32.113281 30.972656 33 30.0625 C 33.886719 29.152344 34.023438 27.851563 33.3125 27.15625 C 33.046875 26.894531 32.691406 26.742188 32.3125 26.71875 Z M 17.71875 26.75 C 17.339844 26.773438 16.984375 26.925781 16.71875 27.1875 C 16.007813 27.882813 16.175781 29.152344 17.0625 30.0625 C 17.949219 30.972656 19.226563 31.164063 19.9375 30.46875 C 20.648438 29.773438 20.511719 28.472656 19.625 27.5625 C 19.070313 26.992188 18.351563 26.710938 17.71875 26.75 Z M 23.09375 41.3125 C 22.195313 41.3125 21.601563 42.199219 22 43 L 22.6875 44.5 C 22.886719 44.898438 23.414063 45.1875 23.8125 45.1875 L 26.1875 45.1875 C 26.6875 45.1875 27.113281 44.898438 27.3125 44.5 L 28 43 C 28.398438 42.199219 27.800781 41.3125 27 41.3125 Z " fill="#000000"/></g></svg>
