<?xml version="1.0" encoding="UTF-8"?>
<svg xmlns="http://www.w3.org/2000/svg" xmlns:xlink="http://www.w3.org/1999/xlink" viewBox="0 0 50 50" version="1.1" fill="#000000"><g id="surface1" fill="#000000"><path style=" " d="M 23.46875 0 C 23.328125 -0.00390625 23.203125 0.0117188 23.09375 0.03125 C 22.878906 0.0742188 22.679688 0.15625 22.46875 0.25 C 22.046875 0.4375 21.59375 0.71875 21.125 1.125 C 20.230469 1.898438 19.320313 3.121094 18.875 4.8125 C 17.996094 5.359375 17.253906 6.121094 16.6875 6.9375 C 15.605469 8.496094 15 10.25 15 11.65625 C 15 12.925781 15.34375 14.609375 16.21875 16.125 C 17.09375 17.640625 18.664063 19 20.84375 19 C 21.984375 19 22.976563 18.53125 23.6875 17.875 C 24.398438 17.21875 24.855469 16.394531 25.1875 15.5625 C 25.855469 13.898438 26 12.226563 26 11.4375 C 26 10.800781 26.011719 9.113281 25.53125 7.46875 C 25.332031 6.777344 25.050781 6.101563 24.59375 5.5 C 24.902344 4.3125 24.984375 3.257813 24.9375 2.40625 C 24.910156 1.933594 24.859375 1.511719 24.75 1.15625 C 24.640625 0.800781 24.632813 0.449219 23.96875 0.125 C 23.757813 0.0273438 23.609375 0.00390625 23.46875 0 Z M 30.40625 0.96875 C 30.300781 0.984375 30.171875 1.035156 30.03125 1.09375 C 29.398438 1.367188 29.316406 1.796875 29.21875 2.125 C 29.121094 2.453125 29.097656 2.804688 29.0625 3.21875 C 29.007813 3.914063 29.027344 4.804688 29.09375 5.8125 C 28.933594 5.945313 28.789063 6.066406 28.65625 6.21875 C 28.050781 6.914063 27.703125 7.75 27.46875 8.59375 C 27 10.28125 27 12.027344 27 12.6875 C 27 13.554688 27.242188 15.140625 28.03125 16.75 C 28.820313 18.359375 30.335938 20 32.6875 20 C 34.914063 20 36.597656 18.875 37.59375 17.5 C 38.589844 16.125 39 14.523438 39 13.21875 C 39 11.496094 38.25 9.566406 36.9375 7.9375 C 36.363281 7.226563 35.648438 6.570313 34.84375 6.0625 C 34.464844 4.667969 33.683594 3.496094 32.90625 2.625 C 32.476563 2.144531 32.078125 1.78125 31.6875 1.5 C 31.492188 1.359375 31.277344 1.21875 31.0625 1.125 C 30.898438 1.054688 30.722656 0.921875 30.40625 0.96875 Z M 22.9375 2.28125 C 22.949219 2.367188 22.964844 2.398438 22.96875 2.5 C 22.996094 2.953125 22.957031 3.550781 22.84375 4.21875 C 22.464844 4.085938 22.0625 4 21.625 4 C 21.527344 4 21.441406 4.027344 21.34375 4.03125 C 21.675781 3.433594 22.054688 2.957031 22.4375 2.625 C 22.632813 2.453125 22.769531 2.382813 22.9375 2.28125 Z M 31.03125 3.625 C 31.164063 3.75 31.265625 3.8125 31.40625 3.96875 C 31.6875 4.285156 31.964844 4.65625 32.21875 5.0625 C 31.914063 5.019531 31.601563 5 31.28125 5 C 31.195313 5 31.117188 5.023438 31.03125 5.03125 C 31.011719 4.496094 31.007813 4.011719 31.03125 3.625 Z M 21.625 6 C 22.21875 6 22.527344 6.164063 22.84375 6.5 C 23.160156 6.835938 23.441406 7.398438 23.625 8.03125 C 23.992188 9.292969 24 10.800781 24 11.4375 C 24 11.921875 23.863281 13.550781 23.34375 14.84375 C 23.085938 15.492188 22.71875 16.03125 22.3125 16.40625 C 21.90625 16.78125 21.492188 17 20.84375 17 C 19.445313 17 18.585938 16.246094 17.9375 15.125 C 17.289063 14.003906 17 12.535156 17 11.65625 C 17 10.910156 17.460938 9.320313 18.3125 8.09375 C 19.164063 6.867188 20.3125 6 21.625 6 Z M 31.28125 7 C 32.074219 7 32.808594 7.207031 33.46875 7.5625 C 33.488281 7.574219 33.511719 7.585938 33.53125 7.59375 C 33.542969 7.601563 33.550781 7.617188 33.5625 7.625 C 33.582031 7.636719 33.605469 7.648438 33.625 7.65625 C 34.285156 8.039063 34.871094 8.5625 35.375 9.1875 C 36.410156 10.472656 37 12.128906 37 13.21875 C 37 14.066406 36.667969 15.375 35.96875 16.34375 C 35.269531 17.3125 34.28125 18 32.6875 18 C 31.21875 18 30.417969 17.105469 29.8125 15.875 C 29.207031 14.644531 29 13.09375 29 12.6875 C 29 12.074219 29.035156 10.460938 29.40625 9.125 C 29.59375 8.457031 29.878906 7.890625 30.1875 7.53125 C 30.230469 7.480469 30.269531 7.449219 30.3125 7.40625 C 30.5625 7.363281 30.785156 7.230469 30.9375 7.03125 C 31.039063 7.007813 31.152344 7 31.28125 7 Z M 11.28125 13.96875 C 10.898438 13.96875 10.652344 14.140625 10.375 14.3125 C 10.003906 14.539063 9.652344 14.875 9.3125 15.34375 C 8.6875 16.207031 8.183594 17.535156 8.0625 19.375 C 7.535156 19.863281 7.09375 20.449219 6.78125 21.09375 C 5.933594 22.851563 5.796875 25.003906 6.28125 27.03125 C 6.632813 28.507813 7.382813 29.972656 8.5 31.09375 C 9.617188 32.214844 11.132813 33 12.875 33 C 14.109375 33 15.035156 32.320313 15.5625 31.65625 C 16.089844 30.992188 16.414063 30.375 16.9375 29.90625 C 17.46875 29.429688 17.96875 29.027344 18.375 28.4375 C 18.78125 27.847656 19 27.085938 19 26.1875 C 19 25.222656 18.511719 24.550781 18 23.78125 C 17.488281 23.011719 16.882813 22.207031 16.375 21.46875 C 15.800781 20.632813 15.195313 19.816406 14.4375 19.15625 C 14.136719 18.894531 13.800781 18.6875 13.4375 18.5 C 13.351563 17.761719 13.234375 16.972656 13.0625 16.28125 C 12.953125 15.835938 12.859375 15.441406 12.71875 15.09375 C 12.648438 14.921875 12.550781 14.765625 12.4375 14.59375 C 12.324219 14.421875 12.195313 14.164063 11.71875 14.03125 C 11.554688 13.988281 11.410156 13.96875 11.28125 13.96875 Z M 11.03125 16.4375 C 11.066406 16.558594 11.089844 16.640625 11.125 16.78125 C 11.21875 17.164063 11.304688 17.601563 11.375 18.03125 C 10.984375 18.046875 10.605469 18.097656 10.25 18.1875 C 10.429688 17.425781 10.691406 16.871094 10.9375 16.53125 C 10.976563 16.480469 10.996094 16.480469 11.03125 16.4375 Z M 42.03125 17.1875 C 41.589844 17.1875 41.410156 17.375 41.25 17.5 C 41.089844 17.625 40.960938 17.734375 40.84375 17.875 C 40.609375 18.15625 40.375 18.519531 40.15625 18.90625 C 39.800781 19.527344 39.492188 20.265625 39.25 21.03125 C 37.253906 21.132813 35.621094 22.382813 34.4375 24.09375 C 33.914063 24.851563 33.335938 25.628906 32.875 26.375 C 32.414063 27.121094 32 27.828125 32 28.71875 C 32 29.691406 32.40625 30.480469 32.84375 31 C 33.28125 31.519531 33.6875 31.839844 34.0625 32.375 C 34.570313 33.101563 35.117188 33.964844 35.875 34.6875 C 36.632813 35.410156 37.683594 36 38.9375 36 C 41.007813 36 42.472656 35.019531 43.28125 33.78125 C 44.089844 32.542969 44.367188 31.117188 44.65625 30.03125 C 45.195313 28.015625 45.105469 25.886719 44.28125 24.125 C 44.265625 24.089844 44.234375 24.066406 44.21875 24.03125 C 44.96875 22.292969 44.792969 20.636719 44.3125 19.46875 C 44.054688 18.847656 43.707031 18.339844 43.375 17.96875 C 43.210938 17.78125 43.058594 17.632813 42.875 17.5 C 42.691406 17.367188 42.542969 17.1875 42.03125 17.1875 Z M 42.0625 19.625 C 42.195313 19.8125 42.355469 19.976563 42.46875 20.25 C 42.683594 20.769531 42.824219 21.386719 42.71875 22.125 C 42.285156 21.777344 41.792969 21.503906 41.25 21.3125 C 41.4375 20.796875 41.671875 20.289063 41.90625 19.875 C 41.96875 19.765625 42.003906 19.71875 42.0625 19.625 Z M 11.59375 20 C 11.734375 20 11.871094 20.003906 12 20.03125 C 12.097656 20.089844 12.203125 20.132813 12.3125 20.15625 C 12.332031 20.164063 12.355469 20.148438 12.375 20.15625 C 12.394531 20.167969 12.417969 20.179688 12.4375 20.1875 C 12.664063 20.292969 12.886719 20.449219 13.125 20.65625 C 13.644531 21.109375 14.175781 21.800781 14.71875 22.59375 C 15.269531 23.398438 15.890625 24.195313 16.34375 24.875 C 16.796875 25.554688 17 26.1875 17 26.1875 C 17 26.800781 16.910156 27.035156 16.71875 27.3125 C 16.527344 27.589844 16.144531 27.941406 15.59375 28.4375 C 14.765625 29.179688 14.355469 29.957031 14 30.40625 C 13.644531 30.855469 13.539063 31 12.875 31 C 11.730469 31 10.726563 30.511719 9.90625 29.6875 C 9.085938 28.863281 8.484375 27.710938 8.21875 26.59375 C 7.832031 24.980469 7.996094 23.207031 8.59375 21.96875 C 8.855469 21.425781 9.191406 21.015625 9.59375 20.6875 C 9.652344 20.640625 9.703125 20.589844 9.75 20.53125 C 10.234375 20.195313 10.835938 20 11.59375 20 Z M 39.5 23 C 41.035156 23 41.894531 23.742188 42.46875 24.96875 C 43.042969 26.195313 43.148438 27.929688 42.71875 29.53125 C 42.414063 30.675781 42.125 31.875 41.59375 32.6875 C 41.0625 33.5 40.453125 34 38.9375 34 C 38.28125 34 37.8125 33.722656 37.28125 33.21875 C 36.75 32.714844 36.242188 31.96875 35.71875 31.21875 C 35.191406 30.460938 34.652344 30.015625 34.375 29.6875 C 34.097656 29.359375 34 29.261719 34 28.71875 C 34 28.644531 34.164063 28.078125 34.5625 27.4375 C 34.960938 26.796875 35.515625 26.039063 36.0625 25.25 C 37.078125 23.78125 38.210938 23 39.5 23 Z M 24.6875 28 C 23.363281 28 22.1875 28.101563 21.21875 28.90625 C 20.25 29.710938 19.679688 30.960938 18.9375 33.03125 C 18.15625 35.203125 16.453125 36.203125 14.6875 37.375 C 13.804688 37.960938 12.933594 38.574219 12.21875 39.4375 C 11.503906 40.300781 11 41.445313 11 42.84375 C 11 44.554688 11.835938 46.273438 13.09375 47.625 C 14.351563 48.976563 16.09375 50 18.0625 50 C 19.585938 50 20.777344 49.707031 21.78125 49.4375 C 22.785156 49.167969 23.582031 48.9375 24.46875 48.9375 C 25.367188 48.9375 25.976563 49.121094 26.84375 49.375 C 27.710938 49.628906 28.796875 49.90625 30.34375 49.90625 C 32.785156 49.90625 34.550781 48.910156 35.59375 47.5625 C 36.636719 46.214844 37 44.617188 37 43.3125 C 37 41.054688 35.28125 39.507813 33.75 38.03125 C 32.21875 36.554688 30.773438 35.117188 30.40625 33.4375 C 30.117188 32.121094 29.710938 30.804688 28.8125 29.75 C 27.914063 28.695313 26.496094 28 24.6875 28 Z M 24.6875 30 C 26.042969 30 26.734375 30.386719 27.28125 31.03125 C 27.828125 31.675781 28.210938 32.699219 28.46875 33.875 C 29.003906 36.335938 30.847656 37.996094 32.375 39.46875 C 33.902344 40.941406 35 42.167969 35 43.3125 C 35 44.226563 34.699219 45.441406 34 46.34375 C 33.300781 47.246094 32.269531 47.90625 30.34375 47.90625 C 29.027344 47.90625 28.234375 47.710938 27.40625 47.46875 C 26.578125 47.226563 25.679688 46.9375 24.46875 46.9375 C 23.246094 46.9375 22.226563 47.234375 21.25 47.5 C 20.273438 47.765625 19.328125 48 18.0625 48 C 16.796875 48 15.523438 47.316406 14.5625 46.28125 C 13.601563 45.246094 13 43.867188 13 42.84375 C 13 41.875 13.273438 41.292969 13.75 40.71875 C 14.226563 40.144531 14.953125 39.632813 15.8125 39.0625 C 17.527344 37.925781 19.785156 36.539063 20.8125 33.6875 C 21.523438 31.714844 22.066406 30.796875 22.5 30.4375 C 22.933594 30.078125 23.445313 30 24.6875 30 Z " fill="#000000"/></g></svg>
