<?xml version="1.0" encoding="utf-8"?>
<svg xmlns="http://www.w3.org/2000/svg" viewBox="0 0 50 50" fill="#000000"><path style="line-height:normal;text-indent:0;text-align:start;text-decoration-line:none;text-decoration-style:solid;text-decoration-color:#000;text-transform:none;block-progression:tb;isolation:auto;mix-blend-mode:normal" d="M 25.001953 1 A 1.0001 1.0001 0 0 0 24.433594 1.1757812 L 1.4335938 16.976562 A 1.0001 1.0001 0 0 0 1 17.800781 L 1 22.300781 A 1.0001 1.0001 0 0 0 2.5683594 23.123047 L 5 21.441406 L 5 46 A 1.0001 1.0001 0 0 0 6 47 L 17 47 A 1.0001 1.0001 0 0 0 18 46 L 18 33 C 18 29.122516 21.122516 26 25 26 C 28.877484 26 32 29.122516 32 33 L 32 46 A 1.0001 1.0001 0 0 0 33 47 L 44 47 A 1.0001 1.0001 0 0 0 45 46 L 45 21.441406 L 47.431641 23.123047 A 1.0001 1.0001 0 0 0 49 22.300781 L 49 17.800781 A 1.0001 1.0001 0 0 0 48.566406 16.976562 L 25.566406 1.1757812 A 1.0001 1.0001 0 0 0 25.001953 1 z M 25 3.2128906 L 47 18.326172 L 47 20.392578 L 25.568359 5.578125 A 1.0001 1.0001 0 0 0 24.431641 5.578125 L 3 20.392578 L 3 18.326172 L 25 3.2128906 z M 25 7.6152344 L 43 20.058594 L 43 45 L 34 45 L 34 33 C 34 28.041484 29.958516 24 25 24 C 20.041484 24 16 28.041484 16 33 L 16 45 L 7 45 L 7 20.058594 L 25 7.6152344 z" font-weight="400" font-family="sans-serif" white-space="normal" overflow="visible" fill="#000000"/></svg>
