<?xml version="1.0" encoding="UTF-8"?>
<svg xmlns="http://www.w3.org/2000/svg" xmlns:xlink="http://www.w3.org/1999/xlink" viewBox="0 0 50 50" version="1.1" fill="#000000"><g id="surface1" fill="#000000"><path style=" " d="M 9 0 C 5.777344 0 3.527344 1.097656 2.125 2.21875 C 0.722656 3.339844 0.09375 4.5625 0.09375 4.5625 C -0.148438 5.0625 0.0625 5.664063 0.5625 5.90625 C 1.0625 6.148438 1.664063 5.9375 1.90625 5.4375 C 1.90625 5.4375 2.277344 4.660156 3.375 3.78125 C 4.367188 2.988281 6.003906 2.242188 8.34375 2.09375 L 25.1875 44.8125 C 25.285156 45.0625 25.480469 45.261719 25.726563 45.371094 C 25.972656 45.476563 26.25 45.476563 26.5 45.375 L 48.875 36.625 C 49.394531 36.425781 49.652344 35.847656 49.453125 35.328125 C 49.253906 34.808594 48.675781 34.550781 48.15625 34.75 L 26.6875 43.15625 L 9.9375 0.625 C 9.785156 0.242188 9.410156 -0.00390625 9 0 Z M 36.96875 0 C 36.90625 0.015625 36.839844 0.0351563 36.78125 0.0625 L 16.34375 8.21875 C 15.839844 8.421875 15.589844 8.992188 15.78125 9.5 L 18.78125 17.03125 L 21.65625 24.1875 C 21.671875 24.25 21.691406 24.316406 21.71875 24.375 C 21.742188 24.441406 21.773438 24.503906 21.8125 24.5625 L 24.78125 32.0625 L 27.625 39.21875 C 27.722656 39.46875 27.917969 39.667969 28.164063 39.777344 C 28.410156 39.882813 28.6875 39.882813 28.9375 39.78125 L 49.375 31.65625 C 49.625 31.558594 49.824219 31.363281 49.933594 31.117188 C 50.039063 30.871094 50.039063 30.59375 49.9375 30.34375 L 44.03125 15.53125 C 44.019531 15.519531 44.011719 15.511719 44 15.5 C 43.976563 15.433594 43.945313 15.371094 43.90625 15.3125 L 38.09375 0.625 C 37.929688 0.210938 37.507813 -0.046875 37.0625 0 C 37.03125 0 37 0 36.96875 0 Z M 36.59375 2.3125 L 41.78125 15.3125 L 39.28125 16.3125 L 23.1875 22.6875 L 20.65625 16.28125 L 18.03125 9.6875 Z M 32.0625 6.28125 C 32.019531 6.289063 31.976563 6.300781 31.9375 6.3125 C 31.882813 6.328125 31.832031 6.351563 31.78125 6.375 L 24.34375 9.34375 C 23.960938 9.429688 23.664063 9.734375 23.585938 10.121094 C 23.507813 10.503906 23.664063 10.898438 23.980469 11.128906 C 24.296875 11.359375 24.722656 11.382813 25.0625 11.1875 L 32.5 8.25 C 33.03125 8.117188 33.359375 7.585938 33.238281 7.050781 C 33.121094 6.519531 32.597656 6.175781 32.0625 6.28125 Z M 42.53125 17.15625 L 47.6875 30.1875 L 29.125 37.5625 L 26.625 31.3125 L 23.9375 24.5625 L 25.0625 24.125 Z M 38.0625 21.125 C 38.019531 21.132813 37.976563 21.144531 37.9375 21.15625 C 37.851563 21.175781 37.765625 21.207031 37.6875 21.25 L 30.25 24.1875 C 29.730469 24.394531 29.480469 24.980469 29.6875 25.5 C 29.894531 26.019531 30.480469 26.269531 31 26.0625 L 38.4375 23.09375 C 38.980469 22.988281 39.339844 22.464844 39.234375 21.921875 C 39.128906 21.378906 38.605469 21.019531 38.0625 21.125 Z M 19 40 C 16.25 40 14 42.25 14 45 C 14 47.75 16.25 50 19 50 C 21.75 50 24 47.75 24 45 C 24 42.25 21.75 40 19 40 Z M 19 42 C 20.667969 42 22 43.332031 22 45 C 22 46.667969 20.667969 48 19 48 C 17.332031 48 16 46.667969 16 45 C 16 43.332031 17.332031 42 19 42 Z " fill="#000000"/></g></svg>
