<?xml version="1.0" encoding="utf-8"?>
<svg xmlns="http://www.w3.org/2000/svg" viewBox="0 0 50 50" fill="#000000"><path style="line-height:normal;text-indent:0;text-align:start;text-decoration-line:none;text-decoration-style:solid;text-decoration-color:#000;text-transform:none;block-progression:tb;isolation:auto;mix-blend-mode:normal" d="M 3 9 C 1.3545455 9 0 10.354545 0 12 L 0 42 L 6 42 L 6 37 L 44 37 L 44 42 L 50 42 L 50 29 L 50 28 L 50 27 C 50 24.254545 47.745455 22 45 22 L 21 22 A 1.0001 1.0001 0 0 0 20 23 L 20 28 L 19.990234 28 A 1.0001 1.0001 0 0 0 19.962891 27.859375 C 19.962891 27.859375 18.686818 22.784509 14.527344 20.820312 C 13.489567 20.330251 12.413269 20.096215 11.382812 20.021484 C 8.9348293 19.843953 6.8055853 20.542355 6 20.849609 L 6 12 C 6 10.354545 4.6454545 9 3 9 z M 3 11 C 3.5545455 11 4 11.445455 4 12 L 4 30 L 5 30 L 13.96875 30 C 14.378184 30.021114 14.777885 30.021522 15.164062 30 L 21 30 L 48 30 L 48 40 L 46 40 L 46 35 L 4 35 L 4 40 L 2 40 L 2 12 C 2 11.445455 2.4454545 11 3 11 z M 11.248047 22.056641 C 12.073841 22.103781 12.911605 22.268967 13.673828 22.628906 C 16.108224 23.778482 17.186298 26.305558 17.621094 27.457031 C 16.950797 27.670474 15.789901 27.987024 14.466797 28 L 14.037109 28 C 13.16748 27.961536 12.243376 27.777938 11.347656 27.330078 A 1.0001 1.0001 0 0 0 11.326172 27.320312 C 8.8947024 26.172155 7.8245508 23.727704 7.3847656 22.587891 C 8.1959031 22.328179 9.4291133 21.952797 11.248047 22.056641 z M 22 24 L 45 24 C 46.654545 24 48 25.345455 48 27 L 48 28 L 22 28 L 22 24 z M 6 24.53125 C 6.5802025 25.64641 7.4487205 26.945229 8.7265625 28 L 6 28 L 6 24.53125 z" font-weight="400" font-family="sans-serif" white-space="normal" overflow="visible" fill="#000000"/></svg>
