<?xml version="1.0" encoding="UTF-8"?>
<svg xmlns="http://www.w3.org/2000/svg" xmlns:xlink="http://www.w3.org/1999/xlink" viewBox="0 0 50 50" version="1.1" fill="#000000"><g id="surface1" fill="#000000"><path style=" " d="M 40.535156 1.929688 C 39.808594 1.941406 39.082031 2.199219 38.464844 2.664063 C 38.433594 2.6875 38.40625 2.710938 38.378906 2.738281 L 8.757813 30.929688 C 8.722656 30.964844 8.6875 31.003906 8.65625 31.046875 C 7.777344 31.769531 7.183594 32.8125 7.050781 34 L 3 34 C 2.449219 34 2 34.449219 2 35 L 2 38 C 1.996094 38.359375 2.183594 38.695313 2.496094 38.878906 C 2.808594 39.058594 3.191406 39.058594 3.503906 38.878906 C 3.816406 38.695313 4.003906 38.359375 4 38 L 4 36 L 7.28125 36 C 7.773438 37.382813 8.917969 38.445313 10.347656 38.828125 L 10.316406 38.867188 L 4.375 45.589844 C 3.828125 46.207031 3.878906 47.15625 4.5 47.707031 C 4.78125 47.957031 5.144531 48 5.496094 48 C 5.90625 48 6.285156 47.878906 6.617188 47.578125 L 42.90625 6.484375 C 42.945313 6.445313 42.972656 6.398438 43.003906 6.351563 C 43.582031 7.691406 44 9.582031 44 12 C 44 14.300781 43.34375 15.851563 42.328125 17.171875 C 41.316406 18.496094 39.898438 19.574219 38.394531 20.699219 C 36.894531 21.824219 35.3125 22.996094 34.074219 24.609375 C 32.96875 26.050781 32.183594 27.863281 32.027344 30.15625 C 31.246094 30.398438 30.570313 30.914063 30.078125 31.574219 C 29.390625 32.492188 29 33.691406 29 35 C 29 36.308594 29.390625 37.507813 30.078125 38.425781 C 30.566406 39.078125 31.230469 39.589844 32 39.835938 L 32 43 C 32 43.550781 32.449219 44 33 44 C 33.566406 44 34 44.433594 34 45 C 34 45.566406 33.566406 46 33 46 C 32.601563 46 32.273438 45.777344 32.109375 45.453125 C 31.859375 44.964844 31.253906 44.769531 30.761719 45.019531 C 30.269531 45.273438 30.078125 45.875 30.328125 46.367188 C 30.824219 47.335938 31.84375 48 33 48 C 34.644531 48 36 46.644531 36 45 C 36 43.742188 35.105469 42.859375 34 42.417969 L 34 39.835938 C 34.769531 39.589844 35.433594 39.078125 35.921875 38.425781 C 36.609375 37.507813 37 36.308594 37 35 C 37 33.691406 36.609375 32.492188 35.921875 31.574219 C 35.4375 30.929688 34.78125 30.421875 34.019531 30.171875 C 34.160156 28.316406 34.773438 26.984375 35.660156 25.828125 C 36.675781 24.503906 38.09375 23.425781 39.59375 22.300781 C 41.097656 21.175781 42.679688 20.003906 43.917969 18.390625 C 45.15625 16.773438 46 14.699219 46 12 C 46 8.222656 45.136719 5.414063 43.753906 3.679688 C 43.0625 2.816406 42.214844 2.207031 41.261719 2 C 41.023438 1.949219 40.78125 1.925781 40.535156 1.929688 Z M 40.550781 3.921875 C 40.644531 3.921875 40.742188 3.933594 40.839844 3.953125 C 40.964844 3.980469 41.101563 4.035156 41.238281 4.109375 C 41.023438 4.191406 40.820313 4.324219 40.65625 4.507813 L 39.84375 5.429688 L 39.167969 4.75 L 39.6875 4.257813 C 40.003906 4.015625 40.273438 3.917969 40.550781 3.921875 Z M 37.71875 6.132813 L 38.515625 6.929688 L 29.527344 17.109375 L 27.890625 15.480469 Z M 26.445313 16.859375 L 28.199219 18.613281 L 18.738281 29.324219 L 16.109375 26.695313 Z M 14.660156 28.074219 L 17.410156 30.828125 L 15.660156 32.808594 C 15.113281 31.472656 13.9375 30.457031 12.507813 30.125 Z M 11.5 32 C 12.890625 32 14 33.109375 14 34.5 C 14 35.339844 13.59375 36.070313 12.96875 36.519531 C 12.917969 36.554688 12.867188 36.589844 12.816406 36.625 C 12.753906 36.660156 12.691406 36.691406 12.625 36.722656 C 12.554688 36.761719 12.484375 36.796875 12.410156 36.824219 C 12.128906 36.933594 11.824219 37 11.5 37 C 10.109375 37 9 35.890625 9 34.5 C 9 33.109375 10.109375 32 11.5 32 Z M 32.921875 32.011719 C 32.972656 32.011719 33.023438 32.011719 33.074219 32.011719 C 33.515625 32.035156 33.945313 32.269531 34.324219 32.769531 C 34.5625 33.089844 34.75 33.519531 34.871094 34 L 31.128906 34 C 31.25 33.519531 31.4375 33.089844 31.675781 32.769531 C 32.050781 32.273438 32.484375 32.035156 32.921875 32.011719 Z M 31.128906 36 L 34.871094 36 C 34.75 36.480469 34.5625 36.910156 34.324219 37.230469 C 33.925781 37.757813 33.46875 38 33 38 C 32.53125 38 32.074219 37.757813 31.675781 37.230469 C 31.4375 36.910156 31.25 36.480469 31.128906 36 Z " fill="#000000"/></g></svg>
