<?xml version="1.0" encoding="UTF-8"?>
<svg xmlns="http://www.w3.org/2000/svg" xmlns:xlink="http://www.w3.org/1999/xlink" viewBox="0 0 50 50" version="1.1" fill="#000000"><g id="surface1" fill="#000000"><path style=" " d="M 25 3 C 20.21875 3 15.832031 3.542969 12.40625 4.46875 C 9.316406 5.304688 6.976563 6.367188 5.78125 8 L 5 8 C 4.96875 8 4.9375 8 4.90625 8 C 4.390625 8.046875 3.996094 8.480469 4 9 L 4 13 C 4 13.550781 4.449219 14 5 14 L 5.53125 14 C 6.597656 18.324219 9.175781 21.867188 11.5 24.90625 C 13.972656 28.136719 16 30.855469 16 33 L 16 34 C 16 35.292969 16.84375 36.394531 18 36.8125 L 18 42 C 18 43.644531 19.355469 45 21 45 L 23 47 L 27 47 L 29 45 C 30.644531 45 32 43.644531 32 42 L 32 36.8125 C 33.15625 36.394531 34 35.292969 34 34 L 34 33 C 34 30.855469 36.027344 28.136719 38.5 24.90625 C 40.824219 21.867188 43.402344 18.324219 44.46875 14 L 45 14 C 45.550781 14 46 13.550781 46 13 L 46 9 C 46 8.449219 45.550781 8 45 8 L 44.21875 8 C 43.023438 6.367188 40.683594 5.304688 37.59375 4.46875 C 34.167969 3.542969 29.78125 3 25 3 Z M 25 5 C 29.628906 5 33.863281 5.542969 37.0625 6.40625 C 38.71875 6.855469 40.066406 7.433594 41.0625 8 L 8.9375 8 C 9.933594 7.433594 11.28125 6.855469 12.9375 6.40625 C 16.136719 5.542969 20.371094 5 25 5 Z M 6.6875 10 L 43.28125 10 C 43.5 10.121094 43.757813 10.152344 44 10.09375 L 44 12 L 6.5 12 C 6.367188 11.972656 6.226563 11.972656 6.09375 12 L 6 12 L 6 10.09375 C 6.234375 10.144531 6.476563 10.113281 6.6875 10 Z M 7.5625 14 L 42.4375 14 C 41.417969 17.636719 39.121094 20.789063 36.90625 23.6875 C 34.453125 26.894531 32 29.746094 32 33 L 32 34 C 32 34.5625 31.5625 35 31 35 L 19 35 C 18.4375 35 18 34.5625 18 34 L 18 33 C 18 29.746094 15.546875 26.894531 13.09375 23.6875 C 10.878906 20.789063 8.582031 17.636719 7.5625 14 Z M 20 37 L 30 37 L 30 42 C 30 42.566406 29.566406 43 29 43 L 21 43 C 20.433594 43 20 42.566406 20 42 Z " fill="#000000"/></g></svg>
