<?xml version="1.0" encoding="utf-8"?>
<svg xmlns="http://www.w3.org/2000/svg" viewBox="0 0 50 50" fill="#000000"><path style="line-height:normal;text-indent:0;text-align:start;text-decoration-line:none;text-decoration-style:solid;text-decoration-color:#000;text-transform:none;block-progression:tb;isolation:auto;mix-blend-mode:normal" d="M 24.984375 1.9941406 A 1.0001 1.0001 0 0 0 24.404297 2.1816406 L 3.5351562 13.113281 A 1.0001 1.0001 0 0 0 3 14 L 3 45 A 1.0001 1.0001 0 0 0 4 46 L 10.832031 46 A 1.0001 1.0001 0 0 0 11.158203 46 L 38.832031 46 A 1.0001 1.0001 0 0 0 38.931641 46.011719 A 1.0001 1.0001 0 0 0 39.03125 46.013672 A 1.0001 1.0001 0 0 0 39.158203 46 L 46 46 A 1.0001 1.0001 0 0 0 47 45 L 47 14 A 1.0001 1.0001 0 0 0 46.464844 13.113281 L 25.597656 2.1816406 A 1.0001 1.0001 0 0 0 24.986328 1.9941406 A 1.0001 1.0001 0 0 0 24.984375 1.9941406 z M 25 4.1308594 L 45 14.605469 L 45 44 L 40 44 L 40 19 A 1.0001 1.0001 0 0 0 39 18 L 11 18 A 1.0001 1.0001 0 0 0 10 19 L 10 44 L 5 44 L 5 14.605469 L 25 4.1308594 z M 12 20 L 38 20 L 38 44 L 12 44 L 12 20 z M 22 40 A 1.0001 1.0001 0 1 0 22 42 L 28 42 A 1.0001 1.0001 0 1 0 28 40 L 22 40 z" fill="#000000"/></svg>
