<?xml version="1.0" encoding="UTF-8"?>
<svg xmlns="http://www.w3.org/2000/svg" xmlns:xlink="http://www.w3.org/1999/xlink" viewBox="0 0 50 50" version="1.1" fill="#000000"><g id="surface1" fill="#000000"><path style=" " d="M 45.3125 0 C 42.382813 0 37.734375 0.238281 33.71875 2.59375 C 30.507813 4.476563 27.777344 7.796875 26.8125 13.15625 C 25.859375 13.421875 24.828125 13.765625 23.9375 14.125 L 23.875 13.71875 C 23.78125 13.175781 23.261719 12.8125 22.71875 12.90625 L 18.3125 13.71875 C 17.769531 13.8125 17.40625 14.332031 17.5 14.875 L 17.625 15.46875 C 14.042969 16.375 7.882813 18.289063 2.84375 22.3125 C 1 23.785156 0.195313 25.132813 0.09375 26.40625 C -0.0078125 27.679688 0.652344 28.628906 1.09375 29.15625 C 1.714844 29.902344 2.722656 30.382813 3.9375 30.46875 C 5.152344 30.554688 6.578125 30.1875 7.90625 29.125 C 11.738281 26.066406 16.457031 24.578125 19.21875 23.875 C 19.328125 24.40625 19.839844 24.753906 20.375 24.65625 L 24.78125 23.875 C 25.046875 23.828125 25.285156 23.675781 25.441406 23.453125 C 25.59375 23.230469 25.648438 22.953125 25.59375 22.6875 L 25.53125 22.375 C 26.03125 22.335938 26.507813 22.277344 27.40625 22.21875 C 27.6875 22.980469 28.003906 23.78125 28.34375 24.625 L 27.9375 24.625 C 27.386719 24.640625 26.953125 25.105469 26.96875 25.65625 L 27.09375 30.375 C 27.109375 30.914063 27.554688 31.34375 28.09375 31.34375 C 27.945313 34.078125 27.414063 38.585938 25.15625 42.875 C 23.578125 45.867188 24.769531 48.566406 26.5 49.4375 C 27.113281 49.746094 28.179688 50.171875 29.40625 49.8125 C 30.632813 49.453125 31.8125 48.386719 32.90625 46.3125 C 35.875 40.671875 36.566406 34.6875 36.75 31.09375 L 37.40625 31.0625 C 37.957031 31.046875 38.390625 30.582031 38.375 30.03125 L 38.21875 25.34375 C 38.203125 24.792969 37.738281 24.359375 37.1875 24.375 L 37.0625 24.375 L 37.0625 22.40625 C 37.167969 22.257813 37.40625 21.886719 37.6875 21.34375 C 42.535156 19.457031 44.257813 16.660156 45.75 15.1875 C 48.699219 12.277344 49.75 11.15625 49.75 11.15625 C 49.953125 10.933594 50.046875 10.636719 50.003906 10.339844 C 49.960938 10.042969 49.789063 9.78125 49.53125 9.625 C 49.53125 9.625 48.003906 8.738281 45.6875 8.4375 C 43.691406 8.175781 41.085938 8.378906 38.34375 9.9375 C 38.40625 9.707031 38.46875 9.480469 38.5625 9.21875 C 39.308594 7.101563 40.882813 5.304688 42.40625 4.03125 C 43.167969 3.394531 43.910156 2.890625 44.5 2.53125 C 45.089844 2.171875 45.605469 1.945313 45.625 1.9375 C 46.074219 1.773438 46.339844 1.3125 46.265625 0.839844 C 46.1875 0.367188 45.789063 0.015625 45.3125 0 Z M 41.375 2.3125 C 41.285156 2.386719 41.21875 2.421875 41.125 2.5 C 39.425781 3.917969 37.574219 5.949219 36.65625 8.5625 C 36.003906 10.417969 36.058594 11.839844 36.28125 13.0625 C 36.503906 14.285156 36.84375 15.28125 36.84375 16.6875 C 36.84375 19.425781 35.28125 21.5 35.28125 21.5 C 35.140625 21.675781 35.0625 21.898438 35.0625 22.125 L 35.0625 24.4375 L 30.46875 24.5625 C 29.332031 21.636719 28.4375 19.742188 28.4375 17.5625 C 28.4375 10.046875 31.242188 6.351563 34.71875 4.3125 C 36.835938 3.070313 39.171875 2.582031 41.375 2.3125 Z M 43.5625 10.3125 C 45.113281 10.203125 46.394531 10.523438 47.25 10.84375 C 46.828125 11.289063 46.519531 11.636719 44.34375 13.78125 C 42.785156 15.320313 41.6875 17.175781 38.625 18.75 C 38.757813 18.121094 38.84375 17.441406 38.84375 16.6875 C 38.84375 14.976563 38.441406 13.765625 38.25 12.71875 C 38.230469 12.613281 38.234375 12.507813 38.21875 12.40625 C 40.195313 10.96875 42.011719 10.421875 43.5625 10.3125 Z M 33 15 C 31.894531 15 31 15.894531 31 17 C 31 18.105469 31.894531 19 33 19 C 34.105469 19 35 18.105469 35 17 C 35 15.894531 34.105469 15 33 15 Z M 22.09375 15.0625 L 23.4375 22.09375 L 21 22.53125 L 20.96875 22.40625 C 20.925781 22.132813 20.765625 21.886719 20.535156 21.734375 C 20.304688 21.582031 20.019531 21.53125 19.75 21.59375 C 17.078125 22.207031 11.289063 23.863281 6.65625 27.5625 C 5.6875 28.335938 4.789063 28.519531 4.0625 28.46875 C 3.335938 28.417969 2.773438 28.050781 2.625 27.875 C 2.296875 27.480469 2.050781 27.085938 2.09375 26.5625 C 2.136719 26.039063 2.492188 25.15625 4.09375 23.875 C 9.058594 19.910156 15.742188 17.902344 19 17.125 C 19.519531 17 19.847656 16.492188 19.75 15.96875 L 19.65625 15.5 Z M 26.53125 15.34375 C 26.472656 16.054688 26.4375 16.785156 26.4375 17.5625 C 26.4375 18.523438 26.558594 19.410156 26.78125 20.28125 C 26.046875 20.335938 25.523438 20.375 25.15625 20.40625 L 24.34375 16.125 C 24.96875 15.859375 25.730469 15.589844 26.53125 15.34375 Z M 36.25 26.40625 L 36.34375 29.09375 L 35.84375 29.125 C 35.304688 29.125 34.859375 29.554688 34.84375 30.09375 C 34.730469 33.355469 34.070313 39.8125 31.125 45.40625 C 30.175781 47.207031 29.378906 47.75 28.84375 47.90625 C 28.308594 48.0625 27.867188 47.886719 27.40625 47.65625 C 26.988281 47.445313 25.761719 45.984375 26.90625 43.8125 C 29.640625 38.617188 30.148438 33.039063 30.21875 30.34375 C 30.226563 30.066406 30.121094 29.800781 29.925781 29.605469 C 29.730469 29.410156 29.464844 29.304688 29.1875 29.3125 L 29.0625 29.3125 L 28.96875 26.59375 Z " fill="#000000"/></g></svg>
