<?xml version="1.0" encoding="UTF-8"?>
<svg xmlns="http://www.w3.org/2000/svg" xmlns:xlink="http://www.w3.org/1999/xlink" viewBox="0 0 50 50" version="1.1" fill="#000000"><g id="surface1" fill="#000000"><path style=" " d="M 25 2 C 19.488281 2 15 6.488281 15 12 L 15 14 C 14.996094 14.359375 15.183594 14.695313 15.496094 14.878906 C 15.808594 15.058594 16.191406 15.058594 16.503906 14.878906 C 16.816406 14.695313 17.003906 14.359375 17 14 L 17 12 C 17 7.570313 20.570313 4 25 4 C 29.429688 4 33 7.570313 33 12 L 33 14 C 32.996094 14.359375 33.183594 14.695313 33.496094 14.878906 C 33.808594 15.058594 34.191406 15.058594 34.503906 14.878906 C 34.816406 14.695313 35.003906 14.359375 35 14 L 35 12 C 35 6.488281 30.511719 2 25 2 Z M 16 16 C 14.894531 16 14 16.894531 14 18 L 9 18 C 8.96875 18 8.9375 18 8.90625 18 C 8.476563 18.042969 8.125 18.359375 8.03125 18.78125 L 5.03125 32 C 4.929688 32.503906 5.226563 33.003906 5.71875 33.15625 C 5.71875 33.15625 5.863281 33.183594 5.875 33.1875 L 4 45.84375 C 3.953125 46.136719 4.039063 46.429688 4.230469 46.652344 C 4.425781 46.878906 4.707031 47.003906 5 47 L 8 47 L 8 48 L 11 48 L 11 47 L 39 47 L 39 48 L 42 48 L 42 47 L 45 47 C 45.292969 47.003906 45.574219 46.878906 45.769531 46.652344 C 45.960938 46.429688 46.046875 46.136719 46 45.84375 L 44.125 33.1875 C 44.136719 33.183594 44.28125 33.15625 44.28125 33.15625 C 44.773438 33.003906 45.070313 32.503906 44.96875 32 L 41.96875 18.78125 C 41.867188 18.328125 41.464844 18.003906 41 18 L 36 18 C 36 16.894531 35.105469 16 34 16 C 32.894531 16 32 16.894531 32 18 L 18 18 C 18 16.894531 17.105469 16 16 16 Z M 9.78125 20 L 40.21875 20 L 42.8125 31.46875 C 41.550781 31.839844 34.007813 34 25 34 C 16.335938 34 9.167969 32.046875 7.5 31.5625 C 7.460938 31.539063 7.417969 31.519531 7.375 31.5 C 7.347656 31.492188 7.242188 31.476563 7.21875 31.46875 C 7.207031 31.46875 7.199219 31.46875 7.1875 31.46875 Z M 7.8125 33.71875 C 10.632813 34.4375 16.027344 35.636719 22.1875 35.9375 C 22.585938 37.125 23.679688 38 25 38 C 26.320313 38 27.414063 37.125 27.8125 35.9375 C 33.953125 35.640625 39.328125 34.441406 42.15625 33.71875 L 43.84375 45 L 6.15625 45 Z " fill="#000000"/></g></svg>
