<?xml version="1.0" encoding="UTF-8"?>
<svg xmlns="http://www.w3.org/2000/svg" xmlns:xlink="http://www.w3.org/1999/xlink" viewBox="0 0 50 50" version="1.1" fill="#000000"><g id="surface1" fill="#000000"><path style=" " d="M 24.90625 7.03125 C 24.71875 7.019531 24.535156 7.035156 24.34375 7.0625 L 20.6875 7.5625 C 19.140625 7.765625 18.046875 9.203125 18.25 10.75 L 18.3125 11.25 L 11.90625 12.09375 C 9.824219 12.371094 8.757813 13.636719 7.875 14.8125 C 7 15.976563 6.699219 16.515625 5.15625 16.71875 C 5.125 16.726563 5.09375 16.738281 5.0625 16.75 C 4.699219 16.832031 4.410156 17.109375 4.3125 17.46875 C 4.3125 17.480469 4.3125 17.488281 4.3125 17.5 C 4.300781 17.519531 4.289063 17.542969 4.28125 17.5625 C 4.28125 17.574219 4.28125 17.582031 4.28125 17.59375 C 4.269531 17.71875 4.277344 17.847656 4.3125 17.96875 C 4.3125 17.980469 4.3125 17.988281 4.3125 18 C 4.320313 18.019531 4.332031 18.042969 4.34375 18.0625 C 4.351563 18.082031 4.363281 18.105469 4.375 18.125 C 4.375 18.136719 4.375 18.144531 4.375 18.15625 C 4.386719 18.167969 4.394531 18.175781 4.40625 18.1875 C 4.4375 18.265625 4.480469 18.339844 4.53125 18.40625 C 4.542969 18.40625 4.550781 18.40625 4.5625 18.40625 C 4.582031 18.429688 4.601563 18.449219 4.625 18.46875 C 4.636719 18.480469 4.644531 18.488281 4.65625 18.5 C 4.667969 18.511719 4.675781 18.519531 4.6875 18.53125 C 4.699219 18.542969 4.707031 18.550781 4.71875 18.5625 C 4.738281 18.574219 4.761719 18.585938 4.78125 18.59375 C 4.792969 18.59375 4.800781 18.59375 4.8125 18.59375 C 4.832031 18.605469 4.855469 18.617188 4.875 18.625 C 4.886719 18.636719 4.894531 18.644531 4.90625 18.65625 C 4.925781 18.667969 4.949219 18.679688 4.96875 18.6875 C 4.980469 18.6875 4.988281 18.6875 5 18.6875 C 5.019531 18.6875 5.042969 18.6875 5.0625 18.6875 C 5.074219 18.699219 5.082031 18.707031 5.09375 18.71875 C 5.113281 18.71875 5.136719 18.71875 5.15625 18.71875 C 5.167969 18.71875 5.175781 18.71875 5.1875 18.71875 C 5.207031 18.71875 5.230469 18.71875 5.25 18.71875 C 5.261719 18.71875 5.269531 18.71875 5.28125 18.71875 C 5.3125 18.71875 5.34375 18.71875 5.375 18.71875 C 5.386719 18.71875 5.394531 18.71875 5.40625 18.71875 C 5.417969 18.71875 5.425781 18.71875 5.4375 18.71875 L 42.03125 13.84375 C 42.09375 13.839844 42.15625 13.828125 42.21875 13.8125 C 42.28125 13.796875 42.347656 13.777344 42.40625 13.75 C 42.5625 13.691406 42.703125 13.59375 42.8125 13.46875 C 43 13.21875 43.054688 12.894531 42.96875 12.59375 C 42.96875 12.574219 42.96875 12.550781 42.96875 12.53125 C 42.957031 12.519531 42.949219 12.511719 42.9375 12.5 C 42.929688 12.46875 42.917969 12.4375 42.90625 12.40625 C 42.871094 12.339844 42.828125 12.277344 42.78125 12.21875 C 42.78125 12.207031 42.78125 12.199219 42.78125 12.1875 C 42.714844 12.125 42.640625 12.074219 42.5625 12.03125 C 42.550781 12.019531 42.542969 12.011719 42.53125 12 C 42.492188 11.976563 42.449219 11.957031 42.40625 11.9375 C 42.394531 11.925781 42.386719 11.917969 42.375 11.90625 C 42.285156 11.871094 42.191406 11.851563 42.09375 11.84375 C 42.082031 11.84375 42.074219 11.84375 42.0625 11.84375 C 42.042969 11.84375 42.019531 11.84375 42 11.84375 C 41.988281 11.84375 41.980469 11.84375 41.96875 11.84375 C 41.90625 11.847656 41.84375 11.859375 41.78125 11.875 C 41.769531 11.875 41.761719 11.875 41.75 11.875 C 40.210938 12.078125 39.769531 11.613281 38.625 10.71875 C 37.46875 9.8125 36.113281 8.910156 34.03125 9.1875 L 27.625 10.03125 L 27.5625 9.5 C 27.382813 8.148438 26.226563 7.125 24.90625 7.03125 Z M 24.625 9.0625 C 25.101563 9 25.5 9.304688 25.5625 9.78125 L 25.625 10.28125 L 20.28125 11 L 20.21875 10.5 C 20.15625 10.023438 20.492188 9.59375 20.96875 9.53125 Z M 34.8125 11.125 C 35.921875 11.09375 36.414063 11.535156 37.40625 12.3125 C 37.457031 12.351563 37.511719 12.398438 37.5625 12.4375 L 9.34375 16.15625 C 9.371094 16.121094 9.410156 16.097656 9.4375 16.0625 L 9.46875 16 C 10.332031 14.847656 10.695313 14.292969 12.1875 14.09375 L 19.09375 13.1875 C 19.421875 13.308594 19.789063 13.25 20.0625 13.03125 L 26.4375 12.1875 C 26.742188 12.292969 27.078125 12.246094 27.34375 12.0625 L 34.28125 11.15625 C 34.46875 11.132813 34.652344 11.128906 34.8125 11.125 Z M 4.8125 21 C 4.261719 21.050781 3.855469 21.542969 3.90625 22.09375 C 3.957031 22.644531 4.449219 23.050781 5 23 L 5 30.9375 C 3.574219 30.773438 2.886719 30.28125 2.5 29.84375 C 2.03125 29.3125 2 28.90625 2 28.90625 C 1.980469 28.613281 1.832031 28.347656 1.597656 28.171875 C 1.363281 28 1.066406 27.933594 0.78125 28 C 0.277344 28.109375 -0.0585938 28.582031 0 29.09375 C 0 29.09375 0.144531 30.1875 1 31.15625 C 1.738281 31.992188 3.023438 32.773438 5 32.96875 L 5 45.1875 C 5 47.828125 7.171875 50 9.8125 50 L 40.1875 50 C 42.828125 50 45 47.828125 45 45.1875 L 45 32.96875 C 46.976563 32.773438 48.261719 31.992188 49 31.15625 C 49.855469 30.1875 50 29.09375 50 29.09375 C 50.039063 28.769531 49.917969 28.449219 49.675781 28.230469 C 49.433594 28.011719 49.097656 27.925781 48.78125 28 C 48.347656 28.097656 48.03125 28.464844 48 28.90625 C 48 28.90625 47.96875 29.3125 47.5 29.84375 C 47.113281 30.28125 46.425781 30.773438 45 30.9375 L 45 23 C 45.359375 23.003906 45.695313 22.816406 45.878906 22.503906 C 46.058594 22.191406 46.058594 21.808594 45.878906 21.496094 C 45.695313 21.183594 45.359375 20.996094 45 21 L 5 21 C 4.96875 21 4.9375 21 4.90625 21 C 4.875 21 4.84375 21 4.8125 21 Z M 7 23 L 43 23 L 43 31.8125 C 42.972656 31.945313 42.972656 32.085938 43 32.21875 L 43 45.1875 C 43 46.746094 41.746094 48 40.1875 48 L 9.8125 48 C 8.253906 48 7 46.746094 7 45.1875 L 7 32.1875 C 7.027344 32.054688 7.027344 31.914063 7 31.78125 Z " fill="#000000"/></g></svg>
