<?xml version="1.0" encoding="UTF-8"?>
<svg xmlns="http://www.w3.org/2000/svg" xmlns:xlink="http://www.w3.org/1999/xlink" viewBox="0 0 50 50" version="1.1" fill="#000000"><g id="surface1" fill="#000000"><path style=" " d="M 11.3125 0 L 11.0625 0.65625 L 3.0625 22.65625 L 2.5625 24 L 19.4375 24 C 18.644531 24.816406 18 25.941406 18 27.40625 C 18 30.445313 19.144531 32.34375 20.125 34.25 C 21.015625 35.980469 21.824219 37.8125 21.96875 41 L 17 41 C 15.90625 41 15 41.90625 15 43 L 15 44 L 12 44 C 10.90625 44 10 44.90625 10 46 L 10 50 L 40 50 L 40 46 C 40 44.90625 39.09375 44 38 44 L 35 44 L 35 43 C 35 41.90625 34.09375 41 33 41 L 28.03125 41 C 28.175781 37.8125 28.984375 35.980469 29.875 34.25 C 30.855469 32.34375 32 30.445313 32 27.40625 C 32 25.941406 31.355469 24.816406 30.5625 24 L 47.4375 24 L 46.9375 22.65625 L 38.9375 0.65625 L 38.6875 0 Z M 12.6875 2 L 37.3125 2 L 44.5625 22 L 23.25 22 C 23.144531 21.984375 23.042969 21.984375 22.9375 22 L 5.4375 22 Z M 23.1875 24 L 26.8125 24 C 26.945313 24.039063 27.664063 24.246094 28.4375 24.78125 C 29.285156 25.367188 30 26.15625 30 27.40625 C 30 29.96875 29.144531 31.363281 28.125 33.34375 C 27.191406 35.160156 26.191406 37.421875 26.03125 41 L 23.96875 41 C 23.808594 37.421875 22.808594 35.160156 21.875 33.34375 C 20.855469 31.363281 20 29.96875 20 27.40625 C 20 26.15625 20.714844 25.367188 21.5625 24.78125 C 22.335938 24.246094 23.054688 24.039063 23.1875 24 Z M 17 43 L 33 43 L 33 44 L 17 44 Z M 12 46 L 38 46 L 38 48 L 12 48 Z " fill="#000000"/></g></svg>
