<?xml version="1.0" encoding="utf-8"?>
<svg xmlns="http://www.w3.org/2000/svg" viewBox="0 0 50 50" fill="#000000"><path style="line-height:normal;text-indent:0;text-align:start;text-decoration-line:none;text-decoration-style:solid;text-decoration-color:#000;text-transform:none;block-progression:tb;isolation:auto;mix-blend-mode:normal" d="M 3.0488281 4.1132812 A 1.0001 1.0001 0 0 0 2.9472656 4.1152344 A 1.0001 1.0001 0 0 0 2.2070312 4.515625 L 0.80664062 6.3398438 A 1.0001 1.0001 0 0 0 0.80078125 6.3476562 C -0.49702694 8.0718683 -0.11476837 10.486138 1.4941406 11.853516 A 1.0001 1.0001 0 0 0 1.546875 11.896484 L 5 14.443359 L 5 21.734375 L 1.1308594 28.503906 A 1.0001 1.0001 0 0 0 1.5859375 29.910156 L 12.064453 34.673828 C 11.393634 35.796315 11 37.102122 11 38.5 C 11 42.630291 14.369709 46 18.5 46 C 21.75312 46 24.525919 43.905985 25.560547 41 L 38.091797 41 C 38.572078 43.82834 41.039615 46 44 46 C 47.301864 46 50 43.301864 50 40 C 50 37.399864 48.323565 35.180179 46 34.351562 L 46 33.904297 C 46 31.158829 44.390495 28.724794 41.996094 27.585938 L 41.986328 26.753906 C 41.993828 24.302502 40.205243 22.19373 37.785156 21.802734 L 37.783203 21.802734 L 27.646484 20.078125 A 1.0001 1.0001 0 0 0 27.638672 20.076172 C 27.487779 20.051698 27.338366 20.036337 27.189453 20.029297 C 24.955759 19.923697 23 21.731548 23 24.023438 L 23 24.242188 C 22.809011 24.209139 22.578791 24.173157 22.392578 24.140625 C 22.054681 24.081574 21.719948 24.055055 21.386719 24.042969 L 2.7890625 10.328125 L 2.7890625 10.326172 C 1.9212089 9.5875308 1.742606 8.4220907 2.3984375 7.5507812 L 3.7929688 5.734375 A 1.0001 1.0001 0 0 0 3.0488281 4.1132812 z M 7 15.917969 L 18.615234 24.484375 C 15.968846 25.461651 14 27.936014 14 31 L 14 32.517578 C 13.774657 32.687658 13.558173 32.868672 13.353516 33.0625 L 3.4140625 28.544922 L 6.8691406 22.496094 A 1.0001 1.0001 0 0 0 7 22 L 7 15.917969 z M 26.863281 22.027344 C 27.011146 22.018876 27.163896 22.025729 27.318359 22.050781 L 37.457031 23.775391 A 1.0001 1.0001 0 0 0 37.466797 23.777344 C 38.929758 24.013135 39.990849 25.264132 39.986328 26.746094 A 1.0001 1.0001 0 0 0 39.986328 26.759766 L 39.988281 26.982422 C 39.460034 26.901701 31.681985 25.706514 25 24.580078 L 25 24.023438 C 25 22.928533 25.828229 22.086616 26.863281 22.027344 z M 20.873047 26.03125 C 21.255878 26.01672 21.649185 26.041828 22.046875 26.111328 A 1.0001 1.0001 0 0 0 22.048828 26.111328 C 29.207306 27.361936 39.951943 28.999591 40.005859 29.007812 C 42.332778 29.489745 44 31.528687 44 33.904297 L 44 34 C 41.039615 34 38.572078 36.17166 38.091797 39 L 25.974609 39 C 25.985659 38.83413 26 38.668581 26 38.5 C 26 34.369709 22.630291 31 18.5 31 C 17.622829 31 16.783569 31.160476 16 31.439453 L 16 31 C 16 28.203922 18.193231 26.132963 20.873047 26.03125 z M 18.5 33 C 21.549411 33 24 35.450589 24 38.5 C 24 41.549411 21.549411 44 18.5 44 C 15.450589 44 13 41.549411 13 38.5 C 13 35.450589 15.450589 33 18.5 33 z M 44 36 C 46.220984 36 48 37.779016 48 40 C 48 42.220984 46.220984 44 44 44 C 41.809892 44 40.058287 42.267579 40.009766 40.089844 A 1.0001 1.0001 0 0 0 40.009766 39.908203 C 40.05931 37.7314 41.810556 36 44 36 z M 18.5 37 A 1.5 1.5 0 0 0 17 38.5 A 1.5 1.5 0 0 0 18.5 40 A 1.5 1.5 0 0 0 20 38.5 A 1.5 1.5 0 0 0 18.5 37 z M 44 39 A 1 1 0 0 0 43 40 A 1 1 0 0 0 44 41 A 1 1 0 0 0 45 40 A 1 1 0 0 0 44 39 z" fill="#000000"/></svg>
