<?xml version="1.0" encoding="UTF-8"?>
<svg xmlns="http://www.w3.org/2000/svg" xmlns:xlink="http://www.w3.org/1999/xlink" viewBox="0 0 50 50" version="1.1" fill="#000000"><g id="surface1" fill="#000000"><path style=" " d="M 25 2.59375 L 24.28125 3.28125 L 1.28125 26.28125 C 0.882813 26.679688 0.882813 27.320313 1.28125 27.71875 C 1.679688 28.117188 2.320313 28.117188 2.71875 27.71875 L 4.0625 26.375 C 4.03125 26.578125 4 26.789063 4 27 C 4 28.199219 4.558594 29.265625 5.40625 30 C 4.558594 30.734375 4 31.800781 4 33 C 4 34.199219 4.558594 35.265625 5.40625 36 C 4.558594 36.734375 4 37.800781 4 39 C 4 40.199219 4.558594 41.265625 5.40625 42 C 4.558594 42.734375 4 43.800781 4 45 C 4 46.488281 4.84375 47.78125 6.0625 48.46875 C 6.082031 48.492188 6.101563 48.511719 6.125 48.53125 C 6.3125 48.832031 6.644531 49.007813 7 49 L 43 49 C 43.378906 49.007813 43.730469 48.804688 43.90625 48.46875 C 45.136719 47.785156 46 46.5 46 45 C 46 43.800781 45.441406 42.734375 44.59375 42 C 45.441406 41.265625 46 40.199219 46 39 C 46 37.800781 45.441406 36.734375 44.59375 36 C 45.441406 35.265625 46 34.199219 46 33 C 46 31.800781 45.441406 30.734375 44.59375 30 C 45.441406 29.265625 46 28.199219 46 27 C 46 26.789063 45.96875 26.578125 45.9375 26.375 L 47.28125 27.71875 C 47.679688 28.117188 48.320313 28.117188 48.71875 27.71875 C 49.117188 27.320313 49.117188 26.679688 48.71875 26.28125 L 25.71875 3.28125 Z M 25 5.4375 L 30.5625 11 L 19.4375 11 Z M 32.46875 12.96875 C 32.488281 12.96875 32.511719 12.96875 32.53125 12.96875 L 36.5625 17 L 13.4375 17 L 17.4375 13 L 32.28125 13 C 32.34375 12.996094 32.40625 12.984375 32.46875 12.96875 Z M 11.4375 19 L 11.46875 19 C 11.480469 19 11.488281 19 11.5 19 L 38.5625 19 L 42.5625 23 L 7.4375 23 Z M 8 25 C 9.117188 25 10 25.882813 10 27 C 10 28.117188 9.117188 29 8 29 C 6.882813 29 6 28.117188 6 27 C 6 25.882813 6.882813 25 8 25 Z M 11.4375 25 L 38.5625 25 C 38.214844 25.59375 38 26.265625 38 27 C 38 27.734375 38.214844 28.40625 38.5625 29 L 11.4375 29 C 11.785156 28.40625 12 27.734375 12 27 C 12 26.265625 11.785156 25.59375 11.4375 25 Z M 42 25 C 43.117188 25 44 25.882813 44 27 C 44 28.117188 43.117188 29 42 29 C 40.882813 29 40 28.117188 40 27 C 40 25.882813 40.882813 25 42 25 Z M 8 31 C 9.117188 31 10 31.882813 10 33 C 10 34.117188 9.117188 35 8 35 C 6.882813 35 6 34.117188 6 33 C 6 31.882813 6.882813 31 8 31 Z M 11.4375 31 L 18 31 L 18 35 L 11.40625 35 C 11.765625 34.410156 12 33.738281 12 33 C 12 32.265625 11.785156 31.59375 11.4375 31 Z M 20 31 L 30 31 L 30 35.53125 C 29.867188 35.808594 29.867188 36.128906 30 36.40625 L 30 41.53125 C 29.867188 41.808594 29.867188 42.128906 30 42.40625 L 30 47 L 20 47 L 20 42.1875 C 20 42.15625 20 42.125 20 42.09375 C 20.007813 42.019531 20.007813 41.949219 20 41.875 L 20 36.1875 C 20.027344 36.054688 20.027344 35.914063 20 35.78125 Z M 32 31 L 38.5625 31 C 38.214844 31.59375 38 32.265625 38 33 C 38 33.734375 38.214844 34.40625 38.5625 35 L 32 35 Z M 42 31 C 43.117188 31 44 31.882813 44 33 C 44 34.117188 43.117188 35 42 35 C 40.882813 35 40 34.117188 40 33 C 40 31.882813 40.882813 31 42 31 Z M 8 37 C 9.117188 37 10 37.882813 10 39 C 10 40.117188 9.117188 41 8 41 C 6.882813 41 6 40.117188 6 39 C 6 37.882813 6.882813 37 8 37 Z M 11.40625 37 L 18 37 L 18 41 L 11.4375 41 C 11.785156 40.40625 12 39.734375 12 39 C 12 38.261719 11.765625 37.589844 11.40625 37 Z M 32 37 L 38.5625 37 C 38.214844 37.59375 38 38.265625 38 39 C 38 39.734375 38.214844 40.40625 38.5625 41 L 32 41 Z M 42 37 C 43.117188 37 44 37.882813 44 39 C 44 40.117188 43.117188 41 42 41 C 40.882813 41 40 40.117188 40 39 C 40 37.882813 40.882813 37 42 37 Z M 8 43 C 9.117188 43 10 43.882813 10 45 C 10 46.117188 9.117188 47 8 47 C 6.882813 47 6 46.117188 6 45 C 6 43.882813 6.882813 43 8 43 Z M 11.4375 43 L 18 43 L 18 47 L 11.4375 47 C 11.785156 46.40625 12 45.734375 12 45 C 12 44.265625 11.785156 43.59375 11.4375 43 Z M 32 43 L 38.5625 43 C 38.214844 43.59375 38 44.265625 38 45 C 38 45.734375 38.214844 46.40625 38.5625 47 L 32 47 Z M 42 43 C 43.117188 43 44 43.882813 44 45 C 44 46.117188 43.117188 47 42 47 C 40.882813 47 40 46.117188 40 45 C 40 43.882813 40.882813 43 42 43 Z " fill="#000000"/></g></svg>
