<?xml version="1.0" encoding="utf-8"?>
<svg xmlns="http://www.w3.org/2000/svg" viewBox="0 0 50 50" fill="#000000"><path style="line-height:normal;text-indent:0;text-align:start;text-decoration-line:none;text-decoration-style:solid;text-decoration-color:#000;text-transform:none;block-progression:tb;isolation:auto;mix-blend-mode:normal" d="M 3 8 A 1.0001 1.0001 0 0 0 2 9 L 2 41 A 1.0001 1.0001 0 0 0 3 42 L 41 42 A 1.0001 1.0001 0 0 0 41.316406 41.949219 L 47.316406 39.949219 A 1.0001 1.0001 0 0 0 48 39 L 48 11 A 1.0001 1.0001 0 0 0 47.316406 10.050781 L 41.316406 8.0507812 A 1.0001 1.0001 0 0 0 41 8 L 3 8 z M 4 10 L 40 10 L 40 40 L 4 40 L 4 10 z M 42 10.386719 L 46 11.720703 L 46 38.279297 L 42 39.611328 L 42 10.386719 z M 6 12 L 6 13 L 6 20 L 14 20 L 14 12 L 6 12 z M 8 14 L 12 14 L 12 18 L 8 18 L 8 14 z M 12 30 L 12 32 L 37 32 L 37 30 L 12 30 z M 12 34 L 12 36 L 37 36 L 37 34 L 12 34 z" font-weight="400" font-family="sans-serif" white-space="normal" overflow="visible" fill="#000000"/></svg>
