<?xml version="1.0" encoding="UTF-8"?>
<svg xmlns="http://www.w3.org/2000/svg" xmlns:xlink="http://www.w3.org/1999/xlink" viewBox="0 0 50 50" version="1.1" fill="#000000"><g id="surface1" fill="#000000"><path style=" " d="M 10 2 C 7.460938 2 5.976563 2.527344 5.089844 3.207031 C 4.648438 3.546875 4.367188 3.925781 4.210938 4.242188 C 4.054688 4.554688 4.007813 4.898438 4.007813 4.898438 C 3.972656 5.238281 4.109375 5.570313 4.375 5.78125 C 7.492188 8.273438 8.246094 12.722656 8.125 17.285156 C 8.121094 17.476563 8.105469 17.667969 8.097656 17.859375 C 8.089844 17.917969 8.085938 17.980469 8.085938 18.042969 C 7.886719 22.332031 7 26.394531 7 28.800781 C 7 35.128906 8.707031 39.574219 10.445313 42.433594 C 12.148438 45.230469 13.898438 46.519531 13.972656 46.574219 C 14.792969 47.277344 15.503906 47.65625 16.046875 47.835938 C 16.320313 47.925781 16.554688 47.972656 16.734375 47.988281 C 16.914063 48.007813 17.109375 47.996094 17.109375 47.996094 L 17 48 L 28 48 L 27.78125 47.976563 C 27.78125 47.976563 28 48.015625 28.191406 48.011719 C 28.386719 48.003906 28.636719 47.96875 28.925781 47.882813 C 29.5 47.710938 30.226563 47.3125 31.054688 46.546875 C 31.195313 46.449219 32.59375 45.453125 34.089844 43.25 C 35.582031 41.058594 37.085938 37.582031 37.640625 32.800781 C 40.792969 31.820313 43.085938 29.089844 44.605469 26.089844 C 46.191406 22.957031 47 19.535156 47 17.097656 C 47 15.316406 46.667969 13.363281 45.609375 11.761719 C 44.617188 10.257813 42.847656 9.230469 40.515625 9.097656 C 40.382813 9.035156 40.242188 9.003906 40.097656 9 L 40.027344 9 L 40.027344 9.015625 C 39.113281 9.023438 38.316406 9.320313 37.484375 9.535156 C 37.617188 8.769531 37.726563 7.929688 37.9375 7.34375 C 38.117188 6.851563 37.890625 6.304688 37.414063 6.089844 C 34.949219 4.96875 32.21875 4.996094 29.796875 5.257813 C 27.371094 5.515625 25.160156 6 24 6 C 21.492188 6 19.351563 5.082031 17.148438 4.085938 C 14.945313 3.09375 12.679688 2 10 2 Z M 10 4 C 12.121094 4 14.105469 4.90625 16.328125 5.914063 C 18.546875 6.917969 21.007813 8 24 8 C 25.636719 8 27.730469 7.484375 30.003906 7.242188 C 32.007813 7.03125 34.042969 7.128906 35.832031 7.730469 C 35.585938 8.679688 35.359375 9.628906 35.210938 10.65625 C 35.160156 11.015625 35.304688 11.367188 35.589844 11.589844 C 35.871094 11.808594 36.253906 11.859375 36.582031 11.722656 C 37.679688 11.265625 38.84375 11 40.097656 11 C 42.125 11 43.199219 11.742188 43.941406 12.863281 C 44.683594 13.984375 45 15.582031 45 17.097656 C 45 19.066406 44.257813 22.34375 42.820313 25.1875 C 41.394531 28 39.320313 30.328125 36.828125 31 L 36.800781 31 C 36.28125 31 35.851563 31.394531 35.804688 31.910156 C 35.371094 36.792969 33.835938 40.066406 32.4375 42.125 C 31.035156 44.183594 29.84375 44.96875 29.84375 44.96875 C 29.796875 45 29.753906 45.03125 29.71875 45.066406 C 29.058594 45.683594 28.59375 45.894531 28.347656 45.96875 C 28.226563 46.007813 28.15625 46.007813 28.136719 46.011719 C 28.089844 46.003906 28.046875 46 28 46 L 17 46 C 16.96875 46 16.9375 46 16.90625 46.003906 C 16.929688 46.003906 16.960938 46.003906 16.9375 46 C 16.902344 45.996094 16.816406 45.984375 16.679688 45.9375 C 16.40625 45.847656 15.921875 45.621094 15.253906 45.046875 C 15.230469 45.023438 15.207031 45.003906 15.179688 44.984375 C 15.179688 44.984375 13.71875 43.960938 12.15625 41.390625 C 10.589844 38.824219 9 34.773438 9 28.800781 C 9 27.074219 9.777344 23.199219 10.046875 19 L 35.109375 19 C 35.296875 22.738281 35.683594 26.132813 35.90625 27.921875 C 35.953125 28.277344 36.183594 28.582031 36.511719 28.722656 C 36.839844 28.859375 37.21875 28.8125 37.503906 28.597656 C 39.1875 27.320313 40.496094 25.226563 41.453125 23.066406 C 42.40625 20.90625 43 18.703125 43 17 C 43 15.953125 42.777344 15.015625 42.28125 14.269531 C 41.785156 13.523438 40.933594 13 40 13 C 38.234375 13 36.671875 13.429688 35.484375 14.140625 C 35.183594 14.324219 35 14.648438 35 15 C 35 15.671875 35.03125 16.332031 35.050781 17 L 10.125 17 C 10.199219 12.589844 9.414063 7.964844 6.21875 4.894531 C 6.257813 4.855469 6.25 4.839844 6.3125 4.792969 C 6.726563 4.472656 7.738281 4 10 4 Z M 40 15 C 40.265625 15 40.414063 15.074219 40.617188 15.378906 C 40.820313 15.683594 41 16.25 41 17 C 41 18.195313 40.492188 20.292969 39.625 22.257813 C 39.085938 23.472656 38.394531 24.554688 37.664063 25.492188 C 37.378906 22.914063 37.066406 19.433594 37.03125 15.648438 C 37.820313 15.28125 38.8125 15 40 15 Z " fill="#000000"/></g></svg>
