<?xml version="1.0" encoding="UTF-8"?>
<svg xmlns="http://www.w3.org/2000/svg" xmlns:xlink="http://www.w3.org/1999/xlink" viewBox="0 0 50 50" version="1.1" fill="#000000"><g id="surface1" fill="#000000"><path style=" " d="M 19 1 C 17.90625 1 17 1.90625 17 3 L 17 6 C 17 6.976563 17.722656 7.804688 18.65625 7.96875 C 18.558594 8.136719 18.445313 8.285156 18.34375 8.46875 C 17.640625 9.734375 16.949219 11.382813 16.3125 13.15625 C 15.042969 16.703125 14 20.566406 14 22.8125 L 14 45 C 14 47.75 16.25 50 19 50 L 31 50 C 33.75 50 36 47.75 36 45 L 36 22.8125 C 36 20.558594 34.941406 16.703125 33.65625 13.15625 C 33.015625 11.382813 32.328125 9.703125 31.625 8.4375 C 31.53125 8.269531 31.4375 8.125 31.34375 7.96875 C 32.277344 7.804688 33 6.976563 33 6 L 33 3 C 33 1.90625 32.09375 1 31 1 Z M 19 3 L 31 3 L 31 6 L 19 6 Z M 21.09375 8 L 28.84375 8 C 28.871094 8.015625 28.953125 8.066406 29.0625 8.1875 C 29.28125 8.429688 29.566406 8.882813 29.875 9.4375 C 30.492188 10.546875 31.164063 12.105469 31.78125 13.8125 C 33.015625 17.226563 34 21.269531 34 22.8125 L 34 45 C 34 46.667969 32.667969 48 31 48 L 19 48 C 17.332031 48 16 46.667969 16 45 L 16 22.8125 C 16 21.261719 16.964844 17.226563 18.1875 13.8125 C 18.800781 12.105469 19.480469 10.542969 20.09375 9.4375 C 20.398438 8.882813 20.6875 8.429688 20.90625 8.1875 C 21.007813 8.074219 21.0625 8.019531 21.09375 8 Z " fill="#000000"/></g></svg>
