<?xml version="1.0" encoding="UTF-8"?>
<svg xmlns="http://www.w3.org/2000/svg" xmlns:xlink="http://www.w3.org/1999/xlink" viewBox="0 0 50 50" version="1.1" fill="#000000"><g id="surface1" fill="#000000"><path style=" " d="M 23.21875 2 C 21.980469 2 21.015625 3.175781 21.257813 4.390625 L 21.78125 7 L 21.765625 7 L 13.621094 11.074219 L 7.523438 13.046875 C 7.34375 13.105469 7.1875 13.214844 7.0625 13.359375 L 6.234375 14.359375 C 6.058594 14.566406 5.976563 14.835938 6.003906 15.101563 C 6.035156 15.371094 6.167969 15.617188 6.378906 15.78125 L 13.632813 21.539063 L 13.9375 26.132813 C 13.988281 26.835938 14.410156 27.4375 15 27.753906 L 15 30 C 15 30.070313 15.015625 30.136719 15.019531 30.207031 C 14.429688 30.492188 13.988281 31.054688 13.902344 31.742188 L 12.144531 45.769531 C 12 46.945313 12.953125 48 14.128906 48 L 33.871094 48 C 35.042969 48 36 46.945313 35.851563 45.769531 L 35.851563 45.765625 L 34.097656 31.746094 L 34.097656 31.742188 C 34.015625 31.054688 33.570313 30.492188 32.980469 30.207031 C 32.984375 30.136719 33 30.070313 33 30 L 33 27.753906 C 33.589844 27.4375 34.011719 26.835938 34.0625 26.132813 L 34.925781 13.132813 C 34.929688 13.085938 34.921875 13.042969 34.921875 13 L 39.152344 13 C 39.472656 13 39.769531 13.152344 39.957031 13.410156 C 39.960938 13.417969 39.964844 13.421875 39.96875 13.421875 L 41.921875 16.050781 C 42.148438 16.363281 42.179688 16.746094 42.011719 17.082031 C 41.789063 17.527344 40.539063 19.753906 39.394531 21.773438 C 38.25 23.792969 37.175781 25.675781 37.175781 25.675781 C 36.988281 25.988281 36.988281 26.375 37.167969 26.6875 C 37.347656 27.003906 37.683594 27.195313 38.046875 27.191406 C 38.40625 27.1875 38.738281 26.988281 38.910156 26.671875 C 38.910156 26.671875 39.988281 24.785156 41.136719 22.761719 C 42.28125 20.734375 43.464844 18.640625 43.796875 17.984375 C 44.300781 16.980469 44.199219 15.777344 43.542969 14.875 C 43.539063 14.875 43.539063 14.871094 43.535156 14.867188 L 41.578125 12.238281 C 41.015625 11.460938 40.109375 11 39.152344 11 L 34.234375 11 L 26.234375 7 L 26.21875 7 L 26.742188 4.390625 C 26.984375 3.175781 26.019531 2 24.78125 2 Z M 23.21875 4 L 24.78125 4 L 24.179688 7 L 23.820313 7 Z M 22.234375 9 L 25.765625 9 L 29.765625 11 L 18.234375 11 Z M 15.070313 13 L 18.0625 13 L 18.933594 26 L 15.9375 26 L 15.613281 21.15625 C 15.621094 21.097656 15.621094 21.035156 15.617188 20.976563 Z M 20.066406 13 L 27.933594 13 L 27.0625 26 L 20.9375 26 Z M 29.9375 13 L 32.933594 13 L 32.0625 26 L 29.066406 26 Z M 13.085938 13.347656 L 13.453125 18.84375 L 8.429688 14.859375 Z M 17 28 L 31 28 L 31 30 L 17 30 Z M 32.113281 31.988281 L 33.863281 46 L 28.9375 46 L 28.0625 32 L 32.113281 32 C 32.128906 32 32.117188 31.992188 32.113281 31.988281 Z M 15.886719 31.988281 C 15.882813 31.992188 15.871094 32 15.886719 32 L 19.9375 32 L 19.0625 46 L 14.132813 46 Z M 21.9375 32 L 26.0625 32 L 26.9375 46 L 21.0625 46 Z M 17.5 33.5 C 16.949219 33.5 16.5 33.949219 16.5 34.5 C 16.5 35.050781 16.949219 35.5 17.5 35.5 C 18.050781 35.5 18.5 35.050781 18.5 34.5 C 18.5 33.949219 18.050781 33.5 17.5 33.5 Z " fill="#000000"/></g></svg>
