<?xml version="1.0" encoding="utf-8"?>
<svg xmlns="http://www.w3.org/2000/svg" viewBox="0 0 50 50" fill="#000000"><path d="M42,6.123v6.545c-0.312-0.11-0.647-0.17-0.995-0.17c-0.216,0-0.433,0.024-0.644,0.07 c-3.112,0.682-7.903,1.726-12.447,2.717c-3.696,0.806-7.228,1.576-9.563,2.087c-0.12,0.026-0.237,0.06-0.35,0.099V11.09 C20.499,10.555,38.586,6.827,42,6.123 M42,31.61V34c0,3.8-0.828,6-5.06,6C31,40,31,37.688,31,36c0-1.337,0-3,6-3 C39.364,33,40.947,32.434,42,31.61 M16,36.61V39c0,3.8-0.828,6-5.06,6C5,45,5,42.688,5,41c0-1.337,0-3,6-3 C13.364,38,14.947,37.434,16,36.61 M42.472,4.02c-0.192,0-0.322,0.03-0.322,0.03S19,8.82,17.37,9.18C16.39,9.39,16,10.04,16,11v21 c0,2.21-1.03,4-5,4c-5.66,0-8,1.46-8,5c0,2.38,0.49,6,7.94,6c6.91,0,7.06-5.32,7.06-8V20.301c0-0.47,0.321-0.875,0.78-0.976 c5.202-1.138,16.365-3.568,22.008-4.804c0.073-0.016,0.145-0.024,0.217-0.024c0.537,0,0.995,0.436,0.995,1.001V27 c0,2.21-1.03,4-5,4c-5.66,0-8,1.46-8,5c0,2.38,0.49,6,7.94,6c6.91,0,7.06-5.32,7.06-8V6C44,4.252,43.002,4.02,42.472,4.02 L42.472,4.02z" fill="#000000"/></svg>
