<?xml version="1.0" encoding="UTF-8"?>
<svg xmlns="http://www.w3.org/2000/svg" xmlns:xlink="http://www.w3.org/1999/xlink" viewBox="0 0 50 50" version="1.1" fill="#000000"><g id="surface1" fill="#000000"><path style=" " d="M 13.53125 4.0625 L 12.664063 4.566406 C 6.300781 8.253906 2 15.132813 2 23 L 2 24 L 17.953125 24 L 18.0625 23.125 C 18.300781 21.199219 19.320313 19.523438 20.796875 18.410156 L 21.503906 17.878906 L 21.0625 17.109375 Z M 36.46875 4.066406 L 28.496094 17.878906 L 29.203125 18.410156 C 30.679688 19.523438 31.699219 21.199219 31.9375 23.125 L 32.046875 24 L 48 24 L 48 23 C 48 15.132813 43.699219 8.257813 37.335938 4.570313 Z M 12.863281 6.910156 L 18.980469 17.5 C 17.691406 18.699219 16.789063 20.230469 16.375 22 L 4.132813 22 C 4.46875 15.65625 7.84375 10.179688 12.863281 6.910156 Z M 37.136719 6.914063 C 42.152344 10.183594 45.527344 15.65625 45.863281 22 L 33.625 22 C 33.210938 20.230469 32.308594 18.699219 31.019531 17.503906 Z M 25 19 C 22.25 19 20 21.25 20 24 C 20 26.75 22.25 29 25 29 C 27.75 29 30 26.75 30 24 C 30 21.25 27.75 19 25 19 Z M 25 21 C 26.667969 21 28 22.332031 28 24 C 28 25.667969 26.667969 27 25 27 C 23.332031 27 22 25.667969 22 24 C 22 22.332031 23.332031 21 25 21 Z M 28.601563 30.074219 L 27.796875 30.417969 C 26.941406 30.78125 25.996094 30.984375 25 30.984375 C 24.082031 30.984375 23.210938 30.808594 22.40625 30.496094 L 21.617188 30.1875 L 13.621094 43.695313 L 14.507813 44.199219 C 17.640625 45.96875 21.269531 47 25.140625 47 C 29.015625 47 32.644531 45.96875 35.777344 44.199219 L 36.667969 43.695313 Z M 27.675781 32.4375 L 33.839844 42.847656 C 31.210938 44.160156 28.292969 45 25.140625 45 C 21.992188 45 19.074219 44.160156 16.445313 42.847656 L 22.558594 32.523438 C 23.347656 32.746094 24.136719 32.984375 25 32.984375 C 25.949219 32.984375 26.816406 32.707031 27.675781 32.4375 Z " fill="#000000"/></g></svg>
