<?xml version="1.0" encoding="UTF-8"?>
<svg xmlns="http://www.w3.org/2000/svg" xmlns:xlink="http://www.w3.org/1999/xlink" viewBox="0 0 50 50" version="1.1" fill="#000000"><g id="surface1" fill="#000000"><path style=" " d="M 24.988281 3 C 24.863281 3 24.738281 3.027344 24.621094 3.074219 L 4.621094 11.242188 C 4.617188 11.246094 4.609375 11.246094 4.605469 11.25 C 4.59375 11.253906 4.585938 11.257813 4.578125 11.265625 C 4.558594 11.273438 4.539063 11.28125 4.519531 11.292969 C 4.507813 11.296875 4.496094 11.304688 4.484375 11.3125 C 4.464844 11.324219 4.449219 11.335938 4.429688 11.34375 C 4.425781 11.351563 4.417969 11.355469 4.414063 11.359375 C 4.390625 11.375 4.371094 11.390625 4.351563 11.40625 C 4.347656 11.410156 4.339844 11.414063 4.335938 11.421875 C 4.316406 11.4375 4.292969 11.460938 4.273438 11.480469 C 4.253906 11.503906 4.234375 11.523438 4.210938 11.546875 C 4.207031 11.558594 4.199219 11.566406 4.195313 11.574219 C 4.179688 11.59375 4.167969 11.613281 4.15625 11.636719 C 4.152344 11.636719 4.152344 11.640625 4.148438 11.640625 C 4.132813 11.667969 4.117188 11.695313 4.101563 11.722656 C 4.101563 11.726563 4.101563 11.730469 4.101563 11.734375 C 4.085938 11.757813 4.078125 11.785156 4.066406 11.8125 C 4.066406 11.816406 4.0625 11.820313 4.0625 11.824219 C 4.050781 11.851563 4.042969 11.882813 4.03125 11.910156 C 4.03125 11.914063 4.03125 11.917969 4.03125 11.921875 C 4.023438 11.949219 4.019531 11.976563 4.015625 12 C 4.011719 12.011719 4.011719 12.019531 4.007813 12.027344 C 4.007813 12.054688 4.003906 12.082031 4 12.109375 C 4 12.121094 4 12.132813 4 12.140625 C 4 12.152344 4 12.160156 4 12.167969 C 4 12.175781 4 12.179688 4 12.1875 L 4 36.832031 C 4 37.238281 4.246094 37.605469 4.621094 37.757813 L 24.621094 45.925781 C 24.625 45.925781 24.628906 45.929688 24.632813 45.929688 C 24.636719 45.933594 24.644531 45.933594 24.648438 45.9375 C 24.703125 45.957031 24.757813 45.972656 24.8125 45.984375 C 24.847656 45.988281 24.878906 45.992188 24.914063 45.996094 C 24.953125 46 24.992188 46 25.03125 46 C 25.046875 46 25.066406 45.996094 25.082031 45.996094 C 25.09375 45.996094 25.101563 45.996094 25.109375 45.996094 C 25.117188 45.992188 25.125 45.992188 25.128906 45.992188 C 25.15625 45.988281 25.183594 45.984375 25.207031 45.980469 C 25.214844 45.976563 25.222656 45.976563 25.226563 45.972656 C 25.234375 45.972656 25.242188 45.96875 25.25 45.96875 C 25.277344 45.960938 25.300781 45.953125 25.324219 45.949219 C 25.339844 45.941406 25.359375 45.933594 25.378906 45.925781 C 25.386719 45.921875 25.394531 45.917969 25.402344 45.917969 L 45.378906 37.757813 C 45.753906 37.605469 46 37.238281 46 36.832031 L 46 12.167969 C 46 12.164063 46 12.15625 46 12.152344 C 46 12.121094 45.996094 12.09375 45.996094 12.066406 C 45.992188 12.042969 45.988281 12.019531 45.984375 11.996094 C 45.984375 11.984375 45.980469 11.976563 45.980469 11.96875 C 45.980469 11.964844 45.976563 11.957031 45.976563 11.953125 C 45.96875 11.925781 45.964844 11.898438 45.953125 11.875 C 45.949219 11.851563 45.941406 11.828125 45.933594 11.808594 C 45.925781 11.792969 45.921875 11.777344 45.914063 11.765625 C 45.902344 11.738281 45.890625 11.710938 45.875 11.6875 C 45.875 11.683594 45.871094 11.679688 45.871094 11.671875 C 45.855469 11.648438 45.839844 11.625 45.828125 11.605469 C 45.824219 11.597656 45.820313 11.59375 45.816406 11.589844 C 45.800781 11.566406 45.785156 11.542969 45.765625 11.523438 C 45.761719 11.519531 45.757813 11.515625 45.753906 11.511719 C 45.734375 11.488281 45.71875 11.46875 45.699219 11.453125 C 45.695313 11.445313 45.691406 11.441406 45.6875 11.4375 C 45.664063 11.421875 45.644531 11.402344 45.621094 11.386719 C 45.59375 11.363281 45.570313 11.34375 45.542969 11.328125 C 45.511719 11.308594 45.484375 11.292969 45.453125 11.277344 C 45.429688 11.265625 45.402344 11.253906 45.378906 11.242188 L 45.363281 11.234375 L 25.378906 3.074219 C 25.253906 3.023438 25.121094 3 24.988281 3 Z M 25 5.078125 L 42.351563 12.167969 L 25 19.25 L 7.648438 12.167969 Z M 6 13.65625 L 24 21.003906 L 24 43.511719 L 6 36.160156 Z M 44 13.65625 L 44 16 C 43.449219 16 43 16.449219 43 17 C 43 17.550781 43.449219 18 44 18 L 44 22 C 43.449219 22 43 22.449219 43 23 C 43 23.550781 43.449219 24 44 24 L 44 28 C 43.449219 28 43 28.449219 43 29 C 43 29.550781 43.449219 30 44 30 L 44 34 C 43.449219 34 43 34.449219 43 35 C 43 35.550781 43.449219 36 44 36 L 44 36.160156 L 41.546875 37.164063 C 41.382813 37.058594 41.195313 37 41 37 C 40.53125 37 40.125 37.328125 40.023438 37.785156 L 32.945313 40.675781 C 32.808594 40.273438 32.425781 40 32 40 C 31.449219 40 31 40.449219 31 41 C 31 41.148438 31.035156 41.296875 31.097656 41.429688 L 26 43.511719 L 26 42 C 26.550781 42 27 41.550781 27 41 C 27 40.449219 26.550781 40 26 40 L 26 36 C 26.550781 36 27 35.550781 27 35 C 27 34.449219 26.550781 34 26 34 L 26 30 C 26.550781 30 27 29.550781 27 29 C 27 28.449219 26.550781 28 26 28 L 26 24 C 26.550781 24 27 23.550781 27 23 C 27 22.449219 26.550781 22 26 22 L 26 21.003906 L 28.015625 20.183594 C 28.105469 20.65625 28.519531 21 29 21 C 29.550781 21 30 20.550781 30 20 C 30 19.800781 29.941406 19.609375 29.828125 19.441406 L 37.167969 16.449219 C 37.058594 16.609375 37 16.804688 37 17 C 37 17.550781 37.449219 18 38 18 C 38.550781 18 39 17.550781 39 17 C 39 16.527344 38.667969 16.121094 38.207031 16.019531 L 40.777344 14.972656 C 40.847656 14.992188 40.925781 15 41 15 C 41.339844 15 41.65625 14.824219 41.84375 14.539063 C 41.84375 14.539063 41.84375 14.539063 41.84375 14.535156 Z M 35 19 C 34.449219 19 34 19.449219 34 20 C 34 20.550781 34.449219 21 35 21 C 35.550781 21 36 20.550781 36 20 C 36 19.449219 35.550781 19 35 19 Z M 41 19 C 40.449219 19 40 19.449219 40 20 C 40 20.550781 40.449219 21 41 21 C 41.550781 21 42 20.550781 42 20 C 42 19.449219 41.550781 19 41 19 Z M 32 22 C 31.449219 22 31 22.449219 31 23 C 31 23.550781 31.449219 24 32 24 C 32.550781 24 33 23.550781 33 23 C 33 22.449219 32.550781 22 32 22 Z M 38 22 C 37.449219 22 37 22.449219 37 23 C 37 23.550781 37.449219 24 38 24 C 38.550781 24 39 23.550781 39 23 C 39 22.449219 38.550781 22 38 22 Z M 29 25 C 28.449219 25 28 25.449219 28 26 C 28 26.550781 28.449219 27 29 27 C 29.550781 27 30 26.550781 30 26 C 30 25.449219 29.550781 25 29 25 Z M 35 25 C 34.449219 25 34 25.449219 34 26 C 34 26.550781 34.449219 27 35 27 C 35.550781 27 36 26.550781 36 26 C 36 25.449219 35.550781 25 35 25 Z M 41 25 C 40.449219 25 40 25.449219 40 26 C 40 26.550781 40.449219 27 41 27 C 41.550781 27 42 26.550781 42 26 C 42 25.449219 41.550781 25 41 25 Z M 32 28 C 31.449219 28 31 28.449219 31 29 C 31 29.550781 31.449219 30 32 30 C 32.550781 30 33 29.550781 33 29 C 33 28.449219 32.550781 28 32 28 Z M 38 28 C 37.449219 28 37 28.449219 37 29 C 37 29.550781 37.449219 30 38 30 C 38.550781 30 39 29.550781 39 29 C 39 28.449219 38.550781 28 38 28 Z M 29 31 C 28.449219 31 28 31.449219 28 32 C 28 32.550781 28.449219 33 29 33 C 29.550781 33 30 32.550781 30 32 C 30 31.449219 29.550781 31 29 31 Z M 35 31 C 34.449219 31 34 31.449219 34 32 C 34 32.550781 34.449219 33 35 33 C 35.550781 33 36 32.550781 36 32 C 36 31.449219 35.550781 31 35 31 Z M 41 31 C 40.449219 31 40 31.449219 40 32 C 40 32.550781 40.449219 33 41 33 C 41.550781 33 42 32.550781 42 32 C 42 31.449219 41.550781 31 41 31 Z M 32 34 C 31.449219 34 31 34.449219 31 35 C 31 35.550781 31.449219 36 32 36 C 32.550781 36 33 35.550781 33 35 C 33 34.449219 32.550781 34 32 34 Z M 38 34 C 37.449219 34 37 34.449219 37 35 C 37 35.550781 37.449219 36 38 36 C 38.550781 36 39 35.550781 39 35 C 39 34.449219 38.550781 34 38 34 Z M 29 37 C 28.449219 37 28 37.449219 28 38 C 28 38.550781 28.449219 39 29 39 C 29.550781 39 30 38.550781 30 38 C 30 37.449219 29.550781 37 29 37 Z M 35 37 C 34.449219 37 34 37.449219 34 38 C 34 38.550781 34.449219 39 35 39 C 35.550781 39 36 38.550781 36 38 C 36 37.449219 35.550781 37 35 37 Z " fill="#000000"/></g></svg>
