<?xml version="1.0" encoding="UTF-8"?>
<svg xmlns="http://www.w3.org/2000/svg" xmlns:xlink="http://www.w3.org/1999/xlink" viewBox="0 0 50 50" version="1.1" fill="#000000"><g id="surface1" fill="#000000"><path style=" " d="M 24.964844 1 C 24.820313 1.003906 24.679688 1.042969 24.550781 1.105469 L 12.695313 7.03125 C 12.59375 7.054688 12.488281 7.070313 12.402344 7.101563 C 12.191406 7.167969 12.101563 7.425781 12.050781 7.679688 C 12.019531 7.78125 12 7.890625 12 8 L 12 21.382813 L 0.554688 27.105469 C 0.539063 27.113281 0.527344 27.117188 0.515625 27.125 C 0.503906 27.132813 0.492188 27.136719 0.484375 27.144531 C 0.46875 27.152344 0.457031 27.160156 0.445313 27.167969 C 0.402344 27.195313 0.359375 27.230469 0.320313 27.265625 C 0.304688 27.28125 0.289063 27.296875 0.273438 27.3125 C 0.265625 27.320313 0.257813 27.328125 0.25 27.339844 C 0.238281 27.351563 0.226563 27.367188 0.214844 27.382813 C 0.207031 27.394531 0.195313 27.40625 0.1875 27.417969 C 0.175781 27.433594 0.167969 27.449219 0.15625 27.464844 C 0.148438 27.476563 0.140625 27.488281 0.132813 27.5 C 0.125 27.515625 0.117188 27.53125 0.109375 27.546875 C 0.101563 27.5625 0.09375 27.582031 0.0820313 27.597656 C 0.0820313 27.605469 0.078125 27.609375 0.078125 27.613281 C 0.0664063 27.640625 0.0585938 27.664063 0.046875 27.691406 C 0.046875 27.699219 0.0429688 27.710938 0.0390625 27.71875 C 0.0351563 27.738281 0.03125 27.761719 0.0234375 27.78125 C 0.0195313 27.800781 0.015625 27.820313 0.0117188 27.84375 C 0.0117188 27.851563 0.0117188 27.863281 0.0078125 27.875 C 0.0078125 27.890625 0.00390625 27.910156 0.00390625 27.925781 C 0 27.953125 0 27.976563 0 28 L 0 42 C 0 42.378906 0.214844 42.726563 0.554688 42.894531 L 12.550781 48.894531 C 12.582031 48.910156 12.609375 48.921875 12.640625 48.933594 C 12.664063 48.941406 12.691406 48.949219 12.71875 48.957031 C 12.722656 48.960938 12.730469 48.960938 12.738281 48.964844 C 12.800781 48.980469 12.867188 48.992188 12.929688 49 C 12.964844 49 12.996094 49 13.03125 49 C 13.03125 49 13.035156 49 13.035156 49 C 13.070313 49 13.105469 48.996094 13.136719 48.988281 C 13.167969 48.988281 13.195313 48.980469 13.226563 48.972656 C 13.230469 48.972656 13.230469 48.972656 13.234375 48.972656 C 13.238281 48.972656 13.242188 48.972656 13.246094 48.96875 C 13.3125 48.953125 13.382813 48.925781 13.449219 48.894531 L 25.015625 43.109375 L 36.597656 48.902344 C 36.699219 49 36.898438 49 37 49 C 37.101563 49 37.300781 49 37.402344 48.902344 L 44.300781 45.5 L 49.402344 42.902344 C 49.699219 42.699219 50 42.398438 50 42 L 50 27.699219 C 49.898438 27.597656 49.902344 27.5 49.902344 27.5 C 49.902344 27.5 49.902344 27.402344 49.800781 27.402344 L 49.699219 27.300781 C 49.699219 27.300781 49.597656 27.300781 49.597656 27.199219 C 49.597656 27.199219 49.5 27.199219 49.5 27.097656 L 38 21.402344 L 38 8.007813 C 38 8.003906 38 8 38 8 C 38 7.746094 37.902344 7.5 37.730469 7.316406 C 37.660156 7.234375 37.585938 7.15625 37.5 7.101563 C 37.40625 7.035156 37.300781 7 37.191406 6.976563 L 25.449219 1.105469 C 25.296875 1.03125 25.128906 0.992188 24.964844 1 Z M 25 3.117188 L 34.738281 7.988281 L 29.074219 10.84375 L 25 12.882813 L 15.234375 8 Z M 14 9.617188 L 24 14.617188 L 24 26.382813 L 14 21.382813 Z M 36 9.617188 L 36 13 C 35.449219 13 35 13.449219 35 14 C 35 14.550781 35.449219 15 36 15 L 36 19 C 35.449219 19 35 19.449219 35 20 C 35 20.550781 35.449219 21 36 21 L 36 21.402344 L 33.851563 22.472656 C 33.667969 22.179688 33.347656 22 33 22 C 32.449219 22 32 22.449219 32 23 C 32 23.125 32.023438 23.25 32.070313 23.363281 L 26 26.402344 L 26 14.617188 L 32.15625 11.539063 C 32.160156 11.539063 32.160156 11.539063 32.15625 11.542969 C 32.34375 11.828125 32.660156 12 33 12 C 33.550781 12 34 11.550781 34 11 C 34 10.878906 33.976563 10.761719 33.9375 10.652344 Z M 26 17 C 26 17.550781 26.449219 18 27 18 C 27.550781 18 28 17.550781 28 17 C 28 16.449219 27.550781 16 27 16 C 26.449219 16 26 16.449219 26 17 Z M 26 23 C 26 23.550781 26.449219 24 27 24 C 27.550781 24 28 23.550781 28 23 C 28 22.449219 27.550781 22 27 22 C 26.449219 22 26 22.449219 26 23 Z M 30 13 C 29.449219 13 29 13.449219 29 14 C 29 14.550781 29.449219 15 30 15 C 30.550781 15 31 14.550781 31 14 C 31 13.449219 30.550781 13 30 13 Z M 33 16 C 32.449219 16 32 16.449219 32 17 C 32 17.550781 32.449219 18 33 18 C 33.550781 18 34 17.550781 34 17 C 34 16.449219 33.550781 16 33 16 Z M 30 19 C 29.449219 19 29 19.449219 29 20 C 29 20.550781 29.449219 21 30 21 C 30.550781 21 31 20.550781 31 20 C 31 19.449219 30.550781 19 30 19 Z M 37 23.097656 L 46.800781 28 L 37 32.902344 L 27.199219 28 Z M 13 23.117188 L 22.765625 28 L 13 32.882813 L 3.234375 28 Z M 26 29.585938 L 30.902344 32 L 36 34.5 L 36 46.402344 L 26 41.402344 Z M 2 29.617188 L 12 34.617188 L 12 46.382813 L 2 41.382813 Z M 24 29.617188 L 24 33 C 23.449219 33 23 33.449219 23 34 C 23 34.550781 23.449219 35 24 35 L 24 39 C 23.449219 39 23 39.449219 23 40 C 23 40.550781 23.449219 41 24 41 L 24 41.382813 L 21.84375 42.460938 C 21.84375 42.460938 21.84375 42.460938 21.84375 42.457031 C 21.65625 42.171875 21.339844 42 21 42 C 20.449219 42 20 42.449219 20 43 C 20 43.121094 20.023438 43.238281 20.0625 43.351563 L 14 46.382813 L 14 34.617188 L 20.15625 31.539063 C 20.15625 31.539063 20.15625 31.539063 20.15625 31.542969 C 20.34375 31.828125 20.660156 32 21 32 C 21.550781 32 22 31.550781 22 31 C 22 30.878906 21.976563 30.761719 21.9375 30.652344 Z M 14 37 C 14 37.550781 14.449219 38 15 38 C 15.550781 38 16 37.550781 16 37 C 16 36.449219 15.550781 36 15 36 C 14.449219 36 14 36.449219 14 37 Z M 14 43 C 14 43.550781 14.449219 44 15 44 C 15.550781 44 16 43.550781 16 43 C 16 42.449219 15.550781 42 15 42 C 14.449219 42 14 42.449219 14 43 Z M 48 29.699219 L 48 33 C 47.449219 33 47 33.449219 47 34 C 47 34.550781 47.449219 35 48 35 L 48 39 C 47.449219 39 47 39.449219 47 40 C 47 40.550781 47.449219 41 48 41 L 48 41.402344 L 45.851563 42.472656 C 45.667969 42.179688 45.347656 42 45 42 C 44.449219 42 44 42.449219 44 43 C 44 43.125 44.023438 43.25 44.070313 43.363281 L 42.800781 44 L 38 46.402344 L 38 34.597656 L 44.179688 31.570313 C 44.367188 31.839844 44.671875 32 45 32 C 45.550781 32 46 31.550781 46 31 C 46 30.898438 45.984375 30.800781 45.953125 30.703125 Z M 38 37 C 38 37.550781 38.449219 38 39 38 C 39.550781 38 40 37.550781 40 37 C 40 36.449219 39.550781 36 39 36 C 38.449219 36 38 36.449219 38 37 Z M 38 43 C 38 43.550781 38.449219 44 39 44 C 39.550781 44 40 43.550781 40 43 C 40 42.449219 39.550781 42 39 42 C 38.449219 42 38 42.449219 38 43 Z M 18 33 C 17.449219 33 17 33.449219 17 34 C 17 34.550781 17.449219 35 18 35 C 18.550781 35 19 34.550781 19 34 C 19 33.449219 18.550781 33 18 33 Z M 42 33 C 41.449219 33 41 33.449219 41 34 C 41 34.550781 41.449219 35 42 35 C 42.550781 35 43 34.550781 43 34 C 43 33.449219 42.550781 33 42 33 Z M 21 36 C 20.449219 36 20 36.449219 20 37 C 20 37.550781 20.449219 38 21 38 C 21.550781 38 22 37.550781 22 37 C 22 36.449219 21.550781 36 21 36 Z M 45 36 C 44.449219 36 44 36.449219 44 37 C 44 37.550781 44.449219 38 45 38 C 45.550781 38 46 37.550781 46 37 C 46 36.449219 45.550781 36 45 36 Z M 18 39 C 17.449219 39 17 39.449219 17 40 C 17 40.550781 17.449219 41 18 41 C 18.550781 41 19 40.550781 19 40 C 19 39.449219 18.550781 39 18 39 Z M 42 39 C 41.449219 39 41 39.449219 41 40 C 41 40.550781 41.449219 41 42 41 C 42.550781 41 43 40.550781 43 40 C 43 39.449219 42.550781 39 42 39 Z " fill="#000000"/></g></svg>
