<?xml version="1.0" encoding="UTF-8"?>
<svg xmlns="http://www.w3.org/2000/svg" xmlns:xlink="http://www.w3.org/1999/xlink" viewBox="0 0 50 50" version="1.1" fill="#000000"><g id="surface1" fill="#000000"><path style=" " d="M 25 2 C 18.320313 2 14.132813 3.203125 11.53125 4.96875 C 8.929688 6.734375 8 9.109375 8 11 C 8 13.332031 9.164063 15.527344 10.625 18.34375 C 11.90625 20.808594 13.449219 23.738281 14.90625 27.59375 C 14.28125 27.296875 13.71875 26.863281 13.3125 26.28125 L 9.6875 21.09375 C 9.027344 20.152344 8.023438 19.625 6.96875 19.53125 C 5.914063 19.4375 4.8125 19.78125 4 20.59375 L 3.90625 20.6875 C 2.636719 21.957031 2.445313 23.960938 3.46875 25.4375 L 8.78125 33.125 C 10.460938 35.554688 13.234375 37 16.1875 37 L 24 37 L 24 40 L 22.875 40 L 22.75 40.03125 L 14.625 42.25 C 12.484375 42.832031 11 44.78125 11 47 L 11 48 L 14.125 48 L 14.21875 47.96875 L 23 46 L 27 46 L 35.78125 47.96875 L 35.875 48 L 39 48 L 39 47 C 39 44.78125 37.515625 42.832031 35.375 42.25 L 27.25 40.03125 L 27.125 40 L 26 40 L 26 37 L 34.53125 37 C 37.65625 37 40.550781 35.378906 42.1875 32.71875 L 46.71875 25.375 C 47.621094 23.90625 47.40625 22 46.1875 20.78125 C 44.488281 19.082031 41.578125 19.4375 40.34375 21.5 L 37.59375 26.0625 C 37.011719 27.03125 36.054688 27.683594 34.96875 27.90625 C 36.457031 23.898438 38.0625 20.871094 39.375 18.34375 C 40.835938 15.527344 42 13.332031 42 11 C 42 9.109375 41.070313 6.734375 38.46875 4.96875 C 35.867188 3.203125 31.679688 2 25 2 Z M 25 4 C 31.433594 4 35.222656 5.1875 37.34375 6.625 C 39.464844 8.0625 40 9.714844 40 11 C 40 12.628906 39.046875 14.636719 37.59375 17.4375 C 36.21875 20.085938 34.453125 23.519531 32.84375 28 L 17.15625 28 C 15.546875 23.523438 13.78125 20.085938 12.40625 17.4375 C 10.953125 14.636719 10 12.628906 10 11 C 10 9.714844 10.535156 8.0625 12.65625 6.625 C 14.777344 5.1875 18.566406 4 25 4 Z M 6.40625 21.5 C 6.527344 21.484375 6.660156 21.488281 6.78125 21.5 C 7.265625 21.542969 7.75 21.800781 8.0625 22.25 L 11.6875 27.4375 C 12.734375 28.9375 14.40625 29.851563 16.21875 29.96875 C 16.34375 29.976563 16.464844 30 16.59375 30 L 34.15625 30 C 36.261719 30 38.230469 28.898438 39.3125 27.09375 L 42.0625 22.5 C 42.652344 21.511719 43.96875 21.375 44.78125 22.1875 C 45.351563 22.757813 45.453125 23.625 45.03125 24.3125 L 40.5 31.65625 C 39.226563 33.726563 36.964844 35 34.53125 35 L 16.1875 35 C 13.886719 35 11.746094 33.859375 10.4375 31.96875 L 5.125 24.3125 C 4.652344 23.628906 4.710938 22.722656 5.28125 22.125 L 5.40625 22 C 5.695313 21.710938 6.042969 21.542969 6.40625 21.5 Z M 23.125 42 L 26.875 42 L 34.84375 44.1875 C 35.761719 44.4375 36.328125 45.15625 36.65625 46 L 36 46 L 27.21875 44.03125 L 27.125 44 L 22.875 44 L 22.78125 44.03125 L 14 46 L 13.34375 46 C 13.671875 45.15625 14.238281 44.4375 15.15625 44.1875 Z " fill="#000000"/></g></svg>
