<?xml version="1.0" encoding="utf-8"?>
<svg xmlns="http://www.w3.org/2000/svg" viewBox="0 0 50 50" fill="#000000"><path style="line-height:normal;text-indent:0;text-align:start;text-decoration-line:none;text-decoration-style:solid;text-decoration-color:#000;text-transform:none;block-progression:tb;isolation:auto;mix-blend-mode:normal" d="M 24.966797 3 A 1.0001 1.0001 0 0 0 24.736328 3.0351562 L 2.7363281 9.0351562 A 1.0001 1.0001 0 0 0 2 10 L 2 46 A 1.0001 1.0001 0 0 0 3.3417969 46.939453 L 25 39.064453 L 46.658203 46.939453 A 1.0001 1.0001 0 0 0 48 46 L 48 10 A 1.0001 1.0001 0 0 0 47.263672 9.0351562 L 25.263672 3.0351562 A 1.0001 1.0001 0 0 0 24.966797 3 z M 25 5.0371094 L 46 10.763672 L 46 30.125 L 30.308594 25.048828 A 1.0001 1.0001 0 0 0 30.013672 25 A 1.0001 1.0001 0 0 0 29.076172 25.615234 L 24.244141 37.210938 L 4 44.572266 L 4 10.763672 L 25 5.0371094 z M 25 7.1113281 A 1 1 0 0 0 24 8.1113281 A 1 1 0 0 0 25 9.1113281 A 1 1 0 0 0 26 8.1113281 A 1 1 0 0 0 25 7.1113281 z M 25 11.111328 A 1 1 0 0 0 24 12.111328 A 1 1 0 0 0 25 13.111328 A 1 1 0 0 0 26 12.111328 A 1 1 0 0 0 25 11.111328 z M 25 15.111328 A 1 1 0 0 0 24 16.111328 A 1 1 0 0 0 25 17.111328 A 1 1 0 0 0 26 16.111328 A 1 1 0 0 0 25 15.111328 z M 25 19.111328 A 1 1 0 0 0 24 20.111328 A 1 1 0 0 0 25 21.111328 A 1 1 0 0 0 26 20.111328 A 1 1 0 0 0 25 19.111328 z M 25 23.111328 A 1 1 0 0 0 24 24.111328 A 1 1 0 0 0 25 25.111328 A 1 1 0 0 0 26 24.111328 A 1 1 0 0 0 25 23.111328 z M 25 27.111328 A 1 1 0 0 0 24 28.111328 A 1 1 0 0 0 25 29.111328 A 1 1 0 0 0 26 28.111328 A 1 1 0 0 0 25 27.111328 z M 30.568359 27.234375 L 46 32.226562 L 46 44.572266 L 26.326172 37.417969 L 30.568359 27.234375 z M 25 31 A 1 1 0 0 0 24 32 A 1 1 0 0 0 25 33 A 1 1 0 0 0 26 32 A 1 1 0 0 0 25 31 z" fill="#000000"/></svg>
