<?xml version="1.0" encoding="UTF-8"?>
<svg xmlns="http://www.w3.org/2000/svg" xmlns:xlink="http://www.w3.org/1999/xlink" viewBox="0 0 50 50" version="1.1" fill="#000000"><g id="surface1" fill="#000000"><path style=" " d="M 22.40625 0.59375 L 20.59375 1.40625 L 22.96875 6.875 L 17.4375 4.09375 L 16.5625 5.90625 L 20.75 8 L 4 8 C 3.96875 8 3.9375 8 3.90625 8 C 3.390625 8.046875 2.996094 8.480469 3 9 L 3 17 C 3 17.550781 3.449219 18 4 18 L 5 18 L 5 43 C 5 43.550781 5.449219 44 6 44 L 44 44 C 44.550781 44 45 43.550781 45 43 L 45 18 L 46 18 C 46.550781 18 47 17.550781 47 17 L 47 9 C 47 8.449219 46.550781 8 46 8 L 29.25 8 L 33.4375 5.90625 L 32.5625 4.09375 L 27.03125 6.875 L 29.40625 1.40625 L 27.59375 0.59375 L 25 6.53125 Z M 5 10 L 24 10 L 24 16 L 6.1875 16 C 6.054688 15.972656 5.914063 15.972656 5.78125 16 L 5 16 Z M 26 10 L 45 10 L 45 16 L 26 16 Z M 7 18 L 24 18 L 24 42 L 7 42 Z M 26 18 L 43 18 L 43 42 L 26 42 Z " fill="#000000"/></g></svg>
