<?xml version="1.0" encoding="UTF-8"?>
<svg xmlns="http://www.w3.org/2000/svg" xmlns:xlink="http://www.w3.org/1999/xlink" viewBox="0 0 50 50" version="1.1" fill="#000000"><g id="surface1" fill="#000000"><path style=" " d="M 10.394531 5 C 8.535156 5 7 6.523438 7 8.382813 L 7 9 L 5 9 C 3.355469 9 2 10.355469 2 12 L 2 35.109375 C 2 36.753906 3.355469 38.109375 5 38.109375 L 5.101563 38.109375 L 41.304688 43.988281 L 41.3125 43.988281 C 42.226563 44.125 43.011719 43.753906 43.652344 43.265625 C 44.292969 42.773438 44.84375 42.136719 44.984375 41.25 L 44.996094 41.207031 L 45.238281 38.082031 C 46.773438 37.957031 48 36.671875 48 35.109375 L 48 12 C 48 10.355469 46.644531 9 45 9 L 14 9 L 14 8.382813 C 14 6.414063 12.253906 5 10.394531 5 Z M 10.394531 7 C 11.179688 7 12 7.714844 12 8.382813 L 12 9 L 9 9 L 9 8.382813 C 9 7.609375 9.609375 7 10.394531 7 Z M 5 11 L 7 11 L 7 17.308594 C 7 18.839844 8.269531 20.09375 9.796875 20.09375 L 10 20.09375 C 10.765625 20.09375 11.46875 19.804688 12.023438 19.328125 C 12.578125 18.851563 13 18.144531 13 17.308594 L 13 13 C 13.003906 12.640625 12.816406 12.304688 12.503906 12.121094 C 12.191406 11.941406 11.808594 11.941406 11.496094 12.121094 C 11.183594 12.304688 10.996094 12.640625 11 13 L 11 17.308594 C 11 17.460938 10.917969 17.640625 10.71875 17.8125 C 10.523438 17.984375 10.226563 18.09375 10 18.09375 L 9.796875 18.09375 C 9.34375 18.09375 9 17.75 9 17.308594 L 9 11 L 45 11 C 45.566406 11 46 11.433594 46 12 L 46 35.109375 C 46 35.671875 45.566406 36.109375 45 36.109375 L 5 36.109375 C 4.433594 36.109375 4 35.671875 4 35.109375 L 4 12 C 4 11.433594 4.433594 11 5 11 Z M 21 17 C 20.640625 16.996094 20.304688 17.183594 20.121094 17.496094 C 19.941406 17.808594 19.941406 18.191406 20.121094 18.503906 C 20.304688 18.816406 20.640625 19.003906 21 19 L 39 19 C 39.359375 19.003906 39.695313 18.816406 39.878906 18.503906 C 40.058594 18.191406 40.058594 17.808594 39.878906 17.496094 C 39.695313 17.183594 39.359375 16.996094 39 17 Z M 21 22 C 20.640625 21.996094 20.304688 22.183594 20.121094 22.496094 C 19.941406 22.808594 19.941406 23.191406 20.121094 23.503906 C 20.304688 23.816406 20.640625 24.003906 21 24 L 39 24 C 39.359375 24.003906 39.695313 23.816406 39.878906 23.503906 C 40.058594 23.191406 40.058594 22.808594 39.878906 22.496094 C 39.695313 22.183594 39.359375 21.996094 39 22 Z M 21 27 C 20.640625 26.996094 20.304688 27.183594 20.121094 27.496094 C 19.941406 27.808594 19.941406 28.191406 20.121094 28.503906 C 20.304688 28.816406 20.640625 29.003906 21 29 L 39 29 C 39.359375 29.003906 39.695313 28.816406 39.878906 28.503906 C 40.058594 28.191406 40.058594 27.808594 39.878906 27.496094 C 39.695313 27.183594 39.359375 26.996094 39 27 Z M 17.578125 38.109375 L 43.230469 38.109375 L 43.011719 40.933594 C 42.992188 41.03125 42.777344 41.417969 42.4375 41.671875 C 42.101563 41.933594 41.691406 42.023438 41.609375 42.011719 Z " fill="#000000"/></g></svg>
