<?xml version="1.0" encoding="UTF-8"?>
<svg xmlns="http://www.w3.org/2000/svg" xmlns:xlink="http://www.w3.org/1999/xlink" viewBox="0 0 50 50" version="1.1" fill="#000000"><g id="surface1" fill="#000000"><path style=" " d="M 22.34375 1 C 18.4375 1 15.90625 2.066406 14.28125 3.6875 C 12.65625 5.308594 11.972656 7.335938 11.375 9.125 C 10.332031 12.246094 2.8125 34.34375 2.8125 34.34375 C 2.777344 34.433594 2.757813 34.527344 2.75 34.625 C 2.75 34.636719 2.75 34.644531 2.75 34.65625 C 2.277344 35.707031 2 36.941406 2 38.375 C 2 40.71875 2.863281 43.128906 4.6875 44.96875 C 6.511719 46.808594 9.292969 48.03125 12.96875 48.03125 C 15.953125 48.03125 18.226563 47.195313 19.75 45.875 C 21.273438 44.554688 22 42.75 22 41 C 22 38.800781 20.785156 36.992188 19.09375 35.8125 C 17.402344 34.632813 15.226563 34 13 34 C 11.527344 34 10.105469 34.3125 8.96875 35.03125 C 7.832031 35.75 7 36.972656 7 38.46875 C 7 39.417969 7.285156 40.289063 7.8125 40.9375 C 8.339844 41.585938 9.074219 42.019531 9.84375 42.3125 C 11.382813 42.902344 13.207031 43 15 43 C 15.359375 43.003906 15.695313 42.816406 15.878906 42.503906 C 16.058594 42.191406 16.058594 41.808594 15.878906 41.496094 C 15.695313 41.183594 15.359375 40.996094 15 41 C 13.304688 41 11.652344 40.855469 10.5625 40.4375 C 10.019531 40.230469 9.617188 39.953125 9.375 39.65625 C 9.132813 39.359375 9 39.027344 9 38.46875 C 9 37.644531 9.332031 37.160156 10.03125 36.71875 C 10.730469 36.277344 11.820313 36 13 36 C 14.847656 36 16.679688 36.539063 17.96875 37.4375 C 19.257813 38.335938 20 39.511719 20 41 C 20 42.199219 19.53125 43.394531 18.4375 44.34375 C 17.34375 45.292969 15.585938 46.03125 12.96875 46.03125 C 9.722656 46.03125 7.515625 44.996094 6.09375 43.5625 C 4.671875 42.128906 4 40.238281 4 38.375 C 4 34.574219 6.097656 32.917969 8.375 31.96875 C 10.433594 31.109375 12.457031 31.011719 12.84375 31 C 12.894531 31.003906 12.949219 31.003906 13 31 C 13.03125 31 13.0625 31 13.09375 31 C 17.777344 31.015625 20.203125 32.023438 21.71875 33.40625 C 23.242188 34.796875 23.9375 36.714844 24.84375 38.875 C 25.75 41.035156 26.917969 43.40625 29.46875 45.15625 C 32.019531 46.90625 35.835938 48 42 48 C 42.488281 48.007813 42.910156 47.664063 43 47.1875 L 49.09375 12.84375 C 49.140625 12.558594 49.058594 12.265625 48.871094 12.046875 C 48.6875 11.824219 48.414063 11.691406 48.125 11.6875 C 43.359375 11.6875 40.332031 11.019531 38.25 10.09375 C 36.167969 9.167969 34.988281 7.984375 33.875 6.6875 C 32.761719 5.390625 31.726563 3.960938 30 2.84375 C 28.273438 1.726563 25.921875 1 22.34375 1 Z M 22.34375 3 C 25.664063 3 27.542969 3.617188 28.90625 4.5 C 30.269531 5.382813 31.195313 6.628906 32.375 8 C 33.554688 9.371094 35.019531 10.832031 37.4375 11.90625 C 39.628906 12.878906 42.722656 13.480469 46.9375 13.59375 L 41.15625 45.90625 C 35.855469 45.792969 32.566406 44.882813 30.59375 43.53125 C 28.496094 42.09375 27.5625 40.214844 26.6875 38.125 C 25.8125 36.035156 25.03125 33.703125 23.0625 31.90625 C 21.117188 30.132813 18.109375 29.027344 13.1875 29 C 13.175781 29 13.167969 29 13.15625 29 C 13.125 29 13.09375 29 13.0625 29 C 13.042969 29 13.019531 29 13 29 C 12.957031 28.996094 12.917969 28.996094 12.875 29 C 12.847656 29 12.78125 29.03125 12.71875 29.03125 C 12.089844 29.050781 9.933594 29.160156 7.625 30.125 C 7.117188 30.335938 6.597656 30.621094 6.09375 30.9375 C 7.8125 25.898438 12.390625 12.449219 13.28125 9.78125 C 13.875 8 14.472656 6.308594 15.6875 5.09375 C 16.902344 3.878906 18.785156 3 22.34375 3 Z " fill="#000000"/></g></svg>
