<?xml version="1.0" encoding="utf-8"?>
<svg xmlns="http://www.w3.org/2000/svg" viewBox="0 0 50 50" fill="#000000"><path style="line-height:normal;text-indent:0;text-align:start;text-decoration-line:none;text-decoration-style:solid;text-decoration-color:#000;text-transform:none;block-progression:tb;isolation:auto;mix-blend-mode:normal" d="M 20 1.9863281 A 1.0001 1.0001 0 0 0 19.132812 2.484375 L 15.298828 7.2753906 A 1.0001 1.0001 0 0 0 15.480469 8.8613281 L 16.710938 9.8183594 C 9.80527 12.969517 5 19.922691 5 28 C 5 39.033487 13.966513 48 25 48 C 36.033487 48 45 39.033487 45 28 C 45 19.923003 40.194301 12.971642 33.289062 9.8203125 L 34.521484 8.8613281 A 1.0001 1.0001 0 0 0 34.697266 7.2695312 L 30.865234 2.4785156 A 1.0001 1.0001 0 0 0 29.970703 1.9882812 A 1.0001 1.0001 0 0 0 29.851562 2 L 20.148438 2 A 1.0001 1.0001 0 0 0 20 1.9863281 z M 21.476562 4 L 28.523438 4 L 27.324219 7 L 22.675781 7 L 21.476562 4 z M 19.708984 4.9648438 L 20.523438 7 L 18.082031 7 L 19.708984 4.9648438 z M 30.291016 4.9648438 L 31.917969 7 L 29.476562 7 L 30.291016 4.9648438 z M 18.914062 9 L 21.744141 9 A 1.0001 1.0001 0 0 0 22.291016 9 L 27.710938 9 A 1.0001 1.0001 0 0 0 28.255859 9 L 31.085938 9 L 25 13.734375 L 18.914062 9 z M 18.529297 11.232422 L 20.392578 12.681641 C 13.802426 14.662524 9 20.776225 9 28 C 9 36.82448 16.17552 44 25 44 C 33.82448 44 41 36.82448 41 28 C 41 20.776875 36.198612 14.66309 29.609375 12.681641 L 31.472656 11.232422 C 38.207832 13.834059 43 20.337339 43 28 C 43 37.952513 34.952513 46 25 46 C 15.047487 46 7 37.952513 7 28 C 7 20.336698 11.793233 13.833623 18.529297 11.232422 z M 27.611328 14.236328 A 1.0008819 1.0008819 0 0 0 27.753906 14.275391 C 34.164843 15.554592 39 21.200659 39 28 C 39 35.74352 32.74352 42 25 42 C 17.25648 42 11 35.74352 11 28 C 11 21.200659 15.835157 15.554592 22.246094 14.275391 A 1.0001 1.0001 0 0 0 22.392578 14.238281 L 24.386719 15.789062 A 1.0001 1.0001 0 0 0 25.613281 15.789062 L 27.611328 14.236328 z" font-weight="400" font-family="sans-serif" white-space="normal" overflow="visible" fill="#000000"/></svg>
