<?xml version="1.0" encoding="UTF-8"?>
<svg xmlns="http://www.w3.org/2000/svg" xmlns:xlink="http://www.w3.org/1999/xlink" viewBox="0 0 50 50" version="1.1" fill="#000000"><g id="surface1" fill="#000000"><path style=" " d="M 38.875 0 C 38.664063 0.03125 38.464844 0.128906 38.3125 0.28125 L 37.5 1.09375 L 37.4375 1.125 C 37.402344 1.152344 37.371094 1.183594 37.34375 1.21875 C 37.261719 1.28125 37.1875 1.355469 37.125 1.4375 C 37.101563 1.457031 37.082031 1.476563 37.0625 1.5 L 0.3125 37.28125 C 0.113281 37.464844 -0.00390625 37.722656 -0.0078125 37.992188 C -0.015625 38.265625 0.0898438 38.527344 0.28125 38.71875 L 11.28125 49.71875 C 11.472656 49.910156 11.734375 50.015625 12.007813 50.007813 C 12.277344 50.003906 12.535156 49.886719 12.71875 49.6875 L 49.71875 11.6875 C 50.105469 11.296875 50.105469 10.671875 49.71875 10.28125 L 39.71875 0.28125 C 39.496094 0.0625 39.183594 -0.0429688 38.875 0 Z M 37.96875 3.40625 L 39.28125 4.71875 C 39.523438 4.957031 39.867188 5.058594 40.203125 4.988281 C 40.535156 4.921875 40.808594 4.691406 40.9375 4.375 L 47.59375 11.03125 L 12 47.5625 L 2.4375 38 L 5.53125 34.96875 L 7.28125 36.71875 C 7.679688 37.117188 8.320313 37.117188 8.71875 36.71875 C 9.117188 36.320313 9.117188 35.679688 8.71875 35.28125 L 7 33.5625 L 9.59375 31.03125 L 13.28125 34.71875 C 13.679688 35.117188 14.320313 35.117188 14.71875 34.71875 C 15.117188 34.320313 15.117188 33.679688 14.71875 33.28125 L 11.0625 29.625 L 13.65625 27.09375 L 15.28125 28.71875 C 15.679688 29.117188 16.320313 29.117188 16.71875 28.71875 C 17.117188 28.320313 17.117188 27.679688 16.71875 27.28125 L 15.125 25.6875 L 17.71875 23.15625 L 21.28125 26.71875 C 21.679688 27.117188 22.320313 27.117188 22.71875 26.71875 C 23.117188 26.320313 23.117188 25.679688 22.71875 25.28125 L 19.15625 21.71875 L 21.75 19.1875 L 23.28125 20.71875 C 23.679688 21.117188 24.320313 21.117188 24.71875 20.71875 C 25.117188 20.320313 25.117188 19.679688 24.71875 19.28125 L 23.21875 17.78125 L 25.8125 15.25 L 29.28125 18.71875 C 29.679688 19.117188 30.320313 19.117188 30.71875 18.71875 C 31.117188 18.320313 31.117188 17.679688 30.71875 17.28125 L 27.25 13.8125 L 29.84375 11.28125 L 31.28125 12.71875 C 31.679688 13.117188 32.320313 13.117188 32.71875 12.71875 C 33.117188 12.320313 33.117188 11.679688 32.71875 11.28125 L 31.3125 9.875 L 33.90625 7.34375 L 37.28125 10.71875 C 37.679688 11.117188 38.320313 11.117188 38.71875 10.71875 C 39.117188 10.320313 39.117188 9.679688 38.71875 9.28125 L 35.375 5.9375 Z " fill="#000000"/></g></svg>
