<?xml version="1.0" encoding="UTF-8"?>
<svg xmlns="http://www.w3.org/2000/svg" xmlns:xlink="http://www.w3.org/1999/xlink" viewBox="0 0 50 50" version="1.1" fill="#000000"><g id="surface1" fill="#000000"><path style=" " d="M 5 5 C 2.800781 5 1 6.800781 1 9 L 1 41 C 1 43.199219 2.800781 45 5 45 L 6 45 L 6 46 L 11 46 L 11 45 L 39 45 L 39 46 L 44 46 L 44 45 L 45 45 C 47.199219 45 49 43.199219 49 41 L 49 9 C 49 6.800781 47.199219 5 45 5 Z M 5 7 L 45 7 C 46.117188 7 47 7.882813 47 9 L 47 41 C 47 42.117188 46.117188 43 45 43 L 5 43 C 3.882813 43 3 42.117188 3 41 L 3 9 C 3 7.882813 3.882813 7 5 7 Z M 6.8125 10 C 6.335938 10.089844 5.992188 10.511719 6 11 L 6 22.6875 C 5.941406 22.878906 5.941406 23.089844 6 23.28125 L 6 26.8125 C 6 26.84375 6 26.875 6 26.90625 C 5.992188 26.980469 5.992188 27.050781 6 27.125 C 6 27.15625 6 27.1875 6 27.21875 L 6 39 C 6 39.550781 6.449219 40 7 40 L 43 40 C 43.550781 40 44 39.550781 44 39 L 44 11 C 44 10.449219 43.550781 10 43 10 L 7 10 C 6.96875 10 6.9375 10 6.90625 10 C 6.875 10 6.84375 10 6.8125 10 Z M 8 12 L 42 12 L 42 38 L 8 38 L 8 27.4375 L 9.71875 25.71875 C 9.914063 25.53125 10.023438 25.269531 10.023438 25 C 10.023438 24.730469 9.914063 24.46875 9.71875 24.28125 L 8 22.5625 Z M 24.90625 13.96875 C 24.863281 13.976563 24.820313 13.988281 24.78125 14 C 24.75 14.007813 24.71875 14.019531 24.6875 14.03125 C 21.925781 14.109375 19.425781 15.210938 17.53125 16.96875 C 17.273438 17.070313 17.070313 17.273438 16.96875 17.53125 C 15.25 19.382813 14.152344 21.8125 14.03125 24.5 C 13.855469 24.808594 13.855469 25.191406 14.03125 25.5 C 14.152344 28.148438 15.199219 30.566406 16.875 32.40625 C 16.964844 32.757813 17.242188 33.035156 17.59375 33.125 C 19.484375 34.847656 21.984375 35.898438 24.71875 35.96875 C 24.75 35.980469 24.78125 35.992188 24.8125 36 C 24.875 36 24.9375 36 25 36 C 25.074219 36 25.144531 36 25.21875 36 C 25.25 35.992188 25.28125 35.980469 25.3125 35.96875 C 28.035156 35.890625 30.523438 34.839844 32.40625 33.125 C 32.765625 33.027344 33.042969 32.738281 33.125 32.375 C 34.839844 30.488281 35.898438 28.007813 35.96875 25.28125 C 35.980469 25.261719 35.992188 25.238281 36 25.21875 C 36 25.207031 36 25.199219 36 25.1875 C 36.007813 25.125 36.007813 25.0625 36 25 C 36 24.957031 36 24.917969 36 24.875 C 35.996094 24.8125 35.984375 24.75 35.96875 24.6875 C 35.890625 21.886719 34.773438 19.339844 32.96875 17.4375 C 32.957031 17.425781 32.949219 17.417969 32.9375 17.40625 C 32.921875 17.390625 32.921875 17.359375 32.90625 17.34375 C 32.824219 17.230469 32.714844 17.132813 32.59375 17.0625 C 30.703125 15.253906 28.167969 14.125 25.375 14.03125 C 25.226563 13.972656 25.066406 13.953125 24.90625 13.96875 Z M 24 16.03125 C 24.007813 16.578125 24.453125 17.015625 25 17.015625 C 25.546875 17.015625 25.992188 16.578125 26 16.03125 C 27.75 16.21875 29.324219 16.929688 30.625 17.96875 C 30.328125 18.210938 30.191406 18.597656 30.277344 18.972656 C 30.363281 19.34375 30.65625 19.636719 31.027344 19.722656 C 31.402344 19.808594 31.789063 19.671875 32.03125 19.375 C 33.070313 20.675781 33.78125 22.25 33.96875 24 C 33.949219 24 33.925781 24 33.90625 24 C 33.875 24 33.84375 24 33.8125 24 C 33.28125 24.070313 32.898438 24.542969 32.941406 25.074219 C 32.984375 25.605469 33.433594 26.015625 33.96875 26 C 33.78125 27.75 33.070313 29.324219 32.03125 30.625 C 31.824219 30.421875 31.539063 30.320313 31.25 30.34375 C 31.21875 30.34375 31.1875 30.34375 31.15625 30.34375 C 30.792969 30.410156 30.492188 30.671875 30.382813 31.027344 C 30.269531 31.382813 30.363281 31.769531 30.625 32.03125 C 29.324219 33.070313 27.75 33.78125 26 33.96875 C 26 33.6875 25.882813 33.417969 25.675781 33.226563 C 25.464844 33.035156 25.1875 32.941406 24.90625 32.96875 C 24.863281 32.976563 24.820313 32.988281 24.78125 33 C 24.328125 33.101563 24.003906 33.503906 24 33.96875 C 22.25 33.78125 20.675781 33.070313 19.375 32.03125 C 19.652344 31.738281 19.726563 31.304688 19.5625 30.9375 C 19.398438 30.566406 19.027344 30.335938 18.625 30.34375 C 18.59375 30.34375 18.5625 30.34375 18.53125 30.34375 C 18.320313 30.375 18.121094 30.472656 17.96875 30.625 C 16.929688 29.324219 16.21875 27.75 16.03125 26 C 16.578125 25.992188 17.015625 25.546875 17.015625 25 C 17.015625 24.453125 16.578125 24.007813 16.03125 24 C 16.21875 22.25 16.929688 20.675781 17.96875 19.375 C 18.210938 19.671875 18.597656 19.808594 18.972656 19.722656 C 19.34375 19.636719 19.636719 19.34375 19.722656 18.972656 C 19.808594 18.597656 19.671875 18.210938 19.375 17.96875 C 20.675781 16.929688 22.25 16.21875 24 16.03125 Z M 25 20 C 22.25 20 20 22.25 20 25 C 20 27.75 22.25 30 25 30 C 27.75 30 30 27.75 30 25 C 30 22.25 27.75 20 25 20 Z M 25 22 C 26.667969 22 28 23.332031 28 25 C 28 26.667969 26.667969 28 25 28 C 23.332031 28 22 26.667969 22 25 C 22 23.332031 23.332031 22 25 22 Z " fill="#000000"/></g></svg>
