<?xml version="1.0" encoding="utf-8"?>
<svg xmlns="http://www.w3.org/2000/svg" viewBox="0 0 50 50" fill="#000000"><path style="line-height:normal;text-indent:0;text-align:start;text-decoration-line:none;text-decoration-style:solid;text-decoration-color:#000;text-transform:none;block-progression:tb;isolation:auto;mix-blend-mode:normal" d="M 22.894531 5 C 16.568983 5 12.243058 9.5705709 9.515625 15.210938 C 6.9368268 20.543926 5.6419445 26.925751 5.0996094 32.023438 C 3.6502994 32.1417 2.5395133 33.238922 2.1816406 34.542969 A 1.0001 1.0001 0 0 0 2.1816406 34.544922 C 1.8343229 35.814386 1.2498043 39.365301 1.0664062 40.654297 C 0.95605977 41.433659 1.0567161 42.1916 1.4492188 42.798828 C 1.8417234 43.406056 2.4744996 43.777556 3.1386719 43.962891 C 4.2524392 44.273637 11.104935 46 20.988281 46 C 30.873743 46 37.839452 44.218994 38.816406 43.96875 C 39.48353 43.797868 40.128082 43.437666 40.554688 42.822266 C 40.980955 42.207353 41.108185 41.357186 40.882812 40.53125 L 40.882812 40.529297 C 40.763765 40.092169 40.548321 38.82131 40.351562 37.601562 C 40.154679 36.381028 39.981175 35.223735 39.794922 34.542969 C 39.643597 33.988112 39.443883 33.351664 38.914062 32.818359 C 38.417269 32.318343 37.666208 32.046861 36.796875 32.013672 C 33.933329 25.993451 32.947413 22.205436 33.001953 20.208984 C 33.030073 19.179543 33.288544 18.682146 33.572266 18.410156 C 33.855987 18.138166 34.26861 17.997032 34.900391 18 C 35.413424 18.002533 36.246336 18.151868 37.162109 18.357422 C 37.781884 21.009053 40.165592 23 43 23 C 46.301864 23 49 20.301864 49 17 C 49 13.698136 46.301864 11 43 11 C 41.460905 11 40.056812 11.590418 38.992188 12.550781 C 34.910481 8.2858026 29.375999 5 22.894531 5 z M 22.894531 7 C 28.794591 7 33.915303 10.058151 37.736328 14.128906 C 37.377405 14.782944 37.139808 15.511924 37.046875 16.283203 C 36.284701 16.125155 35.555306 16.003218 34.910156 16 C 33.945437 15.9955 32.939903 16.245505 32.1875 16.966797 C 31.435097 17.688088 31.041283 18.786114 31.003906 20.154297 C 30.933713 22.723842 31.999737 26.492665 34.724609 32.304688 C 33.926245 32.501265 32.974061 32.763308 31.695312 33.019531 C 29.251793 33.509141 25.803524 34 20.988281 34 C 16.173038 34 12.805273 33.509074 10.398438 33.019531 C 8.9968855 32.73446 7.9701313 32.447908 7.0878906 32.248047 C 7.6147524 27.311732 8.8954061 21.088692 11.316406 16.082031 C 13.874724 10.791397 17.52208 7 22.894531 7 z M 43 13 C 45.220984 13 47 14.779016 47 17 C 47 19.220984 45.220984 21 43 21 C 40.779016 21 39 19.220984 39 17 C 39 14.779016 40.779016 13 43 13 z M 5.3515625 34 C 5.9113334 34 7.4903369 34.470012 10 34.980469 C 12.509663 35.490926 16.036524 36 20.988281 36 C 25.940038 36 29.54066 35.490859 32.087891 34.980469 C 34.635122 34.470078 36.285173 34 36.626953 34 C 37.227932 34 37.377711 34.11132 37.494141 34.228516 C 37.61057 34.345711 37.740559 34.613169 37.865234 35.070312 C 37.965981 35.438547 38.179838 36.697956 38.376953 37.919922 C 38.574069 39.141888 38.759078 40.337972 38.955078 41.056641 A 1.0001 1.0001 0 0 0 38.955078 41.058594 C 39.056965 41.43104 38.997046 41.558244 38.910156 41.683594 C 38.823266 41.808943 38.629189 41.952132 38.320312 42.03125 C 37.345265 42.280959 30.634819 44 20.988281 44 C 11.339627 44 4.5779671 42.288316 3.6777344 42.037109 C 3.3349067 41.941444 3.2039015 41.828913 3.1289062 41.712891 C 3.053911 41.596869 2.9822215 41.392185 3.046875 40.935547 C 3.215477 39.750543 3.8846459 35.900801 4.1113281 35.072266 L 4.109375 35.072266 C 4.2866552 34.426266 4.752143 34 5.3515625 34 z" font-weight="400" font-family="sans-serif" white-space="normal" overflow="visible" fill="#000000"/></svg>
