<?xml version="1.0" encoding="UTF-8"?>
<svg xmlns="http://www.w3.org/2000/svg" xmlns:xlink="http://www.w3.org/1999/xlink" viewBox="0 0 50 50" version="1.1" fill="#000000"><g id="surface1" fill="#000000"><path style=" " d="M 27.375 0 C 20.171875 0 15.300781 1.5625 12.1875 3.8125 C 9.074219 6.0625 7.75 8.996094 7.75 11.5 C 7.75 14.269531 9.167969 18.035156 13.3125 21.0625 C 14.277344 21.765625 15.386719 22.425781 16.65625 23.03125 C 7.714844 28.753906 4.039063 36.855469 3.21875 40.9375 C 3.164063 41.199219 3.214844 41.472656 3.363281 41.695313 C 3.507813 41.917969 3.738281 42.074219 4 42.125 L 11.53125 43.875 C 11.5 44.355469 11.46875 44.835938 11.46875 45.3125 C 11.464844 45.761719 11.757813 46.15625 12.1875 46.28125 L 25.21875 49.96875 C 25.523438 50.058594 25.851563 49.996094 26.101563 49.808594 C 26.355469 49.617188 26.503906 49.316406 26.5 49 C 26.5 49 26.828125 34.027344 35.4375 26.375 C 37.796875 26.296875 40.222656 25.453125 41.9375 23.84375 C 43.597656 22.289063 44.402344 19.882813 43.75 17.125 C 45.992188 15.445313 47 13.316406 47 11.25 C 47 8.351563 45.347656 5.445313 42.09375 3.375 C 38.839844 1.304688 34.011719 0 27.375 0 Z M 27.375 2 C 33.746094 2 38.21875 3.273438 41.03125 5.0625 C 43.84375 6.851563 45 9.089844 45 11.25 C 45 12.859375 44.375 14.429688 42.25 15.84375 C 42.21875 15.863281 42.1875 15.855469 42.15625 15.875 C 39.191406 17.664063 35.1875 18.125 31.21875 17.8125 C 33.773438 16.445313 35.890625 14.367188 36.65625 12.0625 C 37.230469 10.339844 36.882813 8.355469 35.3125 7.0625 C 33.742188 5.769531 31.210938 5.09375 27.375 5.09375 C 26.160156 5.09375 23.21875 5.082031 20.5 5.75 C 19.140625 6.085938 17.808594 6.59375 16.75 7.4375 C 15.691406 8.28125 14.9375 9.542969 14.9375 11.09375 C 14.9375 12.953125 16.339844 14.484375 18.25 15.78125 C 20.160156 17.078125 22.710938 18.183594 25.5625 18.9375 C 25.851563 19.011719 26.175781 19.023438 26.46875 19.09375 C 26.480469 19.097656 26.488281 19.121094 26.5 19.125 C 26.707031 19.246094 26.949219 19.292969 27.1875 19.25 C 32.050781 20.277344 37.429688 20.21875 41.8125 18.15625 C 42.074219 19.949219 41.664063 21.375 40.5625 22.40625 C 39.351563 23.539063 37.460938 24.222656 35.625 24.34375 C 35.34375 24.21875 35.019531 24.230469 34.75 24.375 C 28.15625 24.347656 23.21875 23.464844 19.5625 22.125 C 19.542969 22.113281 19.519531 22.101563 19.5 22.09375 C 19.488281 22.089844 19.480469 22.066406 19.46875 22.0625 C 19.4375 22.050781 19.40625 22.039063 19.375 22.03125 C 19.242188 21.945313 19.09375 21.890625 18.9375 21.875 C 18.929688 21.871094 18.914063 21.878906 18.90625 21.875 C 17.128906 21.167969 15.679688 20.332031 14.5 19.46875 C 10.8125 16.773438 9.75 13.585938 9.75 11.5 C 9.75 9.695313 10.675781 7.363281 13.34375 5.4375 C 16.011719 3.511719 20.464844 2 27.375 2 Z M 26.1875 7.09375 C 26.660156 7.082031 27.070313 7.09375 27.375 7.09375 C 30.964844 7.09375 33.050781 7.785156 34.03125 8.59375 C 35.011719 9.402344 35.140625 10.261719 34.75 11.4375 C 33.988281 13.734375 30.550781 16.566406 27.15625 17.1875 C 26.808594 17.109375 26.433594 17.089844 26.09375 17 C 23.421875 16.296875 21.027344 15.277344 19.375 14.15625 C 17.722656 13.035156 16.9375 11.839844 16.9375 11.09375 C 16.9375 10.144531 17.292969 9.5625 18 9 C 18.707031 8.4375 19.777344 7.980469 20.96875 7.6875 C 22.757813 7.246094 24.773438 7.125 26.1875 7.09375 Z M 18.9375 23.96875 C 19.5625 24.199219 20.214844 24.421875 20.90625 24.625 C 16.308594 28.6875 12.71875 35.183594 11.75 41.84375 L 5.5 40.4375 C 6.550781 36.527344 10.238281 29.03125 18.9375 23.96875 Z M 23.28125 25.25 C 25.957031 25.835938 29.074219 26.222656 32.65625 26.34375 C 25.664063 33.785156 24.699219 44.75 24.5625 47.6875 L 13.5625 44.59375 C 13.828125 37.246094 18.050781 29.332031 23.21875 25.3125 C 23.242188 25.292969 23.261719 25.273438 23.28125 25.25 Z " fill="#000000"/></g></svg>
