<?xml version="1.0" encoding="UTF-8"?>
<svg xmlns="http://www.w3.org/2000/svg" xmlns:xlink="http://www.w3.org/1999/xlink" viewBox="0 0 50 50" version="1.1" fill="#000000"><g id="surface1" fill="#000000"><path style=" " d="M 15.21875 11 C 13.496094 11 11.882813 11.882813 10.96875 13.34375 L 7.40625 19.0625 L 4.28125 19.53125 C 1.824219 19.882813 0 21.988281 0 24.46875 L 0 31 C 0 32.644531 1.355469 34 3 34 L 5.09375 34 C 5.570313 36.835938 8.035156 39 11 39 C 13.964844 39 16.429688 36.835938 16.90625 34 L 33.09375 34 C 33.570313 36.835938 36.035156 39 39 39 C 41.964844 39 44.429688 36.835938 44.90625 34 L 47 34 C 48.644531 34 50 32.644531 50 31 L 50 25.375 C 50 22.9375 48.214844 20.871094 45.8125 20.46875 L 37.5625 19.0625 L 33 13 C 32.054688 11.742188 30.574219 11 29 11 Z M 15.21875 13 L 21 13 L 21 19 L 9.8125 19 L 12.6875 14.40625 C 13.238281 13.527344 14.183594 13 15.21875 13 Z M 23 13 L 29 13 C 29.945313 13 30.839844 13.433594 31.40625 14.1875 L 35 19 L 23 19 Z M 8.15625 21 L 36.84375 21 L 45.5 22.4375 C 46.953125 22.679688 48 23.902344 48 25.375 L 48 31 C 48 31.566406 47.566406 32 47 32 L 44.90625 32 C 44.429688 29.164063 41.964844 27 39 27 C 36.035156 27 33.570313 29.164063 33.09375 32 L 16.90625 32 C 16.429688 29.164063 13.964844 27 11 27 C 8.035156 27 5.570313 29.164063 5.09375 32 L 3 32 C 2.433594 32 2 31.566406 2 31 L 2 24.46875 C 2 22.96875 3.078125 21.710938 4.5625 21.5 Z M 11 29 C 13.222656 29 15 30.777344 15 33 C 15 35.222656 13.222656 37 11 37 C 8.777344 37 7 35.222656 7 33 C 7 30.777344 8.777344 29 11 29 Z M 39 29 C 41.222656 29 43 30.777344 43 33 C 43 35.222656 41.222656 37 39 37 C 36.777344 37 35 35.222656 35 33 C 35 30.777344 36.777344 29 39 29 Z " fill="#000000"/></g></svg>
