<?xml version="1.0" encoding="UTF-8"?>
<svg xmlns="http://www.w3.org/2000/svg" xmlns:xlink="http://www.w3.org/1999/xlink" viewBox="0 0 50 50" version="1.1" fill="#000000"><g id="surface1" fill="#000000"><path style=" " d="M 28 3 L 28 4 L 26 4 L 26 12 L 15 12 L 15 10 L 13 10 L 13 12 L 10 12 C 7.28125 12 5 14.171875 5 17 C 5 18.300781 5.25 20.75 5.5 22.96875 C 5.75 25.1875 6 27.125 6 27.125 L 6.125 28 L 10 28 L 10 30 L 9 30 L 9 32 L 13 32 L 13 30 L 12 30 L 12 28 L 15.78125 28 L 16.59375 24.75 C 16.707031 24.300781 17.101563 24 17.5625 24 L 22.84375 24 C 23.8125 24 24.652344 24.664063 24.8125 25.59375 C 24.90625 26.136719 25 27.597656 25 28.5625 C 25 29.527344 24.910156 30.839844 24.8125 31.40625 C 24.652344 32.335938 23.8125 33 22.84375 33 L 8 33 C 5.25 33 3 35.25 3 38 L 3 43 C 3 44.644531 4.355469 46 6 46 L 8 46 L 8 47 L 13 47 L 13 46 L 33 46 L 33 47 L 38 47 L 38 46 L 40 46 C 41.644531 46 43 44.644531 43 43 L 43 24 L 47 24 L 47 15 L 42.5625 15 C 41.785156 13.242188 40.035156 12 38 12 L 36 12 L 36 8 L 34 8 L 34 12 L 32 12 L 32 4 L 30 4 L 30 3 Z M 28 6 L 30 6 L 30 12 L 28 12 Z M 10 14 L 11 14 L 11 23 L 13 23 L 13 14 L 38 14 C 39.667969 14 41 15.332031 41 17 L 41 43 C 41 43.566406 40.566406 44 40 44 L 6 44 C 5.433594 44 5 43.566406 5 43 L 5 38 C 5 36.332031 6.332031 35 8 35 L 22.84375 35 C 24.753906 35 26.449219 33.65625 26.78125 31.75 C 26.925781 30.929688 27 29.640625 27 28.5625 C 27 27.484375 26.929688 26.09375 26.78125 25.25 C 26.449219 23.34375 24.753906 22 22.84375 22 L 17.5625 22 C 16.191406 22 14.988281 22.953125 14.65625 24.28125 L 14.21875 26 L 7.90625 26 C 7.832031 25.417969 7.695313 24.484375 7.5 22.75 C 7.25 20.546875 7 18.011719 7 17 C 7 15.203125 8.300781 14 10 14 Z M 34 17 C 32.355469 17 31 18.355469 31 20 C 31 21.644531 32.355469 23 34 23 C 35.644531 23 37 21.644531 37 20 C 37 18.355469 35.644531 17 34 17 Z M 43 17 L 45 17 L 45 22 L 43 22 Z M 34 19 C 34.5625 19 35 19.4375 35 20 C 35 20.5625 34.5625 21 34 21 C 33.4375 21 33 20.5625 33 20 C 33 19.4375 33.4375 19 34 19 Z M 34 27 C 31.25 27 29 29.25 29 32 C 29 34.75 31.25 37 34 37 C 36.75 37 39 34.75 39 32 C 39 29.25 36.75 27 34 27 Z M 34 29 C 35.667969 29 37 30.332031 37 32 C 37 33.667969 35.667969 35 34 35 C 32.332031 35 31 33.667969 31 32 C 31 30.332031 32.332031 29 34 29 Z " fill="#000000"/></g></svg>
