<?xml version="1.0" encoding="UTF-8"?>
<svg xmlns="http://www.w3.org/2000/svg" xmlns:xlink="http://www.w3.org/1999/xlink" viewBox="0 0 50 50" version="1.1" fill="#000000"><g id="surface1" fill="#000000"><path style=" " d="M 4.8125 7 C 4.574219 7.050781 4.363281 7.183594 4.21875 7.375 L 0.3125 12.25 C 0.300781 12.261719 0.292969 12.269531 0.28125 12.28125 L 0.21875 12.375 C 0.078125 12.550781 0 12.773438 0 13 L 0 41 C 0 41.550781 0.449219 42 1 42 L 4 42 C 4.550781 42 5 41.550781 5 41 L 45 41 C 45 41.550781 45.449219 42 46 42 L 49 42 C 49.550781 42 50 41.550781 50 41 L 50 13 C 50 12.773438 49.921875 12.550781 49.78125 12.375 L 49.75 12.34375 C 49.730469 12.320313 49.710938 12.300781 49.6875 12.28125 L 45.78125 7.375 C 45.589844 7.136719 45.304688 7 45 7 L 43 7 C 42.449219 7 42 7.449219 42 8 L 8 8 C 8 7.449219 7.550781 7 7 7 L 5 7 C 4.96875 7 4.9375 7 4.90625 7 C 4.875 7 4.84375 7 4.8125 7 Z M 5.46875 9 L 6 9 C 6 9.550781 6.449219 10 7 10 L 43 10 C 43.550781 10 44 9.550781 44 9 L 44.53125 9 L 46.9375 12 L 46 12 C 45.449219 12 45 12.449219 45 13 L 5 13 C 5 12.449219 4.550781 12 4 12 L 3.0625 12 Z M 2 14 L 3 14 C 3 14.550781 3.449219 15 4 15 L 46 15 C 46.550781 15 47 14.550781 47 14 L 48 14 L 48 40 L 47 40 C 47 39.449219 46.550781 39 46 39 L 4 39 C 3.449219 39 3 39.449219 3 40 L 2 40 Z M 6.90625 16.96875 C 6.863281 16.976563 6.820313 16.988281 6.78125 17 C 6.316406 17.105469 5.988281 17.523438 6 18 L 6 36 C 5.996094 36.359375 6.183594 36.695313 6.496094 36.878906 C 6.808594 37.058594 7.191406 37.058594 7.503906 36.878906 C 7.816406 36.695313 8.003906 36.359375 8 36 L 8 18 C 8.011719 17.710938 7.894531 17.433594 7.6875 17.238281 C 7.476563 17.039063 7.191406 16.941406 6.90625 16.96875 Z M 12.90625 16.96875 C 12.863281 16.976563 12.820313 16.988281 12.78125 17 C 12.316406 17.105469 11.988281 17.523438 12 18 L 12 36 C 11.996094 36.359375 12.183594 36.695313 12.496094 36.878906 C 12.808594 37.058594 13.191406 37.058594 13.503906 36.878906 C 13.816406 36.695313 14.003906 36.359375 14 36 L 14 18 C 14.011719 17.710938 13.894531 17.433594 13.6875 17.238281 C 13.476563 17.039063 13.191406 16.941406 12.90625 16.96875 Z M 18.90625 16.96875 C 18.863281 16.976563 18.820313 16.988281 18.78125 17 C 18.316406 17.105469 17.988281 17.523438 18 18 L 18 36 C 17.996094 36.359375 18.183594 36.695313 18.496094 36.878906 C 18.808594 37.058594 19.191406 37.058594 19.503906 36.878906 C 19.816406 36.695313 20.003906 36.359375 20 36 L 20 18 C 20.011719 17.710938 19.894531 17.433594 19.6875 17.238281 C 19.476563 17.039063 19.191406 16.941406 18.90625 16.96875 Z M 24.90625 16.96875 C 24.863281 16.976563 24.820313 16.988281 24.78125 17 C 24.316406 17.105469 23.988281 17.523438 24 18 L 24 36 C 23.996094 36.359375 24.183594 36.695313 24.496094 36.878906 C 24.808594 37.058594 25.191406 37.058594 25.503906 36.878906 C 25.816406 36.695313 26.003906 36.359375 26 36 L 26 18 C 26.011719 17.710938 25.894531 17.433594 25.6875 17.238281 C 25.476563 17.039063 25.191406 16.941406 24.90625 16.96875 Z M 30.90625 16.96875 C 30.863281 16.976563 30.820313 16.988281 30.78125 17 C 30.316406 17.105469 29.988281 17.523438 30 18 L 30 36 C 29.996094 36.359375 30.183594 36.695313 30.496094 36.878906 C 30.808594 37.058594 31.191406 37.058594 31.503906 36.878906 C 31.816406 36.695313 32.003906 36.359375 32 36 L 32 18 C 32.011719 17.710938 31.894531 17.433594 31.6875 17.238281 C 31.476563 17.039063 31.191406 16.941406 30.90625 16.96875 Z M 36.90625 16.96875 C 36.863281 16.976563 36.820313 16.988281 36.78125 17 C 36.316406 17.105469 35.988281 17.523438 36 18 L 36 36 C 35.996094 36.359375 36.183594 36.695313 36.496094 36.878906 C 36.808594 37.058594 37.191406 37.058594 37.503906 36.878906 C 37.816406 36.695313 38.003906 36.359375 38 36 L 38 18 C 38.011719 17.710938 37.894531 17.433594 37.6875 17.238281 C 37.476563 17.039063 37.191406 16.941406 36.90625 16.96875 Z M 42.90625 16.96875 C 42.863281 16.976563 42.820313 16.988281 42.78125 17 C 42.316406 17.105469 41.988281 17.523438 42 18 L 42 36 C 41.996094 36.359375 42.183594 36.695313 42.496094 36.878906 C 42.808594 37.058594 43.191406 37.058594 43.503906 36.878906 C 43.816406 36.695313 44.003906 36.359375 44 36 L 44 18 C 44.011719 17.710938 43.894531 17.433594 43.6875 17.238281 C 43.476563 17.039063 43.191406 16.941406 42.90625 16.96875 Z " fill="#000000"/></g></svg>
