<?xml version="1.0" encoding="UTF-8"?>
<svg xmlns="http://www.w3.org/2000/svg" xmlns:xlink="http://www.w3.org/1999/xlink" viewBox="0 0 50 50" version="1.1" fill="#000000"><g id="surface1" fill="#000000"><path style=" " d="M 20 10 C 18.238281 10 16.625 10.230469 15.335938 10.816406 C 14.109375 11.375 13.117188 12.425781 13.019531 13.78125 C 12.960938 13.949219 12.015625 16.667969 11.035156 20.152344 C 10.4375 22.28125 9.839844 24.636719 9.453125 26.832031 C 3.933594 28.558594 0 30.878906 0 34 C 0 34.242188 0.0976563 34.460938 0.242188 34.632813 L 0.234375 34.640625 C 0.234375 34.640625 0.285156 34.695313 0.289063 34.703125 C 0.292969 34.703125 0.292969 34.707031 0.296875 34.707031 C 0.46875 34.917969 3.902344 39 9 39 L 36 39 C 39.855469 39 42.558594 37.9375 44.289063 36.84375 C 45.964844 35.789063 46.742188 34.671875 46.792969 34.597656 C 46.84375 34.539063 50 30.820313 50 26 C 50 24.035156 48.128906 22 45 22 C 44.921875 22 43.324219 22.058594 40.988281 22.191406 C 40.964844 20.289063 40.859375 18.355469 40.582031 16.675781 C 40.273438 14.816406 39.875 13.222656 38.695313 12.28125 C 38.671875 12.261719 38.644531 12.238281 38.621094 12.21875 C 38.609375 12.207031 38.601563 12.199219 38.589844 12.191406 C 38.453125 12.09375 38.296875 12.03125 38.136719 12.011719 C 38.136719 12.011719 34.460938 11.507813 30.371094 11.007813 C 26.28125 10.507813 21.867188 10 20 10 Z M 20 12 C 21.464844 12 26.054688 12.492188 30.128906 12.992188 C 31.417969 13.148438 31.472656 13.167969 32.574219 13.308594 C 31.761719 13.601563 30.960938 13.890625 30.109375 14.191406 C 27.46875 15.132813 24.457031 16 20 16 C 19.109375 16 17.671875 15.773438 16.589844 15.34375 C 16.046875 15.128906 15.59375 14.859375 15.332031 14.609375 C 15.070313 14.363281 15 14.199219 15 14 C 15 13.398438 15.289063 13.035156 16.164063 12.636719 C 17.039063 12.238281 18.425781 12 20 12 Z M 37.601563 14.046875 C 37.929688 14.511719 38.371094 15.566406 38.609375 17.003906 C 38.8125 18.253906 38.925781 19.734375 38.96875 21.246094 C 37.15625 21.757813 28.769531 24 20 24 C 15.9375 24 13.578125 23.183594 12.441406 22.65625 C 12.613281 21.992188 12.785156 21.320313 12.964844 20.691406 C 13.441406 18.992188 13.914063 17.472656 14.28125 16.332031 C 14.75 16.699219 15.285156 16.980469 15.847656 17.203125 C 17.246094 17.757813 18.808594 18 20 18 C 24.722656 18 28.046875 17.050781 30.78125 16.078125 C 33.335938 15.171875 35.347656 14.296875 37.601563 14.046875 Z M 39.015625 23.308594 C 39.039063 24.34375 39.152344 25.347656 39.332031 26.265625 C 38.765625 26.417969 38.03125 26.605469 37 26.839844 L 37 29.671875 C 38.238281 29.371094 39.269531 29.089844 40 28.890625 L 40 28.757813 C 40.277344 29.585938 40.554688 30.269531 40.765625 30.738281 C 39.59375 31.03125 38.355469 31.296875 37 31.519531 L 37 29.671875 C 36.109375 29.878906 35.101563 30.121094 34 30.339844 L 34 31.953125 C 33.023438 32.074219 32.019531 32.179688 31 32.277344 L 31 30.921875 C 30.039063 31.089844 29.03125 31.25 28 31.402344 L 28 32.527344 C 27.007813 32.597656 26.003906 32.660156 25 32.714844 L 25 31.75 C 24.011719 31.839844 23 31.910156 22 31.949219 L 22 32.847656 C 20.980469 32.890625 20.003906 32.90625 19 32.933594 L 19 31.96875 C 17.898438 31.941406 16.898438 31.839844 16 31.6875 L 16 33.003906 C 15.054688 33.019531 14.1875 33.027344 13.285156 33.03125 C 13.175781 32.988281 13.097656 32.945313 13 32.902344 L 13 31.011719 C 12.179688 30.757813 11.519531 30.496094 11.03125 30.28125 C 11.074219 29.476563 11.21875 28.523438 11.386719 27.53125 C 11.78125 27.699219 12.296875 27.898438 13 28.097656 L 13 25.015625 C 13.832031 25.289063 14.878906 25.546875 16.15625 25.730469 C 16.105469 25.722656 16.046875 25.71875 16 25.710938 L 16 28.730469 C 16.890625 28.859375 17.890625 28.949219 19 28.980469 L 19 25.980469 C 18.929688 25.980469 18.871094 25.972656 18.800781 25.96875 C 19.191406 25.984375 19.578125 26 20 26 C 20.667969 26 21.335938 25.988281 22 25.964844 L 22 28.960938 C 23.011719 28.921875 24.019531 28.859375 25 28.769531 L 25 25.773438 C 26.027344 25.6875 27.023438 25.578125 28 25.453125 L 28 28.460938 C 29.039063 28.332031 30.039063 28.179688 31 28.019531 L 31 25.023438 C 32.0625 24.847656 33.070313 24.660156 34 24.472656 L 34 27.480469 C 35.121094 27.261719 36.128906 27.039063 37 26.839844 L 37 23.8125 C 37.953125 23.585938 38.464844 23.457031 39.015625 23.308594 Z M 34 27.480469 C 33.070313 27.671875 32.070313 27.847656 31 28.019531 L 31 30.921875 C 32.050781 30.738281 33.058594 30.539063 34 30.339844 Z M 28 28.460938 C 27.03125 28.582031 26.019531 28.691406 25 28.769531 L 25 31.75 C 26.019531 31.648438 27.019531 31.53125 28 31.402344 Z M 22 28.960938 C 21.339844 28.992188 20.671875 29 20 29 C 19.660156 29 19.320313 28.992188 19 28.980469 L 19 31.96875 C 19.320313 31.992188 19.660156 32 20 32 C 20.660156 32 21.328125 31.980469 22 31.949219 Z M 16 28.730469 C 14.789063 28.570313 13.800781 28.339844 13 28.097656 L 13 31.011719 C 13.839844 31.269531 14.839844 31.507813 16 31.6875 Z M 45 24 C 47.046875 24 48 25.191406 48 26 C 48 26.6875 47.707031 27.308594 47.105469 27.90625 C 46.175781 28.824219 44.65625 29.578125 42.726563 30.203125 C 42.394531 29.511719 41.3125 27.078125 41.0625 24.109375 C 42.539063 24.042969 43.890625 24 45 24 Z M 17.238281 25.863281 C 17.386719 25.878906 17.542969 25.886719 17.699219 25.902344 C 17.542969 25.886719 17.386719 25.878906 17.238281 25.863281 Z M 9.140625 28.972656 C 9.066406 29.65625 9.011719 30.320313 9.007813 30.921875 C 9.007813 30.96875 8.984375 31.179688 9.027344 31.449219 C 9.074219 31.742188 9.1875 32.121094 9.425781 32.53125 C 9.527344 32.699219 9.660156 32.875 9.804688 33.046875 C 7.875 33.046875 6.09375 33.035156 4.609375 33.019531 C 3.753906 33.015625 2.964844 33.007813 2.25 33.003906 C 3.03125 31.46875 5.601563 30.125 9.140625 28.972656 Z M 46.90625 30.535156 C 46.132813 32.226563 45.234375 33.359375 45.234375 33.359375 C 45.207031 33.386719 45.1875 33.417969 45.167969 33.449219 C 45.167969 33.449219 44.652344 34.246094 43.21875 35.15625 C 41.785156 36.0625 39.492188 37 36 37 L 9 37 C 6.832031 37 4.949219 35.976563 3.640625 35.015625 C 3.980469 35.019531 4.226563 35.019531 4.59375 35.019531 C 6.550781 35.039063 8.761719 35.058594 11.125 35.058594 C 13.519531 35.058594 16.09375 35.023438 18.703125 34.964844 C 18.808594 34.96875 18.894531 34.976563 19 34.980469 L 19 34.953125 C 29.84375 34.695313 41.550781 33.742188 46.90625 30.535156 Z " fill="#000000"/></g></svg>
