<?xml version="1.0" encoding="UTF-8"?>
<svg xmlns="http://www.w3.org/2000/svg" xmlns:xlink="http://www.w3.org/1999/xlink" viewBox="0 0 50 50" version="1.1" fill="#000000"><g id="surface1" fill="#000000"><path style=" " d="M 19 11 C 15.832031 11 13.0625 11.804688 10.96875 13.621094 C 9.042969 15.289063 7.832031 17.855469 7.230469 21.097656 C 6.851563 21.132813 6.492188 21.132813 6.089844 21.242188 C 5.417969 21.425781 4.703125 21.730469 4.203125 22.398438 L 4.203125 22.402344 C 2.972656 24.035156 1 27.007813 1 31 C 1 32.425781 1.863281 33.546875 2.804688 34.347656 C 3.601563 35.027344 4.484375 35.507813 5.28125 35.800781 C 6.050781 38.230469 8.324219 40 11 40 C 13.601563 40 15.820313 38.324219 16.648438 36 L 34.351563 36 C 35.179688 38.324219 37.398438 40 40 40 C 42.984375 40 45.46875 37.792969 45.921875 34.929688 C 46.683594 34.816406 47.34375 34.558594 47.863281 34.15625 C 48.582031 33.59375 49 32.746094 49 31.886719 L 49 26.851563 C 49 26.175781 48.738281 25.621094 48.265625 24.925781 C 47.796875 24.234375 47.085938 23.476563 46.078125 22.765625 C 44.152344 21.40625 41.050781 20.289063 36.589844 20.082031 C 35.65625 18.742188 34.722656 17.28125 32.832031 14.445313 C 32.453125 13.875 32.148438 13.367188 31.734375 12.886719 C 31.324219 12.40625 30.777344 11.976563 30.074219 11.691406 C 28.671875 11.121094 26.746094 11 23 11 Z M 19 13 L 23 13 C 26.6875 13 28.476563 13.203125 29.324219 13.546875 C 29.746094 13.714844 29.957031 13.890625 30.21875 14.191406 C 30.480469 14.492188 30.765625 14.949219 31.167969 15.554688 C 33.164063 18.546875 34.160156 20.121094 35.183594 21.578125 L 35.472656 21.988281 L 35.976563 22 C 40.488281 22.105469 43.28125 23.238281 44.925781 24.398438 C 45.75 24.980469 46.289063 25.574219 46.609375 26.046875 C 46.929688 26.523438 47 26.957031 47 26.851563 L 47 31.886719 C 47 32.152344 46.917969 32.355469 46.636719 32.574219 C 46.476563 32.699219 46.226563 32.816406 45.890625 32.894531 C 45.371094 30.117188 42.925781 28 40 28 C 36.699219 28 34 30.699219 34 34 L 17 34 C 17 30.699219 14.300781 28 11 28 C 7.878906 28 5.300781 30.414063 5.027344 33.46875 C 4.707031 33.28125 4.382813 33.070313 4.101563 32.828125 C 3.410156 32.238281 3 31.574219 3 31 C 3 27.671875 4.65625 25.125 5.796875 23.601563 C 5.890625 23.480469 6.183594 23.289063 6.617188 23.171875 C 7.046875 23.050781 7.578125 23 8.003906 23 L 8.867188 22.996094 L 8.992188 22.140625 C 9.464844 18.804688 10.621094 16.566406 12.28125 15.128906 C 13.9375 13.695313 16.167969 13 19 13 Z M 17 15 L 17 15.066406 C 15.21875 15.289063 13.777344 16.089844 12.789063 17.214844 C 11.621094 18.546875 11.0625 20.265625 11 21.964844 L 10.964844 23 L 33.765625 23 L 29.847656 16.46875 L 29.835938 16.449219 C 29.496094 15.929688 29.164063 15.492188 28.617188 15.234375 C 28.070313 14.980469 27.585938 15 27 15 Z M 19 17 L 27 17 C 27.5625 17 27.757813 17.042969 27.769531 17.046875 C 27.78125 17.050781 27.875 17.109375 28.164063 17.550781 L 30.234375 21 L 19 21 Z M 17 17.191406 L 17 21 L 13.199219 21 C 13.386719 20.082031 13.707031 19.203125 14.292969 18.53125 C 14.917969 17.820313 15.847656 17.394531 17 17.191406 Z M 21 25 C 20.449219 25 20 25.449219 20 26 C 20 26.550781 20.449219 27 21 27 L 24 27 C 24.550781 27 25 26.550781 25 26 C 25 25.449219 24.550781 25 24 25 Z M 11 30 C 13.222656 30 15 31.777344 15 34 C 15 36.222656 13.222656 38 11 38 C 8.777344 38 7 36.222656 7 34 C 7 31.777344 8.777344 30 11 30 Z M 40 30 C 42.222656 30 44 31.777344 44 34 C 44 36.222656 42.222656 38 40 38 C 37.777344 38 36 36.222656 36 34 C 36 31.777344 37.777344 30 40 30 Z " fill="#000000"/></g></svg>
