<?xml version="1.0" encoding="UTF-8"?>
<svg xmlns="http://www.w3.org/2000/svg" xmlns:xlink="http://www.w3.org/1999/xlink" viewBox="0 0 50 50" version="1.1" fill="#000000"><g id="surface1" fill="#000000"><path style=" " d="M 41.40625 1.09375 C 41.105469 1.117188 40.796875 1.222656 40.5 1.40625 L 18.1875 14.875 C 18.007813 14.984375 18 15.3125 18.15625 15.59375 C 18.316406 15.871094 18.59375 16.007813 18.78125 15.90625 L 28.375 10.71875 C 30.324219 11.117188 32.109375 11.675781 33.65625 12.34375 C 34.320313 12.628906 34.953125 12.953125 35.53125 13.28125 L 37.6875 12.25 C 36.847656 11.632813 35.457031 10.929688 34.46875 10.5 C 33.40625 10.039063 32.253906 9.652344 31.03125 9.3125 L 41.71875 3.53125 C 42.53125 3.089844 42.9375 2.234375 42.59375 1.625 C 42.371094 1.242188 41.910156 1.054688 41.40625 1.09375 Z M 21 7 C 20.234375 7 19.585938 7.433594 19.25 8.0625 C 16.007813 8.199219 12.976563 8.6875 10.3125 9.5 C 9.960938 9.191406 9.503906 9 9 9 C 7.980469 9 7.15625 9.765625 7.03125 10.75 C 6.828125 10.84375 6.605469 10.933594 6.40625 11.03125 C 2.6875 12.890625 0.109375 15.574219 0 18.78125 C -0.00390625 18.832031 -0.00390625 18.886719 0 18.9375 C 0 18.957031 0 18.980469 0 19 L 0 39 C 0 40.542969 0.707031 41.976563 1.84375 43.1875 C 2.980469 44.398438 4.542969 45.429688 6.4375 46.28125 C 6.640625 46.371094 6.855469 46.445313 7.0625 46.53125 C 7.292969 47.378906 8.078125 48 9 48 C 9.429688 48 9.828125 47.855469 10.15625 47.625 C 12.859375 48.382813 15.941406 48.84375 19.25 48.96875 C 19.589844 49.585938 20.246094 50 21 50 C 21.753906 50 22.410156 49.585938 22.75 48.96875 C 26.058594 48.84375 29.140625 48.382813 31.84375 47.625 C 32.171875 47.855469 32.570313 48 33 48 C 33.921875 48 34.707031 47.378906 34.9375 46.53125 C 35.144531 46.445313 35.359375 46.371094 35.5625 46.28125 C 37.457031 45.429688 39.019531 44.398438 40.15625 43.1875 C 41.292969 41.976563 42 40.542969 42 39 L 42 19 C 42 18.96875 42 18.9375 42 18.90625 C 42 18.894531 42 18.886719 42 18.875 C 41.976563 17.753906 41.640625 16.679688 41.0625 15.6875 L 47.375 13.78125 C 48.40625 13.476563 49.070313 12.679688 48.84375 12 C 48.628906 11.328125 47.597656 11.074219 46.59375 11.4375 L 21.9375 20.3125 C 21.753906 20.371094 21.6875 20.632813 21.78125 20.90625 C 21.859375 21.175781 22.074219 21.371094 22.25 21.3125 L 39.0625 16.28125 C 39.644531 17.121094 39.96875 17.972656 40 18.84375 C 40 18.875 40 18.90625 40 18.9375 C 40 18.957031 40 18.980469 40 19 C 40 21.222656 38.125 23.46875 34.6875 25.1875 C 34.132813 25.464844 33.53125 25.726563 32.90625 25.96875 C 32.863281 25.976563 32.820313 25.988281 32.78125 26 C 32.648438 26.027344 32.519531 26.078125 32.40625 26.15625 C 29.289063 27.289063 25.425781 27.976563 21.21875 28 C 21.117188 27.972656 21.011719 27.960938 20.90625 27.96875 C 20.875 27.976563 20.84375 27.988281 20.8125 28 C 16.410156 27.980469 12.375 27.222656 9.1875 26 C 9.15625 25.988281 9.125 25.976563 9.09375 25.96875 C 8.46875 25.726563 7.867188 25.464844 7.3125 25.1875 C 3.875 23.46875 2 21.222656 2 19 C 2 18.96875 2 18.9375 2 18.90625 C 2.050781 16.714844 3.921875 14.507813 7.3125 12.8125 C 10.75 11.09375 15.613281 10 21 10 C 22.136719 10 22.609375 9.984375 23.0625 10.03125 L 25.75 8.25 C 25.007813 8.183594 23.847656 8.109375 22.75 8.0625 C 22.414063 7.433594 21.765625 7 21 7 Z M 2 23.71875 C 3.113281 24.964844 4.613281 26.074219 6.40625 26.96875 C 6.910156 27.21875 7.453125 27.464844 8 27.6875 L 8 44.28125 C 7.863281 44.359375 7.738281 44.453125 7.625 44.5625 C 7.515625 44.515625 7.390625 44.484375 7.28125 44.4375 C 5.558594 43.664063 4.199219 42.757813 3.3125 41.8125 C 2.425781 40.867188 2 39.941406 2 39 Z M 40 23.71875 L 40 39 C 40 39.941406 39.574219 40.867188 38.6875 41.8125 C 37.800781 42.757813 36.441406 43.664063 34.71875 44.4375 C 34.609375 44.484375 34.484375 44.515625 34.375 44.5625 C 34.261719 44.453125 34.136719 44.359375 34 44.28125 L 34 27.6875 C 34.546875 27.464844 35.089844 27.21875 35.59375 26.96875 C 37.386719 26.074219 38.886719 24.964844 40 23.71875 Z M 10 28.40625 C 12.941406 29.339844 16.347656 29.882813 20 29.96875 L 20 46.28125 C 19.714844 46.445313 19.488281 46.691406 19.3125 46.96875 C 16.261719 46.847656 13.429688 46.421875 10.96875 45.75 C 10.890625 45.117188 10.527344 44.585938 10 44.28125 Z M 32 28.40625 L 32 44.28125 C 31.472656 44.585938 31.109375 45.117188 31.03125 45.75 C 28.570313 46.421875 25.738281 46.847656 22.6875 46.96875 C 22.511719 46.691406 22.285156 46.445313 22 46.28125 L 22 29.96875 C 25.652344 29.882813 29.058594 29.339844 32 28.40625 Z " fill="#000000"/></g></svg>
