<?xml version="1.0" encoding="UTF-8"?>
<svg xmlns="http://www.w3.org/2000/svg" xmlns:xlink="http://www.w3.org/1999/xlink" viewBox="0 0 50 50" version="1.1" fill="#000000"><g id="surface1" fill="#000000"><path style=" " d="M 41.046875 1.988281 C 40.679688 1.976563 40.335938 2.160156 40.148438 2.476563 L 38.332031 5.429688 L 30.660156 8.183594 C 30.195313 8.351563 29.921875 8.835938 30.019531 9.320313 L 32.828125 23.242188 C 29.6875 23.941406 27.101563 26.113281 25.839844 29 L 14.738281 29 L 11.355469 18 L 13.425781 18 C 14.5625 18 15.367188 17.164063 15.703125 16.136719 C 15.894531 15.949219 16 15.691406 16 15.425781 C 16 14.113281 14.984375 12.992188 13.675781 12.867188 L 7.203125 12.238281 C 6.992188 12.214844 6.785156 12.214844 6.578125 12.238281 C 5.15625 12.398438 4 13.621094 4 15.109375 C 4 15.378906 4.105469 15.632813 4.296875 15.824219 C 4.648438 17.023438 5.582031 18 6.890625 18 L 9.261719 18 L 12.652344 29.015625 C 9.511719 29.199219 7 31.816406 7 35 C 7 37.691406 8.792969 39.980469 11.246094 40.734375 L 7.484375 46 L 5 46 C 4.640625 45.996094 4.304688 46.183594 4.121094 46.496094 C 3.941406 46.808594 3.941406 47.191406 4.121094 47.503906 C 4.304688 47.816406 4.640625 48.003906 5 48 L 7.976563 48 C 7.996094 48 8.019531 48 8.039063 48 L 11 48 C 11.359375 48.003906 11.695313 47.816406 11.878906 47.503906 C 12.058594 47.191406 12.058594 46.808594 11.878906 46.496094 C 11.695313 46.183594 11.359375 45.996094 11 46 L 9.945313 46 L 13.542969 40.964844 C 13.84375 40.9375 14.1875 40.894531 14.628906 40.832031 C 15.359375 40.730469 16.273438 40.582031 17.316406 40.40625 C 19.398438 40.054688 21.984375 39.582031 24.542969 39.101563 C 25.351563 38.949219 25.988281 38.820313 26.777344 38.671875 C 28.578125 41.28125 31.59375 43 35 43 C 36.328125 43 37.589844 42.734375 38.75 42.261719 L 41.863281 46 L 41 46 C 40.640625 45.996094 40.304688 46.183594 40.121094 46.496094 C 39.941406 46.808594 39.941406 47.191406 40.121094 47.503906 C 40.304688 47.816406 40.640625 48.003906 41 48 L 43.816406 48 C 43.949219 48.027344 44.082031 48.027344 44.214844 48 L 47 48 C 47.359375 48.003906 47.695313 47.816406 47.878906 47.503906 C 48.058594 47.191406 48.058594 46.808594 47.878906 46.496094 C 47.695313 46.183594 47.359375 45.996094 47 46 L 44.46875 46 L 40.558594 41.308594 C 43.234375 39.507813 45 36.457031 45 33 C 45 27.488281 40.511719 23 35 23 C 34.941406 23 34.878906 23.003906 34.820313 23.003906 L 32.152344 9.773438 L 39.339844 7.191406 C 39.550781 7.113281 39.734375 6.96875 39.851563 6.773438 L 41.851563 3.523438 C 42.042969 3.222656 42.058594 2.839844 41.890625 2.523438 C 41.726563 2.207031 41.402344 2 41.046875 1.988281 Z M 6.988281 14.226563 C 6.992188 14.226563 6.996094 14.226563 7 14.230469 L 13.484375 14.859375 C 13.785156 14.886719 14 15.125 14 15.425781 C 14 15.757813 13.757813 16 13.425781 16 L 10.152344 16 C 10.09375 15.992188 10.039063 15.984375 9.984375 15.984375 C 9.933594 15.988281 9.886719 15.992188 9.835938 16 L 6.890625 16 C 6.386719 16 6 15.613281 6 15.109375 C 6 14.566406 6.445313 14.167969 6.988281 14.226563 Z M 35 25 C 39.429688 25 43 28.570313 43 33 C 43 36.015625 41.34375 38.628906 38.890625 39.996094 C 38.648438 40.019531 38.425781 40.128906 38.261719 40.304688 C 37.265625 40.746094 36.164063 41 35 41 C 32.585938 41 30.433594 39.929688 28.96875 38.246094 C 29.820313 38.078125 30.851563 37.886719 31.578125 37.738281 C 32.558594 37.542969 33.394531 37.375 34.027344 37.242188 C 34.65625 37.109375 35.023438 37.035156 35.277344 36.960938 C 36.164063 36.707031 37.039063 36.332031 37.757813 35.699219 C 38.476563 35.066406 39 34.113281 39 33 C 39 30.800781 37.199219 29 35 29 L 28.074219 29 C 29.453125 26.609375 32.03125 25 35 25 Z M 13 31 L 13.769531 31 C 13.929688 31.039063 14.09375 31.039063 14.253906 31 L 35 31 C 36.117188 31 37 31.882813 37 33 C 37 33.546875 36.820313 33.859375 36.4375 34.199219 C 36.050781 34.539063 35.429688 34.835938 34.722656 35.039063 C 34.695313 35.046875 34.234375 35.15625 33.613281 35.285156 C 32.996094 35.414063 32.164063 35.585938 31.1875 35.78125 C 29.238281 36.167969 26.71875 36.65625 24.171875 37.136719 C 21.625 37.617188 19.046875 38.085938 16.984375 38.433594 C 15.953125 38.609375 15.050781 38.753906 14.351563 38.851563 C 13.691406 38.945313 13.222656 38.988281 13.074219 38.992188 C 13.054688 38.992188 13.035156 38.988281 13.015625 38.988281 C 12.980469 38.988281 12.949219 38.988281 12.921875 38.992188 C 12.917969 38.992188 12.914063 38.992188 12.914063 38.992188 C 10.734375 38.945313 9 37.191406 9 35 C 9 32.78125 10.78125 31 13 31 Z M 13 33 C 11.894531 33 11 33.894531 11 35 C 11 36.105469 11.894531 37 13 37 C 13.714844 37 14.371094 36.617188 14.730469 36 L 20 36 C 20.359375 36.003906 20.695313 35.816406 20.878906 35.503906 C 21.058594 35.191406 21.058594 34.808594 20.878906 34.496094 C 20.695313 34.183594 20.359375 33.996094 20 34 L 14.730469 34 C 14.375 33.382813 13.714844 33 13 33 Z " fill="#000000"/></g></svg>
