<?xml version="1.0" encoding="UTF-8"?>
<svg xmlns="http://www.w3.org/2000/svg" xmlns:xlink="http://www.w3.org/1999/xlink" viewBox="0 0 50 50" version="1.1" fill="#000000"><g id="surface1" fill="#000000"><path style=" " d="M 42.4375 0.9375 C 41.300781 0.941406 40.121094 1.125 38.9375 1.4375 C 35.777344 2.269531 32.542969 4.023438 30.28125 6.28125 C 27.710938 8.851563 26.894531 12.121094 26.46875 14.84375 C 26.253906 16.207031 26.140625 17.449219 25.96875 18.40625 C 25.796875 19.363281 25.550781 19.980469 25.375 20.15625 C 24.574219 20.957031 21.3125 23.734375 17.8125 26.75 C 14.3125 29.765625 10.492188 33.066406 8.28125 35.28125 C 4.285156 39.277344 2.351563 41.765625 1.53125 43.65625 C 1.121094 44.601563 1.003906 45.449219 1.15625 46.1875 C 1.308594 46.925781 1.734375 47.484375 2.125 47.875 C 2.515625 48.265625 3.074219 48.691406 3.8125 48.84375 C 4.550781 48.996094 5.398438 48.847656 6.34375 48.4375 C 8.234375 47.617188 10.722656 45.714844 14.71875 41.71875 C 16.933594 39.507813 20.234375 35.6875 23.25 32.1875 C 26.265625 28.6875 29.042969 25.425781 29.84375 24.625 C 30.019531 24.449219 30.609375 24.199219 31.5625 24.03125 C 32.515625 23.863281 33.765625 23.742188 35.125 23.53125 C 37.84375 23.113281 41.117188 22.316406 43.71875 19.71875 C 45.980469 17.457031 47.730469 14.222656 48.5625 11.0625 C 49.394531 7.902344 49.347656 4.660156 47.34375 2.65625 C 46.339844 1.652344 45.019531 1.160156 43.5625 1 C 43.199219 0.960938 42.816406 0.9375 42.4375 0.9375 Z M 42.40625 2.96875 C 42.710938 2.96875 43 2.96875 43.28125 3 C 44.402344 3.117188 45.332031 3.488281 45.9375 4.09375 C 47.144531 5.300781 47.359375 7.765625 46.625 10.5625 C 45.890625 13.359375 44.230469 16.332031 42.28125 18.28125 C 40.125 20.4375 37.378906 21.167969 34.8125 21.5625 C 33.527344 21.761719 32.296875 21.875 31.21875 22.0625 C 30.140625 22.25 29.152344 22.472656 28.40625 23.21875 C 27.359375 24.265625 24.726563 27.382813 21.71875 30.875 C 18.710938 34.367188 15.390625 38.175781 13.28125 40.28125 C 9.359375 44.203125 6.925781 46.019531 5.53125 46.625 C 4.835938 46.925781 4.457031 46.925781 4.21875 46.875 C 3.980469 46.824219 3.785156 46.722656 3.53125 46.46875 C 3.277344 46.214844 3.175781 46.019531 3.125 45.78125 C 3.074219 45.542969 3.074219 45.164063 3.375 44.46875 C 3.980469 43.078125 5.792969 40.640625 9.71875 36.71875 C 11.824219 34.609375 15.632813 31.289063 19.125 28.28125 C 22.617188 25.273438 25.734375 22.640625 26.78125 21.59375 C 27.527344 20.847656 27.746094 19.835938 27.9375 18.75 C 28.128906 17.664063 28.265625 16.445313 28.46875 15.15625 C 28.871094 12.578125 29.597656 9.839844 31.71875 7.71875 C 33.667969 5.773438 36.640625 4.109375 39.4375 3.375 C 40.488281 3.097656 41.496094 2.972656 42.40625 2.96875 Z " fill="#000000"/></g></svg>
