<?xml version="1.0" encoding="UTF-8"?>
<svg xmlns="http://www.w3.org/2000/svg" xmlns:xlink="http://www.w3.org/1999/xlink" viewBox="0 0 50 50" version="1.1" fill="#000000"><g id="surface1" fill="#000000"><path style=" " d="M 33.75 0 C 30.84375 0.0898438 26.386719 0.660156 23.875 3.75 C 22.949219 4.890625 22.386719 6.121094 22.15625 7.28125 C 21.925781 8.441406 21.996094 9.597656 22.65625 10.46875 C 23.421875 11.476563 24.535156 11.800781 25.625 11.78125 C 25.167969 13.523438 24.933594 15.40625 24.8125 17.375 C 24.566406 21.347656 24.800781 25.644531 24.90625 29.75 C 24.308594 28.542969 23.578125 27.429688 22.6875 26.40625 C 22.289063 25.949219 21.832031 25.511719 21.375 25.09375 C 22.308594 24.289063 22.898438 23.085938 22.6875 21.625 C 22.199219 18.21875 18.054688 14.066406 10.40625 15.1875 C 7.535156 15.609375 4.191406 17.019531 0.5 19.1875 C 0.1875 19.375 0 19.71875 0.015625 20.082031 C 0.0273438 20.445313 0.238281 20.773438 0.5625 20.9375 C 1.085938 21.1875 1.746094 22.046875 2.40625 23.28125 C 3.066406 24.515625 3.757813 26.050781 4.625 27.5625 C 5.492188 29.074219 6.546875 30.582031 8.0625 31.625 C 9.578125 32.667969 11.546875 33.21875 13.9375 32.875 C 16.734375 32.472656 18.792969 31.144531 19.96875 29.5625 C 20.476563 28.878906 20.769531 28.164063 20.90625 27.4375 C 20.996094 27.535156 21.101563 27.621094 21.1875 27.71875 C 23.734375 30.648438 24.867188 34.550781 24.96875 39.3125 C 22.898438 39.816406 21.0625 40.914063 19.625 42.40625 C 18.605469 41.59375 17.410156 41 16 41 C 14.300781 41 12.875 41.828125 11.78125 42.96875 C 10.972656 42.410156 10.054688 42 9 42 C 7.40625 42 6.097656 42.863281 5.1875 44.03125 C 5.117188 44.027344 5.082031 44 5 44 C 2.25 44 0 46.25 0 49 C -0.00390625 49.359375 0.183594 49.695313 0.496094 49.878906 C 0.808594 50.058594 1.191406 50.058594 1.503906 49.878906 C 1.816406 49.695313 2.003906 49.359375 2 49 C 2 47.332031 3.332031 46 5 46 C 5.070313 46 5.207031 46.003906 5.40625 46.03125 C 5.808594 46.082031 6.207031 45.886719 6.40625 45.53125 C 6.921875 44.609375 7.871094 44 9 44 C 9.84375 44 10.609375 44.347656 11.15625 44.90625 C 11.367188 45.113281 11.664063 45.21875 11.957031 45.1875 C 12.253906 45.15625 12.523438 44.996094 12.6875 44.75 C 13.40625 43.6875 14.613281 43 16 43 C 17.195313 43 18.257813 43.535156 19 44.375 C 19.195313 44.585938 19.46875 44.703125 19.757813 44.699219 C 20.042969 44.691406 20.316406 44.5625 20.5 44.34375 C 22.152344 42.308594 24.671875 41 27.5 41 C 29.082031 41 30.550781 41.40625 31.84375 42.125 C 32.195313 42.316406 32.625 42.277344 32.9375 42.03125 C 33.785156 41.378906 34.847656 41 36 41 C 38.347656 41 40.296875 42.617188 40.84375 44.78125 C 40.917969 45.074219 41.117188 45.316406 41.390625 45.445313 C 41.664063 45.570313 41.980469 45.570313 42.25 45.4375 C 42.796875 45.167969 43.378906 45 44 45 C 46.21875 45 48 46.78125 48 49 C 47.996094 49.359375 48.183594 49.695313 48.496094 49.878906 C 48.808594 50.058594 49.191406 50.058594 49.503906 49.878906 C 49.816406 49.695313 50.003906 49.359375 50 49 C 50 45.699219 47.300781 43 44 43 C 43.410156 43 42.90625 43.214844 42.375 43.375 C 41.324219 40.835938 38.910156 39 36 39 C 34.621094 39 33.363281 39.464844 32.28125 40.15625 C 30.824219 39.445313 29.226563 39 27.5 39 C 27.320313 39 27.144531 39.023438 26.96875 39.03125 C 26.949219 38.40625 26.898438 37.789063 26.84375 37.1875 C 26.867188 37.097656 26.878906 37 26.875 36.90625 C 26.875 33.929688 27.617188 31.832031 29.28125 30.5625 C 29.589844 30.328125 29.949219 30.121094 30.34375 29.9375 C 30.28125 30.46875 30.332031 31.027344 30.5 31.59375 C 30.9375 33.0625 32.207031 34.503906 34.28125 34.875 C 36.863281 35.335938 38.960938 34.25 40.46875 33.03125 C 41.222656 32.421875 41.855469 31.773438 42.375 31.25 C 42.894531 30.726563 43.363281 30.328125 43.5 30.25 C 43.96875 29.976563 44.132813 29.382813 43.875 28.90625 C 43.25 27.714844 42.335938 26.25 40.875 25.0625 C 39.414063 23.875 37.410156 23 34.78125 23 C 33.539063 23 32.488281 23.210938 31.65625 23.65625 C 30.824219 24.101563 30.210938 24.855469 30.0625 25.75 C 29.929688 26.554688 30.109375 27.203125 30.375 27.75 C 29.507813 28.046875 28.730469 28.460938 28.0625 28.96875 C 27.625 29.300781 27.246094 29.683594 26.90625 30.09375 C 26.804688 25.8125 26.539063 21.421875 26.78125 17.5 C 26.855469 16.304688 27 15.175781 27.1875 14.09375 C 27.339844 14.207031 27.484375 14.3125 27.65625 14.40625 C 29.113281 15.183594 31.183594 15.257813 32.9375 13.875 C 37.324219 10.410156 37 3.949219 37 1 C 37 0.449219 36.550781 0 36 0 C 35.503906 0 34.71875 -0.03125 33.75 0 Z M 34.9375 2.09375 C 34.917969 5.238281 34.757813 9.882813 31.71875 12.28125 C 30.5625 13.191406 29.46875 13.089844 28.59375 12.625 C 28.179688 12.40625 27.882813 12.105469 27.6875 11.8125 C 27.882813 11.152344 28.109375 10.515625 28.375 9.9375 C 29.328125 7.871094 30.753906 6.347656 32.96875 5.40625 C 33.496094 5.234375 33.78125 4.667969 33.609375 4.140625 C 33.4375 3.613281 32.871094 3.328125 32.34375 3.5 C 32.289063 3.515625 32.238281 3.539063 32.1875 3.5625 C 29.511719 4.699219 27.679688 6.710938 26.5625 9.125 C 26.460938 9.347656 26.371094 9.582031 26.28125 9.8125 C 26.207031 9.824219 26.132813 9.847656 26.0625 9.875 C 25.34375 10.152344 24.886719 10.09375 24.25 9.25 C 24.089844 9.039063 23.9375 8.476563 24.09375 7.6875 C 24.25 6.898438 24.703125 5.933594 25.4375 5.03125 C 27.601563 2.367188 32.402344 2.128906 34.9375 2.09375 Z M 13.0625 17 C 18.210938 17.074219 20.46875 20.160156 20.71875 21.90625 C 20.875 22.984375 20.542969 23.605469 19.96875 23.9375 C 17.003906 21.800781 13.015625 20.378906 7.875 19.78125 C 7.769531 19.765625 7.667969 19.765625 7.5625 19.78125 C 7.011719 19.796875 6.578125 20.261719 6.59375 20.8125 C 6.609375 21.363281 7.074219 21.796875 7.625 21.78125 C 12.691406 22.367188 16.375 23.753906 19.03125 25.75 C 19.214844 26.355469 19.089844 27.371094 18.34375 28.375 C 17.507813 29.5 15.984375 30.542969 13.65625 30.875 C 11.6875 31.15625 10.328125 30.753906 9.1875 29.96875 C 8.046875 29.183594 7.136719 27.976563 6.34375 26.59375 C 5.550781 25.210938 4.90625 23.683594 4.1875 22.34375 C 3.773438 21.570313 3.28125 20.882813 2.75 20.28125 C 5.78125 18.625 8.542969 17.46875 10.6875 17.15625 C 11.542969 17.03125 12.328125 16.988281 13.0625 17 Z M 34.78125 25 C 36.980469 25 38.472656 25.691406 39.625 26.625 C 40.546875 27.375 41.191406 28.296875 41.71875 29.1875 C 41.476563 29.410156 41.226563 29.585938 40.96875 29.84375 C 40.445313 30.371094 39.859375 30.949219 39.21875 31.46875 C 37.9375 32.503906 36.53125 33.242188 34.65625 32.90625 C 34.644531 32.90625 34.636719 32.90625 34.625 32.90625 C 33.261719 32.664063 32.699219 31.90625 32.4375 31.03125 C 32.21875 30.300781 32.414063 29.554688 32.53125 29.28125 C 34.066406 29.039063 35.988281 29.082031 38.40625 29.46875 C 38.773438 29.558594 39.15625 29.433594 39.402344 29.148438 C 39.648438 28.863281 39.710938 28.460938 39.566406 28.113281 C 39.421875 27.765625 39.09375 27.527344 38.71875 27.5 C 36.277344 27.109375 34.171875 27.035156 32.40625 27.28125 C 32.371094 27.285156 32.347656 27.308594 32.3125 27.3125 C 32.054688 26.96875 31.9375 26.636719 32.03125 26.0625 C 32.074219 25.808594 32.175781 25.628906 32.59375 25.40625 C 33.011719 25.183594 33.765625 25 34.78125 25 Z " fill="#000000"/></g></svg>
