<?xml version="1.0" encoding="UTF-8"?>
<svg xmlns="http://www.w3.org/2000/svg" xmlns:xlink="http://www.w3.org/1999/xlink" viewBox="0 0 50 50" version="1.1" fill="#000000"><g id="surface1" fill="#000000"><path style=" " d="M 13.9375 3.6875 C 9.320313 3.6875 5.53125 7.441406 5.53125 12.0625 C 5.53125 14.457031 6.546875 16.628906 8.15625 18.15625 L 8.21875 18.21875 C 8.21875 18.21875 10.410156 19.984375 12.6875 21.84375 C 13.828125 22.773438 14.980469 23.734375 15.90625 24.5 C 16.832031 25.265625 17.5625 25.878906 17.65625 25.96875 C 18.105469 26.402344 18.15625 26.648438 18.28125 27.21875 C 18.40625 27.789063 18.628906 28.707031 19.4375 29.46875 C 19.535156 29.5625 19.890625 29.871094 20.03125 30 L 8 30 C 3.457031 30 0 33.382813 0 37.9375 C 0 40.199219 0.761719 42.304688 2.21875 43.84375 C 3.675781 45.382813 5.8125 46.3125 8.375 46.3125 C 12.992188 46.3125 16.28125 42.480469 16.28125 37.9375 C 16.28125 37.460938 16.40625 37.332031 16.5 37.25 C 16.59375 37.167969 16.777344 37.0625 17.125 37.0625 L 29.53125 37.0625 C 29.5625 37.0625 29.59375 37.0625 29.625 37.0625 L 40.15625 37.0625 L 40.15625 37.03125 C 40.253906 37.035156 42.460938 37.167969 44.8125 36.5625 C 46.015625 36.253906 47.273438 35.761719 48.28125 34.875 C 49.289063 33.988281 50 32.652344 50 31 L 50 30.125 L 49.125 30 L 39.4375 28.8125 L 49.46875 21.65625 L 50.6875 20.78125 L 49.40625 20 C 47.449219 18.789063 45.390625 18.554688 43.8125 18.625 C 42.234375 18.695313 41.125 19.0625 41.125 19.0625 L 41 19.125 L 28.03125 25.625 C 25.058594 23.417969 20.539063 20.058594 19.8125 19.53125 C 19.5 19.304688 19.46875 19.164063 19.46875 18.9375 C 19.46875 18.710938 19.570313 18.355469 19.84375 18 L 19.8125 18 C 21.335938 16.484375 22.3125 14.378906 22.3125 12.0625 C 22.3125 7.445313 18.558594 3.6875 13.9375 3.6875 Z M 13.9375 5.6875 C 17.476563 5.6875 20.3125 8.523438 20.3125 12.0625 C 20.3125 13.867188 19.574219 15.492188 18.375 16.65625 L 18.3125 16.71875 L 18.28125 16.78125 C 17.804688 17.402344 17.460938 18.125 17.46875 18.9375 C 17.476563 19.75 17.910156 20.582031 18.65625 21.125 C 19.289063 21.582031 24.152344 25.21875 27.125 27.4375 C 27.226563 27.558594 27.355469 27.65625 27.5 27.71875 C 28.273438 28.292969 29.9375 29.53125 29.9375 29.53125 L 30.15625 29.6875 L 30.40625 29.71875 L 47.8125 31.875 C 47.652344 32.46875 47.414063 32.980469 46.96875 33.375 C 46.3125 33.953125 45.324219 34.363281 44.3125 34.625 C 42.289063 35.144531 40.1875 35.0625 40.1875 35.0625 L 29.59375 35.0625 C 29.574219 35.0625 29.550781 35.0625 29.53125 35.0625 C 29.023438 35.0625 28.019531 34.609375 27.875 34.46875 C 27.558594 34.164063 26.175781 32.910156 24.625 31.5 C 23.074219 30.089844 21.417969 28.566406 20.8125 28 C 20.375 27.585938 20.34375 27.382813 20.21875 26.8125 C 20.09375 26.242188 19.871094 25.308594 19.0625 24.53125 C 18.761719 24.242188 18.121094 23.710938 17.1875 22.9375 C 16.253906 22.164063 15.078125 21.210938 13.9375 20.28125 C 11.691406 18.445313 9.597656 16.773438 9.53125 16.71875 C 9.519531 16.707031 9.511719 16.699219 9.5 16.6875 C 9.5 16.6875 9.46875 16.65625 9.46875 16.65625 C 8.273438 15.492188 7.53125 13.863281 7.53125 12.0625 C 7.53125 8.523438 10.398438 5.6875 13.9375 5.6875 Z M 14 7.5 C 11.527344 7.5 9.5 9.527344 9.5 12 C 9.5 14.472656 11.527344 16.5 14 16.5 C 16.472656 16.5 18.5 14.472656 18.5 12 C 18.5 9.527344 16.472656 7.5 14 7.5 Z M 14 9.5 C 15.390625 9.5 16.5 10.609375 16.5 12 C 16.5 13.390625 15.390625 14.5 14 14.5 C 12.609375 14.5 11.5 13.390625 11.5 12 C 11.5 10.609375 12.609375 9.5 14 9.5 Z M 44.09375 20.6875 C 44.90625 20.683594 45.875 20.78125 46.84375 21.09375 L 36.46875 28.4375 L 30.90625 27.75 C 30.867188 27.722656 30.015625 27.085938 29.8125 26.9375 L 41.78125 20.96875 C 41.78125 20.96875 42.738281 20.691406 44.09375 20.6875 Z M 30.5 31 C 29.671875 31 29 31.671875 29 32.5 C 29 33.328125 29.671875 34 30.5 34 C 31.328125 34 32 33.328125 32 32.5 C 32 31.671875 31.328125 31 30.5 31 Z M 22.03125 31.96875 C 22.074219 31.972656 22.113281 31.972656 22.15625 31.96875 C 22.59375 32.367188 22.832031 32.558594 23.28125 32.96875 C 24.382813 33.972656 24.972656 34.523438 25.5625 35.0625 L 17.125 35.0625 C 16.457031 35.0625 15.761719 35.25 15.1875 35.75 C 14.613281 36.25 14.28125 37.054688 14.28125 37.9375 C 14.28125 41.554688 11.914063 44.3125 8.375 44.3125 C 6.285156 44.3125 4.757813 43.601563 3.6875 42.46875 C 2.617188 41.335938 2 39.753906 2 37.9375 C 2 34.335938 4.386719 32 8 32 L 21.84375 32 C 21.90625 31.996094 21.96875 31.984375 22.03125 31.96875 Z M 8 33.5 C 5.527344 33.5 3.5 35.527344 3.5 38 C 3.5 40.472656 5.527344 42.5 8 42.5 C 10.472656 42.5 12.5 40.472656 12.5 38 C 12.5 35.527344 10.472656 33.5 8 33.5 Z M 8 35.5 C 9.390625 35.5 10.5 36.609375 10.5 38 C 10.5 39.390625 9.390625 40.5 8 40.5 C 6.609375 40.5 5.5 39.390625 5.5 38 C 5.5 36.609375 6.609375 35.5 8 35.5 Z " fill="#000000"/></g></svg>
