<?xml version="1.0" encoding="UTF-8"?>
<svg xmlns="http://www.w3.org/2000/svg" xmlns:xlink="http://www.w3.org/1999/xlink" viewBox="0 0 50 50" version="1.1" fill="#000000"><g id="surface1" fill="#000000"><path style=" " d="M 11.113281 2 L 11.007813 2.882813 L 7.875 29 L 23 29 C 23 29.714844 23.382813 30.375 24 30.730469 L 24 32.269531 C 23.382813 32.628906 23 33.285156 23 34 C 23 34.714844 23.382813 35.375 24 35.730469 L 24 43 L 18 43 C 15.800781 43 14 44.800781 14 47 L 14 48 L 36 48 L 36 47 C 36 44.800781 34.199219 43 32 43 L 26 43 L 26 35.730469 C 26.617188 35.371094 27 34.714844 27 34 C 27 33.285156 26.617188 32.625 26 32.269531 L 26 30.730469 C 26.617188 30.371094 27 29.714844 27 29 L 42.125 29 L 38.886719 2 Z M 12.886719 4 L 37.113281 4 L 39.875 27 L 25.15625 27 C 25.097656 26.992188 25.042969 26.984375 24.984375 26.984375 C 24.9375 26.988281 24.886719 26.992188 24.839844 27 L 10.125 27 Z M 18 45 L 24.832031 45 C 24.941406 45.019531 25.050781 45.019531 25.15625 45 L 32 45 C 32.722656 45 33.238281 45.4375 33.589844 46 L 16.410156 46 C 16.761719 45.4375 17.277344 45 18 45 Z " fill="#000000"/></g></svg>
