<?xml version="1.0" encoding="UTF-8"?>
<svg xmlns="http://www.w3.org/2000/svg" xmlns:xlink="http://www.w3.org/1999/xlink" viewBox="0 0 50 50" version="1.1" fill="#000000"><g id="surface1" fill="#000000"><path style=" " d="M 14.8125 7 C 14.78125 7.007813 14.75 7.019531 14.71875 7.03125 C 14.6875 7.039063 14.65625 7.050781 14.625 7.0625 C 14.59375 7.070313 14.5625 7.082031 14.53125 7.09375 C 14.519531 7.105469 14.511719 7.113281 14.5 7.125 C 14.480469 7.132813 14.457031 7.144531 14.4375 7.15625 C 14.425781 7.167969 14.417969 7.175781 14.40625 7.1875 C 14.394531 7.199219 14.386719 7.207031 14.375 7.21875 C 14.363281 7.230469 14.355469 7.238281 14.34375 7.25 C 14.324219 7.257813 14.300781 7.269531 14.28125 7.28125 C 14.269531 7.292969 14.261719 7.300781 14.25 7.3125 C 14.238281 7.324219 14.230469 7.332031 14.21875 7.34375 C 14.207031 7.363281 14.195313 7.386719 14.1875 7.40625 C 14.140625 7.464844 14.097656 7.527344 14.0625 7.59375 C 13.871094 7.863281 11.480469 11.199219 8.5625 15 C 7.042969 16.976563 5.402344 19.03125 3.9375 20.75 C 2.472656 22.46875 1.140625 23.863281 0.40625 24.40625 C 0.0976563 24.625 -0.0585938 25 0 25.375 L 2.625 41.40625 C 2.699219 41.875 3.089844 42.226563 3.5625 42.25 L 10.59375 42.5625 C 11.132813 42.582031 11.589844 42.164063 11.625 41.625 L 12.78125 28.03125 L 17.25 28.3125 L 18.1875 42.34375 C 18.214844 42.835938 18.601563 43.234375 19.09375 43.28125 L 26.84375 43.96875 C 27.003906 44.019531 27.175781 44.03125 27.34375 44 C 27.375 44 27.40625 44 27.4375 44 C 27.457031 43.992188 27.480469 43.980469 27.5 43.96875 L 27.65625 43.9375 C 27.6875 43.929688 27.71875 43.917969 27.75 43.90625 L 45.34375 40.625 C 45.730469 40.550781 46.035156 40.257813 46.125 39.875 C 46.125 39.875 48.738281 28.832031 49.90625 25.03125 C 49.933594 24.972656 49.953125 24.90625 49.96875 24.84375 C 49.988281 24.773438 49.996094 24.699219 50 24.625 C 50 24.605469 50 24.582031 50 24.5625 C 50 24.550781 50 24.542969 50 24.53125 C 50 24.5 50 24.46875 50 24.4375 C 49.980469 24.269531 49.914063 24.105469 49.8125 23.96875 C 49.792969 23.945313 49.773438 23.925781 49.75 23.90625 C 49.738281 23.894531 49.730469 23.886719 49.71875 23.875 C 49.710938 23.867188 49.695313 23.820313 49.6875 23.8125 C 49.65625 23.789063 49.625 23.769531 49.59375 23.75 C 49.1875 23.296875 48.320313 22.105469 47.28125 20.625 C 46.175781 19.050781 44.890625 17.136719 43.65625 15.28125 C 41.1875 11.574219 38.96875 8.125 38.96875 8.125 C 38.765625 7.828125 38.421875 7.660156 38.0625 7.6875 C 38.0625 7.6875 22.722656 8.554688 15.25 7.03125 C 15.230469 7.03125 15.207031 7.03125 15.1875 7.03125 C 15.175781 7.019531 15.167969 7.011719 15.15625 7 C 15.136719 7 15.113281 7 15.09375 7 C 15.082031 7 15.074219 7 15.0625 7 C 15.042969 7 15.019531 7 15 7 C 14.988281 7 14.980469 7 14.96875 7 C 14.949219 7 14.925781 7 14.90625 7 C 14.875 7 14.84375 7 14.8125 7 Z M 17.125 9.34375 C 25.113281 10.433594 36.699219 9.773438 37.59375 9.71875 C 37.871094 10.148438 39.691406 12.9375 42 16.40625 C 43.238281 18.269531 44.535156 20.183594 45.65625 21.78125 C 46.222656 22.589844 46.675781 23.210938 47.09375 23.75 L 30.375 25.46875 C 25.449219 20.808594 19.648438 12.902344 17.125 9.34375 Z M 15 9.6875 C 16.15625 11.375 22.730469 20.929688 28.96875 26.84375 C 27.484375 32.417969 26.621094 40.441406 26.46875 41.90625 L 20.125 41.34375 L 19.1875 27.3125 C 19.15625 26.808594 18.753906 26.40625 18.25 26.375 L 11.9375 25.96875 C 11.671875 25.953125 11.410156 26.039063 11.210938 26.21875 C 11.011719 26.394531 10.890625 26.640625 10.875 26.90625 L 9.75 40.53125 L 4.46875 40.28125 L 2.0625 25.53125 C 3.046875 24.707031 4.15625 23.605469 5.46875 22.0625 C 6.96875 20.300781 8.59375 18.214844 10.125 16.21875 C 12.75 12.800781 14.398438 10.527344 15 9.6875 Z M 47.65625 25.71875 C 46.414063 30.078125 44.527344 38.007813 44.34375 38.78125 L 28.46875 41.78125 C 28.78125 39.09375 29.664063 32.066406 30.875 27.4375 Z " fill="#000000"/></g></svg>
