<?xml version="1.0" encoding="UTF-8"?>
<svg xmlns="http://www.w3.org/2000/svg" xmlns:xlink="http://www.w3.org/1999/xlink" viewBox="0 0 50 50" version="1.1" fill="#000000"><g id="surface1" fill="#000000"><path style=" " d="M 5.96875 5 C 4.335938 5 3 6.367188 3 8 L 3 24.40625 C 2.601563 24.683594 2.214844 24.96875 1.84375 25.28125 C 1.394531 25.660156 1.339844 26.332031 1.71875 26.78125 C 2.097656 27.230469 2.769531 27.285156 3.21875 26.90625 C 5.675781 24.839844 8.820313 23.59375 12.28125 23.59375 C 20.089844 23.59375 26.40625 29.914063 26.40625 37.71875 C 26.367188 38.117188 26.558594 38.503906 26.898438 38.714844 C 27.238281 38.929688 27.667969 38.929688 28.007813 38.714844 C 28.347656 38.503906 28.539063 38.117188 28.5 37.71875 C 28.5 37.476563 28.480469 37.238281 28.46875 37 L 32.78125 37 C 31.671875 38.371094 31 40.105469 31 42 C 31 46.40625 34.59375 50 39 50 C 43.40625 50 47 46.40625 47 42 C 47 39.867188 46.148438 37.9375 44.78125 36.5 C 44.980469 36.390625 45.15625 36.257813 45.34375 36.125 C 46.042969 35.617188 46.664063 34.964844 46.96875 34.125 L 49.875 26.1875 C 50.210938 25.273438 49.796875 24.265625 49.1875 23.75 C 48.578125 23.234375 47.835938 23 47.0625 23 L 40.0625 23 L 40.0625 17 C 40.0625 15.09375 40.492188 14.40625 40.71875 14.1875 C 40.832031 14.078125 40.925781 14.074219 40.96875 14.0625 C 41.257813 14.074219 41.535156 13.964844 41.742188 13.765625 C 41.949219 13.566406 42.066406 13.289063 42.0625 13 L 42.0625 11 C 42.066406 10.71875 41.953125 10.445313 41.753906 10.246094 C 41.554688 10.046875 41.28125 9.933594 41 9.9375 C 39.710938 9.9375 38.007813 10.171875 36.53125 11.1875 C 35.054688 12.203125 33.9375 14.058594 33.9375 16.8125 L 33.9375 23 L 28.78125 23 L 24.65625 7.78125 C 24.652344 7.757813 24.628906 7.742188 24.625 7.71875 C 24.480469 7.078125 24.214844 6.453125 23.75 5.9375 C 23.269531 5.402344 22.511719 5 21.6875 5 Z M 5.96875 7 L 21.6875 7 C 21.949219 7 22.109375 7.058594 22.28125 7.25 C 22.453125 7.441406 22.601563 7.789063 22.6875 8.1875 C 22.695313 8.207031 22.707031 8.230469 22.71875 8.25 L 27.0625 24.25 C 27.175781 24.691406 27.574219 25 28.03125 25 L 34.625 25 C 34.855469 25.082031 35.113281 25.082031 35.34375 25 L 38.625 25 C 38.855469 25.082031 39.113281 25.082031 39.34375 25 L 47.0625 25 C 47.378906 25 47.753906 25.152344 47.90625 25.28125 C 48.058594 25.410156 48.035156 25.320313 47.96875 25.5 L 45.09375 33.4375 C 45 33.691406 44.609375 34.171875 44.15625 34.5 C 43.703125 34.828125 43.167969 35 42.96875 35 L 28.25 35 C 26.949219 27.351563 20.296875 21.5 12.28125 21.5 C 9.664063 21.5 7.195313 22.121094 5 23.21875 L 5 8 C 5 7.4375 5.429688 7 5.96875 7 Z M 7.8125 9 C 7.335938 9.089844 6.992188 9.511719 7 10 L 7 19 C 7 19.550781 7.449219 20 8 20 L 22.90625 20 C 23.214844 20 23.507813 19.855469 23.695313 19.613281 C 23.886719 19.367188 23.953125 19.050781 23.875 18.75 L 21.4375 9.75 C 21.324219 9.308594 20.925781 9 20.46875 9 L 8 9 C 7.96875 9 7.9375 9 7.90625 9 C 7.875 9 7.84375 9 7.8125 9 Z M 9 11 L 19.71875 11 L 21.625 18 L 9 18 Z M 39.9375 12.1875 L 39.9375 12.3125 C 39.714844 12.425781 39.503906 12.472656 39.28125 12.6875 C 38.507813 13.429688 37.9375 14.757813 37.9375 17 L 37.9375 23 L 36.0625 23 L 36.0625 16.8125 C 36.0625 14.574219 36.777344 13.554688 37.71875 12.90625 C 38.363281 12.460938 39.15625 12.292969 39.9375 12.1875 Z M 12 26 C 5.386719 26 0 31.386719 0 38 C 0 44.613281 5.386719 50 12 50 C 18.613281 50 24 44.613281 24 38 C 24 31.386719 18.613281 26 12 26 Z M 12 28 C 17.53125 28 22 32.46875 22 38 C 22 43.53125 17.53125 48 12 48 C 11.65625 48 11.304688 47.972656 10.96875 47.9375 C 10.632813 47.902344 10.292969 47.878906 9.96875 47.8125 C 5.40625 46.882813 2 42.839844 2 38 C 2 37.652344 2.027344 37.304688 2.0625 36.96875 C 2.574219 31.917969 6.816406 28 12 28 Z M 11.90625 32.5 C 11.875 32.507813 11.84375 32.519531 11.8125 32.53125 C 11.75 32.535156 11.6875 32.546875 11.625 32.5625 C 11.613281 32.574219 11.605469 32.582031 11.59375 32.59375 C 8.769531 32.816406 6.5 35.121094 6.5 38 C 6.5 41.023438 8.976563 43.5 12 43.5 C 15.023438 43.5 17.5 41.023438 17.5 38 C 17.5 35.144531 15.265625 32.847656 12.46875 32.59375 C 12.433594 32.589844 12.410156 32.566406 12.375 32.5625 C 12.273438 32.523438 12.167969 32.503906 12.0625 32.5 C 12.042969 32.5 12.019531 32.5 12 32.5 C 11.96875 32.5 11.9375 32.5 11.90625 32.5 Z M 11.9375 34.5 C 11.957031 34.5 11.980469 34.5 12 34.5 C 13.941406 34.5 15.5 36.0625 15.5 38 C 15.5 39.9375 13.9375 41.5 12 41.5 C 10.0625 41.5 8.5 39.9375 8.5 38 C 8.5 36.082031 10.027344 34.535156 11.9375 34.5 Z M 35.625 37 L 38.90625 37 C 38.875 37.007813 38.84375 37.019531 38.8125 37.03125 C 38.75 37.035156 38.6875 37.046875 38.625 37.0625 C 38.613281 37.074219 38.605469 37.082031 38.59375 37.09375 C 36.042969 37.3125 34 39.398438 34 42 C 34 44.746094 36.253906 47 39 47 C 41.746094 47 44 44.746094 44 42 C 44 39.417969 41.988281 37.34375 39.46875 37.09375 C 39.433594 37.089844 39.410156 37.066406 39.375 37.0625 C 39.316406 37.035156 39.25 37.015625 39.1875 37 L 42.375 37 C 42.414063 37.046875 42.453125 37.085938 42.5 37.125 C 44.019531 38.214844 45 39.984375 45 42 C 45 45.320313 42.320313 48 39 48 C 35.679688 48 33 45.320313 33 42 C 33 40.070313 33.898438 38.347656 35.3125 37.25 C 35.433594 37.1875 35.539063 37.105469 35.625 37 Z M 39 39 C 40.660156 39 42 40.335938 42 42 C 42 43.664063 40.660156 45 39 45 C 37.335938 45 36 43.660156 36 42 C 36 40.339844 37.335938 39 39 39 Z " fill="#000000"/></g></svg>
