<?xml version="1.0" encoding="utf-8"?>
<svg xmlns="http://www.w3.org/2000/svg" viewBox="0 0 50 50" fill="#000000"><path style="line-height:normal;text-indent:0;text-align:start;text-decoration-line:none;text-decoration-style:solid;text-decoration-color:#000;text-transform:none;block-progression:tb;isolation:auto;mix-blend-mode:normal" d="M 36.984375 2 A 1.0001 1.0001 0 0 0 36.289062 2.296875 L 28.097656 10.583984 L 27.392578 9.8789062 C 26.821878 9.3082061 26.067222 9.0119414 25.316406 9 L 25.314453 9 L 25.3125 9 C 24.533041 8.9895274 23.74323 9.286067 23.150391 9.8789062 L 5.515625 27.515625 C 0.83748668 32.193763 0.83735322 39.807192 5.515625 44.484375 L 5.8085938 44.777344 L 5.9570312 44.777344 C 10.659364 49.072251 17.936431 49.032319 22.484375 44.484375 L 40.121094 26.849609 C 41.284167 25.686536 41.284167 23.770495 40.121094 22.607422 L 39.416016 21.902344 L 47.703125 13.710938 A 1.0001 1.0001 0 0 0 47.707031 12.292969 L 37.707031 2.2929688 A 1.0001 1.0001 0 0 0 36.984375 2 z M 37.003906 4.4179688 L 45.582031 12.996094 L 38.001953 20.488281 L 29.511719 11.998047 L 37.003906 4.4179688 z M 36 8 L 34 10 L 36 12 L 38 10 L 36 8 z M 25.285156 11 C 25.53968 11.0045 25.783682 11.09813 25.978516 11.292969 L 38.707031 24.021484 C 39.105958 24.420411 39.105958 25.03662 38.707031 25.435547 L 21.070312 43.070312 C 17.156396 46.984229 10.843604 46.984229 6.9296875 43.070312 C 3.0159593 39.157496 3.0158258 32.843549 6.9296875 28.929688 L 24.564453 11.292969 C 24.767142 11.09028 25.023252 10.996931 25.285156 11 z M 40 12 L 38 14 L 40 16 L 42 14 L 40 12 z M 14.5 32 C 12.578848 32 11 33.578848 11 35.5 C 11 37.421152 12.578848 39 14.5 39 C 16.421152 39 18 37.421152 18 35.5 C 18 33.578848 16.421152 32 14.5 32 z M 14.5 34 C 15.340272 34 16 34.659728 16 35.5 C 16 36.340272 15.340272 37 14.5 37 C 13.659728 37 13 36.340272 13 35.5 C 13 34.659728 13.659728 34 14.5 34 z" font-weight="400" font-family="sans-serif" white-space="normal" overflow="visible" fill="#000000"/></svg>
