<?xml version="1.0" encoding="utf-8"?>
<svg xmlns="http://www.w3.org/2000/svg" viewBox="0 0 50 50" fill="#000000"><path style="line-height:normal;text-indent:0;text-align:start;text-decoration-line:none;text-decoration-style:solid;text-decoration-color:#000;text-transform:none;block-progression:tb;isolation:auto;mix-blend-mode:normal" d="M 3 5 A 1.0001 1.0001 0 0 0 2 6 L 2 23.470703 L 2 34 A 1.0001 1.0001 0 0 0 3 35 L 37 35 A 1.0001 1.0001 0 0 0 38 34 L 38 6 A 1.0001 1.0001 0 0 0 37 5 L 3 5 z M 4 7 L 7 7 L 7 10 L 4 10 L 4 7 z M 9 7 L 13 7 L 13 10 L 9 10 L 9 7 z M 15 7 L 19 7 L 19 10 L 15 10 L 15 7 z M 21 7 L 25 7 L 25 10 L 21 10 L 21 7 z M 27 7 L 31 7 L 31 10 L 27 10 L 27 7 z M 33 7 L 36 7 L 36 10 L 33 10 L 33 7 z M 40 10 L 40 12 L 41 12 L 41 38 L 9 38 L 9 37 L 7 37 L 7 39 A 1.0001 1.0001 0 0 0 8 40 L 42 40 A 1.0001 1.0001 0 0 0 43 39 L 43 11 A 1.0001 1.0001 0 0 0 42 10 L 40 10 z M 4 12 L 36 12 L 36 28 L 4 28 L 4 23.470703 L 4 12 z M 17.019531 15 A 1.0001 1.0001 0 0 0 16 16 L 16 24 A 1.0001 1.0001 0 0 0 17.496094 24.869141 L 24.496094 20.869141 A 1.0001 1.0001 0 0 0 24.496094 19.130859 L 17.496094 15.130859 A 1.0001 1.0001 0 0 0 17.019531 15 z M 45 15 L 45 17 L 46 17 L 46 43 L 14 43 L 14 42 L 12 42 L 12 44 A 1.0001 1.0001 0 0 0 13 45 L 47 45 A 1.0001 1.0001 0 0 0 48 44 L 48 16 A 1.0001 1.0001 0 0 0 47 15 L 45 15 z M 18 17.724609 L 21.982422 20 L 18 22.275391 L 18 17.724609 z M 4 30 L 7 30 L 7 33 L 4 33 L 4 30 z M 9 30 L 13 30 L 13 33 L 9 33 L 9 30 z M 15 30 L 19 30 L 19 33 L 15 33 L 15 30 z M 21 30 L 25 30 L 25 33 L 21 33 L 21 30 z M 27 30 L 31 30 L 31 33 L 27 33 L 27 30 z M 33 30 L 36 30 L 36 33 L 33 33 L 33 30 z" fill="#000000"/></svg>
