<?xml version="1.0" encoding="UTF-8"?>
<svg xmlns="http://www.w3.org/2000/svg" xmlns:xlink="http://www.w3.org/1999/xlink" viewBox="0 0 50 50" version="1.1" fill="#000000"><g id="surface1" fill="#000000"><path style=" " d="M 35.5 7 C 28.308594 7 22.347656 12.242188 21.21875 19.125 C 19.949219 19.476563 19 20.625 19 22 L 19 23.84375 C 19 23.875 19 23.90625 19 23.9375 L 19 24 C 19 24.03125 19 24.0625 19 24.09375 L 19 28.375 C 18.367188 28.085938 17.367188 27.417969 16.25 26.5625 C 13.9375 24.796875 11.1875 22.28125 9.6875 20.78125 C 8.800781 19.894531 8.367188 19.25 8.25 18.9375 C 8.132813 18.625 8.148438 18.789063 8.21875 18.71875 C 8.695313 18.242188 8.90625 17.554688 8.8125 17.0625 C 8.71875 16.570313 8.375 16.25 8.375 16.25 L 7.6875 15.5625 C 7.363281 15.238281 6.933594 15.0625 6.5 15.0625 C 6.066406 15.0625 5.636719 15.238281 5.3125 15.5625 L 0.5 20.375 C -0.148438 21.023438 -0.148438 22.101563 0.5 22.75 L 1.1875 23.4375 C 1.199219 23.449219 1.207031 23.457031 1.21875 23.46875 C 1.21875 23.46875 1.535156 23.78125 2 23.875 C 2.464844 23.96875 3.160156 23.777344 3.625 23.3125 C 3.664063 23.273438 3.527344 23.238281 3.84375 23.34375 C 4.160156 23.449219 4.820313 23.851563 5.71875 24.75 C 6.53125 25.5625 10.027344 29.625 13.15625 33.71875 C 14.722656 35.765625 16.21875 37.835938 17.3125 39.5625 C 17.859375 40.425781 18.300781 41.191406 18.59375 41.8125 C 18.886719 42.433594 19 42.9375 19 43 C 19 44.652344 20.347656 46 22 46 L 41 46 C 42.652344 46 44 44.652344 44 43 L 44 33.25 C 47.628906 30.613281 50 26.324219 50 21.5 C 50 13.503906 43.496094 7 35.5 7 Z M 35.5 9 C 42.414063 9 48 14.585938 48 21.5 C 48 25.128906 46.457031 28.375 44 30.65625 L 44 24.15625 C 44.003906 24.105469 44.003906 24.050781 44 24 C 44 23.96875 44 23.9375 44 23.90625 L 44 22 C 44 20.347656 42.652344 19 41 19 L 23.25 19 C 24.414063 13.296875 29.445313 9 35.5 9 Z M 6.5 17.1875 L 6.75 17.46875 C 6.296875 18.019531 6.097656 18.875 6.375 19.625 C 6.671875 20.433594 7.292969 21.230469 8.28125 22.21875 C 9.855469 23.792969 12.601563 26.300781 15.03125 28.15625 C 16.246094 29.082031 17.351563 29.835938 18.3125 30.25 C 18.792969 30.457031 19.25 30.664063 19.875 30.53125 C 20.1875 30.464844 20.546875 30.246094 20.75 29.9375 C 20.953125 29.628906 21 29.289063 21 29 L 21 25 L 42 25 L 42 32.5 C 41.976563 32.625 41.976563 32.75 42 32.875 L 42 43 C 42 43.46875 41.46875 44 41 44 L 22 44 C 21.53125 44 21 43.46875 21 43 C 21 42.300781 20.757813 41.703125 20.40625 40.96875 C 20.054688 40.234375 19.574219 39.40625 19 38.5 C 17.851563 36.6875 16.304688 34.574219 14.71875 32.5 C 11.546875 28.351563 8.257813 24.445313 7.15625 23.34375 C 6.140625 22.328125 5.289063 21.710938 4.46875 21.4375 C 3.722656 21.191406 2.9375 21.398438 2.40625 21.8125 L 2.125 21.5625 Z M 22.53125 21 L 41 21 C 41.46875 21 42 21.53125 42 22 L 42 23 L 21 23 L 21 22 C 21 21.617188 21.363281 21.203125 21.75 21.0625 C 22.007813 21.148438 22.289063 21.125 22.53125 21 Z " fill="#000000"/></g></svg>
