<?xml version="1.0" encoding="UTF-8"?>
<svg xmlns="http://www.w3.org/2000/svg" xmlns:xlink="http://www.w3.org/1999/xlink" viewBox="0 0 50 50" version="1.1" fill="#000000"><g id="surface1" fill="#000000"><path style=" " d="M 17.46875 2 C 17.171875 2.0625 16.917969 2.257813 16.78125 2.53125 C 16.78125 2.53125 15 5.921875 15 10.25 C 15 14.347656 16.324219 17.203125 17.5625 20.25 C 18.800781 23.296875 20 26.601563 20 32 C 20 34.230469 19.078125 36.835938 18.09375 39.15625 C 17.601563 40.316406 17.078125 41.410156 16.6875 42.375 C 16.296875 43.339844 16 44.148438 16 45 C 16 46.648438 16.9375 47.6875 16.9375 47.6875 C 17.125 47.886719 17.382813 47.996094 17.65625 48 L 32.34375 48 C 32.617188 47.996094 32.875 47.886719 33.0625 47.6875 C 33.0625 47.6875 34 46.648438 34 45 C 34 44.148438 33.703125 43.347656 33.3125 42.375 C 32.921875 41.402344 32.398438 40.289063 31.90625 39.125 C 30.917969 36.796875 30 34.199219 30 32 C 30 26.628906 31.199219 23.335938 32.4375 20.28125 C 33.675781 17.226563 35 14.347656 35 10.25 C 35 5.921875 33.21875 2.53125 33.21875 2.53125 C 33.046875 2.207031 32.710938 2.003906 32.34375 2 L 17.65625 2 C 17.625 2 17.59375 2 17.5625 2 C 17.53125 2 17.5 2 17.46875 2 Z M 18.34375 4 L 31.65625 4 C 31.972656 4.671875 33 6.984375 33 10.25 C 33 10.511719 32.980469 10.75 32.96875 11 L 24.5 11 C 24.46875 11 24.4375 11 24.40625 11 C 23.855469 11.027344 23.425781 11.496094 23.453125 12.046875 C 23.480469 12.597656 23.949219 13.027344 24.5 13 L 32.75 13 C 32.34375 15.3125 31.484375 17.257813 30.5625 19.53125 C 29.300781 22.644531 28 26.328125 28 32 C 28 34.738281 29.082031 37.515625 30.09375 39.90625 C 30.601563 41.101563 31.078125 42.222656 31.4375 43.125 C 31.796875 44.027344 32 44.757813 32 45 C 32 45.742188 31.824219 45.867188 31.71875 46 L 18.28125 46 C 18.175781 45.867188 18 45.742188 18 45 C 18 44.757813 18.203125 44.019531 18.5625 43.125 C 18.921875 42.230469 19.398438 41.128906 19.90625 39.9375 C 20.921875 37.550781 22 34.761719 22 32 C 22 26.300781 20.699219 22.605469 19.4375 19.5 C 18.515625 17.234375 17.65625 15.304688 17.25 13 L 20.5 13 C 20.859375 13.003906 21.195313 12.816406 21.378906 12.503906 C 21.558594 12.191406 21.558594 11.808594 21.378906 11.496094 C 21.195313 11.183594 20.859375 10.996094 20.5 11 L 17.03125 11 C 17.019531 10.75 17 10.511719 17 10.25 C 17 6.984375 18.027344 4.671875 18.34375 4 Z " fill="#000000"/></g></svg>
