<?xml version="1.0" encoding="UTF-8"?>
<svg xmlns="http://www.w3.org/2000/svg" xmlns:xlink="http://www.w3.org/1999/xlink" viewBox="0 0 50 50" version="1.1" fill="#000000"><g id="surface1" fill="#000000"><path style=" " d="M 39.40625 2 L 39.40625 2.03125 C 35.261719 2.296875 32.40625 4.871094 30.46875 8.28125 C 28.421875 11.882813 27.199219 16.453125 26 20.71875 C 25.375 22.945313 24.355469 26.199219 23.09375 29.03125 C 21.832031 31.863281 20.203125 34.203125 19.03125 34.75 C 17.738281 35.355469 15.1875 35.03125 15.1875 35.03125 L 14.8125 34.9375 L 14.5 35.125 C 14.5 35.125 12.574219 36.253906 10.34375 37.8125 C 8.113281 39.371094 5.585938 41.308594 4.1875 43.28125 C 3.65625 44.03125 3.347656 44.671875 3.1875 45.125 C 3.027344 45.578125 3 45.96875 3 45.96875 L 2.96875 46.75 L 3.75 46.96875 C 3.75 46.96875 4.78125 47.246094 7.53125 47.5 C 10.28125 47.753906 14.816406 48 22 48 C 29.265625 48 33.097656 46.871094 35.28125 44.90625 C 37.464844 42.941406 37.6875 40.339844 38.0625 38.25 C 38.648438 34.972656 38.972656 31.933594 39.34375 29.78125 C 39.433594 29.25 39.527344 29 39.625 28.59375 C 39.632813 28.632813 39.648438 28.648438 39.65625 28.6875 C 39.871094 29.9375 40.085938 31.5625 40.28125 33.34375 C 40.671875 36.894531 40.972656 41.039063 41 43.96875 C 41 43.976563 41 43.992188 41 44 L 42 44 L 43 44.03125 L 43 44 C 43 43.96875 43.171875 38.289063 43.40625 32.15625 C 43.652344 25.703125 47 21.214844 47 16 C 47 11.839844 45.976563 8.4375 44.65625 6.03125 C 43.996094 4.828125 43.238281 3.875 42.5 3.1875 C 41.761719 2.5 41.039063 2 40.125 2 C 39.957031 2 39.789063 2.023438 39.625 2.03125 C 39.550781 2.023438 39.480469 2 39.40625 2 Z M 39.5 4.03125 C 39.5 4.03125 39.539063 4.039063 39.5625 4.1875 C 39.617188 4.539063 39.503906 5.351563 39.25 6.28125 C 38.738281 8.136719 37.6875 10.515625 37 12.21875 C 34.984375 17.214844 33.988281 22.164063 33.46875 26.125 C 32.949219 30.085938 32.886719 33.148438 32.8125 33.9375 C 32.742188 34.691406 32.386719 35.808594 31.75 36.625 C 31.113281 37.441406 30.289063 38 29 38 C 26.429688 38 24.601563 37 21.96875 37 C 21.019531 37 19.796875 37.039063 18.6875 36.96875 C 19.082031 36.875 19.476563 36.75 19.875 36.5625 C 22.105469 35.523438 23.605469 32.828125 24.9375 29.84375 C 26.269531 26.859375 27.292969 23.535156 27.9375 21.25 C 29.140625 16.972656 30.367188 12.539063 32.21875 9.28125 C 33.964844 6.210938 36.105469 4.25 39.5 4.03125 Z M 41.5625 5.0625 C 41.988281 5.554688 42.445313 6.214844 42.875 7 C 44.023438 9.097656 45 12.175781 45 16 C 45 19.703125 42.625 23.835938 41.78125 29.4375 C 41.730469 29.101563 41.675781 28.644531 41.625 28.34375 C 41.511719 27.6875 41.398438 27.125 41.28125 26.65625 C 41.164063 26.1875 41.070313 25.875 40.84375 25.5 L 40.5625 25 L 40 25 C 39.511719 25 39.050781 25.257813 38.75 25.5625 C 38.449219 25.867188 38.253906 26.210938 38.09375 26.59375 C 37.773438 27.363281 37.570313 28.304688 37.375 29.4375 C 36.984375 31.707031 36.664063 34.714844 36.09375 37.90625 C 35.695313 40.121094 35.523438 41.980469 33.9375 43.40625 C 32.351563 44.832031 29.050781 46 22 46 C 14.863281 46 10.390625 45.746094 7.71875 45.5 C 5.9375 45.335938 5.839844 45.273438 5.40625 45.1875 C 5.527344 44.949219 5.570313 44.78125 5.8125 44.4375 C 6.886719 42.921875 9.34375 40.945313 11.5 39.4375 C 12.910156 38.453125 13.882813 37.855469 14.53125 37.46875 C 14.730469 37.730469 14.957031 37.960938 15.21875 38.125 C 15.886719 38.546875 16.667969 38.757813 17.46875 38.875 C 19.066406 39.105469 20.832031 39 21.96875 39 C 24.035156 39 25.953125 40 29 40 C 30.921875 40 32.417969 39.03125 33.34375 37.84375 C 34.269531 36.65625 34.703125 35.273438 34.8125 34.125 L 34.8125 34.03125 C 34.914063 32.890625 34.96875 30.207031 35.46875 26.40625 C 35.976563 22.558594 36.945313 17.75 38.875 12.96875 C 39.539063 11.324219 40.609375 8.914063 41.1875 6.8125 C 41.355469 6.207031 41.503906 5.621094 41.5625 5.0625 Z " fill="#000000"/></g></svg>
